<svg xmlns="http://www.w3.org/2000/svg" xmlns:xlink="http://www.w3.org/1999/xlink" xmlns:inkscape="http://www.inkscape.org/namespaces/inkscape" version="1.1" width="194" height="91" viewBox="0 0 194 91">
<defs>
<path id="font_1_1" d="M.48098756 .3693695C.48098756 .43937684 .44400025 .44337464 .43499757 .44337464 .4099884 .44337464 .38398744 .41638185 .38398744 .39337159 .38398744 .3783722 .3929901 .37036134 .3999939 .36436463 .4269867 .33935548 .43598939 .30734254 .43598939 .28134156 .43598939 .23731995 .37298585 .014251709 .25698854 .014251709 .18199158 .014251709 .18199158 .08427429 .18199158 .10227966 .18199158 .14529419 .19599915 .19630432 .23098755 .28733827 .24699402 .3293457 .25099183 .33935548 .25099183 .35835267 .25099183 .40737916 .21398926 .4423828 .16499329 .4423828 .068984989 .4423828 .0289917 .30033876 .0289917 .28833009 .0289917 .2793274 .035995485 .27633668 .042999269 .27633668 .053985597 .27633668 .054992677 .28233338 .05899048 .29533387 .07998657 .36836244 .11999512 .41737367 .1619873 .41737367 .18199158 .41737367 .18598938 .40437318 .18598938 .3843689 .18598938 .36735536 .18199158 .34934999 .17298889 .3253479 .13699341 .22932434 .11299133 .16529846 .11299133 .11528015 .11299133 .021255494 .18399048-.0107421879 .25299073-.0107421879 .42099-.0107421879 .48098756 .30534364 .48098756 .3693695Z"/>
<path id="font_2_2" d="M.35899354 .6349335C.35899354 .66503909 .35499574 .66503909 .32499696 .66503909 .25898744 .60058596 .15699768 .60058596 .12098694 .60058596V.5615845C.14698792 .5615845 .21299744 .5615845 .272995 .58958438V.08496094C.272995 .051986696 .272995 .038986207 .16999817 .038986207H.1269989V0C.18199158 .0039978029 .2599945 .0039978029 .31599427 .0039978029 .37199403 .0039978029 .44999696 .0039978029 .5049896 0V.038986207H.46199037C.35899354 .038986207 .35899354 .051986696 .35899354 .08496094V.6349335Z"/>
<path id="font_2_3" d="M.5379944 .18702698H.5009918C.49899293 .17301941 .4889984 .10699463 .47399903 .09599304 .46699525 .08999634 .38598634 .08999634 .37199403 .08999634H.18499756L.31298829 .19403076C.34700013 .22103882 .43598939 .28504945 .46699525 .31506349 .49699403 .3450775 .5379944 .39608766 .5379944 .46710206 .5379944 .5920563 .4249878 .66503909 .29100038 .66503909 .1619873 .66503909 .07199097 .58006289 .07199097 .48609925 .07199097 .43510438 .114990238 .42910768 .12599182 .42910768 .15098572 .42910768 .17999268 .44709779 .17999268 .48310853 .17999268 .50509646 .16699219 .5371094 .12298584 .5371094 .1459961 .5880585 .20698548 .6260376 .27598573 .6260376 .3809967 .6260376 .43699647 .5480957 .43699647 .46710206 .43699647 .39608766 .3899994 .32305909 .31999208 .25904847L.08299255 .041992189C.07299805 .03199768 .07199097 .0309906 .07199097 0H.5069885L.5379944 .18702698Z"/>
<path id="font_2_4" d="M.2939911 .33203126C.3789978 .33203126 .43598939 .274765 .43598939 .17237854 .43598939 .062408449 .36999513 .014511108 .29699708 .014511108 .269989 .014511108 .16699219 .020492554 .12199402 .07836914 .16099549 .0823822 .1769867 .10836792 .1769867 .13537598 .1769867 .16937256 .15299988 .19238281 .11999512 .19238281 .09298706 .19238281 .06298828 .17536927 .06298828 .13337708 .06298828 .034469606 .17298889-.021484375 .2999878-.021484375 .44799806-.021484375 .5469971 .07337952 .5469971 .17237854 .5469971 .24562073 .4909973 .3229828 .37199403 .35302735 .45098878 .37902833 .5149994 .44306947 .5149994 .5251007 .5149994 .60505679 .42099 .66503909 .30099488 .66503909 .18399048 .66503909 .09498596 .61105349 .09498596 .5290985 .09498596 .48609925 .12799073 .47409059 .147995 .47409059 .17399597 .47409059 .20098877 .49209596 .20098877 .5270996 .20098877 .5580902 .1789856 .5760956 .1519928 .5800934 .19898987 .6320343 .2899933 .6320343 .29899598 .6320343 .34999085 .6320343 .4139862 .60806277 .4139862 .5251007 .4139862 .47009278 .3829956 .37402345 .2829895 .36802674 .2649994 .36701966 .23799134 .36502076 .22898865 .36502076 .21899414 .36402894 .20799256 .36302186 .20799256 .34802247 .20799256 .33203126 .21899414 .33203126 .23599243 .33203126H.2939911Z"/>
<path id="font_2_5" d="M.56399539 .1640625V.2030487H.44699098V.6448059C.44699098 .6678009 .44699098 .6748047 .42199708 .6748047 .4039917 .6748047 .4019928 .6717987 .3929901 .65979006L.04598999 .2030487V.1640625H.35699464V.08401489C.35699464 .050994874 .35699464 .038986207 .272995 .038986207H.24398804V0C.2639923 .0009918213 .35798646 .0039978029 .4019928 .0039978029 .44599916 .0039978029 .5399933 .0009918213 .55999758 0V.038986207H.5309906C.44699098 .038986207 .44699098 .050994874 .44699098 .08401489V.1640625H.56399539M.3639984 .56585696V.2030487H.08898926L.3639984 .56585696Z"/>
<path id="font_2_6" d="M.16999817 .5549774C.20298767 .54599 .23799134 .5419922 .27198792 .5419922 .2939911 .5419922 .34999085 .5419922 .41299439 .5769806 .42999269 .58699038 .49198915 .6279907 .49198915 .6490326 .49198915 .6620331 .48199464 .66503909 .47799684 .66503909 .47499085 .66503909 .47399903 .66503909 .46299745 .661026 .4269867 .6470337 .37599183 .63298037 .31098939 .63298037 .2619934 .63298037 .20799256 .64201357 .16299439 .6590271 .15299988 .6630249 .14898682 .66503909 .14498902 .66503909 .1309967 .66503909 .1309967 .6540375 .1309967 .6380005V.33787538C.1309967 .32086183 .1309967 .30885316 .14898682 .30885316 .1579895 .30885316 .16099549 .31285096 .16799927 .32086183 .19299317 .35289 .23699951 .38693238 .31498719 .38693238 .43798829 .38693238 .43798829 .23677063 .43798829 .20472718 .43798829 .16567993 .43499757 .10961914 .4019928 .068573 .37098695 .030532837 .32499696 .014511108 .28199769 .014511108 .21299744 .014511108 .14399719 .05255127 .11999512 .11061096 .16899109 .11161804 .1749878 .15066529 .1749878 .16267395 .1749878 .18971253 .1539917 .21372986 .12298584 .21372986 .11399841 .21372986 .07199097 .20872498 .07199097 .15867615 .07199097 .0665741 .15899658-.021484375 .2849884-.021484375 .42199708-.021484375 .5379944 .07557678 .5379944 .20072937 .5379944 .31484986 .44599916 .4189453 .31698609 .4189453 .2519989 .4189453 .20199585 .39793397 .16999817 .37091065V.5549774Z"/>
<path id="font_2_7" d="M.16299439 .33073426C.1639862 .38076783 .1659851 .46383668 .20098877 .52589419 .24499512 .60191348 .31098939 .6320343 .37098695 .6320343 .3939972 .6320343 .43998719 .62802127 .46398927 .5998993 .4269867 .5939026 .42099 .5679016 .42099 .55189517 .42099 .52589419 .43899537 .50390627 .46899415 .50390627 .49899293 .50390627 .5179901 .52290347 .5179901 .55389407 .5179901 .6149597 .47200013 .66503909 .36999513 .66503909 .21499634 .66503909 .06298828 .52989199 .06298828 .31672669 .06298828 .07354736 .17599488-.021484375 .30799867-.021484375 .34700013-.021484375 .4149933-.015487671 .47599793 .043533327 .5079956 .075546268 .5469971 .11558533 .5469971 .2036438 .5469971 .2376709 .54299929 .30171205 .48199464 .3587494 .44699098 .3907776 .40299989 .42578126 .31799317 .42578126 .24798584 .42578126 .19699097 .3897705 .16299439 .33073426M.30699159 .014511108C.1659851 .014511108 .1659851 .18663025 .1659851 .22566223 .1659851 .3117218 .22299195 .3937683 .31298829 .3937683 .36499024 .3937683 .394989 .37275697 .4189911 .34074403 .44699098 .30171205 .44699098 .25668336 .44699098 .2036438 .44699098 .13459778 .44499208 .10057068 .41099549 .060546876 .3869934 .030517579 .35499574 .014511108 .30699159 .014511108Z"/>
<path id="font_2_8" d="M.57099917 .60369876C.5799866 .6137085 .5799866 .6157074 .5799866 .6437073H.32199098C.2809906 .6437073 .25698854 .64471438 .21798706 .64772036 .16899109 .6507416 .15699768 .65174868 .1519928 .67578127H.114990238L.07899475 .45666505H.115997318C.11898804 .4776764 .1289978 .5366974 .14399719 .547699 .1519928 .55371096 .23799134 .55371096 .25299073 .55371096H.47898866C.46798707 .53970339 .4139862 .4756775 .3899994 .44667054 .29299928 .32962037 .22499085 .1875763 .22499085 .03552246 .22499085 .026519776 .22499085-.021484375 .272995-.021484375 .32199098-.021484375 .32199098 .024520874 .32199098 .037521364V.0655365C.32199098 .25759889 .36299134 .3556366 .41299439 .41566468L.57099917 .60369876Z"/>
<path id="font_2_9" d="M.3849945 .36080934C.45899964 .39382936 .5149994 .4428711 .5149994 .51493838 .5149994 .61302188 .4099884 .66503909 .30599977 .66503909 .19299317 .66503909 .09498596 .5970001 .09498596 .49591065 .09498596 .4338684 .13598633 .38581849 .17799378 .36080934 .18798828 .35479737 .21199036 .34178163 .22200012 .3357849 .1559906 .3107605 .06298828 .25471498 .06298828 .15362549 .06298828 .03652954 .18798828-.021484375 .3039856-.021484375 .43699647-.021484375 .5469971 .058547975 .5469971 .16964722 .5469971 .23869324 .5049896 .27973939 .48999024 .29475404 .47099305 .3127594 .42099 .3407898 .3849945 .36080934M.20399475 .45988465C.20199585 .46089173 .15098572 .48890687 .15098572 .5349579 .15098572 .6000061 .22999573 .6320343 .3039856 .6320343 .38198854 .6320343 .45899964 .58898928 .45899964 .5139313 .45899964 .4368744 .37599183 .39582826 .34799195 .38182069L.20399475 .45988465M.2619934 .3147583C.272995 .3087616 .37998963 .248703 .40699769 .23469544 .42799378 .22167969 .48298646 .19166565 .48298646 .13461304 .48298646 .055541994 .3909912 .014511108 .30599977 .014511108 .21299744 .014511108 .1269989 .06855774 .1269989 .15362549 .1269989 .23869324 .20698548 .29475404 .2619934 .3147583Z"/>
<path id="font_2_10" d="M.44699098 .31478883C.44699098 .23873902 .43998719 .16366577 .4039917 .103637699 .3789978 .06463623 .33099366 .014511108 .25299073 .014511108 .22999573 .014511108 .17599488 .01751709 .147995 .043640138 .17999268 .05064392 .18899536 .072647098 .18899536 .09164429 .18899536 .11764526 .17098999 .13964844 .14099121 .13964844 .11099243 .13964844 .09199524 .12063599 .09199524 .089645389 .09199524 .008514404 .16699219-.021484375 .2539978-.021484375 .4079895-.021484375 .5469971 .118637088 .5469971 .32780458 .5469971 .5709839 .43598939 .66503909 .30799867 .66503909 .1789856 .66503909 .06298828 .5729828 .06298828 .44088746 .06298828 .36582948 .09098816 .3237915 .1269989 .2877655 .17098999 .24473572 .21899414 .21875 .2919922 .21875 .3789978 .21875 .42599488 .27575685 .44699098 .31478883M.29699708 .25074769C.23498535 .25074769 .20799256 .2817688 .19198609 .30278016 .1639862 .34080506 .16299439 .3838501 .16299439 .44088746 .16299439 .49993897 .16299439 .5389557 .19599915 .5799866 .22399903 .6140137 .25698854 .6320343 .30899049 .6320343 .44400025 .6320343 .44400025 .46090699 .44400025 .42086793 .44400025 .33081056 .3849945 .25074769 .29699708 .25074769Z"/>
<path id="font_2_1" d="M.5499878 .31877137C.5499878 .39183045 .5499878 .66503909 .30499269 .66503909 .05999756 .66503909 .05999756 .39183045 .05999756 .31877137 .05999756 .2467041 .05999756-.021484375 .30499269-.021484375 .5499878-.021484375 .5499878 .2467041 .5499878 .31877137M.30499269 .010513306C.2630005 .010513306 .19499207 .030517579 .17098999 .113601688 .15499878 .17164612 .15499878 .2697296 .15499878 .33177186 .15499878 .39883424 .15499878 .4758911 .16899109 .52993777 .19400025 .6200104 .269989 .6330261 .30499269 .6330261 .35099793 .6330261 .4169922 .6110077 .43899537 .5349426 .45399476 .48190309 .45498658 .408844 .45498658 .33177186 .45498658 .26771546 .45498658 .16664124 .43798829 .1105957 .4099884 .023513794 .33799745 .010513306 .30499269 .010513306Z"/>
<path id="font_3_2" d="M.397995 .63591006C.397995 .6660156 .394989 .6660156 .3619995 .6660156 .29100038 .6016083 .17999268 .6016083 .1599884 .6016083H.14299011V.5576172H.1599884C.18299866 .5576172 .24798584 .5606079 .30599977 .58561709V.08596802C.30599977 .054977418 .30599977 .04399109 .19999695 .04399109H.1499939V0C.20498657 .0039978029 .2939911 .0039978029 .35198976 .0039978029 .4099884 .0039978029 .49899293 .0039978029 .55400088 0V.04399109H.5039978C.397995 .04399109 .397995 .054977418 .397995 .08596802V.63591006Z"/>
<path id="font_3_1" d="M.6009979 .31976319C.6009979 .3918152 .6009979 .6660156 .33999635 .6660156 .07899475 .6660156 .07899475 .3918152 .07899475 .31976319 .07899475 .2467041 .07899475-.022460938 .33999635-.022460938 .6009979-.022460938 .6009979 .2467041 .6009979 .31976319M.33999635 .010528564C.30299378 .010528564 .21899414 .023544312 .19400025 .12461853 .17999268 .17866516 .1789856 .24971009 .1789856 .33177186 .1789856 .405838 .1789856 .47488404 .19499207 .5319214 .21998596 .6159973 .29699708 .63301089 .33999635 .63301089 .4139862 .63301089 .46699525 .5949707 .4869995 .5249176 .5009918 .47387696 .5009918 .39082337 .5009918 .33177186 .5009918 .26371766 .5009918 .18266297 .48599244 .12261963 .45999146 .025543213 .37998963 .010528564 .33999635 .010528564Z"/>
<path id="font_3_3" d="M.58898928 .19296265H.5469971C.5439911 .17396546 .5339966 .11198425 .5179901 .101989749 .5099945 .09599304 .42599488 .09599304 .41099549 .09599304H.21499634C.2809906 .14497376 .35499574 .20095825 .4149933 .24093628 .5049896 .30291749 .58898928 .36090089 .58898928 .46687318 .58898928 .59495547 .46798707 .6660156 .32499696 .6660156 .18998719 .6660156 .09098816 .58795168 .09098816 .48986817 .09098816 .4378662 .1349945 .42886354 .14898682 .42886354 .17599488 .42886354 .20799256 .4468689 .20799256 .48786927 .20799256 .52386477 .18199158 .543869 .15098572 .546875 .1789856 .59194949 .23699951 .6220093 .3039856 .6220093 .40098573 .6220093 .48199464 .5639038 .48199464 .4658661 .48199464 .3818817 .42399598 .31791688 .34700013 .2529297L.102996829 .04598999C.09298706 .036987306 .09199524 .036987306 .09098816 .02999878V0H.55599978L.58898928 .19296265Z"/>
<path id="font_3_7" d="M.42900086 .36079408C.5319977 .40382386 .5649872 .45687867 .5649872 .513916 .5649872 .6179962 .44999696 .6660156 .34098817 .6660156 .21699524 .6660156 .114990238 .5959778 .114990238 .4958954 .114990238 .40382386 .19400025 .36279298 .24598694 .3357849 .13999939 .29473878 .07998657 .23570252 .07998657 .15364075 .07998657 .03353882 .21299744-.022460938 .33898927-.022460938 .47898866-.022460938 .59999087 .05255127 .59999087 .1706543 .59999087 .27973939 .49598695 .33078004 .42900086 .36079408M.23298645 .46287538C.18998719 .4848938 .1769867 .51091006 .1769867 .53492739 .1769867 .59898379 .25898744 .628006 .33898927 .628006 .4189911 .628006 .5029907 .588974 .5029907 .51290896 .5029907 .42485047 .3889923 .38381959 .3880005 .38381959 .3869934 .38381959 .38598634 .38381959 .3769989 .38882447L.23298645 .46287538M.2889862 .31376649 .44400025 .23469544C.47999574 .21568299 .5309906 .18865967 .5309906 .1346283 .5309906 .05355835 .42999269 .01852417 .34098817 .01852417 .25 .01852417 .14898682 .063568118 .14898682 .15463257 .14898682 .2537079 .25698854 .29974366 .2889862 .31376649Z"/>
<path id="font_3_8" d="M.49398805 .31782533C.49398805 .25479127 .48999024 .17860413 .45599366 .1194458 .4229889 .061447145 .3639984 .01852417 .2829895 .01852417 .27198792 .01852417 .21099854 .01852417 .1769867 .04244995 .20199585 .049453737 .21699524 .06845093 .21699524 .094451908 .21699524 .12644959 .19299317 .14746094 .1639862 .14746094 .14698792 .14746094 .11099243 .13845825 .11099243 .09144592 .11099243-.022460938 .2579956-.022460938 .2849884-.022460938 .45298768-.022460938 .59999087 .12045288 .59999087 .32783509 .59999087 .5699768 .48199464 .6660156 .34399415 .6660156 .24398804 .6660156 .19499207 .63101199 .15499878 .59698489 .09298706 .5459595 .07998657 .49093629 .07998657 .43989564 .07998657 .38287355 .09700012 .3318329 .15098572 .2848053 .19799805 .2427826 .24398804 .21679688 .32899476 .21679688 .36999513 .21679688 .44198609 .23078919 .49398805 .31782533M.33099366 .25079347C.29100038 .25079347 .25299073 .25779725 .21699524 .30282594 .18699646 .33984376 .18598938 .38085938 .18598938 .43989564 .18598938 .51194766 .18899536 .54196169 .22698975 .5819855 .24198914 .598999 .27198792 .628006 .34399415 .628006 .4909973 .628006 .4909973 .46290589 .4909973 .41989137 .4909973 .33683778 .43199159 .25079347 .33099366 .25079347Z"/>
<path id="font_3_4" d="M.32998658 .3310547C.42199708 .3310547 .48298646 .2737732 .48298646 .17437744 .48298646 .07237244 .41999818 .01852417 .33099366 .01852417 .31999208 .01852417 .20098877 .01852417 .1499939 .070373538 .19099427 .07637024 .20298767 .1073761 .20298767 .13137818 .20298767 .16838074 .1749878 .19238281 .14199829 .19238281 .10998535 .19238281 .07998657 .17137146 .07998657 .12937927 .07998657 .025512696 .19799805-.022460938 .33399964-.022460938 .49798585-.022460938 .59999087 .07637024 .59999087 .17337036 .59999087 .25567628 .5269928 .3260193 .41299439 .35205079 .5329895 .3909912 .5649872 .46684266 .5649872 .5228424 .5649872 .60491946 .46299745 .6660156 .33699037 .6660156 .21398926 .6660156 .114990238 .61395266 .114990238 .5238342 .114990238 .47683717 .15299988 .46484376 .17199707 .46484376 .20098877 .46484376 .22898865 .48583985 .22898865 .5218353 .22898865 .5448303 .21699524 .5728302 .18099976 .57884219 .22399903 .625 .31298829 .628006 .33399964 .628006 .40699769 .628006 .45899964 .5908661 .45899964 .5228424 .45899964 .46484376 .42099 .37402345 .31599427 .368042 .28799439 .3670349 .28399659 .3660431 .2579956 .365036 .24699402 .3640442 .23599243 .36305238 .23599243 .34805299 .23599243 .3310547 .24598694 .3310547 .2639923 .3310547H.32998658Z"/>
<path id="font_3_6" d="M.625 .59983828C.6339874 .60884097 .6339874 .61083987 .6349945 .6158447V.6438446H.3929901C.36698915 .6438446 .22099304 .64782717 .20298767 .6508026 .17999268 .655777 .1789856 .6657715 .1769867 .67578127H.1349945L.09700012 .4507904H.13899231C.14099121 .4657898 .1519928 .530838 .16899109 .5418396 .1749878 .5468445 .2689972 .54785159 .28399659 .54785159H.5219879C.47999574 .4988098 .42599488 .44477845 .3869934 .39575196 .2679901 .2436676 .25299073 .099594119 .25299073 .03855896 .25299073-.016464234 .28799439-.022460938 .30599977-.022460938 .35899354-.022460938 .35899354 .028549195 .35899354 .04055786V.060562135C.35899354 .23866272 .39698792 .34872438 .45700074 .4147644L.625 .59983828Z"/>
<path id="font_3_5" d="M.61698916 .1630249V.20703125H.49198915V.64675906C.49198915 .67074587 .4909973 .6767578 .46499635 .6767578 .44499208 .6767578 .44400025 .67575076 .43299867 .66174319L.06298828 .20703125V.1630249H.3959961V.085006717C.3959961 .054000856 .3959961 .04399109 .30899049 .04399109H.27398683V0C.32099916 .0019989014 .38598634 .0039978029 .44400025 .0039978029 .5019989 .0039978029 .56599429 .0019989014 .6139984 0V.04399109H.57899478C.49198915 .04399109 .49198915 .054000856 .49198915 .085006717V.1630249H.61698916M.4039917 .5688019V.20703125H.10998535L.4039917 .5688019Z"/>
</defs>
<path transform="matrix(1.00005,0,0,-1.00008,12.059647,45.781385)" d="M9.96277 17.00824C9.96277 22.51059 5.50235 26.97101 0 26.97101-5.50235 26.97101-9.96277 22.51059-9.96277 17.00824-9.96277 11.50589-5.50235 7.04547 0 7.04547 5.50235 7.04547 9.96277 11.50589 9.96277 17.00824ZM0 17.00824" fill="#7f807f" fill-opacity=".3"/>
<path transform="matrix(1.00005,0,0,-1.00008,12.059647,45.781385)" stroke-width=".3985" stroke-linecap="butt" stroke-miterlimit="10" stroke-linejoin="miter" fill="none" stroke="#000000" d="M9.96277 17.00824C9.96277 22.51059 5.50235 26.97101 0 26.97101-5.50235 26.97101-9.96277 22.51059-9.96277 17.00824-9.96277 11.50589-5.50235 7.04547 0 7.04547 5.50235 7.04547 9.96277 11.50589 9.96277 17.00824ZM0 17.00824"/>
<use data-text="v" xlink:href="#font_1_1" transform="matrix(8.966848,0,0,-8.967117,7.74543,30.204138)"/>
<use data-text="1" xlink:href="#font_2_2" transform="matrix(5.9778988,0,0,-5.9780786,12.221657,31.200219)"/>
<path transform="matrix(1.00005,0,0,-1.00008,12.059647,45.781385)" d="M9.96277-17.00824C9.96277-11.50589 5.50235-7.04547 0-7.04547-5.50235-7.04547-9.96277-11.50589-9.96277-17.00824-9.96277-22.51059-5.50235-26.97101 0-26.97101 5.50235-26.97101 9.96277-22.51059 9.96277-17.00824ZM0-17.00824" fill="#7f807f" fill-opacity=".3"/>
<path transform="matrix(1.00005,0,0,-1.00008,12.059647,45.781385)" stroke-width=".3985" stroke-linecap="butt" stroke-miterlimit="10" stroke-linejoin="miter" fill="none" stroke="#000000" d="M9.96277-17.00824C9.96277-11.50589 5.50235-7.04547 0-7.04547-5.50235-7.04547-9.96277-11.50589-9.96277-17.00824-9.96277-22.51059-5.50235-26.97101 0-26.97101 5.50235-26.97101 9.96277-22.51059 9.96277-17.00824ZM0-17.00824"/>
<use data-text="v" xlink:href="#font_1_1" transform="matrix(8.966848,0,0,-8.967117,7.74543,64.22286)"/>
<use data-text="2" xlink:href="#font_2_3" transform="matrix(5.9778988,0,0,-5.9780786,12.221657,65.21894)"/>
<path transform="matrix(1.00005,0,0,-1.00008,12.059647,45.781385)" d="M66.65639-34.0165C66.65639-28.51414 62.19597-24.05373 56.69362-24.05373 51.19125-24.05373 46.73085-28.51414 46.73085-34.0165 46.73085-39.51886 51.19125-43.97926 56.69362-43.97926 62.19597-43.97926 66.65639-39.51886 66.65639-34.0165ZM56.69362-34.0165" fill="#7f807f" fill-opacity=".3"/>
<path transform="matrix(1.00005,0,0,-1.00008,12.059647,45.781385)" stroke-width=".3985" stroke-linecap="butt" stroke-miterlimit="10" stroke-linejoin="miter" fill="none" stroke="#000000" d="M66.65639-34.0165C66.65639-28.51414 62.19597-24.05373 56.69362-24.05373 51.19125-24.05373 46.73085-28.51414 46.73085-34.0165 46.73085-39.51886 51.19125-43.97926 56.69362-43.97926 62.19597-43.97926 66.65639-39.51886 66.65639-34.0165ZM56.69362-34.0165"/>
<use data-text="v" xlink:href="#font_1_1" transform="matrix(8.966848,0,0,-8.967117,64.44226,81.23322)"/>
<use data-text="3" xlink:href="#font_2_4" transform="matrix(5.9778988,0,0,-5.9780786,68.91849,82.2293)"/>
<path transform="matrix(1.00005,0,0,-1.00008,12.059647,45.781385)" d="M66.65639 0C66.65639 5.50235 62.19597 9.96277 56.69362 9.96277 51.19125 9.96277 46.73085 5.50235 46.73085 0 46.73085-5.50235 51.19125-9.96277 56.69362-9.96277 62.19597-9.96277 66.65639-5.50235 66.65639 0ZM56.69362 0" fill="#7f807f" fill-opacity=".3"/>
<path transform="matrix(1.00005,0,0,-1.00008,12.059647,45.781385)" stroke-width=".3985" stroke-linecap="butt" stroke-miterlimit="10" stroke-linejoin="miter" fill="none" stroke="#000000" d="M66.65639 0C66.65639 5.50235 62.19597 9.96277 56.69362 9.96277 51.19125 9.96277 46.73085 5.50235 46.73085 0 46.73085-5.50235 51.19125-9.96277 56.69362-9.96277 62.19597-9.96277 66.65639-5.50235 66.65639 0ZM56.69362 0"/>
<use data-text="v" xlink:href="#font_1_1" transform="matrix(8.966848,0,0,-8.967117,64.44226,47.2135)"/>
<use data-text="4" xlink:href="#font_2_5" transform="matrix(5.9778988,0,0,-5.9780786,68.91849,48.20958)"/>
<path transform="matrix(1.00005,0,0,-1.00008,12.059647,45.781385)" d="M66.65639 34.0165C66.65639 39.51886 62.19597 43.97926 56.69362 43.97926 51.19125 43.97926 46.73085 39.51886 46.73085 34.0165 46.73085 28.51414 51.19125 24.05373 56.69362 24.05373 62.19597 24.05373 66.65639 28.51414 66.65639 34.0165ZM56.69362 34.0165" fill="#7f807f" fill-opacity=".3"/>
<path transform="matrix(1.00005,0,0,-1.00008,12.059647,45.781385)" stroke-width=".3985" stroke-linecap="butt" stroke-miterlimit="10" stroke-linejoin="miter" fill="none" stroke="#000000" d="M66.65639 34.0165C66.65639 39.51886 62.19597 43.97926 56.69362 43.97926 51.19125 43.97926 46.73085 39.51886 46.73085 34.0165 46.73085 28.51414 51.19125 24.05373 56.69362 24.05373 62.19597 24.05373 66.65639 28.51414 66.65639 34.0165ZM56.69362 34.0165"/>
<use data-text="v" xlink:href="#font_1_1" transform="matrix(8.966848,0,0,-8.967117,64.44226,13.194778)"/>
<use data-text="5" xlink:href="#font_2_6" transform="matrix(5.9778988,0,0,-5.9780786,68.91849,14.190859)"/>
<path transform="matrix(1.00005,0,0,-1.00008,12.059647,45.781385)" d="M123.35-34.0165C123.35-28.51414 118.88959-24.05373 113.38724-24.05373 107.88487-24.05373 103.42447-28.51414 103.42447-34.0165 103.42447-39.51886 107.88487-43.97926 113.38724-43.97926 118.88959-43.97926 123.35-39.51886 123.35-34.0165ZM113.38724-34.0165" fill="#7f807f" fill-opacity=".3"/>
<path transform="matrix(1.00005,0,0,-1.00008,12.059647,45.781385)" stroke-width=".3985" stroke-linecap="butt" stroke-miterlimit="10" stroke-linejoin="miter" fill="none" stroke="#000000" d="M123.35-34.0165C123.35-28.51414 118.88959-24.05373 113.38724-24.05373 107.88487-24.05373 103.42447-28.51414 103.42447-34.0165 103.42447-39.51886 107.88487-43.97926 113.38724-43.97926 118.88959-43.97926 123.35-39.51886 123.35-34.0165ZM113.38724-34.0165"/>
<use data-text="v" xlink:href="#font_1_1" transform="matrix(8.966848,0,0,-8.967117,121.13909,81.23322)"/>
<use data-text="6" xlink:href="#font_2_7" transform="matrix(5.9778988,0,0,-5.9780786,125.61532,82.2293)"/>
<path transform="matrix(1.00005,0,0,-1.00008,12.059647,45.781385)" d="M123.35 0C123.35 5.50235 118.88959 9.96277 113.38724 9.96277 107.88487 9.96277 103.42447 5.50235 103.42447 0 103.42447-5.50235 107.88487-9.96277 113.38724-9.96277 118.88959-9.96277 123.35-5.50235 123.35 0ZM113.38724 0" fill="#7f807f" fill-opacity=".3"/>
<path transform="matrix(1.00005,0,0,-1.00008,12.059647,45.781385)" stroke-width=".3985" stroke-linecap="butt" stroke-miterlimit="10" stroke-linejoin="miter" fill="none" stroke="#000000" d="M123.35 0C123.35 5.50235 118.88959 9.96277 113.38724 9.96277 107.88487 9.96277 103.42447 5.50235 103.42447 0 103.42447-5.50235 107.88487-9.96277 113.38724-9.96277 118.88959-9.96277 123.35-5.50235 123.35 0ZM113.38724 0"/>
<use data-text="v" xlink:href="#font_1_1" transform="matrix(8.966848,0,0,-8.967117,121.13909,47.2135)"/>
<use data-text="7" xlink:href="#font_2_8" transform="matrix(5.9778988,0,0,-5.9780786,125.61532,48.20958)"/>
<path transform="matrix(1.00005,0,0,-1.00008,12.059647,45.781385)" d="M123.35 34.0165C123.35 39.51886 118.88959 43.97926 113.38724 43.97926 107.88487 43.97926 103.42447 39.51886 103.42447 34.0165 103.42447 28.51414 107.88487 24.05373 113.38724 24.05373 118.88959 24.05373 123.35 28.51414 123.35 34.0165ZM113.38724 34.0165" fill="#7f807f" fill-opacity=".3"/>
<path transform="matrix(1.00005,0,0,-1.00008,12.059647,45.781385)" stroke-width=".3985" stroke-linecap="butt" stroke-miterlimit="10" stroke-linejoin="miter" fill="none" stroke="#000000" d="M123.35 34.0165C123.35 39.51886 118.88959 43.97926 113.38724 43.97926 107.88487 43.97926 103.42447 39.51886 103.42447 34.0165 103.42447 28.51414 107.88487 24.05373 113.38724 24.05373 118.88959 24.05373 123.35 28.51414 123.35 34.0165ZM113.38724 34.0165"/>
<use data-text="v" xlink:href="#font_1_1" transform="matrix(8.966848,0,0,-8.967117,121.13909,13.194778)"/>
<use data-text="8" xlink:href="#font_2_9" transform="matrix(5.9778988,0,0,-5.9780786,125.61532,14.190859)"/>
<path transform="matrix(1.00005,0,0,-1.00008,12.059647,45.781385)" d="M180.04363-17.00824C180.04363-11.50589 175.5832-7.04547 170.08086-7.04547 164.57849-7.04547 160.11809-11.50589 160.11809-17.00824 160.11809-22.51059 164.57849-26.97101 170.08086-26.97101 175.5832-26.97101 180.04363-22.51059 180.04363-17.00824ZM170.08086-17.00824" fill="#7f807f" fill-opacity=".3"/>
<path transform="matrix(1.00005,0,0,-1.00008,12.059647,45.781385)" stroke-width=".3985" stroke-linecap="butt" stroke-miterlimit="10" stroke-linejoin="miter" fill="none" stroke="#000000" d="M180.04363-17.00824C180.04363-11.50589 175.5832-7.04547 170.08086-7.04547 164.57849-7.04547 160.11809-11.50589 160.11809-17.00824 160.11809-22.51059 164.57849-26.97101 170.08086-26.97101 175.5832-26.97101 180.04363-22.51059 180.04363-17.00824ZM170.08086-17.00824"/>
<use data-text="v" xlink:href="#font_1_1" transform="matrix(8.966848,0,0,-8.967117,177.83493,64.22286)"/>
<use data-text="9" xlink:href="#font_2_10" transform="matrix(5.9778988,0,0,-5.9780786,182.31116,65.21894)"/>
<path transform="matrix(1.00005,0,0,-1.00008,12.059647,45.781385)" d="M180.04363 17.00824C180.04363 22.51059 175.5832 26.97101 170.08086 26.97101 164.57849 26.97101 160.11809 22.51059 160.11809 17.00824 160.11809 11.50589 164.57849 7.04547 170.08086 7.04547 175.5832 7.04547 180.04363 11.50589 180.04363 17.00824ZM170.08086 17.00824" fill="#7f807f" fill-opacity=".3"/>
<path transform="matrix(1.00005,0,0,-1.00008,12.059647,45.781385)" stroke-width=".3985" stroke-linecap="butt" stroke-miterlimit="10" stroke-linejoin="miter" fill="none" stroke="#000000" d="M180.04363 17.00824C180.04363 22.51059 175.5832 26.97101 170.08086 26.97101 164.57849 26.97101 160.11809 22.51059 160.11809 17.00824 160.11809 11.50589 164.57849 7.04547 170.08086 7.04547 175.5832 7.04547 180.04363 11.50589 180.04363 17.00824ZM170.08086 17.00824"/>
<use data-text="v" xlink:href="#font_1_1" transform="matrix(8.966848,0,0,-8.967117,176.00884,30.204138)"/>
<use data-text="1" xlink:href="#font_2_2" transform="matrix(5.9778988,0,0,-5.9780786,180.48506,31.200219)"/>
<use data-text="0" xlink:href="#font_2_1" transform="matrix(5.9778988,0,0,-5.9780786,184.13755,31.200219)"/>
<path transform="matrix(1.00005,0,0,-1.00008,12.059647,45.781385)" stroke-width=".3985" stroke-linecap="butt" stroke-miterlimit="10" stroke-linejoin="miter" fill="none" stroke="#000000" d="M9.73296 19.92818 46.52173 30.96489"/>
<path transform="matrix(.95782789,-.28736297,-.28735436,-.9578566,58.58368,14.814016)" stroke-width=".31879" stroke-linecap="round" stroke-linejoin="round" fill="none" stroke="#000000" d="M-1.19551 1.59401C-1.09587 .99626 0 .09961 .29886 0 0-.09961-1.09587-.99626-1.19551-1.59401"/>
<use data-text="1" xlink:href="#font_3_2" transform="matrix(4.771228,-1.4314411,-1.4313982,-4.771371,30.56504,19.545193)"/>
<use data-text="1" xlink:href="#font_3_2" transform="matrix(4.771228,-1.4314411,-1.4313982,-4.771371,33.809488,18.571812)"/>
<path transform="matrix(1.00005,0,0,-1.00008,12.059647,45.781385)" stroke-width=".3985" stroke-linecap="butt" stroke-miterlimit="10" stroke-linejoin="miter" fill="none" stroke="#000000" d="M9.73296 14.0883 46.52173 3.0516"/>
<path transform="matrix(.95782789,.28736297,.28735436,-.9578566,58.58368,42.729539)" stroke-width=".31879" stroke-linecap="round" stroke-linejoin="round" fill="none" stroke="#000000" d="M-1.19551 1.59401C-1.09587 .99626 0 .09961 .29886 0 0-.09961-1.09587-.99626-1.19551-1.59401"/>
<use data-text="1" xlink:href="#font_3_2" transform="matrix(4.771228,1.4314411,1.4313982,-4.771371,49.34114,36.28167)"/>
<use data-text="0" xlink:href="#font_3_1" transform="matrix(4.771228,1.4314411,1.4313982,-4.771371,52.58557,37.25505)"/>
<path transform="matrix(1.00005,0,0,-1.00008,12.059647,45.781385)" stroke-width=".3985" stroke-linecap="butt" stroke-miterlimit="10" stroke-linejoin="miter" fill="none" stroke="#000000" d="M7.55313 10.21042 48.79987-26.91211"/>
<path transform="matrix(.7433071,.66900357,.66898348,-.7433294,60.861955,72.69565)" stroke-width=".31879" stroke-linecap="round" stroke-linejoin="round" fill="none" stroke="#000000" d="M-1.19551 1.59401C-1.09587 .99626 0 .09961 .29886 0 0-.09961-1.09587-.99626-1.19551-1.59401"/>
<use data-text="1" xlink:href="#font_3_2" transform="matrix(3.7026356,3.3325074,3.3324073,-3.7027467,49.537805,57.768457)"/>
<use data-text="2" xlink:href="#font_3_3" transform="matrix(3.7026356,3.3325074,3.3324073,-3.7027467,52.055597,60.03456)"/>
<path transform="matrix(1.00005,0,0,-1.00008,12.059647,45.781385)" stroke-width=".3985" stroke-linecap="butt" stroke-miterlimit="10" stroke-linejoin="miter" fill="none" stroke="#000000" d="M7.55313-10.21042 48.79987 26.91211"/>
<path transform="matrix(.7433071,-.66900357,-.66898348,-.7433294,60.861955,18.86712)" stroke-width=".31879" stroke-linecap="round" stroke-linejoin="round" fill="none" stroke="#000000" d="M-1.19551 1.59401C-1.09587 .99626 0 .09961 .29886 0 0-.09961-1.09587-.99626-1.19551-1.59401"/>
<use data-text="8" xlink:href="#font_3_7" transform="matrix(3.7026356,-3.3325074,-3.3324073,-3.7027467,55.84448,32.43779)"/>
<path transform="matrix(1.00005,0,0,-1.00008,12.059647,45.781385)" stroke-width=".3985" stroke-linecap="butt" stroke-miterlimit="10" stroke-linejoin="miter" fill="none" stroke="#000000" d="M9.73296-14.0883 46.52173-3.0516"/>
<path transform="matrix(.95782789,-.28736297,-.28735436,-.9578566,58.58368,48.83323)" stroke-width=".31879" stroke-linecap="round" stroke-linejoin="round" fill="none" stroke="#000000" d="M-1.19551 1.59401C-1.09587 .99626 0 .09961 .29886 0 0-.09961-1.09587-.99626-1.19551-1.59401"/>
<use data-text="1" xlink:href="#font_3_2" transform="matrix(4.771228,-1.4314411,-1.4313982,-4.771371,47.31788,48.537515)"/>
<use data-text="2" xlink:href="#font_3_3" transform="matrix(4.771228,-1.4314411,-1.4313982,-4.771371,50.562326,47.564134)"/>
<path transform="matrix(1.00005,0,0,-1.00008,12.059647,45.781385)" stroke-width=".3985" stroke-linecap="butt" stroke-miterlimit="10" stroke-linejoin="miter" fill="none" stroke="#000000" d="M9.73296-19.92818 46.52173-30.96489"/>
<path transform="matrix(.95782789,.28736297,.28735436,-.9578566,58.58368,76.74875)" stroke-width=".31879" stroke-linecap="round" stroke-linejoin="round" fill="none" stroke="#000000" d="M-1.19551 1.59401C-1.09587 .99626 0 .09961 .29886 0 0-.09961-1.09587-.99626-1.19551-1.59401"/>
<use data-text="9" xlink:href="#font_3_8" transform="matrix(4.771228,1.4314411,1.4313982,-4.771371,31.85527,75.75683)"/>
<path transform="matrix(1.00005,0,0,-1.00008,12.059647,45.781385)" stroke-width=".3985" stroke-linecap="butt" stroke-miterlimit="10" stroke-linejoin="miter" fill="none" stroke="#000000" d="M66.85564 34.0165H102.76694"/>
<path transform="matrix(1.00005,0,0,-1.00008,114.83172,11.762165)" stroke-width=".31879" stroke-linecap="round" stroke-linejoin="round" fill="none" stroke="#000000" d="M-1.19551 1.59401C-1.09587 .99626 0 .09961 .29886 0 0-.09961-1.09587-.99626-1.19551-1.59401"/>
<use data-text="8" xlink:href="#font_3_7" transform="matrix(4.981549,0,0,-4.9816987,102.683177,8.242382)"/>
<path transform="matrix(1.00005,0,0,-1.00008,12.059647,45.781385)" stroke-width=".3985" stroke-linecap="butt" stroke-miterlimit="10" stroke-linejoin="miter" fill="none" stroke="#000000" d="M65.4072 28.7882 104.28069 5.46407"/>
<path transform="matrix(.85751286,.51454117,.5145257,-.8575386,116.34555,40.316869)" stroke-width=".31879" stroke-linecap="round" stroke-linejoin="round" fill="none" stroke="#000000" d="M-1.19551 1.59401C-1.09587 .99626 0 .09961 .29886 0 0-.09961-1.09587-.99626-1.19551-1.59401"/>
<use data-text="1" xlink:href="#font_3_2" transform="matrix(4.2715289,2.5630837,2.5630069,-4.271657,84.22717,16.940674)"/>
<use data-text="2" xlink:href="#font_3_3" transform="matrix(4.2715289,2.5630837,2.5630069,-4.271657,87.13181,18.68357)"/>
<path transform="matrix(1.00005,0,0,-1.00008,12.059647,45.781385)" stroke-width=".3985" stroke-linecap="butt" stroke-miterlimit="10" stroke-linejoin="miter" fill="none" stroke="#000000" d="M63.19884 26.21016 106.58864-25.85814"/>
<path transform="matrix(.64018198,.7682515,.7682284,-.6402012,118.65361,71.641597)" stroke-width=".31879" stroke-linecap="round" stroke-linejoin="round" fill="none" stroke="#000000" d="M-1.19551 1.59401C-1.09587 .99626 0 .09961 .29886 0 0-.09961-1.09587-.99626-1.19551-1.59401"/>
<use data-text="3" xlink:href="#font_3_4" transform="matrix(3.1889384,3.826891,3.826776,-3.1890343,115.16698,61.95955)"/>
<path transform="matrix(1.00005,0,0,-1.00008,12.059647,45.781385)" stroke-width=".3985" stroke-linecap="butt" stroke-miterlimit="10" stroke-linejoin="miter" fill="none" stroke="#000000" d="M65.4072 5.2283 104.28069 28.55243"/>
<path transform="matrix(.85751286,-.51454117,-.5145257,-.8575386,116.34555,17.22669)" stroke-width=".31879" stroke-linecap="round" stroke-linejoin="round" fill="none" stroke="#000000" d="M-1.19551 1.59401C-1.09587 .99626 0 .09961 .29886 0 0-.09961-1.09587-.99626-1.19551-1.59401"/>
<use data-text="1" xlink:href="#font_3_2" transform="matrix(4.2715289,-2.5630837,-2.5630069,-4.271657,98.24164,23.984532)"/>
<use data-text="0" xlink:href="#font_3_1" transform="matrix(4.2715289,-2.5630837,-2.5630069,-4.271657,101.14628,22.241635)"/>
<path transform="matrix(1.00005,0,0,-1.00008,12.059647,45.781385)" stroke-width=".3985" stroke-linecap="butt" stroke-miterlimit="10" stroke-linejoin="miter" fill="none" stroke="#000000" d="M66.85564 0H102.76694"/>
<path transform="matrix(1.00005,0,0,-1.00008,114.83172,45.781385)" stroke-width=".31879" stroke-linecap="round" stroke-linejoin="round" fill="none" stroke="#000000" d="M-1.19551 1.59401C-1.09587 .99626 0 .09961 .29886 0 0-.09961-1.09587-.99626-1.19551-1.59401"/>
<use data-text="7" xlink:href="#font_3_6" transform="matrix(4.981549,0,0,-4.9816987,106.32035,42.2611)"/>
<path transform="matrix(1.00005,0,0,-1.00008,12.059647,45.781385)" stroke-width=".3985" stroke-linecap="butt" stroke-miterlimit="10" stroke-linejoin="miter" fill="none" stroke="#000000" d="M65.4072-5.2283 104.28069-28.55243"/>
<path transform="matrix(.85751286,.51454117,.5145257,-.8575386,116.34555,74.336078)" stroke-width=".31879" stroke-linecap="round" stroke-linejoin="round" fill="none" stroke="#000000" d="M-1.19551 1.59401C-1.09587 .99626 0 .09961 .29886 0 0-.09961-1.09587-.99626-1.19551-1.59401"/>
<use data-text="4" xlink:href="#font_3_5" transform="matrix(4.2715289,2.5630837,2.5630069,-4.271657,99.49694,72.07509)"/>
<path transform="matrix(1.00005,0,0,-1.00008,12.059647,45.781385)" stroke-width=".3985" stroke-linecap="butt" stroke-miterlimit="10" stroke-linejoin="miter" fill="none" stroke="#000000" d="M63.19884-26.21016 106.58864 25.85814"/>
<path transform="matrix(.64018198,-.7682515,-.7682284,-.6402012,118.65361,19.921175)" stroke-width=".31879" stroke-linecap="round" stroke-linejoin="round" fill="none" stroke="#000000" d="M-1.19551 1.59401C-1.09587 .99626 0 .09961 .29886 0 0-.09961-1.09587-.99626-1.19551-1.59401"/>
<use data-text="1" xlink:href="#font_3_2" transform="matrix(3.1889384,-3.826891,-3.826776,-3.1890343,76.88515,64.54677)"/>
<use data-text="0" xlink:href="#font_3_1" transform="matrix(3.1889384,-3.826891,-3.826776,-3.1890343,79.05362,61.944478)"/>
<path transform="matrix(1.00005,0,0,-1.00008,12.059647,45.781385)" stroke-width=".3985" stroke-linecap="butt" stroke-miterlimit="10" stroke-linejoin="miter" fill="none" stroke="#000000" d="M65.4072-28.7882 104.28069-5.46407"/>
<path transform="matrix(.85751286,-.51454117,-.5145257,-.8575386,116.34555,51.2459)" stroke-width=".31879" stroke-linecap="round" stroke-linejoin="round" fill="none" stroke="#000000" d="M-1.19551 1.59401C-1.09587 .99626 0 .09961 .29886 0 0-.09961-1.09587-.99626-1.19551-1.59401"/>
<use data-text="1" xlink:href="#font_3_2" transform="matrix(4.2715289,-2.5630837,-2.5630069,-4.271657,89.841228,74.99761)"/>
<use data-text="4" xlink:href="#font_3_5" transform="matrix(4.2715289,-2.5630837,-2.5630069,-4.271657,92.745868,73.254718)"/>
<path transform="matrix(1.00005,0,0,-1.00008,12.059647,45.781385)" stroke-width=".3985" stroke-linecap="butt" stroke-miterlimit="10" stroke-linejoin="miter" fill="none" stroke="#000000" d="M66.85564-34.0165H102.76694"/>
<path transform="matrix(1.00005,0,0,-1.00008,114.83172,79.8006)" stroke-width=".31879" stroke-linecap="round" stroke-linejoin="round" fill="none" stroke="#000000" d="M-1.19551 1.59401C-1.09587 .99626 0 .09961 .29886 0 0-.09961-1.09587-.99626-1.19551-1.59401"/>
<use data-text="2" xlink:href="#font_3_3" transform="matrix(4.981549,0,0,-4.9816987,90.19355,86.53165)"/>
<path transform="matrix(1.00005,0,0,-1.00008,12.059647,45.781385)" stroke-width=".3985" stroke-linecap="butt" stroke-miterlimit="10" stroke-linejoin="miter" fill="none" stroke="#000000" d="M123.1202 31.09657 159.90897 20.05986"/>
<path transform="matrix(.95782789,.28736297,.28735436,-.9578566,171.97658,25.71992)" stroke-width=".31879" stroke-linecap="round" stroke-linejoin="round" fill="none" stroke="#000000" d="M-1.19551 1.59401C-1.09587 .99626 0 .09961 .29886 0 0-.09961-1.09587-.99626-1.19551-1.59401"/>
<use data-text="2" xlink:href="#font_3_3" transform="matrix(4.771228,1.4314411,1.4313982,-4.771371,148.87612,15.114983)"/>
<path transform="matrix(1.00005,0,0,-1.00008,12.059647,45.781385)" stroke-width=".3985" stroke-linecap="butt" stroke-miterlimit="10" stroke-linejoin="miter" fill="none" stroke="#000000" d="M123.1202 2.91992 159.90897 13.95662"/>
<path transform="matrix(.95782789,-.28736297,-.28735436,-.9578566,171.97658,31.823647)" stroke-width=".31879" stroke-linecap="round" stroke-linejoin="round" fill="none" stroke="#000000" d="M-1.19551 1.59401C-1.09587 .99626 0 .09961 .29886 0 0-.09961-1.09587-.99626-1.19551-1.59401"/>
<use data-text="3" xlink:href="#font_3_4" transform="matrix(4.771228,-1.4314411,-1.4313982,-4.771371,146.07582,46.620355)"/>
<path transform="matrix(1.00005,0,0,-1.00008,12.059647,45.781385)" stroke-width=".3985" stroke-linecap="butt" stroke-miterlimit="10" stroke-linejoin="miter" fill="none" stroke="#000000" d="M120.94037-27.21867 162.1871 9.90385"/>
<path transform="matrix(.7433071,-.66900357,-.66898348,-.7433294,174.25485,35.87674)" stroke-width=".31879" stroke-linecap="round" stroke-linejoin="round" fill="none" stroke="#000000" d="M-1.19551 1.59401C-1.09587 .99626 0 .09961 .29886 0 0-.09961-1.09587-.99626-1.19551-1.59401"/>
<use data-text="1" xlink:href="#font_3_2" transform="matrix(3.7026356,-3.3325074,-3.3324073,-3.7027467,135.47246,66.04648)"/>
<use data-text="2" xlink:href="#font_3_3" transform="matrix(3.7026356,-3.3325074,-3.3324073,-3.7027467,137.99025,63.78038)"/>
<path transform="matrix(1.00005,0,0,-1.00008,12.059647,45.781385)" stroke-width=".3985" stroke-linecap="butt" stroke-miterlimit="10" stroke-linejoin="miter" fill="none" stroke="#000000" d="M120.94037 27.21867 162.1871-9.90385"/>
<path transform="matrix(.7433071,.66900357,.66898348,-.7433294,174.25485,55.686029)" stroke-width=".31879" stroke-linecap="round" stroke-linejoin="round" fill="none" stroke="#000000" d="M-1.19551 1.59401C-1.09587 .99626 0 .09961 .29886 0 0-.09961-1.09587-.99626-1.19551-1.59401"/>
<use data-text="4" xlink:href="#font_3_5" transform="matrix(3.7026356,3.3325074,3.3324073,-3.7027467,133.76502,28.299103)"/>
<path transform="matrix(1.00005,0,0,-1.00008,12.059647,45.781385)" stroke-width=".3985" stroke-linecap="butt" stroke-miterlimit="10" stroke-linejoin="miter" fill="none" stroke="#000000" d="M123.1202-2.91992 159.90897-13.95662"/>
<path transform="matrix(.95782789,.28736297,.28735436,-.9578566,171.97658,59.73912)" stroke-width=".31879" stroke-linecap="round" stroke-linejoin="round" fill="none" stroke="#000000" d="M-1.19551 1.59401C-1.09587 .99626 0 .09961 .29886 0 0-.09961-1.09587-.99626-1.19551-1.59401"/>
<use data-text="1" xlink:href="#font_3_2" transform="matrix(4.771228,1.4314411,1.4313982,-4.771371,142.20778,57.834398)"/>
<path transform="matrix(1.00005,0,0,-1.00008,12.059647,45.781385)" stroke-width=".3985" stroke-linecap="butt" stroke-miterlimit="10" stroke-linejoin="miter" fill="none" stroke="#000000" d="M123.1202-31.09657 159.90897-20.05986"/>
<path transform="matrix(.95782789,-.28736297,-.28735436,-.9578566,171.97658,65.84285)" stroke-width=".31879" stroke-linecap="round" stroke-linejoin="round" fill="none" stroke="#000000" d="M-1.19551 1.59401C-1.09587 .99626 0 .09961 .29886 0 0-.09961-1.09587-.99626-1.19551-1.59401"/>
<use data-text="1" xlink:href="#font_3_2" transform="matrix(4.771228,-1.4314411,-1.4313982,-4.771371,151.6601,78.96394)"/>
<use data-text="0" xlink:href="#font_3_1" transform="matrix(4.771228,-1.4314411,-1.4313982,-4.771371,154.90454,77.99056)"/>
</svg>
