<svg xmlns="http://www.w3.org/2000/svg" xmlns:xlink="http://www.w3.org/1999/xlink" xmlns:inkscape="http://www.inkscape.org/namespaces/inkscape" version="1.1" width="250" height="23" viewBox="0 0 250 23">
<defs>
<path id="font_1_1" d="M.48098756 .3693695C.48098756 .43937684 .44400025 .44337464 .43499757 .44337464 .4099884 .44337464 .38398744 .41638185 .38398744 .39337159 .38398744 .3783722 .3929901 .37036134 .3999939 .36436463 .4269867 .33935548 .43598939 .30734254 .43598939 .28134156 .43598939 .23731995 .37298585 .014251709 .25698854 .014251709 .18199158 .014251709 .18199158 .08427429 .18199158 .10227966 .18199158 .14529419 .19599915 .19630432 .23098755 .28733827 .24699402 .3293457 .25099183 .33935548 .25099183 .35835267 .25099183 .40737916 .21398926 .4423828 .16499329 .4423828 .068984989 .4423828 .0289917 .30033876 .0289917 .28833009 .0289917 .2793274 .035995485 .27633668 .042999269 .27633668 .053985597 .27633668 .054992677 .28233338 .05899048 .29533387 .07998657 .36836244 .11999512 .41737367 .1619873 .41737367 .18199158 .41737367 .18598938 .40437318 .18598938 .3843689 .18598938 .36735536 .18199158 .34934999 .17298889 .3253479 .13699341 .22932434 .11299133 .16529846 .11299133 .11528015 .11299133 .021255494 .18399048-.0107421879 .25299073-.0107421879 .42099-.0107421879 .48098756 .30534364 .48098756 .3693695Z"/>
<path id="font_2_2" d="M.45700074 .37594605C.42799378 .36894227 .4169922 .34394837 .4169922 .32894898 .4169922 .3129425 .42900086 .2959442 .45199586 .2959442 .47200013 .2959442 .5009918 .30995179 .5009918 .35295106 .5009918 .4203949 .4249878 .44140626 .3600006 .44140626 .20698548 .44140626 .16999817 .33995057 .16999817 .2969513 .16999817 .21612549 .2619934 .2001648 .28799439 .19616699 .36299134 .18319702 .42099 .17222595 .42099 .1232605 .42099 .102264408 .4039917 .06626892 .36799623 .04624939 .32899476 .025222779 .28599549 .023223877 .25698854 .023223877 .22200012 .023223877 .1599884 .027236939 .1309967 .060272218 .1659851 .06626892 .18299866 .09326172 .18299866 .117263797 .18299866 .13825989 .16899109 .15527344 .14199829 .15527344 .115997318 .15527344 .083999637 .13426209 .083999637 .087265018 .083999637 .03224182 .13899231-.009765625 .2559967-.009765625 .44299317-.009765625 .48298646 .10626221 .48298646 .15226746 .48298646 .18519593 .46899415 .20814514 .44599916 .22810364 .4139862 .25604249 .3769989 .26202394 .32899476 .27000428 .27999879 .27897645 .23199463 .28697206 .23199463 .325943 .23199463 .32695008 .23199463 .40838624 .35899354 .40838624 .38398744 .40838624 .43399049 .4043274 .45700074 .37594605Z"/>
<path id="font_3_1" d="M.35899354 .6349335C.35899354 .66503909 .35499574 .66503909 .32499696 .66503909 .25898744 .60058596 .15699768 .60058596 .12098694 .60058596V.5615845C.14698792 .5615845 .21299744 .5615845 .272995 .58958438V.08496094C.272995 .051986696 .272995 .038986207 .16999817 .038986207H.1269989V0C.18199158 .0039978029 .2599945 .0039978029 .31599427 .0039978029 .37199403 .0039978029 .44999696 .0039978029 .5049896 0V.038986207H.46199037C.35899354 .038986207 .35899354 .051986696 .35899354 .08496094V.6349335Z"/>
<path id="font_3_2" d="M.5379944 .18702698H.5009918C.49899293 .17301941 .4889984 .10699463 .47399903 .09599304 .46699525 .08999634 .38598634 .08999634 .37199403 .08999634H.18499756L.31298829 .19403076C.34700013 .22103882 .43598939 .28504945 .46699525 .31506349 .49699403 .3450775 .5379944 .39608766 .5379944 .46710206 .5379944 .5920563 .4249878 .66503909 .29100038 .66503909 .1619873 .66503909 .07199097 .58006289 .07199097 .48609925 .07199097 .43510438 .114990238 .42910768 .12599182 .42910768 .15098572 .42910768 .17999268 .44709779 .17999268 .48310853 .17999268 .50509646 .16699219 .5371094 .12298584 .5371094 .1459961 .5880585 .20698548 .6260376 .27598573 .6260376 .3809967 .6260376 .43699647 .5480957 .43699647 .46710206 .43699647 .39608766 .3899994 .32305909 .31999208 .25904847L.08299255 .041992189C.07299805 .03199768 .07199097 .0309906 .07199097 0H.5069885L.5379944 .18702698Z"/>
<path id="font_3_3" d="M.2939911 .33203126C.3789978 .33203126 .43598939 .274765 .43598939 .17237854 .43598939 .062408449 .36999513 .014511108 .29699708 .014511108 .269989 .014511108 .16699219 .020492554 .12199402 .07836914 .16099549 .0823822 .1769867 .10836792 .1769867 .13537598 .1769867 .16937256 .15299988 .19238281 .11999512 .19238281 .09298706 .19238281 .06298828 .17536927 .06298828 .13337708 .06298828 .034469606 .17298889-.021484375 .2999878-.021484375 .44799806-.021484375 .5469971 .07337952 .5469971 .17237854 .5469971 .24562073 .4909973 .3229828 .37199403 .35302735 .45098878 .37902833 .5149994 .44306947 .5149994 .5251007 .5149994 .60505679 .42099 .66503909 .30099488 .66503909 .18399048 .66503909 .09498596 .61105349 .09498596 .5290985 .09498596 .48609925 .12799073 .47409059 .147995 .47409059 .17399597 .47409059 .20098877 .49209596 .20098877 .5270996 .20098877 .5580902 .1789856 .5760956 .1519928 .5800934 .19898987 .6320343 .2899933 .6320343 .29899598 .6320343 .34999085 .6320343 .4139862 .60806277 .4139862 .5251007 .4139862 .47009278 .3829956 .37402345 .2829895 .36802674 .2649994 .36701966 .23799134 .36502076 .22898865 .36502076 .21899414 .36402894 .20799256 .36302186 .20799256 .34802247 .20799256 .33203126 .21899414 .33203126 .23599243 .33203126H.2939911Z"/>
<path id="font_2_1" d="M.33198548 .66430667C.33299256 .66830447 .33499146 .67430117 .33499146 .67930606 .33499146 .6953125 .31498719 .6943054 .30299378 .69329836L.19099427 .6843109C.17399597 .68330386 .16099549 .682312 .16099549 .65830996 .16099549 .64331057 .17399597 .64331057 .18998719 .64331057 .21899414 .64331057 .22599793 .64030459 .23899842 .63630679 .23899842 .62431338 .23899842 .62231448 .23498535 .60632327L.09498596 .04725647C.09098816 .031234742 .09098816 .026229859 .09098816 .024230957 .09098816-.00077819827 .11099243-.009765625 .12599182-.009765625 .13598633-.009765625 .1539917-.0057678224 .16699219 .01322937 .17399597 .026229859 .21398926 .19239807 .22099304 .22442627 .28799439 .21942139 .3600006 .20339966 .3600006 .14434815 .3600006 .13934326 .3600006 .13433838 .35699464 .12332153 .35398866 .108306888 .35398866 .10231018 .35398866 .09429932 .35398866 .02822876 .4099884-.009765625 .46699525-.009765625 .56399539-.009765625 .598999 .13633728 .598999 .14434815 .598999 .14634705 .59799197 .15835572 .5799866 .15835572 .56599429 .15835572 .56399539 .15235901 .5589905 .13534546 .548996 .0993042 .5209961 .023223877 .46998597 .023223877 .43199159 .023223877 .43199159 .06626892 .43199159 .07728577 .43199159 .09329224 .43199159 .09429932 .43699647 .11431885 .43699647 .11532593 .44198609 .13534546 .44198609 .14735413 .44198609 .22442627 .35499574 .2484436 .27799989 .25546266 .3019867 .2704773 .32299806 .28648377 .36299134 .3215027 .41299439 .36549378 .46499635 .4084015 .519989 .4084015 .5329895 .4084015 .54499819 .40542604 .55400088 .3955078 .5189972 .38850404 .5039978 .36050416 .5039978 .3394928 .5039978 .30749513 .5299988 .3005066 .5439911 .3005066 .56599429 .3005066 .60198977 .3164978 .60198977 .36650086 .60198977 .4093933 .56999209 .44140626 .5209961 .44140626 .45799256 .44140626 .39898683 .39349366 .35299684 .35350038 .30099488 .3085022 .269989 .28248597 .23298645 .26846314L.33198548 .66430667Z"/>
</defs>
<path transform="matrix(1.00003,0,0,-1.00008,12.059792,11.762661)" d="M9.96277 0C9.96277 5.50235 5.50235 9.96277 0 9.96277-5.50235 9.96277-9.96277 5.50235-9.96277 0-9.96277-5.50235-5.50235-9.96277 0-9.96277 5.50235-9.96277 9.96277-5.50235 9.96277 0ZM0 0" fill="#7f807f" fill-opacity=".3"/>
<path transform="matrix(1.00003,0,0,-1.00008,12.059792,11.762661)" stroke-width=".3985" stroke-linecap="butt" stroke-miterlimit="10" stroke-linejoin="miter" fill="none" stroke="#000000" d="M9.96277 0C9.96277 5.50235 5.50235 9.96277 0 9.96277-5.50235 9.96277-9.96277 5.50235-9.96277 0-9.96277-5.50235-5.50235-9.96277 0-9.96277 5.50235-9.96277 9.96277-5.50235 9.96277 0ZM0 0"/>
<use data-text="v" xlink:href="#font_1_1" transform="matrix(8.966669,0,0,-8.967117,7.8256609,13.194775)"/>
<use data-text="s" xlink:href="#font_2_2" transform="matrix(5.97778,0,0,-5.9780786,12.301796,14.1918549)"/>
<path transform="matrix(1.00003,0,0,-1.00008,12.059792,11.762661)" d="M66.65639 0C66.65639 5.50235 62.19597 9.96277 56.69362 9.96277 51.19125 9.96277 46.73085 5.50235 46.73085 0 46.73085-5.50235 51.19125-9.96277 56.69362-9.96277 62.19597-9.96277 66.65639-5.50235 66.65639 0ZM56.69362 0" fill="#7f807f" fill-opacity=".3"/>
<path transform="matrix(1.00003,0,0,-1.00008,12.059792,11.762661)" stroke-width=".3985" stroke-linecap="butt" stroke-miterlimit="10" stroke-linejoin="miter" fill="none" stroke="#000000" d="M66.65639 0C66.65639 5.50235 62.19597 9.96277 56.69362 9.96277 51.19125 9.96277 46.73085 5.50235 46.73085 0 46.73085-5.50235 51.19125-9.96277 56.69362-9.96277 62.19597-9.96277 66.65639-5.50235 66.65639 0ZM56.69362 0"/>
<use data-text="v" xlink:href="#font_1_1" transform="matrix(8.966669,0,0,-8.967117,64.44136,13.194775)"/>
<use data-text="1" xlink:href="#font_3_1" transform="matrix(5.97778,0,0,-5.9780786,68.917499,14.1918549)"/>
<path transform="matrix(1.00003,0,0,-1.00008,12.059792,11.762661)" d="M123.35 0C123.35 5.50235 118.88959 9.96277 113.38724 9.96277 107.88487 9.96277 103.42447 5.50235 103.42447 0 103.42447-5.50235 107.88487-9.96277 113.38724-9.96277 118.88959-9.96277 123.35-5.50235 123.35 0ZM113.38724 0" fill="#7f807f" fill-opacity=".3"/>
<path transform="matrix(1.00003,0,0,-1.00008,12.059792,11.762661)" stroke-width=".3985" stroke-linecap="butt" stroke-miterlimit="10" stroke-linejoin="miter" fill="none" stroke="#000000" d="M123.35 0C123.35 5.50235 118.88959 9.96277 113.38724 9.96277 107.88487 9.96277 103.42447 5.50235 103.42447 0 103.42447-5.50235 107.88487-9.96277 113.38724-9.96277 118.88959-9.96277 123.35-5.50235 123.35 0ZM113.38724 0"/>
<use data-text="v" xlink:href="#font_1_1" transform="matrix(8.966669,0,0,-8.967117,121.13706,13.194775)"/>
<use data-text="2" xlink:href="#font_3_2" transform="matrix(5.97778,0,0,-5.9780786,125.6132,14.1918549)"/>
<path transform="matrix(1.00003,0,0,-1.00008,12.059792,11.762661)" d="M180.04363 0C180.04363 5.50235 175.5832 9.96277 170.08086 9.96277 164.57849 9.96277 160.11809 5.50235 160.11809 0 160.11809-5.50235 164.57849-9.96277 170.08086-9.96277 175.5832-9.96277 180.04363-5.50235 180.04363 0ZM170.08086 0" fill="#7f807f" fill-opacity=".3"/>
<path transform="matrix(1.00003,0,0,-1.00008,12.059792,11.762661)" stroke-width=".3985" stroke-linecap="butt" stroke-miterlimit="10" stroke-linejoin="miter" fill="none" stroke="#000000" d="M180.04363 0C180.04363 5.50235 175.5832 9.96277 170.08086 9.96277 164.57849 9.96277 160.11809 5.50235 160.11809 0 160.11809-5.50235 164.57849-9.96277 170.08086-9.96277 175.5832-9.96277 180.04363-5.50235 180.04363 0ZM170.08086 0"/>
<use data-text="v" xlink:href="#font_1_1" transform="matrix(8.966669,0,0,-8.967117,177.83176,13.194775)"/>
<use data-text="3" xlink:href="#font_3_3" transform="matrix(5.97778,0,0,-5.9780786,182.30789,14.1918549)"/>
<path transform="matrix(1.00003,0,0,-1.00008,12.059792,11.762661)" d="M236.73725 0C236.73725 5.50235 232.27683 9.96277 226.77448 9.96277 221.27211 9.96277 216.8117 5.50235 216.8117 0 216.8117-5.50235 221.27211-9.96277 226.77448-9.96277 232.27683-9.96277 236.73725-5.50235 236.73725 0ZM226.77448 0" fill="#7f807f" fill-opacity=".3"/>
<path transform="matrix(1.00003,0,0,-1.00008,12.059792,11.762661)" stroke-width=".3985" stroke-linecap="butt" stroke-miterlimit="10" stroke-linejoin="miter" fill="none" stroke="#000000" d="M236.73725 0C236.73725 5.50235 232.27683 9.96277 226.77448 9.96277 221.27211 9.96277 216.8117 5.50235 216.8117 0 216.8117-5.50235 221.27211-9.96277 226.77448-9.96277 232.27683-9.96277 236.73725-5.50235 236.73725 0ZM226.77448 0"/>
<use data-text="v" xlink:href="#font_1_1" transform="matrix(8.966669,0,0,-8.967117,234.31647,13.161774)"/>
<use data-text="k" xlink:href="#font_2_1" transform="matrix(5.97778,0,0,-5.9780786,238.7926,14.224859)"/>
<path transform="matrix(1.00003,0,0,-1.00008,12.059792,11.762661)" stroke-width=".3985" stroke-linecap="butt" stroke-miterlimit="10" stroke-linejoin="miter" fill="none" stroke="#000000" d="M10.16202 0H46.07332"/>
<path transform="matrix(1.00003,0,0,-1.00008,58.134496,11.762661)" stroke-width=".31879" stroke-linecap="round" stroke-linejoin="round" fill="none" stroke="#000000" d="M-1.19551 1.59401C-1.09587 .99626 0 .09961 .29886 0 0-.09961-1.09587-.99626-1.19551-1.59401"/>
<path transform="matrix(1.00003,0,0,-1.00008,12.059792,11.762661)" stroke-width=".3985" stroke-linecap="butt" stroke-miterlimit="10" stroke-linejoin="miter" fill="none" stroke="#000000" d="M103.2252 0H67.31392"/>
<path transform="matrix(-1.00003,-0,0,1.00008,79.37573,11.762661)" stroke-width=".31879" stroke-linecap="round" stroke-linejoin="round" fill="none" stroke="#000000" d="M-1.19551 1.59401C-1.09587 .99626 0 .09961 .29886 0 0-.09961-1.09587-.99626-1.19551-1.59401"/>
<path transform="matrix(1.00003,0,0,-1.00008,12.059792,11.762661)" stroke-width=".3985" stroke-linecap="butt" stroke-miterlimit="10" stroke-linejoin="miter" fill="none" stroke="#000000" d="M123.54926 0H159.46056"/>
<path transform="matrix(1.00003,0,0,-1.00008,171.52515,11.762661)" stroke-width=".31879" stroke-linecap="round" stroke-linejoin="round" fill="none" stroke="#000000" d="M-1.19551 1.59401C-1.09587 .99626 0 .09961 .29886 0 0-.09961-1.09587-.99626-1.19551-1.59401"/>
<path transform="matrix(1.00003,0,0,-1.00008,12.059792,11.762661)" stroke-width=".3985" stroke-linecap="butt" stroke-miterlimit="10" stroke-linejoin="miter" fill="none" stroke="#000000" d="M180.24288 0H216.15418"/>
<path transform="matrix(1.00003,0,0,-1.00008,228.22046,11.762661)" stroke-width=".31879" stroke-linecap="round" stroke-linejoin="round" fill="none" stroke="#000000" d="M-1.19551 1.59401C-1.09587 .99626 0 .09961 .29886 0 0-.09961-1.09587-.99626-1.19551-1.59401"/>
</svg>
