<svg xmlns="http://www.w3.org/2000/svg" xmlns:xlink="http://www.w3.org/1999/xlink" version="1.1" width="417" height="402" viewBox="0 0 417 402">
<defs>
<path id="font_1_1" d="M.68499758 .31726075C.68499758 .48518373 .6439972 .6611328 .3789978 .6611328 .116989139 .6611328 .07299805 .48918153 .07299805 .31726075 .07299805 .13934326 .125-.016601563 .3789978-.016601563 .6369934-.016601563 .68499758 .14334107 .68499758 .31726075M.3789978 .039398195C.33999635 .039398195 .25898744 .0493927 .23699951 .13034058 .22399903 .17932129 .22299195 .26028443 .22299195 .33224488 .22299195 .4052124 .22299195 .48417665 .23999024 .53215029 .25698854 .5771332 .30899049 .6051178 .3789978 .6051178 .43798829 .6051178 .49899293 .5851288 .5189972 .52716067 .5349884 .4811859 .5349884 .39822389 .5349884 .33224488 .5349884 .271286 .5349884 .17732239 .519989 .12834168 .49598695 .04838562 .41600038 .039398195 .3789978 .039398195Z"/>
<path id="font_1_4" d="M.23298645 .4913025C.2709961 .4873047 .31098939 .4873047 .31298829 .4873047 .46499635 .4873047 .5549927 .56030276 .5970001 .603302 .6100006 .6163025 .6119995 .6183014 .6119995 .6333008 .6119995 .6382904 .6119995 .66130068 .58999636 .66130068 .58799746 .66130068 .58599856 .66130068 .57899478 .6582947 .5399933 .6483002 .46899415 .629303 .37599183 .629303 .30799867 .629303 .24198914 .6392975 .17599488 .65730288 .1659851 .66130068 .1639862 .66130068 .16099549 .66130068 .13899231 .66130068 .13899231 .6392975 .13899231 .6252899V.32437135C.13899231 .29237367 .14399719 .28536988 .1769867 .28536988 .19799805 .28536988 .19898987 .28637696 .21699524 .30337525 .23199463 .31837464 .27398683 .359375 .38398744 .359375 .5130005 .359375 .5130005 .26637269 .5130005 .2073822 .5130005 .14738465 .5130005 .044387819 .34599305 .044387819 .32899476 .044387819 .25498963 .045394899 .20698548 .08639526 .24398804 .10739136 .24699402 .14138794 .24699402 .15538025 .24699402 .20437622 .20799256 .234375 .16799927 .234375 .13198853 .234375 .08898926 .2093811 .08898926 .15338135 .08898926 .055389406 .18899536-.016601563 .34799195-.016601563 .56999209-.016601563 .6689911 .09138489 .6689911 .2013855 .6689911 .30236817 .58999636 .41537477 .3889923 .41537477 .32899476 .41537477 .2789917 .405365 .23298645 .38136292V.4913025Z"/>
<path id="font_1_2" d="M.45899964 .6231842C.45899964 .654129 .45298768 .6611328 .42099 .6611328H.3999939C.31498719 .5972595 .18598938 .5972595 .16299439 .5972595H.13598633V.53027346H.16299439C.1749878 .53027346 .2519989 .53027346 .32499696 .55526736V.066986087H.14399719V0C.19299317 .0039978029 .33499146 .0039978029 .3919983 .0039978029 .44898988 .0039978029 .59098818 .0039978029 .6399994 0V.066986087H.45899964V.6231842Z"/>
<path id="font_1_3" d="M.6689911 .2110138H.58599856C.57899478 .17199707 .5649872 .14698792 .55599978 .14498902 .5319977 .14199829 .4889984 .14199829 .45498658 .14199829H.30599977C.36999513 .18299866 .43099977 .22102356 .47399903 .24401856 .58599856 .30604554 .6689911 .35205079 .6689911 .4560852 .6689911 .5801239 .5549927 .6611328 .35699464 .6611328 .30999757 .6611328 .08898926 .66012576 .08898926 .5131073 .08898926 .45307923 .13798523 .42907716 .17098999 .42907716 .21099854 .42907716 .2539978 .4570923 .2539978 .5121002 .2539978 .54811099 .23298645 .5691223 .22799683 .5741272 .2639923 .59213259 .30099488 .59413149 .32398988 .59413149 .42199708 .59413149 .5099945 .54711917 .5099945 .45509339 .5099945 .37705995 .44898988 .31803895 .3849945 .2720337L.10598755 .068984989C.08898926 .056991579 .08898926 .052993776 .08898926 .0309906V0H.6299896L.6689911 .2110138Z"/>
<path id="font_2_2" d="M.1269989 .07699585 .23298645 .18003845C.3889923 .31811524 .44898988 .3721466 .44898988 .47216798 .44898988 .5860901 .35899354 .6660156 .23699951 .6660156 .12399292 .6660156 .049987794 .57411196 .049987794 .48516847 .049987794 .4291687 .099990848 .4291687 .102996829 .4291687 .11999512 .4291687 .15499878 .44117738 .15499878 .48217774 .15499878 .5081787 .13699341 .5341797 .101989749 .5341797 .09399414 .5341797 .09199524 .5341797 .08898926 .5331726 .11199951 .59806826 .1659851 .63500979 .22399903 .63500979 .31498719 .63500979 .35798646 .5541382 .35798646 .47216798 .35798646 .39215089 .30799867 .31311036 .25299073 .25108338L.06098938 .036987306C.049987794 .025985718 .049987794 .023986817 .049987794 0H.42099L.44898988 .17404175H.42399598C.4189911 .14402771 .4119873 .1000061 .4019928 .084991458 .394989 .07699585 .32899476 .07699585 .30699159 .07699585H.1269989Z"/>
<path id="font_3_1" d="M.33399964 .30233766C.33999635 .32835389 .36299134 .42037965 .43299867 .42037965 .43798829 .42037965 .46199037 .42037965 .48298646 .40734864 .45498658 .402359 .43499757 .37734986 .43499757 .35334779 .43499757 .33735658 .44599916 .31835938 .47299195 .31835938 .49499513 .31835938 .5269928 .3363495 .5269928 .37635804 .5269928 .42837525 .46798707 .4423828 .43399049 .4423828 .37599183 .4423828 .34098817 .38935853 .32899476 .36634828 .3039856 .43237306 .25 .4423828 .22099304 .4423828 .116989139 .4423828 .05999756 .3133545 .05999756 .28834535 .05999756 .27833558 .069992069 .27833558 .07199097 .27833558 .07998657 .27833558 .08299255 .28033448 .084991458 .28933717 .11898804 .39535523 .18499756 .42037965 .21899414 .42037965 .23799134 .42037965 .272995 .4113617 .272995 .35334779 .272995 .32235719 .2559967 .25532533 .21899414 .11528015 .20298767 .053268434 .16799927 .011245728 .12399292 .011245728 .117996219 .011245728 .09498596 .011245728 .07398987 .024276734 .09899902 .029266358 .12098694 .05027771 .12098694 .07827759 .12098694 .105270389 .09899902 .11328125 .083999637 .11328125 .053985597 .11328125 .0289917 .08728027 .0289917 .055267335 .0289917 .009246826 .07899475-.0107421879 .12298584-.0107421879 .18899536-.0107421879 .22499085 .059280397 .22799683 .0652771 .23999024 .028274537 .27598573-.0107421879 .33599855-.0107421879 .43899537-.0107421879 .49598695 .118270877 .49598695 .14328003 .49598695 .1532898 .4869995 .1532898 .48399354 .1532898 .47499085 .1532898 .47299195 .14929199 .47099305 .14228821 .43798829 .03527832 .36999513 .011245728 .33799745 .011245728 .29899598 .011245728 .2829895 .043273927 .2829895 .07727051 .2829895 .09927368 .2889862 .121276859 .2999878 .16529846L.33399964 .30233766Z"/>
<path id="font_2_1" d="M.40899659 .23046875H.6879883C.70199587 .23046875 .72099307 .23046875 .72099307 .25045777 .72099307 .27046205 .70199587 .27046205 .6879883 .27046205H.40899659V.5500183C.40899659 .56399539 .40899659 .5830078 .3889923 .5830078 .36898805 .5830078 .36898805 .56399539 .36898805 .5500183V.27046205H.08898926C.07499695 .27046205 .055999757 .27046205 .055999757 .25045777 .055999757 .23046875 .07499695 .23046875 .08898926 .23046875H.36898805V-.05000305C.36898805-.06401062 .36898805-.08300781 .3889923-.08300781 .40899659-.08300781 .40899659-.06401062 .40899659-.05000305V.23046875Z"/>
<path id="font_2_3" d="M.2899933 .35191346C.37199403 .37893678 .42999269 .4490509 .42999269 .52809146 .42999269 .6100464 .34199525 .6660156 .24598694 .6660156 .14498902 .6660156 .068984989 .60606387 .068984989 .53009036 .068984989 .49710084 .09098816 .47808839 .11999512 .47808839 .15098572 .47808839 .17098999 .50009158 .17098999 .5290985 .17098999 .57910159 .12399292 .57910159 .10899353 .57910159 .13999939 .62802127 .20599365 .64100649 .24198914 .64100649 .2829895 .64100649 .33799745 .6190338 .33799745 .5290985 .33799745 .51708987 .33599855 .45906068 .30999757 .4149933 .27999879 .36691285 .24598694 .36390687 .22099304 .36291505 .21299744 .36190797 .18899536 .35990907 .18199158 .35990907 .17399597 .35890199 .16699219 .35791017 .16699219 .3479004 .16699219 .33691407 .17399597 .33691407 .19099427 .33691407H.23498535C.31698609 .33691407 .35398866 .2686615 .35398866 .17037964 .35398866 .034469606 .2849884 .0055389406 .24099732 .0055389406 .19799805 .0055389406 .12298584 .022491456 .08799744 .08137512 .12298584 .07637024 .1539917 .09837341 .1539917 .1363678 .1539917 .17237854 .1269989 .19238281 .09799194 .19238281 .07398987 .19238281 .041992189 .17837525 .041992189 .1343689 .041992189 .043441774 .1349945-.022460938 .24398804-.022460938 .3659973-.022460938 .45700074 .06838989 .45700074 .17037964 .45700074 .252594 .3939972 .33088685 .2899933 .35191346Z"/>
<path id="font_3_2" d="M.48599244 .38136292C.48999024 .39537049 .48999024 .39736939 .48999024 .40437318 .48999024 .42237855 .47599793 .43138124 .46099855 .43138124 .45098878 .43138124 .43499757 .42536927 .42599488 .41036988 .42399598 .405365 .41600038 .37435914 .4119873 .35635377 .40499879 .33035279 .397995 .30334474 .3919983 .27633668L.34700013 .09628296C.34298707 .08126831 .2999878 .011245728 .23399353 .011245728 .18299866 .011245728 .17199707 .055267335 .17199707 .0922699 .17199707 .1382904 .18899536 .20030213 .22299195 .28833009 .23899842 .3293457 .24299622 .3403473 .24299622 .36035157 .24299622 .405365 .21099854 .4423828 .16099549 .4423828 .06599426 .4423828 .0289917 .29733277 .0289917 .28833009 .0289917 .27833558 .038986207 .27833558 .040985109 .27833558 .050994874 .27833558 .051986696 .28033448 .056991579 .29634095 .083999637 .3903656 .12399292 .42037965 .1579895 .42037965 .1659851 .42037965 .18299866 .42037965 .18299866 .3883667 .18299866 .36335755 .17298889 .3373413 .1659851 .31834413 .12599182 .21231079 .10798645 .1552887 .10798645 .10827637 .10798645 .019256592 .17098999-.0107421879 .22999573-.0107421879 .2689972-.0107421879 .30299378 .0062561037 .33099366 .03425598 .31799317-.017745972 .30599977-.06674194 .2659912-.11973572 .23999024-.15385437 .20199585-.18309021 .1559906-.18309021 .14199829-.18309021 .09700012-.18005371 .07998657-.14074707 .09599304-.14074707 .10899353-.14074707 .12298584-.1287384 .1329956-.11973572 .14299011-.10673523 .14299011-.08773804 .14299011-.056747438 .115997318-.052734376 .10598755-.052734376 .08299255-.052734376 .049987794-.068740848 .049987794-.11773682 .049987794-.16796875 .09399414-.20507813 .1559906-.20507813 .25898744-.20507813 .3619995-.11373901 .3899994-.00074768069L.48599244 .38136292Z"/>
<path id="font_2_6" d="M.68699648 .32714845C.70199587 .32714845 .72099307 .32714845 .72099307 .34713746 .72099307 .36714173 .70199587 .36714173 .6879883 .36714173H.08898926C.07499695 .36714173 .055999757 .36714173 .055999757 .34713746 .055999757 .32714845 .07499695 .32714845 .08999634 .32714845H.68699648M.6879883 .13284302C.70199587 .13284302 .72099307 .13284302 .72099307 .15284729 .72099307 .17285156 .70199587 .17285156 .68699648 .17285156H.08999634C.07499695 .17285156 .055999757 .17285156 .055999757 .15284729 .055999757 .13284302 .07499695 .13284302 .08898926 .13284302H.6879883Z"/>
<path id="font_2_4" d="M.2939911 .16503906V.07800293C.2939911 .041992189 .2919922 .0309906 .21798706 .0309906H.19699097V0C.23799134 .0029907227 .2899933 .0029907227 .33198548 .0029907227 .37399293 .0029907227 .4269867 .0029907227 .46798707 0V.0309906H.44699098C.37298585 .0309906 .37098695 .041992189 .37098695 .07800293V.16503906H.47099305V.19602967H.37098695V.65075686C.37098695 .67074587 .37098695 .6767578 .35499574 .6767578 .34599305 .6767578 .34298707 .6767578 .33499146 .66474917L.027999878 .19602967V.16503906H.2939911M.2999878 .19602967H.055999757L.2999878 .5688019V.19602967Z"/>
<path id="font_2_5" d="M.13198853 .327713V.35173036C.13198853 .6047821 .2559967 .64100649 .30699159 .64100649 .33099366 .64100649 .37298585 .634964 .394989 .6007538 .37998963 .6007538 .33999635 .6007538 .33999635 .5557556 .33999635 .524765 .3639984 .5097656 .38598634 .5097656 .4019928 .5097656 .43199159 .51875308 .43199159 .5577545 .43199159 .6178589 .3880005 .6660156 .30499269 .6660156 .1769867 .6660156 .041992189 .5367584 .041992189 .31570436 .041992189 .048553468 .1579895-.022460938 .25099183-.022460938 .3619995-.022460938 .45700074 .07156372 .45700074 .2036438 .45700074 .33070375 .36799623 .4267578 .25698854 .4267578 .18899536 .4267578 .1519928 .37573243 .13198853 .327713M.25099183 .0055389406C.18798828 .0055389406 .1579895 .06556702 .1519928 .080566409 .13398743 .127594 .13398743 .2076416 .13398743 .22564698 .13398743 .30369569 .1659851 .40374757 .2559967 .40374757 .27198792 .40374757 .31799317 .40374757 .34899903 .34172059 .36698915 .30470277 .36698915 .2536621 .36698915 .20463562 .36698915 .15661621 .36698915 .10658264 .34999085 .0705719 .31999208 .010528564 .27398683 .0055389406 .25099183 .0055389406Z"/>
<path id="font_4_1" d="M.32499696-.24298096C.32499696-.23999024 .32499696-.23799134 .30799867-.22097779 .20799256-.11997986 .1519928 .045013429 .1519928 .24900818 .1519928 .44299317 .19898987 .60998538 .31498719 .7279968 .32499696 .7369995 .32499696 .7389984 .32499696 .74198916 .32499696 .74798586 .31999208 .75 .31599427 .75 .30299378 .75 .22099304 .6779938 .17199707 .5799866 .12098694 .47898866 .09799194 .37199403 .09799194 .24900818 .09799194 .16000366 .11199951 .041015626 .1639862-.06599426 .22299195-.18598938 .30499269-.25097657 .31599427-.25097657 .31999208-.25097657 .32499696-.24897766 .32499696-.24298096Z"/>
<path id="font_4_3" d="M.44799806 .31976319C.44799806 .40283204 .44299317 .48390199 .40699769 .55996707 .3659973 .64302065 .2939911 .66503909 .24499512 .66503909 .18699646 .66503909 .115997318 .63601687 .07899475 .552948 .050994874 .48989869 .040985109 .42785646 .040985109 .31976319 .040985109 .22268677 .04798889 .14962769 .083999637 .078567508 .12298584 .0025177003 .19198609-.021484375 .24398804-.021484375 .33099366-.021484375 .3809967 .030532837 .4099884 .08857727 .44599916 .16363526 .44799806 .26171876 .44799806 .31976319M.24398804-.0014953613C.21199036-.0014953613 .14698792 .016525269 .12799073 .12561035 .116989139 .18565369 .116989139 .26171876 .116989139 .33177186 .116989139 .41384889 .116989139 .48789979 .1329956 .5469513 .1499939 .6139984 .20098877 .6450348 .24398804 .6450348 .28199769 .6450348 .33999635 .6220093 .35899354 .53593447 .37199403 .4788971 .37199403 .39982606 .37199403 .33177186 .37199403 .26472474 .37199403 .18865967 .36099244 .12760926 .34199525 .01751709 .2789917-.0014953613 .24398804-.0014953613Z"/>
<path id="font_5_2" d="M.19499207-.0040130617C.19499207 .053985597 .17599488 .09700012 .1349945 .09700012 .102996829 .09700012 .08699036 .070999149 .08699036 .04899597 .08699036 .026992798 .101989749 0 .13598633 0 .14898682 0 .1599884 .0039978029 .16899109 .0129852299 .17098999 .01499939 .17199707 .01499939 .17298889 .01499939 .1749878 .01499939 .1749878 .0009918213 .1749878-.0040130617 .1749878-.037078859 .16899109-.10221863 .11099243-.1673584 .099990848-.17936707 .099990848-.18136597 .099990848-.18336487 .099990848-.18836975 .10499573-.19335938 .10998535-.19335938 .117996219-.19335938 .19499207-.119262699 .19499207-.0040130617Z"/>
<path id="font_4_2" d="M.28199769 .24900818C.28199769 .32499696 .27198792 .44898988 .21598816 .5649872 .15699768 .68499758 .07499695 .75 .06399536 .75 .05999756 .75 .054992677 .74798586 .054992677 .74198916 .054992677 .7389984 .054992677 .7369995 .07199097 .71998599 .17199707 .61898806 .22799683 .45399476 .22799683 .25 .22799683 .056015016 .18099976-.11099243 .06498718-.22898865 .054992677-.23799134 .054992677-.23999024 .054992677-.24298096 .054992677-.24897766 .05999756-.25097657 .06399536-.25097657 .07699585-.25097657 .15899658-.1789856 .20799256-.08099365 .25898744 .021011353 .28199769 .12901306 .28199769 .24900818Z"/>
<path id="font_4_4" d="M.28799439 .64105227C.28799439 .664032 .28799439 .66503909 .2679901 .66503909 .24398804 .6380615 .19400025 .6012573 .09098816 .6012573V.5722656C.11399841 .5722656 .1639862 .5722656 .21899414 .59825137V.07701111C.21899414 .041000368 .21598816 .0289917 .12799073 .0289917H.09700012V0C.12399292 .0019989014 .22099304 .0019989014 .2539978 .0019989014 .2869873 .0019989014 .3829956 .0019989014 .4099884 0V.0289917H.3789978C.29100038 .0289917 .28799439 .041000368 .28799439 .07701111V.64105227Z"/>
<path id="font_4_7" d="M.47499085 .62054446V.6435547H.23399353C.11299133 .6435547 .11099243 .6567688 .10699463 .67578127H.084991458L.053985597 .47554017H.07598877C.07899475 .49354554 .08799744 .555542 .100997928 .5665436 .10899353 .5725403 .18399048 .5725403 .19799805 .5725403H.4099884L.3039856 .42053224C.2769928 .38153077 .17599488 .21751404 .17599488 .029510498 .17599488 .018508912 .17599488-.021484375 .21699524-.021484375 .25898744-.021484375 .25898744 .017501831 .25898744 .030517579V.08052063C.25898744 .2295227 .2829895 .34553529 .32998658 .41253663L.47499085 .62054446Z"/>
<path id="font_5_1" d="M.18399048 .04798889C.18399048 .07699585 .1599884 .09700012 .13598633 .09700012 .10699463 .09700012 .08699036 .07299805 .08699036 .04899597 .08699036 .019989014 .11099243 0 .1349945 0 .1639862 0 .18399048 .023986817 .18399048 .04798889Z"/>
<path id="font_4_6" d="M.12799073 .5727997C.17098999 .5588074 .20599365 .5578003 .21699524 .5578003 .32998658 .5578003 .4019928 .6409912 .4019928 .6550598 .4019928 .6590576 .3999939 .6640625 .3939972 .6640625 .3919983 .6640625 .3899994 .6640625 .3809967 .66004946 .32499696 .6358795 .2769928 .6328125 .25099183 .6328125 .18499756 .6328125 .13798523 .6530609 .11898804 .6610565 .11199951 .6640625 .10998535 .6640625 .10899353 .6640625 .100997928 .6640625 .100997928 .65805056 .100997928 .64201357V.34495545C.100997928 .32695008 .100997928 .32095338 .11299133 .32095338 .117996219 .32095338 .11898804 .32196046 .1289978 .33395387 .15699768 .37493897 .20399475 .39894105 .2539978 .39894105 .30699159 .39894105 .33299256 .34994508 .34098817 .33294679 .35798646 .29396058 .35899354 .2449646 .35899354 .20697022 .35899354 .16897583 .35899354 .11193848 .33099366 .0667572 .30899049 .03060913 .269989 .005508423 .22599793 .005508423 .1599884 .005508423 .09498596 .050689699 .07699585 .12397766 .08198547 .12197876 .08799744 .12097168 .09298706 .12097168 .10998535 .12097168 .13699341 .13098145 .13699341 .16497803 .13699341 .1929779 .117996219 .20898438 .09298706 .20898438 .07499695 .20898438 .04899597 .19998169 .04899597 .16098023 .04899597 .075790408 .116989139-.021484375 .22799683-.021484375 .34098817-.021484375 .43998719 .073791507 .43998719 .20097351 .43998719 .3199463 .3600006 .4189453 .25498963 .4189453 .19799805 .4189453 .1539917 .39393617 .12799073 .36595155V.5727997Z"/>
<path id="font_4_5" d="M.43998719 .16790772H.41799928C.4149933 .15092469 .40699769 .09597778 .39698792 .07998657 .3899994 .070999149 .33299256 .070999149 .30299378 .070999149H.117996219C.14498902 .09397888 .20599365 .15792847 .23199463 .18190003 .38398744 .3217926 .43998719 .37374879 .43998719 .47270204 .43998719 .5878906 .34899903 .66503909 .23298645 .66503909 .116989139 .66503909 .04899597 .5658264 .04899597 .4797058 .04899597 .42871095 .09298706 .42871095 .09599304 .42871095 .116989139 .42871095 .14299011 .44371034 .14299011 .475708 .14299011 .5037079 .12399292 .5227051 .09599304 .5227051 .08699036 .5227051 .084991458 .5227051 .08198547 .521698 .100997928 .5899048 .15499878 .6360321 .21998596 .6360321 .30499269 .6360321 .35699464 .56481936 .35699464 .47270204 .35699464 .3877411 .30799867 .313797 .25099183 .24984741L.04899597 .023986817V0H.4139862L.43998719 .16790772Z"/>
</defs>
<g>
<path transform="matrix(1.00003,0,0,-1.00003,35.00463,375.38584)" d="M0 0V297.64454L255.12387 170.08257 340.16517 0H0" fill="#0000ff" fill-opacity=".4"/>
<path transform="matrix(1.00003,0,0,-1.00003,35.00463,375.38584)" stroke-width=".3985" stroke-linecap="butt" stroke-miterlimit="10" stroke-linejoin="miter" fill="none" stroke="#0000ff" stroke-opacity=".4" d="M0 0V297.64454L255.12387 170.08257 340.16517 0H0"/>
</g>
<path transform="matrix(1.00003,0,0,-1.00003,35.00463,375.38584)" stroke-width="1.19553" stroke-linecap="butt" stroke-miterlimit="10" stroke-linejoin="miter" fill="none" stroke="#000000" d="M-25.51236 0H373.22529"/>
<path transform="matrix(1.00003,0,0,-1.00003,408.24113,375.38584)" stroke-width=".9564" stroke-linecap="round" stroke-linejoin="round" fill="none" stroke="#000000" d="M-1.91284 2.55046C-1.75343 1.59402 0 .15938 .4782 0 0-.15938-1.75343-1.59402-1.91284-2.55046"/>
<path transform="matrix(1.00003,0,0,-1.00003,35.00463,375.38584)" stroke-width="1.19553" stroke-linecap="butt" stroke-miterlimit="10" stroke-linejoin="miter" fill="none" stroke="#000000" d="M0-25.51236V373.22529"/>
<path transform="matrix(0,-1.00003,-1.00003,-0,35.00463,2.149353)" stroke-width=".9564" stroke-linecap="round" stroke-linejoin="round" fill="none" stroke="#000000" d="M-1.91284 2.55046C-1.75343 1.59402 0 .15938 .4782 0 0-.15938-1.75343-1.59402-1.91284-2.55046"/>
<path transform="matrix(1.00003,0,0,-1.00003,35.00463,375.38584)" stroke-width=".3985" stroke-linecap="butt" stroke-miterlimit="10" stroke-linejoin="miter" fill="none" stroke="#000000" d="M0 .59776V-.59776"/>
<use data-text="0" xlink:href="#font_1_1" transform="matrix(4.9814498,0,0,-4.9814498,33.115579,382.71406)"/>
<path transform="matrix(1.00003,0,0,-1.00003,35.00463,375.38584)" stroke-width=".3985" stroke-linecap="butt" stroke-miterlimit="10" stroke-linejoin="miter" fill="none" stroke="#000000" d="M85.04132 .59776V-.59776"/>
<use data-text="5" xlink:href="#font_1_4" transform="matrix(4.9814498,0,0,-4.9814498,118.160129,382.71406)"/>
<path transform="matrix(1.00003,0,0,-1.00003,35.00463,375.38584)" stroke-width=".3985" stroke-linecap="butt" stroke-miterlimit="10" stroke-linejoin="miter" fill="none" stroke="#000000" d="M170.08264 .59776V-.59776"/>
<use data-text="1" xlink:href="#font_1_2" transform="matrix(4.9814498,0,0,-4.9814498,201.3146,382.71406)"/>
<use data-text="0" xlink:href="#font_1_1" transform="matrix(4.9814498,0,0,-4.9814498,205.09055,382.71406)"/>
<path transform="matrix(1.00003,0,0,-1.00003,35.00463,375.38584)" stroke-width=".3985" stroke-linecap="butt" stroke-miterlimit="10" stroke-linejoin="miter" fill="none" stroke="#000000" d="M255.12398 .59776V-.59776"/>
<use data-text="1" xlink:href="#font_1_2" transform="matrix(4.9814498,0,0,-4.9814498,286.3592,382.71406)"/>
<use data-text="5" xlink:href="#font_1_4" transform="matrix(4.9814498,0,0,-4.9814498,290.13514,382.71406)"/>
<path transform="matrix(1.00003,0,0,-1.00003,35.00463,375.38584)" stroke-width=".3985" stroke-linecap="butt" stroke-miterlimit="10" stroke-linejoin="miter" fill="none" stroke="#000000" d="M340.1653 .59776V-.59776"/>
<use data-text="2" xlink:href="#font_1_3" transform="matrix(4.9814498,0,0,-4.9814498,371.40275,382.71406)"/>
<use data-text="0" xlink:href="#font_1_1" transform="matrix(4.9814498,0,0,-4.9814498,375.17869,382.71406)"/>
<path transform="matrix(1.00003,0,0,-1.00003,35.00463,375.38584)" stroke-width=".3985" stroke-linecap="butt" stroke-miterlimit="10" stroke-linejoin="miter" fill="none" stroke="#000000" d="M.59776 0H-.59776"/>
<use data-text="0" xlink:href="#font_1_1" transform="matrix(4.9814498,0,0,-4.9814498,27.109398,376.99089)"/>
<path transform="matrix(1.00003,0,0,-1.00003,35.00463,375.38584)" stroke-width=".3985" stroke-linecap="butt" stroke-miterlimit="10" stroke-linejoin="miter" fill="none" stroke="#000000" d="M.59776 85.04132H-.59776"/>
<use data-text="5" xlink:href="#font_1_4" transform="matrix(4.9814498,0,0,-4.9814498,27.109398,291.94734)"/>
<path transform="matrix(1.00003,0,0,-1.00003,35.00463,375.38584)" stroke-width=".3985" stroke-linecap="butt" stroke-miterlimit="10" stroke-linejoin="miter" fill="none" stroke="#000000" d="M.59776 170.08264H-.59776"/>
<use data-text="1" xlink:href="#font_1_2" transform="matrix(4.9814498,0,0,-4.9814498,23.331276,206.90277)"/>
<use data-text="0" xlink:href="#font_1_1" transform="matrix(4.9814498,0,0,-4.9814498,27.107216,206.90277)"/>
<path transform="matrix(1.00003,0,0,-1.00003,35.00463,375.38584)" stroke-width=".3985" stroke-linecap="butt" stroke-miterlimit="10" stroke-linejoin="miter" fill="none" stroke="#000000" d="M.59776 255.12398H-.59776"/>
<use data-text="1" xlink:href="#font_1_2" transform="matrix(4.9814498,0,0,-4.9814498,23.331276,121.85922)"/>
<use data-text="5" xlink:href="#font_1_4" transform="matrix(4.9814498,0,0,-4.9814498,27.107216,121.85922)"/>
<path transform="matrix(1.00003,0,0,-1.00003,35.00463,375.38584)" stroke-width=".3985" stroke-linecap="butt" stroke-miterlimit="10" stroke-linejoin="miter" fill="none" stroke="#000000" d="M.59776 340.1653H-.59776"/>
<use data-text="2" xlink:href="#font_1_3" transform="matrix(4.9814498,0,0,-4.9814498,23.331276,36.815675)"/>
<use data-text="0" xlink:href="#font_1_1" transform="matrix(4.9814498,0,0,-4.9814498,27.107216,36.815675)"/>
<path transform="matrix(1.00003,0,0,-1.00003,35.00463,375.38584)" stroke-width=".79701" stroke-linecap="butt" stroke-miterlimit="10" stroke-linejoin="miter" fill="none" stroke="#000000" d="M0 0V297.64454L255.12387 170.08257 340.16517 0H0"/>
<path transform="matrix(1.00003,0,0,-1.00003,35.00463,375.38584)" stroke-width=".79701" stroke-linecap="butt" stroke-dasharray="2.98883,2.98883" stroke-miterlimit="10" stroke-linejoin="miter" fill="none" stroke="#ff0000" d="M-17.00824 306.14866 374.1817 110.55367"/>
<use data-text="2" xlink:href="#font_2_2" transform="matrix(8.9104189,4.4551098,4.4551098,-8.9104189,190.93933,149.37668)" fill="#ff0000"/>
<use data-text="x" xlink:href="#font_3_1" transform="matrix(8.9104189,4.4551098,4.4551098,-8.9104189,195.39427,151.6041)" fill="#ff0000"/>
<use data-text="+" xlink:href="#font_2_1" transform="matrix(8.9104189,4.4551098,4.4551098,-8.9104189,202.46709,155.14044)" fill="#ff0000"/>
<use data-text="3" xlink:href="#font_2_3" transform="matrix(8.9104189,4.4551098,4.4551098,-8.9104189,211.3775,159.59552)" fill="#ff0000"/>
<use data-text="y" xlink:href="#font_3_2" transform="matrix(8.9104189,4.4551098,4.4551098,-8.9104189,215.8328,161.82312)" fill="#ff0000"/>
<use data-text="=" xlink:href="#font_2_6" transform="matrix(8.9104189,4.4551098,4.4551098,-8.9104189,222.99594,165.40464)" fill="#ff0000"/>
<use data-text="2" xlink:href="#font_2_2" transform="matrix(8.9104189,4.4551098,4.4551098,-8.9104189,232.39644,170.10477)" fill="#ff0000"/>
<use data-text="2" xlink:href="#font_2_2" transform="matrix(8.9104189,4.4551098,4.4551098,-8.9104189,236.85164,172.33234)" fill="#ff0000"/>
<path transform="matrix(1.00003,0,0,-1.00003,35.00463,375.38584)" stroke-width=".79701" stroke-linecap="butt" stroke-dasharray="2.98883,2.98883" stroke-miterlimit="10" stroke-linejoin="miter" fill="none" stroke="#bf0040" d="M153.07433 374.1817 348.66929-17.00824"/>
<use data-text="x" xlink:href="#font_3_1" transform="matrix(4.4551098,8.9104189,8.9104189,-4.4551098,266.3207,145.0204)" fill="#bf0040"/>
<use data-text="+" xlink:href="#font_2_1" transform="matrix(4.4551098,8.9104189,8.9104189,-4.4551098,269.8566,152.09233)" fill="#bf0040"/>
<use data-text="4" xlink:href="#font_2_4" transform="matrix(4.4551098,8.9104189,8.9104189,-4.4551098,274.3117,161.00276)" fill="#bf0040"/>
<use data-text="y" xlink:href="#font_3_2" transform="matrix(4.4551098,8.9104189,8.9104189,-4.4551098,276.5393,165.45806)" fill="#bf0040"/>
<use data-text="=" xlink:href="#font_2_6" transform="matrix(4.4551098,8.9104189,8.9104189,-4.4551098,280.12126,172.62209)" fill="#bf0040"/>
<use data-text="2" xlink:href="#font_2_2" transform="matrix(4.4551098,8.9104189,8.9104189,-4.4551098,284.82139,182.0226)" fill="#bf0040"/>
<use data-text="6" xlink:href="#font_2_5" transform="matrix(4.4551098,8.9104189,8.9104189,-4.4551098,287.04893,186.4778)" fill="#bf0040"/>
<path transform="matrix(1.00003,0,0,-1.00003,35.00463,375.38584)" d="M1.19554 0C1.19554 .66028 .66028 1.19554 0 1.19554-.66028 1.19554-1.19554 .66028-1.19554 0-1.19554-.66028-.66028-1.19554 0-1.19554 .66028-1.19554 1.19554-.66028 1.19554 0ZM0 0"/>
<path transform="matrix(1.00003,0,0,-1.00003,35.00463,375.38584)" stroke-width=".3985" stroke-linecap="butt" stroke-miterlimit="10" stroke-linejoin="miter" fill="none" stroke="#000000" d="M1.19554 0C1.19554 .66028 .66028 1.19554 0 1.19554-.66028 1.19554-1.19554 .66028-1.19554 0-1.19554-.66028-.66028-1.19554 0-1.19554 .66028-1.19554 1.19554-.66028 1.19554 0ZM0 0"/>
<use data-text="(" xlink:href="#font_4_1" transform="matrix(14.346631,0,0,-14.346631,.2175827,389.66627)"/>
<use data-text="0" xlink:href="#font_4_3" transform="matrix(14.346631,0,0,-14.346631,5.683655,389.66627)"/>
<use data-text="," xlink:href="#font_5_2" transform="matrix(14.346631,0,0,-14.346631,12.703964,389.66627)"/>
<use data-text="0" xlink:href="#font_4_3" transform="matrix(14.346631,0,0,-14.346631,18.997147,389.66627)"/>
<use data-text=")" xlink:href="#font_4_2" transform="matrix(14.346631,0,0,-14.346631,26.026993,389.66627)"/>
<path transform="matrix(1.00003,0,0,-1.00003,35.00463,375.38584)" d="M1.19554 297.64454C1.19554 298.3048 .66028 298.84007 0 298.84007-.66028 298.84007-1.19554 298.3048-1.19554 297.64454-1.19554 296.98426-.66028 296.44898 0 296.44898 .66028 296.44898 1.19554 296.98426 1.19554 297.64454ZM0 297.64454"/>
<path transform="matrix(1.00003,0,0,-1.00003,35.00463,375.38584)" stroke-width=".3985" stroke-linecap="butt" stroke-miterlimit="10" stroke-linejoin="miter" fill="none" stroke="#000000" d="M1.19554 297.64454C1.19554 298.3048 .66028 298.84007 0 298.84007-.66028 298.84007-1.19554 298.3048-1.19554 297.64454-1.19554 296.98426-.66028 296.44898 0 296.44898 .66028 296.44898 1.19554 296.98426 1.19554 297.64454ZM0 297.64454"/>
<use data-text="(" xlink:href="#font_4_1" transform="matrix(14.346631,0,0,-14.346631,38.524736,70.62567)"/>
<use data-text="0" xlink:href="#font_4_3" transform="matrix(14.346631,0,0,-14.346631,43.990808,70.62567)"/>
<use data-text="," xlink:href="#font_5_2" transform="matrix(14.346631,0,0,-14.346631,51.011117,70.62567)"/>
<use data-text="1" xlink:href="#font_4_4" transform="matrix(14.346631,0,0,-14.346631,57.3043,70.62567)"/>
<use data-text="7" xlink:href="#font_4_7" transform="matrix(14.346631,0,0,-14.346631,64.334148,70.62567)"/>
<use data-text="." xlink:href="#font_5_1" transform="matrix(14.346631,0,0,-14.346631,71.35172,70.62567)"/>
<use data-text="5" xlink:href="#font_4_6" transform="matrix(14.346631,0,0,-14.346631,75.25384,70.62567)"/>
<use data-text=")" xlink:href="#font_4_2" transform="matrix(14.346631,0,0,-14.346631,82.28367,70.62567)"/>
<path transform="matrix(1.00003,0,0,-1.00003,35.00463,375.38584)" d="M256.3194 170.08257C256.3194 170.74286 255.78415 171.2781 255.12387 171.2781 254.46358 171.2781 253.92832 170.74286 253.92832 170.08257 253.92832 169.42229 254.46358 168.88703 255.12387 168.88703 255.78415 168.88703 256.3194 169.42229 256.3194 170.08257ZM255.12387 170.08257"/>
<path transform="matrix(1.00003,0,0,-1.00003,35.00463,375.38584)" stroke-width=".3985" stroke-linecap="butt" stroke-miterlimit="10" stroke-linejoin="miter" fill="none" stroke="#000000" d="M256.3194 170.08257C256.3194 170.74286 255.78415 171.2781 255.12387 171.2781 254.46358 171.2781 253.92832 170.74286 253.92832 170.08257 253.92832 169.42229 254.46358 168.88703 255.12387 168.88703 255.78415 168.88703 256.3194 169.42229 256.3194 170.08257ZM255.12387 170.08257"/>
<use data-text="(" xlink:href="#font_4_1" transform="matrix(14.346631,0,0,-14.346631,293.65644,208.88483)"/>
<use data-text="1" xlink:href="#font_4_4" transform="matrix(14.346631,0,0,-14.346631,299.1225,208.88483)"/>
<use data-text="5" xlink:href="#font_4_6" transform="matrix(14.346631,0,0,-14.346631,306.15235,208.88483)"/>
<use data-text="," xlink:href="#font_5_2" transform="matrix(14.346631,0,0,-14.346631,313.16703,208.88483)"/>
<use data-text="1" xlink:href="#font_4_4" transform="matrix(14.346631,0,0,-14.346631,319.4602,208.88483)"/>
<use data-text="0" xlink:href="#font_4_3" transform="matrix(14.346631,0,0,-14.346631,326.49006,208.88483)"/>
<use data-text=")" xlink:href="#font_4_2" transform="matrix(14.346631,0,0,-14.346631,333.5199,208.88483)"/>
<path transform="matrix(1.00003,0,0,-1.00003,35.00463,375.38584)" d="M341.3607 0C341.3607 .66028 340.82545 1.19554 340.16517 1.19554 339.50489 1.19554 338.96965 .66028 338.96965 0 338.96965-.66028 339.50489-1.19554 340.16517-1.19554 340.82545-1.19554 341.3607-.66028 341.3607 0ZM340.16517 0"/>
<path transform="matrix(1.00003,0,0,-1.00003,35.00463,375.38584)" stroke-width=".3985" stroke-linecap="butt" stroke-miterlimit="10" stroke-linejoin="miter" fill="none" stroke="#000000" d="M341.3607 0C341.3607 .66028 340.82545 1.19554 340.16517 1.19554 339.50489 1.19554 338.96965 .66028 338.96965 0 338.96965-.66028 339.50489-1.19554 340.16517-1.19554 340.82545-1.19554 341.3607-.66028 341.3607 0ZM340.16517 0"/>
<use data-text="(" xlink:href="#font_4_1" transform="matrix(14.346631,0,0,-14.346631,378.69993,368.27964)"/>
<use data-text="2" xlink:href="#font_4_5" transform="matrix(14.346631,0,0,-14.346631,384.16603,368.27964)"/>
<use data-text="0" xlink:href="#font_4_3" transform="matrix(14.346631,0,0,-14.346631,391.19587,368.27964)"/>
<use data-text="," xlink:href="#font_5_2" transform="matrix(14.346631,0,0,-14.346631,398.2105,368.27964)"/>
<use data-text="0" xlink:href="#font_4_3" transform="matrix(14.346631,0,0,-14.346631,404.50373,368.27964)"/>
<use data-text=")" xlink:href="#font_4_2" transform="matrix(14.346631,0,0,-14.346631,411.53358,368.27964)"/>
</svg>
