<svg xmlns="http://www.w3.org/2000/svg" xmlns:xlink="http://www.w3.org/1999/xlink" version="1.1" width="155" height="84" viewBox="0 0 155 84">
<path transform="matrix(1.00006,0,0,-1,7.077286,77.647)" stroke-width=".3985" stroke-linecap="butt" stroke-miterlimit="10" stroke-linejoin="miter" fill="none" stroke="#000000" d="M0 0H141.73404"/>
<path transform="matrix(1.00006,0,0,-1,7.077286,77.647)" stroke-width=".3985" stroke-linecap="butt" stroke-miterlimit="10" stroke-linejoin="miter" fill="none" stroke="#000000" d="M0 70.867H141.73404"/>
<path transform="matrix(1.00006,0,0,-1,7.077286,77.647)" stroke-width=".3985" stroke-linecap="butt" stroke-miterlimit="10" stroke-linejoin="miter" fill="none" stroke="#000000" d="M0 0V70.867"/>
<path transform="matrix(1.00006,0,0,-1,7.077286,77.647)" d="M4.98138 70.867C4.98138 73.6182 2.75117 75.84839 0 75.84839-2.75117 75.84839-4.98138 73.6182-4.98138 70.867-4.98138 68.11583-2.75117 65.88562 0 65.88562 2.75117 65.88562 4.98138 68.11583 4.98138 70.867ZM0 70.867"/>
<path transform="matrix(1.00006,0,0,-1,7.077286,77.647)" stroke-width=".3985" stroke-linecap="butt" stroke-miterlimit="10" stroke-linejoin="miter" fill="none" stroke="#000000" d="M4.98138 70.867C4.98138 73.6182 2.75117 75.84839 0 75.84839-2.75117 75.84839-4.98138 73.6182-4.98138 70.867-4.98138 68.11583-2.75117 65.88562 0 65.88562 2.75117 65.88562 4.98138 68.11583 4.98138 70.867ZM0 70.867"/>
<path transform="matrix(1.00006,0,0,-1,7.077286,77.647)" d="M4.98138 0C4.98138 2.75117 2.75117 4.98138 0 4.98138-2.75117 4.98138-4.98138 2.75117-4.98138 0-4.98138-2.75117-2.75117-4.98138 0-4.98138 2.75117-4.98138 4.98138-2.75117 4.98138 0ZM0 0"/>
<path transform="matrix(1.00006,0,0,-1,7.077286,77.647)" stroke-width=".3985" stroke-linecap="butt" stroke-miterlimit="10" stroke-linejoin="miter" fill="none" stroke="#000000" d="M4.98138 0C4.98138 2.75117 2.75117 4.98138 0 4.98138-2.75117 4.98138-4.98138 2.75117-4.98138 0-4.98138-2.75117-2.75117-4.98138 0-4.98138 2.75117-4.98138 4.98138-2.75117 4.98138 0ZM0 0"/>
<path transform="matrix(1.00006,0,0,-1,7.077286,77.647)" stroke-width=".3985" stroke-linecap="butt" stroke-miterlimit="10" stroke-linejoin="miter" fill="none" stroke="#000000" d="M70.867 0V70.867"/>
<path transform="matrix(1.00006,0,0,-1,7.077286,77.647)" d="M75.84839 70.867C75.84839 73.6182 73.6182 75.84839 70.867 75.84839 68.11583 75.84839 65.88562 73.6182 65.88562 70.867 65.88562 68.11583 68.11583 65.88562 70.867 65.88562 73.6182 65.88562 75.84839 68.11583 75.84839 70.867ZM70.867 70.867"/>
<path transform="matrix(1.00006,0,0,-1,7.077286,77.647)" stroke-width=".3985" stroke-linecap="butt" stroke-miterlimit="10" stroke-linejoin="miter" fill="none" stroke="#000000" d="M75.84839 70.867C75.84839 73.6182 73.6182 75.84839 70.867 75.84839 68.11583 75.84839 65.88562 73.6182 65.88562 70.867 65.88562 68.11583 68.11583 65.88562 70.867 65.88562 73.6182 65.88562 75.84839 68.11583 75.84839 70.867ZM70.867 70.867"/>
<path transform="matrix(1.00006,0,0,-1,7.077286,77.647)" d="M75.84839 0C75.84839 2.75117 73.6182 4.98138 70.867 4.98138 68.11583 4.98138 65.88562 2.75117 65.88562 0 65.88562-2.75117 68.11583-4.98138 70.867-4.98138 73.6182-4.98138 75.84839-2.75117 75.84839 0ZM70.867 0"/>
<path transform="matrix(1.00006,0,0,-1,7.077286,77.647)" stroke-width=".3985" stroke-linecap="butt" stroke-miterlimit="10" stroke-linejoin="miter" fill="none" stroke="#000000" d="M75.84839 0C75.84839 2.75117 73.6182 4.98138 70.867 4.98138 68.11583 4.98138 65.88562 2.75117 65.88562 0 65.88562-2.75117 68.11583-4.98138 70.867-4.98138 73.6182-4.98138 75.84839-2.75117 75.84839 0ZM70.867 0"/>
<path transform="matrix(1.00006,0,0,-1,7.077286,77.647)" stroke-width=".3985" stroke-linecap="butt" stroke-miterlimit="10" stroke-linejoin="miter" fill="none" stroke="#000000" d="M141.73404 0V70.867"/>
<path transform="matrix(1.00006,0,0,-1,7.077286,77.647)" d="M146.71543 70.867C146.71543 73.6182 144.48522 75.84839 141.73404 75.84839 138.98287 75.84839 136.75266 73.6182 136.75266 70.867 136.75266 68.11583 138.98287 65.88562 141.73404 65.88562 144.48522 65.88562 146.71543 68.11583 146.71543 70.867ZM141.73404 70.867"/>
<path transform="matrix(1.00006,0,0,-1,7.077286,77.647)" stroke-width=".3985" stroke-linecap="butt" stroke-miterlimit="10" stroke-linejoin="miter" fill="none" stroke="#000000" d="M146.71543 70.867C146.71543 73.6182 144.48522 75.84839 141.73404 75.84839 138.98287 75.84839 136.75266 73.6182 136.75266 70.867 136.75266 68.11583 138.98287 65.88562 141.73404 65.88562 144.48522 65.88562 146.71543 68.11583 146.71543 70.867ZM141.73404 70.867"/>
<path transform="matrix(1.00006,0,0,-1,7.077286,77.647)" d="M146.71543 0C146.71543 2.75117 144.48522 4.98138 141.73404 4.98138 138.98287 4.98138 136.75266 2.75117 136.75266 0 136.75266-2.75117 138.98287-4.98138 141.73404-4.98138 144.48522-4.98138 146.71543-2.75117 146.71543 0ZM141.73404 0"/>
<path transform="matrix(1.00006,0,0,-1,7.077286,77.647)" stroke-width=".3985" stroke-linecap="butt" stroke-miterlimit="10" stroke-linejoin="miter" fill="none" stroke="#000000" d="M146.71543 0C146.71543 2.75117 144.48522 4.98138 141.73404 4.98138 138.98287 4.98138 136.75266 2.75117 136.75266 0 136.75266-2.75117 138.98287-4.98138 141.73404-4.98138 144.48522-4.98138 146.71543-2.75117 146.71543 0ZM141.73404 0"/>
<path transform="matrix(1.00006,0,0,-1,7.077286,77.647)" stroke-width=".3985" stroke-linecap="butt" stroke-miterlimit="10" stroke-linejoin="miter" fill="none" stroke="#000000" d="M70.867 70.867 141.73404 0"/>
<path transform="matrix(1.00006,0,0,-1,7.077286,77.647)" stroke-width=".3985" stroke-linecap="butt" stroke-miterlimit="10" stroke-linejoin="miter" fill="none" stroke="#000000" d="M0 0 70.867 70.867"/>
<path transform="matrix(1.00006,0,0,-1,7.077286,77.647)" stroke-width=".3985" stroke-linecap="butt" stroke-miterlimit="10" stroke-linejoin="miter" fill="none" stroke="#000000" d="M0 70.867 70.867 0"/>
<path transform="matrix(1.00006,0,0,-1,7.077286,77.647)" d="M40.41486 35.43347C40.41486 38.18466 38.18466 40.41486 35.43347 40.41486 32.6823 40.41486 30.45209 38.18466 30.45209 35.43347 30.45209 32.6823 32.6823 30.45209 35.43347 30.45209 38.18466 30.45209 40.41486 32.6823 40.41486 35.43347ZM35.43347 35.43347"/>
<path transform="matrix(1.00006,0,0,-1,7.077286,77.647)" stroke-width=".3985" stroke-linecap="butt" stroke-miterlimit="10" stroke-linejoin="miter" fill="none" stroke="#000000" d="M40.41486 35.43347C40.41486 38.18466 38.18466 40.41486 35.43347 40.41486 32.6823 40.41486 30.45209 38.18466 30.45209 35.43347 30.45209 32.6823 32.6823 30.45209 35.43347 30.45209 38.18466 30.45209 40.41486 32.6823 40.41486 35.43347ZM35.43347 35.43347"/>
</svg>
