<svg xmlns="http://www.w3.org/2000/svg" xmlns:xlink="http://www.w3.org/1999/xlink" xmlns:inkscape="http://www.inkscape.org/namespaces/inkscape" version="1.1" width="191" height="191" viewBox="0 0 191 191">
<defs>
<path id="font_1_82" d="M.4189911 0V.0309906H.3869934C.29699708 .0309906 .2939911 .041992189 .2939911 .07902527V.64012148C.2939911 .6640167 .2939911 .6660156 .2709961 .6660156 .20899964 .60227969 .12098694 .60227969 .08898926 .60227969V.57128909C.10899353 .57128909 .16799927 .57128909 .21998596 .5972748V.07902527C.21998596 .042999269 .21699524 .0309906 .1269989 .0309906H.09498596V0C.12998963 .0029907227 .21699524 .0029907227 .25698854 .0029907227 .29699708 .0029907227 .38398744 .0029907227 .4189911 0Z"/>
<path id="font_1_107" d="M.44898988 .17396546H.42399598C.4189911 .14398194 .4119873 .099990848 .4019928 .084991458 .394989 .07699585 .32899476 .07699585 .30699159 .07699585H.1269989L.23298645 .17996216C.3889923 .31803895 .44898988 .37210084 .44898988 .47216798 .44898988 .5860901 .35899354 .6660156 .23699951 .6660156 .12399292 .6660156 .049987794 .57411196 .049987794 .48516847 .049987794 .4291687 .099990848 .4291687 .102996829 .4291687 .11999512 .4291687 .15499878 .44117738 .15499878 .48217774 .15499878 .5081787 .13699341 .5341797 .101989749 .5341797 .09399414 .5341797 .09199524 .5341797 .08898926 .5331726 .11199951 .59806826 .1659851 .63500979 .22399903 .63500979 .31498719 .63500979 .35798646 .5541382 .35798646 .47216798 .35798646 .39196778 .30799867 .31297303 .25299073 .25097657L.06098938 .036987306C.049987794 .025985718 .049987794 .023986817 .049987794 0H.42099L.44898988 .17396546Z"/>
<path id="font_1_106" d="M.45700074 .17037964C.45700074 .252594 .3939972 .33088685 .2899933 .35191346 .37199403 .37893678 .42999269 .4490509 .42999269 .52809146 .42999269 .6100464 .34199525 .6660156 .24598694 .6660156 .14498902 .6660156 .068984989 .60606387 .068984989 .53009036 .068984989 .49710084 .09098816 .47808839 .11999512 .47808839 .15098572 .47808839 .17098999 .50009158 .17098999 .5290985 .17098999 .57910159 .12399292 .57910159 .10899353 .57910159 .13999939 .62802127 .20599365 .64100649 .24198914 .64100649 .2829895 .64100649 .33799745 .6190338 .33799745 .5290985 .33799745 .51708987 .33599855 .45906068 .30999757 .4149933 .27999879 .36691285 .24598694 .36390687 .22099304 .36291505 .21299744 .36190797 .18899536 .35990907 .18199158 .35990907 .17399597 .35890199 .16699219 .35791017 .16699219 .3479004 .16699219 .33691407 .17399597 .33691407 .19099427 .33691407H.23498535C.31698609 .33691407 .35398866 .2686615 .35398866 .17037964 .35398866 .034469606 .2849884 .0055389406 .24099732 .0055389406 .19799805 .0055389406 .12298584 .022491456 .08799744 .08137512 .12298584 .07637024 .1539917 .09837341 .1539917 .1363678 .1539917 .17237854 .1269989 .19238281 .09799194 .19238281 .07398987 .19238281 .041992189 .17837525 .041992189 .1343689 .041992189 .043441774 .1349945-.022460938 .24398804-.022460938 .3659973-.022460938 .45700074 .06838989 .45700074 .17037964Z"/>
<path id="font_1_57" d="M.47099305 .16503906V.19602967H.37098695V.6507721C.37098695 .6707611 .37098695 .6767578 .35499574 .6767578 .34599305 .6767578 .34298707 .6767578 .33499146 .6647644L.027999878 .19602967V.16503906H.2939911V.07800293C.2939911 .041992189 .2919922 .0309906 .21798706 .0309906H.19699097V0C.23799134 .0029907227 .2899933 .0029907227 .33198548 .0029907227 .37399293 .0029907227 .4269867 .0029907227 .46798707 0V.0309906H.44699098C.37298585 .0309906 .37098695 .041992189 .37098695 .07800293V.16503906H.47099305M.2999878 .19602967H.055999757L.2999878 .56881716V.19602967Z"/>
</defs>
<path transform="matrix(1.00003,0,0,-1,95.97031,95.643)" d="M8.80498 56.69363C8.80498 61.55655 4.86292 65.49861 0 65.49861-4.86292 65.49861-8.80498 61.55655-8.80498 56.69363-8.80498 51.83072-4.86292 47.88864 0 47.88864 4.86292 47.88864 8.80498 51.83072 8.80498 56.69363ZM0 56.69363"/>
<path transform="matrix(1.00003,0,0,-1,95.97031,95.643)" stroke-width=".3985" stroke-linecap="butt" stroke-miterlimit="10" stroke-linejoin="miter" fill="none" stroke="#000000" d="M8.80498 56.69363C8.80498 61.55655 4.86292 65.49861 0 65.49861-4.86292 65.49861-8.80498 61.55655-8.80498 56.69363-8.80498 51.83072-4.86292 47.88864 0 47.88864 4.86292 47.88864 8.80498 51.83072 8.80498 56.69363ZM0 56.69363"/>
<use data-text="1" xlink:href="#font_1_82" transform="matrix(9.962899,0,0,-9.9626,93.47923,42.267)"/>
<path transform="matrix(1.00003,0,0,-1,95.97031,95.643)" d="M57.90323-28.3468C57.90323-23.48389 53.96117-19.54181 49.09825-19.54181 44.23534-19.54181 40.29326-23.48389 40.29326-28.3468 40.29326-33.20972 44.23534-37.1518 49.09825-37.1518 53.96117-37.1518 57.90323-33.20972 57.90323-28.3468ZM49.09825-28.3468"/>
<path transform="matrix(1.00003,0,0,-1,95.97031,95.643)" stroke-width=".3985" stroke-linecap="butt" stroke-miterlimit="10" stroke-linejoin="miter" fill="none" stroke="#000000" d="M57.90323-28.3468C57.90323-23.48389 53.96117-19.54181 49.09825-19.54181 44.23534-19.54181 40.29326-23.48389 40.29326-28.3468 40.29326-33.20972 44.23534-37.1518 49.09825-37.1518 53.96117-37.1518 57.90323-33.20972 57.90323-28.3468ZM49.09825-28.3468"/>
<use data-text="2" xlink:href="#font_1_107" transform="matrix(9.962899,0,0,-9.9626,142.57971,127.307)"/>
<path transform="matrix(1.00003,0,0,-1,95.97031,95.643)" d="M-40.19403-28.3468C-40.19403-23.42908-44.18053-19.44258-49.09825-19.44258-54.01596-19.44258-58.00247-23.42908-58.00247-28.3468-58.00247-33.26453-54.01596-37.25102-49.09825-37.25102-44.18053-37.25102-40.19403-33.26453-40.19403-28.3468ZM-49.09825-28.3468"/>
<path transform="matrix(1.00003,0,0,-1,95.97031,95.643)" stroke-width=".3985" stroke-linecap="butt" stroke-miterlimit="10" stroke-linejoin="miter" fill="none" stroke="#000000" d="M-40.19403-28.3468C-40.19403-23.42908-44.18053-19.44258-49.09825-19.44258-54.01596-19.44258-58.00247-23.42908-58.00247-28.3468-58.00247-33.26453-54.01596-37.25102-49.09825-37.25102-44.18053-37.25102-40.19403-33.26453-40.19403-28.3468ZM-49.09825-28.3468"/>
<use data-text="3" xlink:href="#font_1_106" transform="matrix(9.962899,0,0,-9.9626,44.37976,127.198)"/>
<path transform="matrix(1.00003,0,0,-1,95.97031,95.643)" d="M8.80498 85.04044C8.80498 89.90335 4.86292 93.84543 0 93.84543-4.86292 93.84543-8.80498 89.90335-8.80498 85.04044-8.80498 80.17752-4.86292 76.23546 0 76.23546 4.86292 76.23546 8.80498 80.17752 8.80498 85.04044ZM0 85.04044"/>
<path transform="matrix(1.00003,0,0,-1,95.97031,95.643)" stroke-width=".3985" stroke-linecap="butt" stroke-miterlimit="10" stroke-linejoin="miter" fill="none" stroke="#000000" d="M8.80498 85.04044C8.80498 89.90335 4.86292 93.84543 0 93.84543-4.86292 93.84543-8.80498 89.90335-8.80498 85.04044-8.80498 80.17752-4.86292 76.23546 0 76.23546 4.86292 76.23546 8.80498 80.17752 8.80498 85.04044ZM0 85.04044"/>
<use data-text="1" xlink:href="#font_1_82" transform="matrix(9.962899,0,0,-9.9626,93.47923,13.919998)"/>
<path transform="matrix(1.00003,0,0,-1,95.97031,95.643)" d="M93.84543 0C93.84543 4.86292 89.90335 8.80498 85.04044 8.80498 80.17752 8.80498 76.23546 4.86292 76.23546 0 76.23546-4.86292 80.17752-8.80498 85.04044-8.80498 89.90335-8.80498 93.84543-4.86292 93.84543 0ZM85.04044 0"/>
<path transform="matrix(1.00003,0,0,-1,95.97031,95.643)" stroke-width=".3985" stroke-linecap="butt" stroke-miterlimit="10" stroke-linejoin="miter" fill="none" stroke="#000000" d="M93.84543 0C93.84543 4.86292 89.90335 8.80498 85.04044 8.80498 80.17752 8.80498 76.23546 4.86292 76.23546 0 76.23546-4.86292 80.17752-8.80498 85.04044-8.80498 89.90335-8.80498 93.84543-4.86292 93.84543 0ZM85.04044 0"/>
<use data-text="2" xlink:href="#font_1_107" transform="matrix(9.962899,0,0,-9.9626,178.5228,98.961)"/>
<path transform="matrix(1.00003,0,0,-1,95.97031,95.643)" d="M8.90422-85.04044C8.90422-80.12271 4.91771-76.13622 0-76.13622-4.91771-76.13622-8.90422-80.12271-8.90422-85.04044-8.90422-89.95816-4.91771-93.94466 0-93.94466 4.91771-93.94466 8.90422-89.95816 8.90422-85.04044ZM0-85.04044"/>
<path transform="matrix(1.00003,0,0,-1,95.97031,95.643)" stroke-width=".3985" stroke-linecap="butt" stroke-miterlimit="10" stroke-linejoin="miter" fill="none" stroke="#000000" d="M8.90422-85.04044C8.90422-80.12271 4.91771-76.13622 0-76.13622-4.91771-76.13622-8.90422-80.12271-8.90422-85.04044-8.90422-89.95816-4.91771-93.94466 0-93.94466 4.91771-93.94466 8.90422-89.95816 8.90422-85.04044ZM0-85.04044"/>
<use data-text="3" xlink:href="#font_1_106" transform="matrix(9.962899,0,0,-9.9626,93.47923,183.89099)"/>
<path transform="matrix(1.00003,0,0,-1,95.97031,95.643)" d="M-76.2087 0C-76.2087 4.87769-80.16275 8.83174-85.04044 8.83174-89.91812 8.83174-93.87218 4.87769-93.87218 0-93.87218-4.87769-89.91812-8.83174-85.04044-8.83174-80.16275-8.83174-76.2087-4.87769-76.2087 0ZM-85.04044 0"/>
<path transform="matrix(1.00003,0,0,-1,95.97031,95.643)" stroke-width=".3985" stroke-linecap="butt" stroke-miterlimit="10" stroke-linejoin="miter" fill="none" stroke="#000000" d="M-76.2087 0C-76.2087 4.87769-80.16275 8.83174-85.04044 8.83174-89.91812 8.83174-93.87218 4.87769-93.87218 0-93.87218-4.87769-89.91812-8.83174-85.04044-8.83174-80.16275-8.83174-76.2087-4.87769-76.2087 0ZM-85.04044 0"/>
<use data-text="4" xlink:href="#font_1_57" transform="matrix(9.962899,0,0,-9.9626,8.436676,99.015)"/>
<path transform="matrix(1.00003,0,0,-1,95.97031,95.643)" stroke-width=".3985" stroke-linecap="butt" stroke-miterlimit="10" stroke-linejoin="miter" fill="none" stroke="#000000" d="M0 65.69786V76.0362"/>
<path transform="matrix(1.00003,0,0,-1,95.97031,95.643)" stroke-width=".3985" stroke-linecap="butt" stroke-miterlimit="10" stroke-linejoin="miter" fill="none" stroke="#000000" d="M7.49165 51.69923 77.54878 4.99438"/>
<path transform="matrix(1.00003,0,0,-1,95.97031,95.643)" stroke-width=".3985" stroke-linecap="butt" stroke-miterlimit="10" stroke-linejoin="miter" fill="none" stroke="#000000" d="M0 47.68939V-75.93697"/>
<path transform="matrix(1.00003,0,0,-1,95.97031,95.643)" stroke-width=".3985" stroke-linecap="butt" stroke-miterlimit="10" stroke-linejoin="miter" fill="none" stroke="#000000" d="M-7.49165 51.69923-77.5265 5.00923"/>
<path transform="matrix(1.00003,0,0,-1,95.97031,95.643)" stroke-width=".3985" stroke-linecap="butt" stroke-miterlimit="10" stroke-linejoin="miter" fill="none" stroke="#000000" d="M45.52052-20.08437 3.57771 76.778"/>
<path transform="matrix(1.00003,0,0,-1,95.97031,95.643)" stroke-width=".3985" stroke-linecap="butt" stroke-miterlimit="10" stroke-linejoin="miter" fill="none" stroke="#000000" d="M56.16783-22.77124 77.97086-5.5757"/>
<path transform="matrix(1.00003,0,0,-1,95.97031,95.643)" stroke-width=".3985" stroke-linecap="butt" stroke-miterlimit="10" stroke-linejoin="miter" fill="none" stroke="#000000" d="M43.20378-35.15314 5.95941-78.15907"/>
<path transform="matrix(1.00003,0,0,-1,95.97031,95.643)" stroke-width=".3985" stroke-linecap="butt" stroke-miterlimit="10" stroke-linejoin="miter" fill="none" stroke="#000000" d="M40.2887-26.48526-76.20471-1.86707"/>
<path transform="matrix(1.00003,0,0,-1,95.97031,95.643)" stroke-width=".3985" stroke-linecap="butt" stroke-miterlimit="10" stroke-linejoin="miter" fill="none" stroke="#000000" d="M-45.4811-19.9933-3.57771 76.778"/>
<path transform="matrix(1.00003,0,0,-1,95.97031,95.643)" stroke-width=".3985" stroke-linecap="butt" stroke-miterlimit="10" stroke-linejoin="miter" fill="none" stroke="#000000" d="M-40.1916-26.46475 76.2309-1.86154"/>
<path transform="matrix(1.00003,0,0,-1,95.97031,95.643)" stroke-width=".3985" stroke-linecap="butt" stroke-miterlimit="10" stroke-linejoin="miter" fill="none" stroke="#000000" d="M-43.13882-35.22816-5.95941-78.15907"/>
<path transform="matrix(1.00003,0,0,-1,95.97031,95.643)" stroke-width=".3985" stroke-linecap="butt" stroke-miterlimit="10" stroke-linejoin="miter" fill="none" stroke="#000000" d="M-56.24574-22.70966-77.94984-5.59227"/>
</svg>
