<svg xmlns="http://www.w3.org/2000/svg" xmlns:xlink="http://www.w3.org/1999/xlink" xmlns:inkscape="http://www.inkscape.org/namespaces/inkscape" version="1.1" width="153" height="145" viewBox="0 0 153 145">
<defs>
<path id="font_1_1" d="M.68499758 .31726075C.68499758 .48518373 .6439972 .6611328 .3789978 .6611328 .116989139 .6611328 .07299805 .48918153 .07299805 .31726075 .07299805 .13934326 .125-.016601563 .3789978-.016601563 .6369934-.016601563 .68499758 .14334107 .68499758 .31726075M.3789978 .039398195C.33999635 .039398195 .25898744 .0493927 .23699951 .13034058 .22399903 .17932129 .22299195 .26028443 .22299195 .33224488 .22299195 .4052124 .22299195 .48417665 .23999024 .53215029 .25698854 .5771332 .30899049 .6051178 .3789978 .6051178 .43798829 .6051178 .49899293 .5851288 .5189972 .52716067 .5349884 .4811859 .5349884 .39822389 .5349884 .33224488 .5349884 .271286 .5349884 .17732239 .519989 .12834168 .49598695 .04838562 .41600038 .039398195 .3789978 .039398195Z"/>
<path id="font_1_2" d="M.45899964 .6231842C.45899964 .654129 .45298768 .6611328 .42099 .6611328H.3999939C.31498719 .5972595 .18598938 .5972595 .16299439 .5972595H.13598633V.53027346H.16299439C.1749878 .53027346 .2519989 .53027346 .32499696 .55526736V.066986087H.14399719V0C.19299317 .0039978029 .33499146 .0039978029 .3919983 .0039978029 .44898988 .0039978029 .59098818 .0039978029 .6399994 0V.066986087H.45899964V.6231842Z"/>
<path id="font_1_3" d="M.6689911 .2110138H.58599856C.57899478 .17199707 .5649872 .14698792 .55599978 .14498902 .5319977 .14199829 .4889984 .14199829 .45498658 .14199829H.30599977C.36999513 .18299866 .43099977 .22102356 .47399903 .24401856 .58599856 .30604554 .6689911 .35205079 .6689911 .4560852 .6689911 .5801239 .5549927 .6611328 .35699464 .6611328 .30999757 .6611328 .08898926 .66012576 .08898926 .5131073 .08898926 .45307923 .13798523 .42907716 .17098999 .42907716 .21099854 .42907716 .2539978 .4570923 .2539978 .5121002 .2539978 .54811099 .23298645 .5691223 .22799683 .5741272 .2639923 .59213259 .30099488 .59413149 .32398988 .59413149 .42199708 .59413149 .5099945 .54711917 .5099945 .45509339 .5099945 .37705995 .44898988 .31803895 .3849945 .2720337L.10598755 .068984989C.08898926 .056991579 .08898926 .052993776 .08898926 .0309906V0H.6299896L.6689911 .2110138Z"/>
<path id="font_1_4" d="M.36299134 .3203125C.49699403 .3203125 .5089874 .2373352 .5089874 .18234253 .5089874 .13237 .5 .044387819 .3639984 .044387819 .34298707 .044387819 .2649994 .04638672 .21398926 .07937622 .23498535 .09437561 .25 .11936951 .25 .15135193 .25 .2003479 .21398926 .2373352 .1639862 .2373352 .11399841 .2373352 .07699585 .20333863 .07699585 .14935303 .07699585 .05038452 .17599488-.016601563 .36698915-.016601563 .6139984-.016601563 .68099978 .103378299 .68099978 .18135071 .68099978 .2703247 .598999 .3283081 .5019989 .3513031 .5609894 .37130738 .6399994 .42126466 .6399994 .51319888 .6399994 .59513857 .5499878 .6611328 .37098695 .6611328 .21099854 .6611328 .117996219 .59313967 .117996219 .5002136 .117996219 .44425965 .1619873 .41827394 .19898987 .41827394 .23999024 .41827394 .27999879 .4482422 .27999879 .49920655 .27999879 .548172 .24198914 .56915286 .23999024 .57014468 .2809906 .5991211 .33299256 .6051178 .3659973 .6051178 .46398927 .6051178 .4850006 .5631561 .4850006 .51519778 .4850006 .47323609 .45999146 .38430787 .33999635 .37930299 .32899476 .37930299 .28399659 .37730409 .2769928 .37631227 .25898744 .3722992 .25898744 .3553009 .25898744 .34831239 .25898744 .3203125 .2749939 .3203125 .2939911 .3203125H.36299134Z"/>
<path id="font_1_5" d="M.70098879 .15527344V.22225952H.56999209V.6309509C.56999209 .6619415 .56399539 .6689453 .5319977 .6689453H.46099855C.43499757 .6689453 .43099977 .66693118 .4189911 .65193179L.056991579 .22225952V.15527344H.42799378V.06689453H.2869873V-.00010681152C.33599855 .00390625 .44299317 .00390625 .49699403 .00390625 .5529938 .00390625 .647995 .00390625 .70098879-.00010681152V.06689453H.56999209V.15527344H.70098879M.44499208 .5799866V.22225952H.14399719L.44499208 .5799866Z"/>
<path id="font_2_5" d="M.46199037 .17704773H.43399049C.43199159 .16404724 .42399598 .10501099 .41099549 .08900452 .40499879 .07998657 .33599855 .07998657 .31599427 .07998657H.13798523L.23699951 .17404175C.40098573 .3161316 .46199037 .36915589 .46199037 .4711914 .46199037 .5860901 .36698915 .6660156 .24398804 .6660156 .1289978 .6660156 .050994874 .575119 .050994874 .4841919 .050994874 .43418885 .09399414 .42919923 .102996829 .42919923 .125 .42919923 .15499878 .44519044 .15499878 .48120118 .15499878 .51119998 .13398743 .5332031 .102996829 .5332031 .09799194 .5332031 .09498596 .5332031 .09098816 .53219607 .114990238 .6030731 .1789856 .63500979 .23298645 .63500979 .33499146 .63500979 .36999513 .5401764 .36999513 .4711914 .36999513 .36915589 .29299928 .28611756 .24499512 .23408509L.06199646 .035995485C.050994874 .024993897 .050994874 .022994996 .050994874 0H.43399049L.46199037 .17704773Z"/>
<path id="font_3_3" d="M.49198915 .40434266C.45498658 .39733888 .44400025 .3653412 .44400025 .3503418 .44400025 .33132936 .45799256 .31433106 .48298646 .31433106 .5109863 .31433106 .5379944 .33833314 .5379944 .3733368 .5379944 .41937257 .48799134 .4423828 .44099427 .4423828 .3809967 .4423828 .34599305 .38934327 .33399964 .3683319 .31498719 .41737367 .2709961 .4423828 .22299195 .4423828 .115997318 .4423828 .057998659 .31433106 .057998659 .28833009 .057998659 .2793274 .06498718 .2763214 .07199097 .2763214 .08099365 .2763214 .083999637 .2813263 .085998538 .287323 .116989139 .38633729 .18299866 .41737367 .22099304 .41737367 .25 .41737367 .27598573 .3983307 .27598573 .35133363 .27598573 .31533814 .23298645 .15530396 .21998596 .107284549 .21199036 .076293949 .18199158 .014251709 .1269989 .014251709 .10699463 .014251709 .085998538 .021270752 .07598877 .027282715 .102996829 .032287599 .12298584 .055282594 .12298584 .08128357 .12298584 .106292728 .10398865 .11729431 .084991458 .11729431 .055999757 .11729431 .02999878 .092285159 .02999878 .058288576 .02999878 .009246826 .083999637-.0107421879 .12599182-.0107421879 .18399048-.0107421879 .21798706 .03729248 .23298645 .06428528 .2579956-.0017547608 .31698609-.0107421879 .34399415-.0107421879 .45199586-.0107421879 .5089874 .11929321 .5089874 .14329529 .5089874 .14830017 .5059967 .15530396 .49598695 .15530396 .4850006 .15530396 .48399354 .1512909 .47898866 .1362915 .45700074 .06428528 .39898683 .014251709 .34700013 .014251709 .31799317 .014251709 .29100038 .032287599 .29100038 .08029175 .29100038 .10229492 .30499269 .15730286 .31399537 .1953125 .31799317 .21331787 .34498597 .32133485 .34700013 .32833863 .35899354 .3643341 .3889923 .41737367 .43998719 .41737367 .45799256 .41737367 .47698976 .41436769 .49198915 .40434266Z"/>
<path id="font_2_3" d="M.70599368 .22944641C.7200012 .22944641 .7409973 .22944641 .7409973 .25045777 .7409973 .27246095 .7220001 .27246095 .70599368 .27246095H.42099V.5578003C.42099 .573761 .42099 .59277346 .39898683 .59277346 .37799073 .59277346 .37799073 .57177737 .37799073 .5578003V.27246095H.09199524C.07798767 .27246095 .056991579 .27246095 .056991579 .25144959 .056991579 .22944641 .07598877 .22944641 .09199524 .22944641H.37799073V-.056793214C.37799073-.07279968 .37799073-.091796878 .3999939-.091796878 .42099-.091796878 .42099-.07080078 .42099-.056793214V.22944641H.70599368Z"/>
<path id="font_3_4" d="M.5019989 .38536073C.5029907 .3903656 .5049896 .39637757 .5049896 .40237428 .5049896 .41537477 .49598695 .43138124 .47399903 .43138124 .46099855 .43138124 .44299317 .42337037 .43499757 .40437318 .43399049 .40037538 .42399598 .35935975 .41799928 .33735658L.36799623 .13728333C.3600006 .10827637 .3600006 .106277469 .35798646 .09727478 .35699464 .09327698 .31498719 .014251709 .24299622 .014251709 .18099976 .014251709 .18099976 .07727051 .18099976 .09628296 .18099976 .14129639 .19400025 .19030762 .23699951 .30233766 .24499512 .3253479 .25099183 .33935548 .25099183 .35835267 .25099183 .40737916 .21398926 .4423828 .16499329 .4423828 .068984989 .4423828 .0289917 .30033876 .0289917 .28833009 .0289917 .2793274 .035995485 .27633668 .042999269 .27633668 .053985597 .27633668 .054992677 .28233338 .05899048 .29533387 .07998657 .3693695 .11999512 .41737367 .1619873 .41737367 .18598938 .41737367 .18598938 .39837647 .18598938 .3843689 .18598938 .36735536 .18199158 .34934999 .17298889 .3253479 .12599182 .2013092 .11299133 .15930176 .11299133 .11128235 .11299133 .00024414063 .20298767-.0107421879 .23999024-.0107421879 .2889862-.0107421879 .32398988 .01524353 .34199525 .0332489 .32899476-.017745972 .31799317-.0627594 .2789917-.11276245 .24899292-.15286255 .20899964-.18008423 .16499329-.18008423 .13699341-.18008423 .10398865-.16999817 .08999634-.14176941 .14299011-.14176941 .1499939-.09776306 .1499939-.087768558 .1499939-.06576538 .13398743-.051757814 .11199951-.051757814 .08799744-.051757814 .055999757-.07077026 .055999757-.116760257 .055999757-.16899109 .101989749-.20507813 .16499329-.20507813 .2669983-.20507813 .37599183-.117767337 .40499879-.00074768069L.5019989 .38536073Z"/>
<path id="font_2_9" d="M.70799258 .3310089C.7220001 .3310089 .7409973 .3310089 .7409973 .35202027 .7409973 .37402345 .71899417 .37402345 .70399478 .37402345H.09399414C.07899475 .37402345 .056991579 .37402345 .056991579 .35202027 .056991579 .3310089 .07699585 .3310089 .08999634 .3310089H.70799258M.70399478 .12695313C.71899417 .12695313 .7409973 .12695313 .7409973 .14894104 .7409973 .1699524 .7220001 .1699524 .70799258 .1699524H.08999634C.07699585 .1699524 .056991579 .1699524 .056991579 .14894104 .056991579 .12695313 .07899475 .12695313 .09399414 .12695313H.70399478Z"/>
<path id="font_2_4" d="M.47299195 .31976319C.47299195 .38682557 .46998597 .47288514 .43499757 .5479431 .3909912 .64201357 .31498719 .6660156 .25698854 .6660156 .19699097 .6660156 .12098694 .64201357 .07699585 .5459442 .04499817 .47688294 .039993287 .39582826 .039993287 .31976319 .039993287 .25471498 .041992189 .15765381 .084991458 .07858276 .13198853-.0064697267 .20999146-.022460938 .2559967-.022460938 .32099916-.022460938 .394989 .0055389406 .43699647 .097595218 .46699525 .1646576 .47299195 .23971558 .47299195 .31976319M.25698854 .002532959C.22698975 .002532959 .15499878 .016540528 .13598633 .12962342 .12599182 .18867493 .12599182 .2747345 .12599182 .33177186 .12599182 .39982606 .12599182 .47888185 .13798523 .53393557 .1579895 .6230011 .22200012 .64100649 .2559967 .64100649 .2939911 .64100649 .35699464 .62098696 .37599183 .5279236 .3869934 .47288514 .3869934 .39482118 .3869934 .33177186 .3869934 .2697296 .3869934 .18566895 .3769989 .12661743 .35598756 .012542725 .28199769 .002532959 .25698854 .002532959Z"/>
<path id="font_2_1" d="M.34098817-.23803711C.34098817-.23303223 .33799745-.23002625 .33198548-.22303772 .20298767-.105026248 .1639862 .07498169 .1639862 .24996948 .1639862 .40498353 .19400025 .59298709 .33499146 .72698977 .33898927 .73098757 .34098817 .73399356 .34098817 .7389984 .34098817 .74598696 .33599855 .75 .32899476 .75 .31698609 .75 .22698975 .6779785 .17298889 .568985 .125 .47297669 .100997928 .36997987 .100997928 .25097657 .100997928 .17897034 .10998535 .064971927 .16499329-.053024293 .22399903-.17602539 .31698609-.24902344 .32899476-.24902344 .33599855-.24902344 .34098817-.24502564 .34098817-.23803711Z"/>
<path id="font_3_1" d="M.18199158 .015991211C.18199158-.017044068 .18199158-.09921265 .10798645-.17036438 .101989749-.17636109 .101989749-.17736817 .101989749-.18136597 .101989749-.18836975 .10899353-.19335938 .114990238-.19335938 .12599182-.19335938 .20698548-.115249637 .20698548 .0019989014 .20698548 .06399536 .18499756 .10798645 .14199829 .10798645 .10798645 .10798645 .08799744 .08198547 .08799744 .053985597 .08799744 .025985718 .10798645 0 .14199829 0 .15699768 0 .17199707 .004989624 .18199158 .015991211Z"/>
<path id="font_2_2" d="M.2979889 .25097657C.2979889 .3329773 .28599549 .4429779 .23399353 .5539856 .1749878 .6769867 .08198547 .75 .069992069 .75 .05999756 .75 .057998659 .74198916 .057998659 .7389984 .057998659 .73399356 .05999756 .73098757 .066986087 .72398379 .125 .6719818 .23498535 .5359802 .23498535 .25097657 .23498535 .10797119 .20899964-.091033939 .06399536-.22602844 .06199646-.22903443 .057998659-.23303223 .057998659-.23803711 .057998659-.24102783 .05999756-.24902344 .069992069-.24902344 .08198547-.24902344 .17199707-.17703247 .22599793-.06802368 .27398683 .02796936 .2979889 .13098145 .2979889 .25097657Z"/>
<path id="font_2_7" d="M.0289917 .19602967V.16503906H.3019867V.07901001C.3019867 .041992189 .29899598 .0309906 .22399903 .0309906H.20199585V0C.2649994 .0029907227 .33499146 .0029907227 .34199525 .0029907227 .34700013 .0029907227 .4189911 .0029907227 .48199464 0V.0309906H.45999146C.3849945 .0309906 .38198854 .041992189 .38198854 .07901001V.16503906H.48399354V.19602967H.38198854V.64974978C.38198854 .669754 .38198854 .6767578 .36299134 .6767578 .35099793 .6767578 .34999085 .67575076 .34098817 .66174319L.0289917 .19602967M.06098938 .19602967 .30799867 .56581118V.19602967H.06098938Z"/>
<path id="font_3_2" d="M.44999696 .70999148C.45599366 .723999 .45599366 .7259979 .45599366 .7279968 .45599366 .7409973 .44599916 .75 .43499757 .75 .42099 .75 .4169922 .74198916 .41600038 .73999026L.06298828-.21000672C.056991579-.22401428 .056991579-.22601319 .056991579-.22801209 .056991579-.24101258 .066986087-.25 .07798767-.25 .08799744-.25 .09599304-.2460022 .102996829-.22601319L.44999696 .70999148Z"/>
<path id="font_2_6" d="M.30499269 .35195924C.397995 .38697816 .44198609 .46006776 .44198609 .5290985 .44198609 .60606387 .35699464 .6660156 .25299073 .6660156 .14898682 .6660156 .070999149 .60705569 .070999149 .5310974 .070999149 .49809266 .09298706 .47909547 .12199402 .47909547 .15098572 .47909547 .17199707 .50009158 .17199707 .5290985 .17199707 .5640869 .147995 .57910159 .11399841 .57910159 .13999939 .6210327 .20098877 .64100649 .25 .64100649 .33299256 .64100649 .34899903 .5750885 .34899903 .52809146 .34899903 .49809266 .34298707 .45005799 .31799317 .41201783 .2869873 .36695863 .2519989 .36495973 .22299195 .36296083 .19799805 .36094667 .19599915 .36094667 .18798828 .36094667 .1789856 .35995484 .17098999 .35894776 .17098999 .34794618 .17098999 .33496095 .1789856 .33496095 .19599915 .33496095H.24299622C.32998658 .33496095 .36799623 .2646637 .36799623 .16937256 .36799623 .04145813 .2999878 .0055389406 .24899292 .0055389406 .22999573 .0055389406 .1329956 .010528564 .08799744 .0843811 .12399292 .07939148 .1519928 .10437012 .1519928 .13838196 .1519928 .17137146 .1269989 .19238281 .09799194 .19238281 .07299805 .19238281 .042999269 .17736817 .042999269 .13537598 .042999269 .046447755 .13598633-.022460938 .2519989-.022460938 .3769989-.022460938 .46998597 .06741333 .46998597 .16937256 .46998597 .25663758 .40098573 .33093263 .30499269 .35195924Z"/>
<path id="font_2_8" d="M.17199707 .45387269C.14199829 .47288514 .11898804 .4998932 .11898804 .53692629 .11898804 .6019745 .18899536 .64100649 .25498963 .64100649 .33198548 .64100649 .3939972 .58695986 .3939972 .51690676 .3939972 .44685365 .33399964 .40083314 .2939911 .37780763L.17199707 .45387269M.31900025 .36180116C.36898805 .38581849 .44198609 .43585206 .44198609 .51690676 .44198609 .6109772 .34799195 .6660156 .2579956 .6660156 .15299988 .6660156 .070999149 .5909729 .070999149 .49890138 .070999149 .46087647 .084991458 .42485047 .10899353 .39582826 .12599182 .3768158 .13198853 .37280274 .18998719 .3357849 .101989749 .29374696 .042999269 .23269654 .042999269 .15063477 .042999269 .044555665 .147995-.022460938 .2559967-.022460938 .37199403-.022460938 .46998597 .059570314 .46998597 .16764832 .46998597 .26472474 .3959961 .3127594 .37098695 .32876588 .3600006 .33677674 .33099366 .35479737 .31900025 .36180116M.21699524 .31877137 .34298707 .2407074C.3659973 .22569275 .41600038 .19366455 .41600038 .1326294 .41600038 .05357361 .33599855 .0055389406 .25698854 .0055389406 .16999817 .0055389406 .09700012 .06758118 .09700012 .15063477 .09700012 .22268677 .14698792 .28274537 .21699524 .31877137Z"/>
</defs>
<g>
<path transform="matrix(1.00009,0,0,-1.00006,24.218918,128.76383)" d="M0 0 37.7956 75.59119 75.59119 37.7956 0 0" fill="#0000ff" fill-opacity=".4"/>
<path transform="matrix(1.00009,0,0,-1.00006,24.218918,128.76383)" stroke-width=".3985" stroke-linecap="butt" stroke-miterlimit="10" stroke-linejoin="miter" fill="none" stroke="#0000ff" stroke-opacity=".4" d="M0 0 37.7956 75.59119 75.59119 37.7956 0 0"/>
</g>
<path transform="matrix(1.00009,0,0,-1.00006,24.218918,128.76383)" stroke-width="1.19553" stroke-linecap="butt" stroke-miterlimit="10" stroke-linejoin="miter" fill="none" stroke="#000000" d="M-14.17339 0H126.60422"/>
<path transform="matrix(1.00009,0,0,-1.00006,150.83454,128.76383)" stroke-width=".9564" stroke-linecap="round" stroke-linejoin="round" fill="none" stroke="#000000" d="M-1.91284 2.55046C-1.75343 1.59402 0 .15938 .4782 0 0-.15938-1.75343-1.59402-1.91284-2.55046"/>
<path transform="matrix(1.00009,0,0,-1.00006,24.218918,128.76383)" stroke-width="1.19553" stroke-linecap="butt" stroke-miterlimit="10" stroke-linejoin="miter" fill="none" stroke="#000000" d="M0-14.17339V126.60422"/>
<path transform="matrix(0,-1.00006,-1.00009,-0,24.218918,2.1520158)" stroke-width=".9564" stroke-linecap="round" stroke-linejoin="round" fill="none" stroke="#000000" d="M-1.91284 2.55046C-1.75343 1.59402 0 .15938 .4782 0 0-.15938-1.75343-1.59402-1.91284-2.55046"/>
<path transform="matrix(1.00009,0,0,-1.00006,24.218918,128.76383)" stroke-width=".3985" stroke-linecap="butt" stroke-miterlimit="10" stroke-linejoin="miter" fill="none" stroke="#000000" d="M0 .99628V-.99628"/>
<use data-text="0" xlink:href="#font_1_1" transform="matrix(4.981748,0,0,-4.9815986,22.32975,136.4903)"/>
<path transform="matrix(1.00009,0,0,-1.00006,24.218918,128.76383)" stroke-width=".3985" stroke-linecap="butt" stroke-miterlimit="10" stroke-linejoin="miter" fill="none" stroke="#000000" d="M28.3468 .99628V-.99628"/>
<use data-text="1" xlink:href="#font_1_2" transform="matrix(4.981748,0,0,-4.9815986,50.6793,136.4903)"/>
<path transform="matrix(1.00009,0,0,-1.00006,24.218918,128.76383)" stroke-width=".3985" stroke-linecap="butt" stroke-miterlimit="10" stroke-linejoin="miter" fill="none" stroke="#000000" d="M56.69363 .99628V-.99628"/>
<use data-text="2" xlink:href="#font_1_3" transform="matrix(4.981748,0,0,-4.9815986,79.028858,136.4903)"/>
<path transform="matrix(1.00009,0,0,-1.00006,24.218918,128.76383)" stroke-width=".3985" stroke-linecap="butt" stroke-miterlimit="10" stroke-linejoin="miter" fill="none" stroke="#000000" d="M85.04045 .99628V-.99628"/>
<use data-text="3" xlink:href="#font_1_4" transform="matrix(4.981748,0,0,-4.9815986,107.3784,136.4903)"/>
<path transform="matrix(1.00009,0,0,-1.00006,24.218918,128.76383)" stroke-width=".3985" stroke-linecap="butt" stroke-miterlimit="10" stroke-linejoin="miter" fill="none" stroke="#000000" d="M113.38728 .99628V-.99628"/>
<use data-text="4" xlink:href="#font_1_5" transform="matrix(4.981748,0,0,-4.9815986,135.72795,136.4903)"/>
<path transform="matrix(1.00009,0,0,-1.00006,24.218918,128.76383)" stroke-width=".3985" stroke-linecap="butt" stroke-miterlimit="10" stroke-linejoin="miter" fill="none" stroke="#000000" d="M.99628 0H-.99628"/>
<use data-text="0" xlink:href="#font_1_1" transform="matrix(4.981748,0,0,-4.9815986,15.924171,130.36893)"/>
<path transform="matrix(1.00009,0,0,-1.00006,24.218918,128.76383)" stroke-width=".3985" stroke-linecap="butt" stroke-miterlimit="10" stroke-linejoin="miter" fill="none" stroke="#000000" d="M.99628 28.3468H-.99628"/>
<use data-text="1" xlink:href="#font_1_2" transform="matrix(4.981748,0,0,-4.9815986,15.924171,102.02022)"/>
<path transform="matrix(1.00009,0,0,-1.00006,24.218918,128.76383)" stroke-width=".3985" stroke-linecap="butt" stroke-miterlimit="10" stroke-linejoin="miter" fill="none" stroke="#000000" d="M.99628 56.69363H-.99628"/>
<use data-text="2" xlink:href="#font_1_3" transform="matrix(4.981748,0,0,-4.9815986,15.924171,73.671527)"/>
<path transform="matrix(1.00009,0,0,-1.00006,24.218918,128.76383)" stroke-width=".3985" stroke-linecap="butt" stroke-miterlimit="10" stroke-linejoin="miter" fill="none" stroke="#000000" d="M.99628 85.04045H-.99628"/>
<use data-text="3" xlink:href="#font_1_4" transform="matrix(4.981748,0,0,-4.9815986,15.924171,45.323823)"/>
<path transform="matrix(1.00009,0,0,-1.00006,24.218918,128.76383)" stroke-width=".3985" stroke-linecap="butt" stroke-miterlimit="10" stroke-linejoin="miter" fill="none" stroke="#000000" d="M.99628 113.38728H-.99628"/>
<use data-text="4" xlink:href="#font_1_5" transform="matrix(4.981748,0,0,-4.9815986,15.924171,16.97512)"/>
<path transform="matrix(1.00009,0,0,-1.00006,24.218918,128.76383)" stroke-width=".79701" stroke-linecap="butt" stroke-miterlimit="10" stroke-linejoin="miter" fill="none" stroke="#000000" d="M0 0 37.7956 75.59119 75.59119 37.7956 0 0"/>
<path transform="matrix(1.00009,0,0,-1.00006,24.218918,128.76383)" stroke-width=".79701" stroke-linecap="butt" stroke-dasharray="2.98883,2.98883" stroke-miterlimit="10" stroke-linejoin="miter" fill="none" stroke="#ff0000" d="M-14.17339-7.08669 127.56062 63.7803"/>
<use data-text="2" xlink:href="#font_2_5" transform="matrix(8.019911,-4.0097458,-4.0098659,-8.0196709,58.913118,122.035)" fill="#ff0000"/>
<use data-text="x" xlink:href="#font_3_3" transform="matrix(8.019911,-4.0097458,-4.0098659,-8.0196709,63.033815,119.97477)" fill="#ff0000"/>
<use data-text="+" xlink:href="#font_2_3" transform="matrix(8.019911,-4.0097458,-4.0098659,-8.0196709,69.53818,116.72275)" fill="#ff0000"/>
<use data-text="y" xlink:href="#font_3_4" transform="matrix(8.019911,-4.0097458,-4.0098659,-8.0196709,77.78046,112.60183)" fill="#ff0000"/>
<use data-text="=" xlink:href="#font_2_9" transform="matrix(8.019911,-4.0097458,-4.0098659,-8.0196709,84.417209,109.28363)" fill="#ff0000"/>
<use data-text="0" xlink:href="#font_2_4" transform="matrix(8.019911,-4.0097458,-4.0098659,-8.0196709,93.11078,104.937068)" fill="#ff0000"/>
<path transform="matrix(1.00009,0,0,-1.00006,24.218918,128.76383)" stroke-width=".79701" stroke-linecap="butt" stroke-dasharray="2.98883,2.98883" stroke-miterlimit="10" stroke-linejoin="miter" fill="none" stroke="#008080" d="M-7.08669-14.17339 63.7803 127.56062"/>
<use data-text="x" xlink:href="#font_3_3" transform="matrix(4.0098659,-8.0196709,-8.019911,-4.0097458,41.02958,82.9276)" fill="#008080"/>
<use data-text="+" xlink:href="#font_2_3" transform="matrix(4.0098659,-8.0196709,-8.019911,-4.0097458,44.281244,76.42432)" fill="#008080"/>
<use data-text="2" xlink:href="#font_2_5" transform="matrix(4.0098659,-8.0196709,-8.019911,-4.0097458,48.399377,68.18811)" fill="#008080"/>
<use data-text="y" xlink:href="#font_3_4" transform="matrix(4.0098659,-8.0196709,-8.019911,-4.0097458,50.46302,64.06084)" fill="#008080"/>
<use data-text="=" xlink:href="#font_2_9" transform="matrix(4.0098659,-8.0196709,-8.019911,-4.0097458,53.78132,57.424295)" fill="#008080"/>
<use data-text="0" xlink:href="#font_2_4" transform="matrix(4.0098659,-8.0196709,-8.019911,-4.0097458,58.12803,48.73098)" fill="#008080"/>
<path transform="matrix(1.00009,0,0,-1.00006,24.218918,128.76383)" d="M1.99255 0C1.99255 1.10046 1.10046 1.99255 0 1.99255-1.10046 1.99255-1.99255 1.10046-1.99255 0-1.99255-1.10046-1.10046-1.99255 0-1.99255 1.10046-1.99255 1.99255-1.10046 1.99255 0ZM0 0"/>
<path transform="matrix(1.00009,0,0,-1.00006,24.218918,128.76383)" stroke-width=".3985" stroke-linecap="butt" stroke-miterlimit="10" stroke-linejoin="miter" fill="none" stroke="#000000" d="M1.99255 0C1.99255 1.10046 1.10046 1.99255 0 1.99255-1.10046 1.99255-1.99255 1.10046-1.99255 0-1.99255-1.10046-1.10046-1.99255 0-1.99255 1.10046-1.99255 1.99255-1.10046 1.99255 0ZM0 0"/>
<use data-text="(" xlink:href="#font_2_1" transform="matrix(8.967207,0,0,-8.966938,.21775818,123.00248)"/>
<use data-text="0" xlink:href="#font_2_4" transform="matrix(8.967207,0,0,-8.966938,3.7956696,123.00248)"/>
<use data-text="," xlink:href="#font_3_1" transform="matrix(8.967207,0,0,-8.966938,8.4095,123.00248)"/>
<use data-text="0" xlink:href="#font_2_4" transform="matrix(8.967207,0,0,-8.966938,12.505867,123.00248)"/>
<use data-text=")" xlink:href="#font_2_2" transform="matrix(8.967207,0,0,-8.966938,17.106041,123.00248)"/>
<path transform="matrix(1.00009,0,0,-1.00006,24.218918,128.76383)" d="M39.78815 75.59119C39.78815 76.69167 38.89606 77.58374 37.7956 77.58374 36.69511 77.58374 35.80304 76.69167 35.80304 75.59119 35.80304 74.49072 36.69511 73.59863 37.7956 73.59863 38.89606 73.59863 39.78815 74.49072 39.78815 75.59119ZM37.7956 75.59119"/>
<path transform="matrix(1.00009,0,0,-1.00006,24.218918,128.76383)" stroke-width=".3985" stroke-linecap="butt" stroke-miterlimit="10" stroke-linejoin="miter" fill="none" stroke="#000000" d="M39.78815 75.59119C39.78815 76.69167 38.89606 77.58374 37.7956 77.58374 36.69511 77.58374 35.80304 76.69167 35.80304 75.59119 35.80304 74.49072 36.69511 73.59863 37.7956 73.59863 38.89606 73.59863 39.78815 74.49072 39.78815 75.59119ZM37.7956 75.59119"/>
<use data-text="(" xlink:href="#font_2_1" transform="matrix(8.967207,0,0,-8.966938,65.537639,47.405954)"/>
<use data-text="4" xlink:href="#font_2_7" transform="matrix(8.967207,0,0,-8.966938,69.11555,47.405954)"/>
<use data-text="/" xlink:href="#font_3_2" transform="matrix(8.967207,0,0,-8.966938,73.72938,47.405954)"/>
<use data-text="3" xlink:href="#font_2_6" transform="matrix(8.967207,0,0,-8.966938,78.33779,47.405954)"/>
<use data-text="," xlink:href="#font_3_1" transform="matrix(8.967207,0,0,-8.966938,82.94521,47.405954)"/>
<use data-text="8" xlink:href="#font_2_8" transform="matrix(8.967207,0,0,-8.966938,87.04157,47.405954)"/>
<use data-text="/" xlink:href="#font_3_2" transform="matrix(8.967207,0,0,-8.966938,91.64999,47.405954)"/>
<use data-text="3" xlink:href="#font_2_6" transform="matrix(8.967207,0,0,-8.966938,96.2584,47.405954)"/>
<use data-text=")" xlink:href="#font_2_2" transform="matrix(8.967207,0,0,-8.966938,100.858577,47.405954)"/>
<path transform="matrix(1.00009,0,0,-1.00006,24.218918,128.76383)" d="M77.58374 37.7956C77.58374 38.89606 76.69167 39.78815 75.59119 39.78815 74.49072 39.78815 73.59863 38.89606 73.59863 37.7956 73.59863 36.69511 74.49072 35.80304 75.59119 35.80304 76.69167 35.80304 77.58374 36.69511 77.58374 37.7956ZM75.59119 37.7956"/>
<path transform="matrix(1.00009,0,0,-1.00006,24.218918,128.76383)" stroke-width=".3985" stroke-linecap="butt" stroke-miterlimit="10" stroke-linejoin="miter" fill="none" stroke="#000000" d="M77.58374 37.7956C77.58374 38.89606 76.69167 39.78815 75.59119 39.78815 74.49072 39.78815 73.59863 38.89606 73.59863 37.7956 73.59863 36.69511 74.49072 35.80304 75.59119 35.80304 76.69167 35.80304 77.58374 36.69511 77.58374 37.7956ZM75.59119 37.7956"/>
<use data-text="(" xlink:href="#font_2_1" transform="matrix(8.967207,0,0,-8.966938,103.337039,93.20769)"/>
<use data-text="8" xlink:href="#font_2_8" transform="matrix(8.967207,0,0,-8.966938,106.91495,93.20769)"/>
<use data-text="/" xlink:href="#font_3_2" transform="matrix(8.967207,0,0,-8.966938,111.52878,93.20769)"/>
<use data-text="3" xlink:href="#font_2_6" transform="matrix(8.967207,0,0,-8.966938,116.13719,93.20769)"/>
<use data-text="," xlink:href="#font_3_1" transform="matrix(8.967207,0,0,-8.966938,120.74461,93.20769)"/>
<use data-text="4" xlink:href="#font_2_7" transform="matrix(8.967207,0,0,-8.966938,124.84097,93.20769)"/>
<use data-text="/" xlink:href="#font_3_2" transform="matrix(8.967207,0,0,-8.966938,129.44939,93.20769)"/>
<use data-text="3" xlink:href="#font_2_6" transform="matrix(8.967207,0,0,-8.966938,134.0578,93.20769)"/>
<use data-text=")" xlink:href="#font_2_2" transform="matrix(8.967207,0,0,-8.966938,138.65798,93.20769)"/>
</svg>
