<?xml version="1.0" encoding="UTF-8"?>
<svg xmlns="http://www.w3.org/2000/svg" xmlns:xlink="http://www.w3.org/1999/xlink" width="81pt" height="73pt" viewBox="0 0 81 73" version="1.1">
<g id="surface1">
<path style="fill-rule:nonzero;fill:rgb(0%,0%,0%);fill-opacity:1;stroke-width:0.3985;stroke-linecap:butt;stroke-linejoin:miter;stroke:rgb(0%,0%,0%);stroke-opacity:1;stroke-miterlimit:10;" d="M 1.991816 14.172182 C 1.991816 15.27369 1.101244 16.16427 -0.000252205 16.16427 C -1.101749 16.16427 -1.99232 15.27369 -1.99232 14.172182 C -1.99232 13.074581 -1.101749 12.180094 -0.000252205 12.180094 C 1.101244 12.180094 1.991816 13.074581 1.991816 14.172182 Z M 1.991816 14.172182 " transform="matrix(1.00006,0,0,-1.00005,40.914315,46.313516)"/>
<path style="fill-rule:nonzero;fill:rgb(0%,0%,0%);fill-opacity:1;stroke-width:0.3985;stroke-linecap:butt;stroke-linejoin:miter;stroke:rgb(0%,0%,0%);stroke-opacity:1;stroke-miterlimit:10;" d="M 1.991816 28.347255 C 1.991816 29.448762 1.101244 30.339343 -0.000252205 30.339343 C -1.101749 30.339343 -1.99232 29.448762 -1.99232 28.347255 C -1.99232 27.245747 -1.101749 26.355167 -0.000252205 26.355167 C 1.101244 26.355167 1.991816 27.245747 1.991816 28.347255 Z M 1.991816 28.347255 " transform="matrix(1.00006,0,0,-1.00005,40.914315,46.313516)"/>
<path style="fill-rule:nonzero;fill:rgb(0%,0%,0%);fill-opacity:1;stroke-width:0.3985;stroke-linecap:butt;stroke-linejoin:miter;stroke:rgb(0%,0%,0%);stroke-opacity:1;stroke-miterlimit:10;" d="M 13.971566 25.691137 C 13.971566 26.792645 13.080994 27.683225 11.979498 27.683225 C 10.878001 27.683225 9.98743 26.792645 9.98743 25.691137 C 9.98743 24.58963 10.878001 23.69905 11.979498 23.69905 C 13.080994 23.69905 13.971566 24.58963 13.971566 25.691137 Z M 13.971566 25.691137 " transform="matrix(1.00006,0,0,-1.00005,40.914315,46.313516)"/>
<path style="fill-rule:nonzero;fill:rgb(0%,0%,0%);fill-opacity:1;stroke-width:0.3985;stroke-linecap:butt;stroke-linejoin:miter;stroke:rgb(0%,0%,0%);stroke-opacity:1;stroke-miterlimit:10;" d="M -9.987934 25.691137 C -9.987934 26.792645 -10.878506 27.683225 -11.980002 27.683225 C -13.081499 27.683225 -13.97207 26.792645 -13.97207 25.691137 C -13.97207 24.58963 -13.081499 23.69905 -11.980002 23.69905 C -10.878506 23.69905 -9.987934 24.58963 -9.987934 25.691137 Z M -9.987934 25.691137 " transform="matrix(1.00006,0,0,-1.00005,40.914315,46.313516)"/>
<path style="fill-rule:nonzero;fill:rgb(0%,0%,0%);fill-opacity:1;stroke-width:0.3985;stroke-linecap:butt;stroke-linejoin:miter;stroke:rgb(0%,0%,0%);stroke-opacity:1;stroke-miterlimit:10;" d="M 1.991816 42.518421 C 1.991816 43.619929 1.101244 44.514415 -0.000252205 44.514415 C -1.101749 44.514415 -1.99232 43.619929 -1.99232 42.518421 C -1.99232 41.42082 -1.101749 40.526333 -0.000252205 40.526333 C 1.101244 40.526333 1.991816 41.42082 1.991816 42.518421 Z M 1.991816 42.518421 " transform="matrix(1.00006,0,0,-1.00005,40.914315,46.313516)"/>
<path style="fill:none;stroke-width:0.3985;stroke-linecap:butt;stroke-linejoin:miter;stroke:rgb(0%,0%,0%);stroke-opacity:1;stroke-miterlimit:10;" d="M -0.000252205 0.0010157 L -0.000252205 14.172182 L 11.979498 25.691137 L -0.000252205 28.347255 L -11.980002 25.691137 L -0.000252205 42.518421 L 11.979498 25.691137 " transform="matrix(1.00006,0,0,-1.00005,40.914315,46.313516)"/>
<path style="fill:none;stroke-width:0.3985;stroke-linecap:butt;stroke-linejoin:miter;stroke:rgb(0%,0%,0%);stroke-opacity:1;stroke-miterlimit:10;" d="M -0.000252205 28.347255 L -0.000252205 42.518421 " transform="matrix(1.00006,0,0,-1.00005,40.914315,46.313516)"/>
<path style="fill:none;stroke-width:0.3985;stroke-linecap:butt;stroke-linejoin:miter;stroke:rgb(0%,0%,0%);stroke-opacity:1;stroke-miterlimit:10;" d="M -0.000252205 14.172182 L -11.980002 25.691137 " transform="matrix(1.00006,0,0,-1.00005,40.914315,46.313516)"/>
<path style="fill-rule:nonzero;fill:rgb(0%,0%,0%);fill-opacity:1;stroke-width:0.3985;stroke-linecap:butt;stroke-linejoin:miter;stroke:rgb(0%,0%,0%);stroke-opacity:1;stroke-miterlimit:10;" d="M 14.268423 -7.088474 C 14.268423 -5.986966 13.373945 -5.09248 12.276355 -5.09248 C 11.174859 -5.09248 10.280381 -5.986966 10.280381 -7.088474 C 10.280381 -8.186075 11.174859 -9.080561 12.276355 -9.080561 C 13.373945 -9.080561 14.268423 -8.186075 14.268423 -7.088474 Z M 14.268423 -7.088474 " transform="matrix(1.00006,0,0,-1.00005,40.914315,46.313516)"/>
<path style="fill-rule:nonzero;fill:rgb(0%,0%,0%);fill-opacity:1;stroke-width:0.3985;stroke-linecap:butt;stroke-linejoin:miter;stroke:rgb(0%,0%,0%);stroke-opacity:1;stroke-miterlimit:10;" d="M 26.541124 -14.174057 C 26.541124 -13.072549 25.650552 -12.181969 24.549056 -12.181969 C 23.44756 -12.181969 22.556988 -13.072549 22.556988 -14.174057 C 22.556988 -15.275564 23.44756 -16.166145 24.549056 -16.166145 C 25.650552 -16.166145 26.541124 -15.275564 26.541124 -14.174057 Z M 26.541124 -14.174057 " transform="matrix(1.00006,0,0,-1.00005,40.914315,46.313516)"/>
<path style="fill-rule:nonzero;fill:rgb(0%,0%,0%);fill-opacity:1;stroke-width:0.3985;stroke-linecap:butt;stroke-linejoin:miter;stroke:rgb(0%,0%,0%);stroke-opacity:1;stroke-miterlimit:10;" d="M 18.252559 -23.220479 C 18.252559 -22.118972 17.358081 -21.228392 16.260491 -21.228392 C 15.158994 -21.228392 14.268423 -22.118972 14.268423 -23.220479 C 14.268423 -24.321987 15.158994 -25.212567 16.260491 -25.212567 C 17.358081 -25.212567 18.252559 -24.321987 18.252559 -23.220479 Z M 18.252559 -23.220479 " transform="matrix(1.00006,0,0,-1.00005,40.914315,46.313516)"/>
<path style="fill-rule:nonzero;fill:rgb(0%,0%,0%);fill-opacity:1;stroke-width:0.3985;stroke-linecap:butt;stroke-linejoin:miter;stroke:rgb(0%,0%,0%);stroke-opacity:1;stroke-miterlimit:10;" d="M 30.232309 -2.471517 C 30.232309 -1.370009 29.337831 -0.479429 28.240241 -0.479429 C 27.138744 -0.479429 26.244267 -1.370009 26.244267 -2.471517 C 26.244267 -3.573024 27.138744 -4.463605 28.240241 -4.463605 C 29.337831 -4.463605 30.232309 -3.573024 30.232309 -2.471517 Z M 30.232309 -2.471517 " transform="matrix(1.00006,0,0,-1.00005,40.914315,46.313516)"/>
<path style="fill-rule:nonzero;fill:rgb(0%,0%,0%);fill-opacity:1;stroke-width:0.3985;stroke-linecap:butt;stroke-linejoin:miter;stroke:rgb(0%,0%,0%);stroke-opacity:1;stroke-miterlimit:10;" d="M 38.817731 -21.25964 C 38.817731 -20.158133 37.923254 -19.267552 36.821757 -19.267552 C 35.724167 -19.267552 34.829689 -20.158133 34.829689 -21.25964 C 34.829689 -22.361147 35.724167 -23.251728 36.821757 -23.251728 C 37.923254 -23.251728 38.817731 -22.361147 38.817731 -21.25964 Z M 38.817731 -21.25964 " transform="matrix(1.00006,0,0,-1.00005,40.914315,46.313516)"/>
<path style="fill:none;stroke-width:0.3985;stroke-linecap:butt;stroke-linejoin:miter;stroke:rgb(0%,0%,0%);stroke-opacity:1;stroke-miterlimit:10;" d="M -0.000252205 0.0010157 L 12.276355 -7.088474 L 16.260491 -23.220479 L 24.549056 -14.174057 L 28.240241 -2.471517 L 36.821757 -21.25964 L 16.260491 -23.220479 " transform="matrix(1.00006,0,0,-1.00005,40.914315,46.313516)"/>
<path style="fill:none;stroke-width:0.3985;stroke-linecap:butt;stroke-linejoin:miter;stroke:rgb(0%,0%,0%);stroke-opacity:1;stroke-miterlimit:10;" d="M 24.549056 -14.174057 L 36.821757 -21.25964 " transform="matrix(1.00006,0,0,-1.00005,40.914315,46.313516)"/>
<path style="fill:none;stroke-width:0.3985;stroke-linecap:butt;stroke-linejoin:miter;stroke:rgb(0%,0%,0%);stroke-opacity:1;stroke-miterlimit:10;" d="M 12.276355 -7.088474 L 28.240241 -2.471517 " transform="matrix(1.00006,0,0,-1.00005,40.914315,46.313516)"/>
<path style="fill-rule:nonzero;fill:rgb(0%,0%,0%);fill-opacity:1;stroke-width:0.3985;stroke-linecap:butt;stroke-linejoin:miter;stroke:rgb(0%,0%,0%);stroke-opacity:1;stroke-miterlimit:10;" d="M -10.280885 -7.088474 C -10.280885 -5.986966 -11.175363 -5.09248 -12.272953 -5.09248 C -13.37445 -5.09248 -14.268927 -5.986966 -14.268927 -7.088474 C -14.268927 -8.186075 -13.37445 -9.080561 -12.272953 -9.080561 C -11.175363 -9.080561 -10.280885 -8.186075 -10.280885 -7.088474 Z M -10.280885 -7.088474 " transform="matrix(1.00006,0,0,-1.00005,40.914315,46.313516)"/>
<path style="fill-rule:nonzero;fill:rgb(0%,0%,0%);fill-opacity:1;stroke-width:0.3985;stroke-linecap:butt;stroke-linejoin:miter;stroke:rgb(0%,0%,0%);stroke-opacity:1;stroke-miterlimit:10;" d="M -22.557493 -14.174057 C -22.557493 -13.072549 -23.448064 -12.181969 -24.54956 -12.181969 C -25.651057 -12.181969 -26.541628 -13.072549 -26.541628 -14.174057 C -26.541628 -15.275564 -25.651057 -16.166145 -24.54956 -16.166145 C -23.448064 -16.166145 -22.557493 -15.275564 -22.557493 -14.174057 Z M -22.557493 -14.174057 " transform="matrix(1.00006,0,0,-1.00005,40.914315,46.313516)"/>
<path style="fill-rule:nonzero;fill:rgb(0%,0%,0%);fill-opacity:1;stroke-width:0.3985;stroke-linecap:butt;stroke-linejoin:miter;stroke:rgb(0%,0%,0%);stroke-opacity:1;stroke-miterlimit:10;" d="M -26.244771 -2.471517 C -26.244771 -1.370009 -27.139249 -0.479429 -28.236839 -0.479429 C -29.338336 -0.479429 -30.232813 -1.370009 -30.232813 -2.471517 C -30.232813 -3.573024 -29.338336 -4.463605 -28.236839 -4.463605 C -27.139249 -4.463605 -26.244771 -3.573024 -26.244771 -2.471517 Z M -26.244771 -2.471517 " transform="matrix(1.00006,0,0,-1.00005,40.914315,46.313516)"/>
<path style="fill-rule:nonzero;fill:rgb(0%,0%,0%);fill-opacity:1;stroke-width:0.3985;stroke-linecap:butt;stroke-linejoin:miter;stroke:rgb(0%,0%,0%);stroke-opacity:1;stroke-miterlimit:10;" d="M -14.265021 -23.220479 C -14.265021 -22.118972 -15.159499 -21.228392 -16.260995 -21.228392 C -17.358586 -21.228392 -18.253063 -22.118972 -18.253063 -23.220479 C -18.253063 -24.321987 -17.358586 -25.212567 -16.260995 -25.212567 C -15.159499 -25.212567 -14.265021 -24.321987 -14.265021 -23.220479 Z M -14.265021 -23.220479 " transform="matrix(1.00006,0,0,-1.00005,40.914315,46.313516)"/>
<path style="fill-rule:nonzero;fill:rgb(0%,0%,0%);fill-opacity:1;stroke-width:0.3985;stroke-linecap:butt;stroke-linejoin:miter;stroke:rgb(0%,0%,0%);stroke-opacity:1;stroke-miterlimit:10;" d="M -34.830194 -21.25964 C -34.830194 -20.158133 -35.724671 -19.267552 -36.822262 -19.267552 C -37.923758 -19.267552 -38.81433 -20.158133 -38.81433 -21.25964 C -38.81433 -22.361147 -37.923758 -23.251728 -36.822262 -23.251728 C -35.724671 -23.251728 -34.830194 -22.361147 -34.830194 -21.25964 Z M -34.830194 -21.25964 " transform="matrix(1.00006,0,0,-1.00005,40.914315,46.313516)"/>
<path style="fill:none;stroke-width:0.3985;stroke-linecap:butt;stroke-linejoin:miter;stroke:rgb(0%,0%,0%);stroke-opacity:1;stroke-miterlimit:10;" d="M -0.000252205 0.0010157 L -12.272953 -7.088474 L -28.236839 -2.471517 L -24.54956 -14.174057 L -16.260995 -23.220479 L -36.822262 -21.25964 L -28.236839 -2.471517 " transform="matrix(1.00006,0,0,-1.00005,40.914315,46.313516)"/>
<path style="fill:none;stroke-width:0.3985;stroke-linecap:butt;stroke-linejoin:miter;stroke:rgb(0%,0%,0%);stroke-opacity:1;stroke-miterlimit:10;" d="M -24.54956 -14.174057 L -36.822262 -21.25964 " transform="matrix(1.00006,0,0,-1.00005,40.914315,46.313516)"/>
<path style="fill:none;stroke-width:0.3985;stroke-linecap:butt;stroke-linejoin:miter;stroke:rgb(0%,0%,0%);stroke-opacity:1;stroke-miterlimit:10;" d="M -12.272953 -7.088474 L -16.260995 -23.220479 " transform="matrix(1.00006,0,0,-1.00005,40.914315,46.313516)"/>
<path style="fill-rule:nonzero;fill:rgb(0%,0%,0%);fill-opacity:1;stroke-width:0.3985;stroke-linecap:butt;stroke-linejoin:miter;stroke:rgb(0%,0%,0%);stroke-opacity:1;stroke-miterlimit:10;" d="M 1.991816 0.0010157 C 1.991816 1.098617 1.101244 1.993104 -0.000252205 1.993104 C -1.101749 1.993104 -1.99232 1.098617 -1.99232 0.0010157 C -1.99232 -1.100492 -1.101749 -1.991072 -0.000252205 -1.991072 C 1.101244 -1.991072 1.991816 -1.100492 1.991816 0.0010157 Z M 1.991816 0.0010157 " transform="matrix(1.00006,0,0,-1.00005,40.914315,46.313516)"/>
</g>
</svg>
