<?xml version="1.0" encoding="UTF-8"?>
<svg xmlns="http://www.w3.org/2000/svg" xmlns:xlink="http://www.w3.org/1999/xlink" width="121pt" height="36pt" viewBox="0 0 121 36" version="1.1">
<g id="surface1">
<path style="fill-rule:nonzero;fill:rgb(0%,0%,0%);fill-opacity:1;stroke-width:0.3985;stroke-linecap:butt;stroke-linejoin:miter;stroke:rgb(0%,0%,0%);stroke-opacity:1;stroke-miterlimit:10;" d="M -54.702617 28.348571 C -54.702617 29.446195 -55.593224 30.340699 -56.694764 30.340699 C -57.792399 30.340699 -58.686912 29.446195 -58.686912 28.348571 C -58.686912 27.247042 -57.792399 26.352537 -56.694764 26.352537 C -55.593224 26.352537 -54.702617 27.247042 -54.702617 28.348571 Z M -54.702617 28.348571 " transform="matrix(1.00002,0,0,-1.00003,60.781836,32.138484)"/>
<path style="fill-rule:nonzero;fill:rgb(0%,0%,0%);fill-opacity:1;stroke-width:0.3985;stroke-linecap:butt;stroke-linejoin:miter;stroke:rgb(0%,0%,0%);stroke-opacity:1;stroke-miterlimit:10;" d="M -54.702617 0.00176537 C -54.702617 1.099389 -55.593224 1.993893 -56.694764 1.993893 C -57.792399 1.993893 -58.686912 1.099389 -58.686912 0.00176537 C -58.686912 -1.099764 -57.792399 -1.994269 -56.694764 -1.994269 C -55.593224 -1.994269 -54.702617 -1.099764 -54.702617 0.00176537 Z M -54.702617 0.00176537 " transform="matrix(1.00002,0,0,-1.00003,60.781836,32.138484)"/>
<path style="fill-rule:nonzero;fill:rgb(0%,0%,0%);fill-opacity:1;stroke-width:0.3985;stroke-linecap:butt;stroke-linejoin:miter;stroke:rgb(0%,0%,0%);stroke-opacity:1;stroke-miterlimit:10;" d="M -26.355527 28.348571 C -26.355527 29.446195 -27.246134 30.340699 -28.347675 30.340699 C -29.449215 30.340699 -30.339823 29.446195 -30.339823 28.348571 C -30.339823 27.247042 -29.449215 26.352537 -28.347675 26.352537 C -27.246134 26.352537 -26.355527 27.247042 -26.355527 28.348571 Z M -26.355527 28.348571 " transform="matrix(1.00002,0,0,-1.00003,60.781836,32.138484)"/>
<path style="fill-rule:nonzero;fill:rgb(0%,0%,0%);fill-opacity:1;stroke-width:0.3985;stroke-linecap:butt;stroke-linejoin:miter;stroke:rgb(0%,0%,0%);stroke-opacity:1;stroke-miterlimit:10;" d="M -26.355527 0.00176537 C -26.355527 1.099389 -27.246134 1.993893 -28.347675 1.993893 C -29.449215 1.993893 -30.339823 1.099389 -30.339823 0.00176537 C -30.339823 -1.099764 -29.449215 -1.994269 -28.347675 -1.994269 C -27.246134 -1.994269 -26.355527 -1.099764 -26.355527 0.00176537 Z M -26.355527 0.00176537 " transform="matrix(1.00002,0,0,-1.00003,60.781836,32.138484)"/>
<path style="fill-rule:nonzero;fill:rgb(0%,0%,0%);fill-opacity:1;stroke-width:0.3985;stroke-linecap:butt;stroke-linejoin:miter;stroke:rgb(0%,0%,0%);stroke-opacity:1;stroke-miterlimit:10;" d="M 1.991562 28.348571 C 1.991562 29.446195 1.100955 30.340699 -0.000585608 30.340699 C -1.102126 30.340699 -1.992733 29.446195 -1.992733 28.348571 C -1.992733 27.247042 -1.102126 26.352537 -0.000585608 26.352537 C 1.100955 26.352537 1.991562 27.247042 1.991562 28.348571 Z M 1.991562 28.348571 " transform="matrix(1.00002,0,0,-1.00003,60.781836,32.138484)"/>
<path style="fill-rule:nonzero;fill:rgb(0%,0%,0%);fill-opacity:1;stroke-width:0.3985;stroke-linecap:butt;stroke-linejoin:miter;stroke:rgb(0%,0%,0%);stroke-opacity:1;stroke-miterlimit:10;" d="M 1.991562 0.00176537 C 1.991562 1.099389 1.100955 1.993893 -0.000585608 1.993893 C -1.102126 1.993893 -1.992733 1.099389 -1.992733 0.00176537 C -1.992733 -1.099764 -1.102126 -1.994269 -0.000585608 -1.994269 C 1.100955 -1.994269 1.991562 -1.099764 1.991562 0.00176537 Z M 1.991562 0.00176537 " transform="matrix(1.00002,0,0,-1.00003,60.781836,32.138484)"/>
<path style="fill-rule:nonzero;fill:rgb(0%,0%,0%);fill-opacity:1;stroke-width:0.3985;stroke-linecap:butt;stroke-linejoin:miter;stroke:rgb(0%,0%,0%);stroke-opacity:1;stroke-miterlimit:10;" d="M 30.338651 28.348571 C 30.338651 29.446195 29.448044 30.340699 28.346504 30.340699 C 27.244963 30.340699 26.354356 29.446195 26.354356 28.348571 C 26.354356 27.247042 27.244963 26.352537 28.346504 26.352537 C 29.448044 26.352537 30.338651 27.247042 30.338651 28.348571 Z M 30.338651 28.348571 " transform="matrix(1.00002,0,0,-1.00003,60.781836,32.138484)"/>
<path style="fill-rule:nonzero;fill:rgb(0%,0%,0%);fill-opacity:1;stroke-width:0.3985;stroke-linecap:butt;stroke-linejoin:miter;stroke:rgb(0%,0%,0%);stroke-opacity:1;stroke-miterlimit:10;" d="M 30.338651 0.00176537 C 30.338651 1.099389 29.448044 1.993893 28.346504 1.993893 C 27.244963 1.993893 26.354356 1.099389 26.354356 0.00176537 C 26.354356 -1.099764 27.244963 -1.994269 28.346504 -1.994269 C 29.448044 -1.994269 30.338651 -1.099764 30.338651 0.00176537 Z M 30.338651 0.00176537 " transform="matrix(1.00002,0,0,-1.00003,60.781836,32.138484)"/>
<path style="fill-rule:nonzero;fill:rgb(0%,0%,0%);fill-opacity:1;stroke-width:0.3985;stroke-linecap:butt;stroke-linejoin:miter;stroke:rgb(0%,0%,0%);stroke-opacity:1;stroke-miterlimit:10;" d="M 58.685741 28.348571 C 58.685741 29.446195 57.795133 30.340699 56.693593 30.340699 C 55.592053 30.340699 54.701445 29.446195 54.701445 28.348571 C 54.701445 27.247042 55.592053 26.352537 56.693593 26.352537 C 57.795133 26.352537 58.685741 27.247042 58.685741 28.348571 Z M 58.685741 28.348571 " transform="matrix(1.00002,0,0,-1.00003,60.781836,32.138484)"/>
<path style="fill-rule:nonzero;fill:rgb(0%,0%,0%);fill-opacity:1;stroke-width:0.3985;stroke-linecap:butt;stroke-linejoin:miter;stroke:rgb(0%,0%,0%);stroke-opacity:1;stroke-miterlimit:10;" d="M 58.685741 0.00176537 C 58.685741 1.099389 57.795133 1.993893 56.693593 1.993893 C 55.592053 1.993893 54.701445 1.099389 54.701445 0.00176537 C 54.701445 -1.099764 55.592053 -1.994269 56.693593 -1.994269 C 57.795133 -1.994269 58.685741 -1.099764 58.685741 0.00176537 Z M 58.685741 0.00176537 " transform="matrix(1.00002,0,0,-1.00003,60.781836,32.138484)"/>
<path style="fill:none;stroke-width:0.3985;stroke-linecap:butt;stroke-linejoin:miter;stroke:rgb(0%,0%,0%);stroke-opacity:1;stroke-miterlimit:10;" d="M -56.694764 0.00176537 L -56.694764 28.348571 " transform="matrix(1.00002,0,0,-1.00003,60.781836,32.138484)"/>
<path style="fill:none;stroke-width:0.3985;stroke-linecap:butt;stroke-linejoin:miter;stroke:rgb(0%,0%,0%);stroke-opacity:1;stroke-miterlimit:10;" d="M -0.000585608 0.00176537 L -0.000585608 28.348571 " transform="matrix(1.00002,0,0,-1.00003,60.781836,32.138484)"/>
<path style="fill:none;stroke-width:0.3985;stroke-linecap:butt;stroke-linejoin:miter;stroke:rgb(0%,0%,0%);stroke-opacity:1;stroke-miterlimit:10;" d="M 56.693593 0.00176537 L 56.693593 28.348571 " transform="matrix(1.00002,0,0,-1.00003,60.781836,32.138484)"/>
<path style="fill:none;stroke-width:0.3985;stroke-linecap:butt;stroke-linejoin:miter;stroke:rgb(0%,0%,0%);stroke-opacity:1;stroke-miterlimit:10;" d="M -56.694764 0.00176537 L -28.347675 28.348571 " transform="matrix(1.00002,0,0,-1.00003,60.781836,32.138484)"/>
<path style="fill:none;stroke-width:0.3985;stroke-linecap:butt;stroke-linejoin:miter;stroke:rgb(0%,0%,0%);stroke-opacity:1;stroke-miterlimit:10;" d="M -56.694764 0.00176537 L -28.347675 0.00176537 " transform="matrix(1.00002,0,0,-1.00003,60.781836,32.138484)"/>
<path style="fill:none;stroke-width:0.3985;stroke-linecap:butt;stroke-linejoin:miter;stroke:rgb(0%,0%,0%);stroke-opacity:1;stroke-miterlimit:10;" d="M -56.694764 28.348571 L -28.347675 28.348571 " transform="matrix(1.00002,0,0,-1.00003,60.781836,32.138484)"/>
<path style="fill:none;stroke-width:0.3985;stroke-linecap:butt;stroke-linejoin:miter;stroke:rgb(0%,0%,0%);stroke-opacity:1;stroke-miterlimit:10;" d="M -56.694764 28.348571 L -28.347675 0.00176537 " transform="matrix(1.00002,0,0,-1.00003,60.781836,32.138484)"/>
<path style="fill:none;stroke-width:0.3985;stroke-linecap:butt;stroke-linejoin:miter;stroke:rgb(0%,0%,0%);stroke-opacity:1;stroke-miterlimit:10;" d="M -28.347675 0.00176537 L -0.000585608 0.00176537 " transform="matrix(1.00002,0,0,-1.00003,60.781836,32.138484)"/>
<path style="fill:none;stroke-width:0.3985;stroke-linecap:butt;stroke-linejoin:miter;stroke:rgb(0%,0%,0%);stroke-opacity:1;stroke-miterlimit:10;" d="M -28.347675 28.348571 L -0.000585608 0.00176537 " transform="matrix(1.00002,0,0,-1.00003,60.781836,32.138484)"/>
<path style="fill:none;stroke-width:0.3985;stroke-linecap:butt;stroke-linejoin:miter;stroke:rgb(0%,0%,0%);stroke-opacity:1;stroke-miterlimit:10;" d="M 28.346504 0.00176537 L 56.693593 28.348571 " transform="matrix(1.00002,0,0,-1.00003,60.781836,32.138484)"/>
<path style="fill:none;stroke-width:0.3985;stroke-linecap:butt;stroke-linejoin:miter;stroke:rgb(0%,0%,0%);stroke-opacity:1;stroke-miterlimit:10;" d="M 28.346504 0.00176537 L 56.693593 0.00176537 " transform="matrix(1.00002,0,0,-1.00003,60.781836,32.138484)"/>
<path style="fill:none;stroke-width:0.3985;stroke-linecap:butt;stroke-linejoin:miter;stroke:rgb(0%,0%,0%);stroke-opacity:1;stroke-miterlimit:10;" d="M 28.346504 28.348571 L 56.693593 28.348571 " transform="matrix(1.00002,0,0,-1.00003,60.781836,32.138484)"/>
<path style="fill:none;stroke-width:0.3985;stroke-linecap:butt;stroke-linejoin:miter;stroke:rgb(0%,0%,0%);stroke-opacity:1;stroke-miterlimit:10;" d="M 28.346504 28.348571 L 56.693593 0.00176537 " transform="matrix(1.00002,0,0,-1.00003,60.781836,32.138484)"/>
<path style="fill:none;stroke-width:0.3985;stroke-linecap:butt;stroke-linejoin:miter;stroke:rgb(0%,0%,0%);stroke-opacity:1;stroke-miterlimit:10;" d="M 28.346504 0.00176537 L -0.000585608 28.348571 " transform="matrix(1.00002,0,0,-1.00003,60.781836,32.138484)"/>
<path style="fill:none;stroke-width:0.3985;stroke-linecap:butt;stroke-linejoin:miter;stroke:rgb(0%,0%,0%);stroke-opacity:1;stroke-miterlimit:10;" d="M 28.346504 28.348571 L -0.000585608 28.348571 " transform="matrix(1.00002,0,0,-1.00003,60.781836,32.138484)"/>
</g>
</svg>
