<?xml version="1.0" encoding="UTF-8"?>
<svg xmlns="http://www.w3.org/2000/svg" xmlns:xlink="http://www.w3.org/1999/xlink" width="217pt" height="86pt" viewBox="0 0 217 86" version="1.1">
<defs>
<g>
<symbol overflow="visible" id="glyph0-0">
<path style="stroke:none;" d=""/>
</symbol>
<symbol overflow="visible" id="glyph0-1">
<path style="stroke:none;" d="M 4.3125 -3.3125 C 4.3125 -3.9375 3.984375 -3.96875 3.90625 -3.96875 C 3.671875 -3.96875 3.4375 -3.734375 3.4375 -3.53125 C 3.4375 -3.390625 3.53125 -3.3125 3.59375 -3.265625 C 3.828125 -3.046875 3.90625 -2.75 3.90625 -2.515625 C 3.90625 -2.125 3.34375 -0.125 2.3125 -0.125 C 1.625 -0.125 1.625 -0.75 1.625 -0.921875 C 1.625 -1.296875 1.765625 -1.765625 2.078125 -2.578125 C 2.21875 -2.953125 2.25 -3.046875 2.25 -3.203125 C 2.25 -3.65625 1.921875 -3.96875 1.484375 -3.96875 C 0.625 -3.96875 0.265625 -2.6875 0.265625 -2.578125 C 0.265625 -2.5 0.328125 -2.46875 0.390625 -2.46875 C 0.484375 -2.46875 0.5 -2.53125 0.53125 -2.640625 C 0.71875 -3.296875 1.078125 -3.734375 1.453125 -3.734375 C 1.625 -3.734375 1.671875 -3.625 1.671875 -3.4375 C 1.671875 -3.296875 1.625 -3.125 1.546875 -2.921875 C 1.234375 -2.046875 1.015625 -1.484375 1.015625 -1.03125 C 1.015625 -0.1875 1.65625 0.09375 2.265625 0.09375 C 3.78125 0.09375 4.3125 -2.734375 4.3125 -3.3125 Z M 4.3125 -3.3125 "/>
</symbol>
<symbol overflow="visible" id="glyph1-0">
<path style="stroke:none;" d=""/>
</symbol>
<symbol overflow="visible" id="glyph1-1">
<path style="stroke:none;" d="M 1.765625 -1.984375 C 2.265625 -1.984375 2.609375 -1.640625 2.609375 -1.03125 C 2.609375 -0.375 2.21875 -0.09375 1.78125 -0.09375 C 1.609375 -0.09375 1 -0.125 0.734375 -0.46875 C 0.96875 -0.5 1.0625 -0.65625 1.0625 -0.8125 C 1.0625 -1.015625 0.921875 -1.15625 0.71875 -1.15625 C 0.5625 -1.15625 0.375 -1.046875 0.375 -0.796875 C 0.375 -0.203125 1.03125 0.125 1.796875 0.125 C 2.6875 0.125 3.265625 -0.4375 3.265625 -1.03125 C 3.265625 -1.46875 2.9375 -1.9375 2.21875 -2.109375 C 2.703125 -2.265625 3.078125 -2.65625 3.078125 -3.140625 C 3.078125 -3.625 2.515625 -3.984375 1.796875 -3.984375 C 1.09375 -3.984375 0.5625 -3.65625 0.5625 -3.171875 C 0.5625 -2.90625 0.765625 -2.84375 0.890625 -2.84375 C 1.046875 -2.84375 1.203125 -2.9375 1.203125 -3.15625 C 1.203125 -3.34375 1.078125 -3.453125 0.90625 -3.46875 C 1.1875 -3.78125 1.734375 -3.78125 1.796875 -3.78125 C 2.09375 -3.78125 2.484375 -3.640625 2.484375 -3.140625 C 2.484375 -2.8125 2.296875 -2.234375 1.6875 -2.203125 C 1.578125 -2.203125 1.421875 -2.1875 1.375 -2.1875 C 1.3125 -2.171875 1.25 -2.171875 1.25 -2.078125 C 1.25 -1.984375 1.3125 -1.984375 1.40625 -1.984375 Z M 1.765625 -1.984375 "/>
</symbol>
<symbol overflow="visible" id="glyph1-2">
<path style="stroke:none;" d="M 2.140625 -3.796875 C 2.140625 -3.984375 2.125 -3.984375 1.9375 -3.984375 C 1.546875 -3.59375 0.9375 -3.59375 0.71875 -3.59375 L 0.71875 -3.359375 C 0.875 -3.359375 1.28125 -3.359375 1.640625 -3.53125 L 1.640625 -0.515625 C 1.640625 -0.3125 1.640625 -0.234375 1.015625 -0.234375 L 0.765625 -0.234375 L 0.765625 0 C 1.09375 -0.03125 1.5625 -0.03125 1.890625 -0.03125 C 2.21875 -0.03125 2.6875 -0.03125 3.015625 0 L 3.015625 -0.234375 L 2.765625 -0.234375 C 2.140625 -0.234375 2.140625 -0.3125 2.140625 -0.515625 Z M 2.140625 -3.796875 "/>
</symbol>
<symbol overflow="visible" id="glyph1-3">
<path style="stroke:none;" d="M 3.21875 -1.125 L 3 -1.125 C 2.984375 -1.03125 2.921875 -0.640625 2.84375 -0.578125 C 2.796875 -0.53125 2.3125 -0.53125 2.21875 -0.53125 L 1.109375 -0.53125 L 1.875 -1.15625 C 2.078125 -1.328125 2.609375 -1.703125 2.796875 -1.890625 C 2.96875 -2.0625 3.21875 -2.375 3.21875 -2.796875 C 3.21875 -3.546875 2.546875 -3.984375 1.734375 -3.984375 C 0.96875 -3.984375 0.4375 -3.46875 0.4375 -2.90625 C 0.4375 -2.609375 0.6875 -2.5625 0.75 -2.5625 C 0.90625 -2.5625 1.078125 -2.671875 1.078125 -2.890625 C 1.078125 -3.015625 1 -3.21875 0.734375 -3.21875 C 0.875 -3.515625 1.234375 -3.75 1.65625 -3.75 C 2.28125 -3.75 2.609375 -3.28125 2.609375 -2.796875 C 2.609375 -2.375 2.328125 -1.9375 1.921875 -1.546875 L 0.5 -0.25 C 0.4375 -0.1875 0.4375 -0.1875 0.4375 0 L 3.03125 0 Z M 3.21875 -1.125 "/>
</symbol>
<symbol overflow="visible" id="glyph1-4">
<path style="stroke:none;" d="M 3.375 -0.984375 L 3.375 -1.21875 L 2.671875 -1.21875 L 2.671875 -3.859375 C 2.671875 -4 2.671875 -4.046875 2.53125 -4.046875 C 2.421875 -4.046875 2.40625 -4.015625 2.359375 -3.953125 L 0.28125 -1.21875 L 0.28125 -0.984375 L 2.140625 -0.984375 L 2.140625 -0.5 C 2.140625 -0.3125 2.140625 -0.234375 1.640625 -0.234375 L 1.453125 -0.234375 L 1.453125 0 C 1.578125 0 2.140625 -0.03125 2.40625 -0.03125 C 2.671875 -0.03125 3.234375 0 3.34375 0 L 3.34375 -0.234375 L 3.171875 -0.234375 C 2.671875 -0.234375 2.671875 -0.3125 2.671875 -0.5 L 2.671875 -0.984375 Z M 2.171875 -3.390625 L 2.171875 -1.21875 L 0.53125 -1.21875 Z M 2.171875 -3.390625 "/>
</symbol>
<symbol overflow="visible" id="glyph1-5">
<path style="stroke:none;" d="M 1.015625 -3.328125 C 1.21875 -3.265625 1.421875 -3.25 1.625 -3.25 C 1.765625 -3.25 2.09375 -3.25 2.46875 -3.453125 C 2.578125 -3.515625 2.9375 -3.765625 2.9375 -3.890625 C 2.9375 -3.96875 2.890625 -3.984375 2.859375 -3.984375 C 2.84375 -3.984375 2.84375 -3.984375 2.765625 -3.953125 C 2.5625 -3.875 2.25 -3.78125 1.859375 -3.78125 C 1.5625 -3.78125 1.25 -3.84375 0.96875 -3.9375 C 0.921875 -3.96875 0.890625 -3.984375 0.875 -3.984375 C 0.78125 -3.984375 0.78125 -3.90625 0.78125 -3.8125 L 0.78125 -2.015625 C 0.78125 -1.921875 0.78125 -1.84375 0.890625 -1.84375 C 0.953125 -1.84375 0.96875 -1.875 1 -1.921875 C 1.15625 -2.109375 1.421875 -2.3125 1.890625 -2.3125 C 2.625 -2.3125 2.625 -1.421875 2.625 -1.234375 C 2.625 -1 2.609375 -0.65625 2.40625 -0.40625 C 2.21875 -0.1875 1.9375 -0.09375 1.6875 -0.09375 C 1.28125 -0.09375 0.859375 -0.3125 0.71875 -0.671875 C 1.015625 -0.671875 1.046875 -0.90625 1.046875 -0.96875 C 1.046875 -1.140625 0.921875 -1.28125 0.734375 -1.28125 C 0.6875 -1.28125 0.4375 -1.25 0.4375 -0.953125 C 0.4375 -0.40625 0.953125 0.125 1.703125 0.125 C 2.53125 0.125 3.21875 -0.453125 3.21875 -1.203125 C 3.21875 -1.890625 2.671875 -2.5 1.890625 -2.5 C 1.515625 -2.5 1.203125 -2.375 1.015625 -2.21875 Z M 1.015625 -3.328125 "/>
</symbol>
<symbol overflow="visible" id="glyph2-0">
<path style="stroke:none;" d=""/>
</symbol>
<symbol overflow="visible" id="glyph2-1">
<path style="stroke:none;" d="M 2.734375 -2.25 C 2.5625 -2.203125 2.5 -2.0625 2.5 -1.96875 C 2.5 -1.875 2.5625 -1.765625 2.703125 -1.765625 C 2.828125 -1.765625 3 -1.859375 3 -2.109375 C 3 -2.515625 2.546875 -2.640625 2.15625 -2.640625 C 1.234375 -2.640625 1.015625 -2.03125 1.015625 -1.78125 C 1.015625 -1.296875 1.5625 -1.203125 1.71875 -1.171875 C 2.171875 -1.09375 2.515625 -1.03125 2.515625 -0.734375 C 2.515625 -0.609375 2.421875 -0.390625 2.203125 -0.28125 C 1.96875 -0.15625 1.71875 -0.140625 1.53125 -0.140625 C 1.328125 -0.140625 0.953125 -0.15625 0.78125 -0.359375 C 1 -0.390625 1.09375 -0.5625 1.09375 -0.703125 C 1.09375 -0.828125 1.015625 -0.921875 0.84375 -0.921875 C 0.6875 -0.921875 0.5 -0.796875 0.5 -0.515625 C 0.5 -0.1875 0.828125 0.0625 1.53125 0.0625 C 2.65625 0.0625 2.890625 -0.640625 2.890625 -0.90625 C 2.890625 -1.109375 2.8125 -1.25 2.671875 -1.359375 C 2.484375 -1.53125 2.25 -1.5625 1.96875 -1.609375 C 1.671875 -1.671875 1.390625 -1.71875 1.390625 -1.953125 C 1.390625 -1.953125 1.390625 -2.4375 2.140625 -2.4375 C 2.296875 -2.4375 2.59375 -2.421875 2.734375 -2.25 Z M 2.734375 -2.25 "/>
</symbol>
<symbol overflow="visible" id="glyph2-2">
<path style="stroke:none;" d="M 3.625 -3.96875 C 3.625 -4 3.640625 -4.03125 3.640625 -4.0625 C 3.640625 -4.15625 3.515625 -4.15625 3.453125 -4.140625 L 2.78125 -4.09375 C 2.671875 -4.09375 2.59375 -4.078125 2.59375 -3.9375 C 2.59375 -3.84375 2.671875 -3.84375 2.765625 -3.84375 C 2.9375 -3.84375 2.984375 -3.84375 3.0625 -3.8125 C 3.0625 -3.71875 3.0625 -3.703125 3.046875 -3.625 C 2.921875 -3.109375 2.8125 -2.703125 2.703125 -2.28125 C 2.609375 -2.421875 2.40625 -2.640625 2.046875 -2.640625 C 1.28125 -2.640625 0.453125 -1.84375 0.453125 -0.953125 C 0.453125 -0.3125 0.90625 0.0625 1.40625 0.0625 C 1.8125 0.0625 2.15625 -0.21875 2.296875 -0.359375 C 2.421875 0.015625 2.8125 0.0625 2.953125 0.0625 C 3.171875 0.0625 3.328125 -0.0625 3.4375 -0.25 C 3.578125 -0.484375 3.671875 -0.828125 3.671875 -0.859375 C 3.671875 -0.875 3.65625 -0.953125 3.546875 -0.953125 C 3.46875 -0.953125 3.453125 -0.90625 3.421875 -0.8125 C 3.328125 -0.4375 3.203125 -0.140625 2.96875 -0.140625 C 2.765625 -0.140625 2.75 -0.359375 2.75 -0.4375 C 2.75 -0.515625 2.75 -0.53125 2.78125 -0.640625 Z M 2.328125 -0.78125 C 2.296875 -0.671875 2.296875 -0.671875 2.21875 -0.578125 C 1.890625 -0.203125 1.578125 -0.140625 1.4375 -0.140625 C 1.1875 -0.140625 0.953125 -0.296875 0.953125 -0.71875 C 0.953125 -0.96875 1.078125 -1.5625 1.28125 -1.890625 C 1.453125 -2.21875 1.765625 -2.4375 2.046875 -2.4375 C 2.5 -2.4375 2.609375 -1.96875 2.609375 -1.921875 L 2.59375 -1.84375 Z M 2.328125 -0.78125 "/>
</symbol>
<symbol overflow="visible" id="glyph3-0">
<path style="stroke:none;" d=""/>
</symbol>
<symbol overflow="visible" id="glyph3-1">
<path style="stroke:none;" d="M -0.109375 -1.875 C -0.234375 -2.078125 -0.453125 -2.421875 -0.46875 -2.765625 C -0.484375 -3.078125 -0.375 -3.484375 0.015625 -3.734375 C 0.09375 -3.796875 0.296875 -3.921875 0.484375 -3.890625 C 0.421875 -3.828125 0.359375 -3.703125 0.453125 -3.5625 C 0.53125 -3.421875 0.6875 -3.390625 0.8125 -3.484375 C 0.890625 -3.515625 1.015625 -3.65625 0.890625 -3.859375 C 0.75 -4.078125 0.421875 -4.21875 -0.078125 -3.890625 C -0.796875 -3.421875 -1.078125 -2.40625 -0.515625 -1.546875 C 0.125 -0.546875 0.890625 -0.4375 1.484375 -0.828125 C 1.90625 -1.109375 2 -1.390625 2.0625 -1.609375 C 2.1875 -2 2.078125 -2.265625 1.953125 -2.484375 C 1.78125 -2.734375 1.578125 -2.890625 1.21875 -2.921875 C 0.921875 -2.984375 0.65625 -2.984375 0.296875 -2.75 C 0.046875 -2.59375 -0.140625 -2.296875 -0.109375 -1.875 Z M 1.375 -1 C 0.734375 -0.59375 0.28125 -1.296875 0.171875 -1.453125 C -0.046875 -1.78125 -0.0625 -2.3125 0.375 -2.59375 C 0.59375 -2.75 0.78125 -2.765625 1.015625 -2.6875 C 1.234375 -2.59375 1.359375 -2.4375 1.515625 -2.203125 C 1.671875 -1.953125 1.78125 -1.796875 1.734375 -1.53125 C 1.703125 -1.328125 1.625 -1.15625 1.375 -1 Z M 1.375 -1 "/>
</symbol>
<symbol overflow="visible" id="glyph3-2">
<path style="stroke:none;" d="M 1.9375 -2.40625 L 1.75 -2.296875 C 1.8125 -2.21875 1.921875 -1.90625 1.875 -1.84375 C 1.875 -1.796875 1.515625 -1.5625 1.453125 -1.515625 L 0.640625 -1 C 0.796875 -1.375 0.9375 -1.796875 1.078125 -2.140625 C 1.28125 -2.640625 1.484375 -3.09375 1.203125 -3.546875 C 0.859375 -4.078125 0.15625 -4.046875 -0.4375 -3.671875 C -1 -3.296875 -1.21875 -2.71875 -0.953125 -2.296875 C -0.8125 -2.078125 -0.609375 -2.15625 -0.546875 -2.203125 C -0.4375 -2.265625 -0.359375 -2.4375 -0.46875 -2.609375 C -0.5625 -2.75 -0.71875 -2.78125 -0.859375 -2.6875 C -0.859375 -2.96875 -0.6875 -3.234375 -0.421875 -3.421875 C -0.015625 -3.6875 0.484375 -3.671875 0.75 -3.265625 C 0.984375 -2.90625 0.90625 -2.46875 0.765625 -2 L 0.3125 -0.484375 C 0.28125 -0.40625 0.265625 -0.40625 0.296875 -0.375 L 0.375 -0.25 L 2.328125 -1.5 Z M 1.9375 -2.40625 "/>
</symbol>
<symbol overflow="visible" id="glyph4-0">
<path style="stroke:none;" d=""/>
</symbol>
<symbol overflow="visible" id="glyph4-1">
<path style="stroke:none;" d="M 1.640625 -1.65625 C 2.109375 -1.65625 2.40625 -1.359375 2.40625 -0.875 C 2.40625 -0.359375 2.09375 -0.09375 1.65625 -0.09375 C 1.59375 -0.09375 1 -0.09375 0.75 -0.359375 C 0.953125 -0.390625 1.015625 -0.53125 1.015625 -0.65625 C 1.015625 -0.84375 0.875 -0.96875 0.703125 -0.96875 C 0.546875 -0.96875 0.40625 -0.859375 0.40625 -0.640625 C 0.40625 -0.125 0.984375 0.109375 1.671875 0.109375 C 2.484375 0.109375 2.984375 -0.390625 2.984375 -0.875 C 2.984375 -1.28125 2.625 -1.625 2.0625 -1.75 C 2.65625 -1.953125 2.8125 -2.328125 2.8125 -2.609375 C 2.8125 -3.015625 2.3125 -3.3125 1.6875 -3.3125 C 1.0625 -3.3125 0.578125 -3.0625 0.578125 -2.609375 C 0.578125 -2.375 0.765625 -2.3125 0.859375 -2.3125 C 1 -2.3125 1.140625 -2.421875 1.140625 -2.609375 C 1.140625 -2.71875 1.078125 -2.859375 0.90625 -2.890625 C 1.109375 -3.109375 1.5625 -3.125 1.671875 -3.125 C 2.03125 -3.125 2.28125 -2.953125 2.28125 -2.609375 C 2.28125 -2.3125 2.09375 -1.859375 1.578125 -1.828125 C 1.4375 -1.828125 1.421875 -1.828125 1.28125 -1.8125 C 1.234375 -1.8125 1.171875 -1.8125 1.171875 -1.734375 C 1.171875 -1.65625 1.21875 -1.65625 1.3125 -1.65625 Z M 1.640625 -1.65625 "/>
</symbol>
<symbol overflow="visible" id="glyph4-2">
<path style="stroke:none;" d="M 3.078125 -0.8125 L 3.078125 -1.03125 L 2.453125 -1.03125 L 2.453125 -3.21875 C 2.453125 -3.34375 2.453125 -3.375 2.3125 -3.375 C 2.21875 -3.375 2.21875 -3.375 2.15625 -3.296875 L 0.3125 -1.03125 L 0.3125 -0.8125 L 1.96875 -0.8125 L 1.96875 -0.421875 C 1.96875 -0.265625 1.96875 -0.21875 1.546875 -0.21875 L 1.359375 -0.21875 L 1.359375 0 C 1.59375 -0.015625 1.921875 -0.015625 2.21875 -0.015625 C 2.5 -0.015625 2.828125 -0.015625 3.0625 0 L 3.0625 -0.21875 L 2.890625 -0.21875 C 2.453125 -0.21875 2.453125 -0.265625 2.453125 -0.421875 L 2.453125 -0.8125 Z M 2.015625 -2.84375 L 2.015625 -1.03125 L 0.546875 -1.03125 Z M 2.015625 -2.84375 "/>
</symbol>
<symbol overflow="visible" id="glyph4-3">
<path style="stroke:none;" d="M 2.9375 -0.96875 L 2.71875 -0.96875 C 2.71875 -0.875 2.65625 -0.5625 2.578125 -0.515625 C 2.546875 -0.484375 2.125 -0.484375 2.046875 -0.484375 L 1.078125 -0.484375 C 1.40625 -0.71875 1.765625 -1 2.0625 -1.203125 C 2.515625 -1.515625 2.9375 -1.796875 2.9375 -2.328125 C 2.9375 -2.96875 2.328125 -3.3125 1.625 -3.3125 C 0.953125 -3.3125 0.453125 -2.9375 0.453125 -2.4375 C 0.453125 -2.1875 0.671875 -2.140625 0.75 -2.140625 C 0.875 -2.140625 1.03125 -2.234375 1.03125 -2.4375 C 1.03125 -2.609375 0.90625 -2.71875 0.75 -2.71875 C 0.890625 -2.953125 1.1875 -3.09375 1.515625 -3.09375 C 2 -3.09375 2.40625 -2.8125 2.40625 -2.328125 C 2.40625 -1.90625 2.109375 -1.578125 1.734375 -1.265625 L 0.515625 -0.234375 C 0.46875 -0.1875 0.453125 -0.1875 0.453125 -0.15625 L 0.453125 0 L 2.765625 0 Z M 2.9375 -0.96875 "/>
</symbol>
<symbol overflow="visible" id="glyph5-0">
<path style="stroke:none;" d=""/>
</symbol>
<symbol overflow="visible" id="glyph5-1">
<path style="stroke:none;" d="M 2.28125 -0.5 C 2.671875 -0.25 2.75 0.171875 2.484375 0.578125 C 2.21875 1.015625 1.796875 1.0625 1.4375 0.828125 C 1.390625 0.78125 0.890625 0.46875 0.828125 0.109375 C 1.015625 0.1875 1.140625 0.09375 1.21875 0 C 1.3125 -0.15625 1.265625 -0.34375 1.125 -0.4375 C 0.984375 -0.515625 0.8125 -0.5 0.6875 -0.3125 C 0.40625 0.109375 0.765625 0.625 1.34375 1 C 2.015625 1.453125 2.71875 1.296875 2.96875 0.890625 C 3.203125 0.546875 3.09375 0.0625 2.6875 -0.34375 C 3.296875 -0.203125 3.625 -0.421875 3.78125 -0.65625 C 4 -1 3.734375 -1.515625 3.21875 -1.859375 C 2.6875 -2.203125 2.15625 -2.25 1.90625 -1.875 C 1.78125 -1.6875 1.90625 -1.515625 1.984375 -1.46875 C 2.109375 -1.390625 2.265625 -1.40625 2.375 -1.5625 C 2.4375 -1.65625 2.46875 -1.8125 2.34375 -1.921875 C 2.625 -2 3.015625 -1.78125 3.109375 -1.71875 C 3.40625 -1.515625 3.515625 -1.25 3.328125 -0.953125 C 3.171875 -0.703125 2.765625 -0.421875 2.328125 -0.671875 C 2.203125 -0.75 2.1875 -0.75 2.0625 -0.8125 C 2.015625 -0.84375 1.96875 -0.875 1.921875 -0.8125 C 1.890625 -0.75 1.921875 -0.734375 2 -0.671875 Z M 2.28125 -0.5 "/>
</symbol>
<symbol overflow="visible" id="glyph5-2">
<path style="stroke:none;" d="M 3 0.78125 L 2.8125 0.671875 C 2.75 0.75 2.546875 0.96875 2.4375 0.96875 C 2.40625 0.984375 2.046875 0.75 1.984375 0.703125 L 1.171875 0.1875 C 1.578125 0.15625 2.03125 0.109375 2.390625 0.109375 C 2.9375 0.109375 3.453125 0.09375 3.734375 -0.359375 C 4.078125 -0.890625 3.75 -1.515625 3.15625 -1.890625 C 2.59375 -2.265625 1.96875 -2.21875 1.703125 -1.796875 C 1.5625 -1.578125 1.734375 -1.4375 1.796875 -1.390625 C 1.90625 -1.328125 2.078125 -1.3125 2.1875 -1.484375 C 2.28125 -1.625 2.25 -1.78125 2.109375 -1.875 C 2.359375 -2 2.6875 -1.953125 2.953125 -1.765625 C 3.359375 -1.5 3.546875 -1.046875 3.28125 -0.640625 C 3.046875 -0.28125 2.625 -0.1875 2.140625 -0.125 L 0.5625 0.078125 C 0.5 0.09375 0.484375 0.09375 0.453125 0.125 L 0.375 0.25 L 2.328125 1.5 Z M 3 0.78125 "/>
</symbol>
<symbol overflow="visible" id="glyph5-3">
<path style="stroke:none;" d="M 2.328125 -1.78125 C 2.5 -1.578125 2.703125 -1.453125 2.734375 -1.421875 C 3.03125 -1.234375 3.28125 -1.1875 3.421875 -1.171875 C 3.5625 -1.15625 3.96875 -1.15625 4.03125 -1.25 C 4.0625 -1.3125 4.015625 -1.34375 4 -1.359375 C 3.984375 -1.359375 3.984375 -1.359375 3.9375 -1.375 C 3.75 -1.4375 3.4375 -1.53125 3.15625 -1.703125 C 2.921875 -1.859375 2.734375 -2.046875 2.5625 -2.265625 C 2.5 -2.328125 2.5 -2.328125 2.484375 -2.328125 C 2.421875 -2.375 2.40625 -2.328125 2.359375 -2.265625 L 1.546875 -1.015625 C 1.484375 -0.9375 1.453125 -0.875 1.546875 -0.8125 C 1.59375 -0.78125 1.609375 -0.796875 1.65625 -0.828125 C 1.9375 -0.890625 2.234375 -0.84375 2.515625 -0.65625 C 2.75 -0.5 2.796875 -0.28125 2.8125 -0.15625 C 2.8125 0.046875 2.703125 0.25 2.5625 0.453125 C 2.453125 0.625 2.28125 0.84375 2.015625 0.90625 C 1.71875 0.984375 1.46875 0.84375 1.375 0.78125 C 1.09375 0.609375 0.875 0.28125 0.890625 -0.046875 C 1.078125 0.0625 1.234375 -0.03125 1.296875 -0.140625 C 1.390625 -0.265625 1.34375 -0.4375 1.203125 -0.515625 C 1.125 -0.578125 0.921875 -0.609375 0.8125 -0.421875 C 0.53125 0 0.71875 0.609375 1.265625 0.953125 C 1.890625 1.359375 2.6875 1.265625 3.015625 0.75 C 3.3125 0.28125 3.203125 -0.421875 2.625 -0.796875 C 2.359375 -0.953125 2.09375 -1.046875 1.828125 -1.015625 Z M 2.328125 -1.78125 "/>
</symbol>
</g>
</defs>
<g id="surface1">
<path style="fill-rule:nonzero;fill:rgb(50%,50%,50%);fill-opacity:0.3;stroke-width:0.3985;stroke-linecap:butt;stroke-linejoin:miter;stroke:rgb(0%,0%,0%);stroke-opacity:1;stroke-miterlimit:10;" d="M 9.962879 -0.00171688 C 9.962879 5.502024 5.502031 9.962828 -0.00176535 9.962828 C -5.501655 9.962828 -9.962504 5.502024 -9.962504 -0.00171688 C -9.962504 -5.501552 -5.501655 -9.962356 -0.00176535 -9.962356 C 5.502031 -9.962356 9.962879 -5.501552 9.962879 -0.00171688 Z M 9.962879 -0.00171688 " transform="matrix(1.00002,0,0,-1.00003,108.833797,43.142814)"/>
<g style="fill:rgb(0%,0%,0%);fill-opacity:1;">
  <use xlink:href="#glyph0-1" x="104.51971" y="44.574857"/>
</g>
<g style="fill:rgb(0%,0%,0%);fill-opacity:1;">
  <use xlink:href="#glyph1-1" x="108.9958" y="45.570887"/>
</g>
<path style="fill-rule:nonzero;fill:rgb(50%,50%,50%);fill-opacity:0.3;stroke-width:0.3985;stroke-linecap:butt;stroke-linejoin:miter;stroke:rgb(0%,0%,0%);stroke-opacity:1;stroke-miterlimit:10;" d="M -38.422872 31.380154 C -38.422872 36.879989 -42.88372 41.340793 -48.387516 41.340793 C -53.891313 41.340793 -58.348255 36.879989 -58.348255 31.380154 C -58.348255 25.876413 -53.891313 21.415609 -48.387516 21.415609 C -42.88372 21.415609 -38.422872 25.876413 -38.422872 31.380154 Z M -38.422872 31.380154 " transform="matrix(1.00002,0,0,-1.00003,108.833797,43.142814)"/>
<g style="fill:rgb(0%,0%,0%);fill-opacity:1;">
  <use xlink:href="#glyph0-1" x="56.131743" y="13.194916"/>
</g>
<g style="fill:rgb(0%,0%,0%);fill-opacity:1;">
  <use xlink:href="#glyph1-2" x="60.607832" y="14.190946"/>
</g>
<path style="fill-rule:nonzero;fill:rgb(50%,50%,50%);fill-opacity:0.3;stroke-width:0.3985;stroke-linecap:butt;stroke-linejoin:miter;stroke:rgb(0%,0%,0%);stroke-opacity:1;stroke-miterlimit:10;" d="M -38.422872 -31.379682 C -38.422872 -25.875941 -42.88372 -21.415137 -48.387516 -21.415137 C -53.891313 -21.415137 -58.348255 -25.875941 -58.348255 -31.379682 C -58.348255 -36.883423 -53.891313 -41.344227 -48.387516 -41.344227 C -42.88372 -41.344227 -38.422872 -36.883423 -38.422872 -31.379682 Z M -38.422872 -31.379682 " transform="matrix(1.00002,0,0,-1.00003,108.833797,43.142814)"/>
<g style="fill:rgb(0%,0%,0%);fill-opacity:1;">
  <use xlink:href="#glyph0-1" x="56.131743" y="75.955799"/>
</g>
<g style="fill:rgb(0%,0%,0%);fill-opacity:1;">
  <use xlink:href="#glyph1-3" x="60.607832" y="76.951829"/>
</g>
<path style="fill-rule:nonzero;fill:rgb(50%,50%,50%);fill-opacity:0.3;stroke-width:0.3985;stroke-linecap:butt;stroke-linejoin:miter;stroke:rgb(0%,0%,0%);stroke-opacity:1;stroke-miterlimit:10;" d="M -86.812529 -0.00171688 C -86.812529 5.502024 -91.273377 9.962828 -96.773267 9.962828 C -102.277064 9.962828 -106.737912 5.502024 -106.737912 -0.00171688 C -106.737912 -5.501552 -102.277064 -9.962356 -96.773267 -9.962356 C -91.273377 -9.962356 -86.812529 -5.501552 -86.812529 -0.00171688 Z M -86.812529 -0.00171688 " transform="matrix(1.00002,0,0,-1.00003,108.833797,43.142814)"/>
<g style="fill:rgb(0%,0%,0%);fill-opacity:1;">
  <use xlink:href="#glyph0-1" x="7.822776" y="44.574857"/>
</g>
<g style="fill:rgb(0%,0%,0%);fill-opacity:1;">
  <use xlink:href="#glyph2-1" x="12.298866" y="45.570887"/>
</g>
<path style="fill-rule:nonzero;fill:rgb(50%,50%,50%);fill-opacity:0.3;stroke-width:0.3985;stroke-linecap:butt;stroke-linejoin:miter;stroke:rgb(0%,0%,0%);stroke-opacity:1;stroke-miterlimit:10;" d="M 58.34863 31.380154 C 58.34863 36.879989 53.887782 41.340793 48.387892 41.340793 C 42.884096 41.340793 38.423247 36.879989 38.423247 31.380154 C 38.423247 25.876413 42.884096 21.415609 48.387892 21.415609 C 53.887782 21.415609 58.34863 25.876413 58.34863 31.380154 Z M 58.34863 31.380154 " transform="matrix(1.00002,0,0,-1.00003,108.833797,43.142814)"/>
<g style="fill:rgb(0%,0%,0%);fill-opacity:1;">
  <use xlink:href="#glyph0-1" x="152.908678" y="13.194916"/>
</g>
<g style="fill:rgb(0%,0%,0%);fill-opacity:1;">
  <use xlink:href="#glyph1-4" x="157.384768" y="14.190946"/>
</g>
<path style="fill-rule:nonzero;fill:rgb(50%,50%,50%);fill-opacity:0.3;stroke-width:0.3985;stroke-linecap:butt;stroke-linejoin:miter;stroke:rgb(0%,0%,0%);stroke-opacity:1;stroke-miterlimit:10;" d="M 58.34863 -31.379682 C 58.34863 -25.875941 53.887782 -21.415137 48.387892 -21.415137 C 42.884096 -21.415137 38.423247 -25.875941 38.423247 -31.379682 C 38.423247 -36.883423 42.884096 -41.344227 48.387892 -41.344227 C 53.887782 -41.344227 58.34863 -36.883423 58.34863 -31.379682 Z M 58.34863 -31.379682 " transform="matrix(1.00002,0,0,-1.00003,108.833797,43.142814)"/>
<g style="fill:rgb(0%,0%,0%);fill-opacity:1;">
  <use xlink:href="#glyph0-1" x="152.908678" y="75.955799"/>
</g>
<g style="fill:rgb(0%,0%,0%);fill-opacity:1;">
  <use xlink:href="#glyph1-5" x="157.384768" y="76.951829"/>
</g>
<path style="fill-rule:nonzero;fill:rgb(50%,50%,50%);fill-opacity:0.3;stroke-width:0.3985;stroke-linecap:butt;stroke-linejoin:miter;stroke:rgb(0%,0%,0%);stroke-opacity:1;stroke-miterlimit:10;" d="M 106.738287 -0.00171688 C 106.738287 5.502024 102.277439 9.962828 96.773643 9.962828 C 91.273753 9.962828 86.812905 5.502024 86.812905 -0.00171688 C 86.812905 -5.501552 91.273753 -9.962356 96.773643 -9.962356 C 102.277439 -9.962356 106.738287 -5.501552 106.738287 -0.00171688 Z M 106.738287 -0.00171688 " transform="matrix(1.00002,0,0,-1.00003,108.833797,43.142814)"/>
<g style="fill:rgb(0%,0%,0%);fill-opacity:1;">
  <use xlink:href="#glyph0-1" x="201.202644" y="44.541856"/>
</g>
<g style="fill:rgb(0%,0%,0%);fill-opacity:1;">
  <use xlink:href="#glyph2-2" x="205.678734" y="45.603888"/>
</g>
<path style="fill:none;stroke-width:0.3985;stroke-linecap:butt;stroke-linejoin:miter;stroke:rgb(0%,0%,0%);stroke-opacity:1;stroke-miterlimit:10;" d="M -88.25 5.529367 L -57.297494 25.602984 " transform="matrix(1.00002,0,0,-1.00003,108.833797,43.142814)"/>
<path style="fill:none;stroke-width:0.31879;stroke-linecap:round;stroke-linejoin:round;stroke:rgb(0%,0%,0%);stroke-opacity:1;stroke-miterlimit:10;" d="M -1.19659 1.59306 C -1.094762 0.996267 0.0000871437 0.100007 0.298234 -0.000230859 C 0.000460804 -0.100433 -1.096606 -0.995201 -1.195219 -1.592366 " transform="matrix(0.839007,-0.544116,-0.544111,-0.839015,51.534811,17.540986)"/>
<g style="fill:rgb(0%,0%,0%);fill-opacity:1;">
  <use xlink:href="#glyph3-1" x="34.449509" y="27.789307"/>
</g>
<path style="fill:none;stroke-width:0.3985;stroke-linecap:butt;stroke-linejoin:miter;stroke:rgb(0%,0%,0%);stroke-opacity:1;stroke-miterlimit:10;" d="M -86.613314 -0.00171688 L -10.618741 -0.00171688 " transform="matrix(1.00002,0,0,-1.00003,108.833797,43.142814)"/>
<path style="fill:none;stroke-width:0.31879;stroke-linecap:round;stroke-linejoin:round;stroke:rgb(0%,0%,0%);stroke-opacity:1;stroke-miterlimit:10;" d="M -1.193739 1.595891 C -1.096085 0.994347 0.00154948 0.0998426 0.298419 -0.00171688 C 0.00154948 -0.0993702 -1.096085 -0.997781 -1.193739 -1.595419 " transform="matrix(1.00002,0,0,-1.00003,98.213294,43.142814)"/>
<g style="fill:rgb(0%,0%,0%);fill-opacity:1;">
  <use xlink:href="#glyph4-1" x="58.750795" y="42.445793"/>
</g>
<path style="fill:none;stroke-width:0.3985;stroke-linecap:butt;stroke-linejoin:miter;stroke:rgb(0%,0%,0%);stroke-opacity:1;stroke-miterlimit:10;" d="M -88.25 -5.528895 L -57.297494 -25.602511 " transform="matrix(1.00002,0,0,-1.00003,108.833797,43.142814)"/>
<path style="fill:none;stroke-width:0.31879;stroke-linecap:round;stroke-linejoin:round;stroke:rgb(0%,0%,0%);stroke-opacity:1;stroke-miterlimit:10;" d="M -1.195476 1.592762 C -1.096863 0.995597 0.000203771 0.100829 0.297976 0.000627197 C -0.000169889 -0.0996109 -1.095019 -0.99587 -1.196847 -1.592664 " transform="matrix(0.839007,0.544116,0.544111,-0.839015,51.534811,68.744642)"/>
<g style="fill:rgb(0%,0%,0%);fill-opacity:1;">
  <use xlink:href="#glyph5-1" x="32.702373" y="61.189491"/>
</g>
<path style="fill:none;stroke-width:0.3985;stroke-linecap:butt;stroke-linejoin:miter;stroke:rgb(0%,0%,0%);stroke-opacity:1;stroke-miterlimit:10;" d="M -38.223657 31.380154 L 37.767011 31.380154 " transform="matrix(1.00002,0,0,-1.00003,108.833797,43.142814)"/>
<path style="fill:none;stroke-width:0.31879;stroke-linecap:round;stroke-linejoin:round;stroke:rgb(0%,0%,0%);stroke-opacity:1;stroke-miterlimit:10;" d="M -1.195348 1.594326 C -1.097694 0.996688 -0.0000594802 0.0982775 0.300716 0.000624165 C -0.0000594802 -0.100935 -1.097694 -0.99544 -1.195348 -1.593078 " transform="matrix(1.00002,0,0,-1.00003,146.601622,11.762343)"/>
<g style="fill:rgb(0%,0%,0%);fill-opacity:1;">
  <use xlink:href="#glyph4-2" x="107.138763" y="11.064852"/>
</g>
<path style="fill:none;stroke-width:0.3985;stroke-linecap:butt;stroke-linejoin:miter;stroke:rgb(0%,0%,0%);stroke-opacity:1;stroke-miterlimit:10;" d="M -39.860343 25.84907 L -8.911743 5.77936 " transform="matrix(1.00002,0,0,-1.00003,108.833797,43.142814)"/>
<path style="fill:none;stroke-width:0.31879;stroke-linecap:round;stroke-linejoin:round;stroke:rgb(0%,0%,0%);stroke-opacity:1;stroke-miterlimit:10;" d="M -1.194853 1.595969 C -1.094115 0.995526 -0.000325208 0.0986323 0.300725 0.000556077 C -0.000698867 -0.101808 -1.095548 -0.998067 -1.194098 -1.592735 " transform="matrix(0.839007,0.544116,0.544111,-0.839015,99.923168,37.364181)"/>
<g style="fill:rgb(0%,0%,0%);fill-opacity:1;">
  <use xlink:href="#glyph5-2" x="83.596391" y="25.945434"/>
</g>
<path style="fill:none;stroke-width:0.3985;stroke-linecap:butt;stroke-linejoin:miter;stroke:rgb(0%,0%,0%);stroke-opacity:1;stroke-miterlimit:10;" d="M -39.860343 -25.848598 L -8.911743 -5.778887 " transform="matrix(1.00002,0,0,-1.00003,108.833797,43.142814)"/>
<path style="fill:none;stroke-width:0.31879;stroke-linecap:round;stroke-linejoin:round;stroke:rgb(0%,0%,0%);stroke-opacity:1;stroke-miterlimit:10;" d="M -1.193841 1.593131 C -1.097416 0.995186 -0.000441835 0.102204 0.300982 -0.000159738 C -0.0000681748 -0.098236 -1.095983 -0.998407 -1.194596 -1.595572 " transform="matrix(0.839007,-0.544116,-0.544111,-0.839015,99.923168,48.921448)"/>
<g style="fill:rgb(0%,0%,0%);fill-opacity:1;">
  <use xlink:href="#glyph3-2" x="82.838477" y="59.170248"/>
</g>
<path style="fill:none;stroke-width:0.3985;stroke-linecap:butt;stroke-linejoin:miter;stroke:rgb(0%,0%,0%);stroke-opacity:1;stroke-miterlimit:10;" d="M -38.223657 -31.379682 L 37.767011 -31.379682 " transform="matrix(1.00002,0,0,-1.00003,108.833797,43.142814)"/>
<path style="fill:none;stroke-width:0.31879;stroke-linecap:round;stroke-linejoin:round;stroke:rgb(0%,0%,0%);stroke-opacity:1;stroke-miterlimit:10;" d="M -1.195348 1.59355 C -1.097694 0.995912 -0.0000594802 0.101408 0.300716 -0.00015179 C -0.0000594802 -0.0978051 -1.097694 -0.996216 -1.195348 -1.593854 " transform="matrix(1.00002,0,0,-1.00003,146.601622,74.523286)"/>
<g style="fill:rgb(0%,0%,0%);fill-opacity:1;">
  <use xlink:href="#glyph4-2" x="107.138763" y="78.430873"/>
</g>
<path style="fill:none;stroke-width:0.3985;stroke-linecap:butt;stroke-linejoin:miter;stroke:rgb(0%,0%,0%);stroke-opacity:1;stroke-miterlimit:10;" d="M 8.525408 5.529367 L 39.477914 25.602984 " transform="matrix(1.00002,0,0,-1.00003,108.833797,43.142814)"/>
<path style="fill:none;stroke-width:0.31879;stroke-linecap:round;stroke-linejoin:round;stroke:rgb(0%,0%,0%);stroke-opacity:1;stroke-miterlimit:10;" d="M -1.196037 1.592702 C -1.094209 0.995908 0.00063943 0.0996491 0.298786 -0.000589026 C 0.00101309 -0.100791 -1.096054 -0.995559 -1.194667 -1.592724 " transform="matrix(0.839007,-0.544116,-0.544111,-0.839015,148.311496,17.540986)"/>
<g style="fill:rgb(0%,0%,0%);fill-opacity:1;">
  <use xlink:href="#glyph3-2" x="131.226445" y="27.789307"/>
</g>
<path style="fill:none;stroke-width:0.3985;stroke-linecap:butt;stroke-linejoin:miter;stroke:rgb(0%,0%,0%);stroke-opacity:1;stroke-miterlimit:10;" d="M 8.525408 -5.528895 L 39.477914 -25.602511 " transform="matrix(1.00002,0,0,-1.00003,108.833797,43.142814)"/>
<path style="fill:none;stroke-width:0.31879;stroke-linecap:round;stroke-linejoin:round;stroke:rgb(0%,0%,0%);stroke-opacity:1;stroke-miterlimit:10;" d="M -1.194924 1.593121 C -1.096311 0.995955 0.000756057 0.101187 0.298529 0.000985365 C 0.000382397 -0.0992528 -1.094466 -0.995512 -1.196294 -1.592306 " transform="matrix(0.839007,0.544116,0.544111,-0.839015,148.311496,68.744642)"/>
<g style="fill:rgb(0%,0%,0%);fill-opacity:1;">
  <use xlink:href="#glyph5-2" x="131.985359" y="57.325376"/>
</g>
<path style="fill:none;stroke-width:0.3985;stroke-linecap:butt;stroke-linejoin:miter;stroke:rgb(0%,0%,0%);stroke-opacity:1;stroke-miterlimit:10;" d="M 10.162094 -0.00171688 L 86.152762 -0.00171688 " transform="matrix(1.00002,0,0,-1.00003,108.833797,43.142814)"/>
<path style="fill:none;stroke-width:0.31879;stroke-linecap:round;stroke-linejoin:round;stroke:rgb(0%,0%,0%);stroke-opacity:1;stroke-miterlimit:10;" d="M -1.196977 1.595891 C -1.095417 0.994347 -0.00168845 0.0998426 0.299087 -0.00171688 C -0.00168845 -0.0993702 -1.095417 -0.997781 -1.196977 -1.595419 " transform="matrix(1.00002,0,0,-1.00003,194.98997,43.142814)"/>
<g style="fill:rgb(0%,0%,0%);fill-opacity:1;">
  <use xlink:href="#glyph4-3" x="155.52673" y="42.445793"/>
</g>
<path style="fill:none;stroke-width:0.3985;stroke-linecap:butt;stroke-linejoin:miter;stroke:rgb(0%,0%,0%);stroke-opacity:1;stroke-miterlimit:10;" d="M 56.915065 25.84907 L 87.863665 5.77936 " transform="matrix(1.00002,0,0,-1.00003,108.833797,43.142814)"/>
<path style="fill:none;stroke-width:0.31879;stroke-linecap:round;stroke-linejoin:round;stroke:rgb(0%,0%,0%);stroke-opacity:1;stroke-miterlimit:10;" d="M -1.19757 1.594207 C -1.093554 0.99589 0.000235469 0.0989959 0.298008 -0.00120577 C -0.000138191 -0.101444 -1.094987 -0.997703 -1.196815 -1.594497 " transform="matrix(0.839007,0.544116,0.544111,-0.839015,196.699844,37.364181)"/>
<g style="fill:rgb(0%,0%,0%);fill-opacity:1;">
  <use xlink:href="#glyph5-3" x="180.373327" y="25.945434"/>
</g>
<path style="fill:none;stroke-width:0.3985;stroke-linecap:butt;stroke-linejoin:miter;stroke:rgb(0%,0%,0%);stroke-opacity:1;stroke-miterlimit:10;" d="M 56.915065 -25.848598 L 87.863665 -5.778887 " transform="matrix(1.00002,0,0,-1.00003,108.833797,43.142814)"/>
<path style="fill:none;stroke-width:0.31879;stroke-linecap:round;stroke-linejoin:round;stroke:rgb(0%,0%,0%);stroke-opacity:1;stroke-miterlimit:10;" d="M -1.196558 1.594893 C -1.096855 0.994822 0.000118842 0.10184 0.298265 0.00160211 C 0.000492502 -0.0985996 -1.095423 -0.998771 -1.197313 -1.59381 " transform="matrix(0.839007,-0.544116,-0.544111,-0.839015,196.699844,48.921448)"/>
<g style="fill:rgb(0%,0%,0%);fill-opacity:1;">
  <use xlink:href="#glyph3-2" x="182.120462" y="63.033364"/>
</g>
</g>
</svg>
