<?xml version="1.0" encoding="UTF-8"?>
<svg xmlns="http://www.w3.org/2000/svg" xmlns:xlink="http://www.w3.org/1999/xlink" width="120pt" height="86pt" viewBox="0 0 120 86" version="1.1">
<defs>
<g>
<symbol overflow="visible" id="glyph0-0">
<path style="stroke:none;" d=""/>
</symbol>
<symbol overflow="visible" id="glyph0-1">
<path style="stroke:none;" d="M 4.3125 -3.3125 C 4.3125 -3.9375 3.984375 -3.96875 3.90625 -3.96875 C 3.671875 -3.96875 3.4375 -3.734375 3.4375 -3.53125 C 3.4375 -3.390625 3.53125 -3.3125 3.59375 -3.265625 C 3.828125 -3.046875 3.90625 -2.75 3.90625 -2.515625 C 3.90625 -2.125 3.34375 -0.125 2.3125 -0.125 C 1.625 -0.125 1.625 -0.75 1.625 -0.921875 C 1.625 -1.296875 1.765625 -1.765625 2.078125 -2.578125 C 2.21875 -2.953125 2.25 -3.046875 2.25 -3.203125 C 2.25 -3.65625 1.921875 -3.96875 1.484375 -3.96875 C 0.625 -3.96875 0.265625 -2.6875 0.265625 -2.578125 C 0.265625 -2.5 0.328125 -2.46875 0.390625 -2.46875 C 0.484375 -2.46875 0.5 -2.53125 0.53125 -2.640625 C 0.71875 -3.296875 1.078125 -3.734375 1.453125 -3.734375 C 1.625 -3.734375 1.671875 -3.625 1.671875 -3.4375 C 1.671875 -3.296875 1.625 -3.125 1.546875 -2.921875 C 1.234375 -2.046875 1.015625 -1.484375 1.015625 -1.03125 C 1.015625 -0.1875 1.65625 0.09375 2.265625 0.09375 C 3.78125 0.09375 4.3125 -2.734375 4.3125 -3.3125 Z M 4.3125 -3.3125 "/>
</symbol>
<symbol overflow="visible" id="glyph1-0">
<path style="stroke:none;" d=""/>
</symbol>
<symbol overflow="visible" id="glyph1-1">
<path style="stroke:none;" d="M 3.21875 -1.125 L 3 -1.125 C 2.984375 -1.03125 2.921875 -0.640625 2.84375 -0.578125 C 2.796875 -0.53125 2.3125 -0.53125 2.21875 -0.53125 L 1.109375 -0.53125 L 1.875 -1.15625 C 2.078125 -1.328125 2.609375 -1.703125 2.796875 -1.890625 C 2.96875 -2.0625 3.21875 -2.375 3.21875 -2.796875 C 3.21875 -3.546875 2.546875 -3.984375 1.734375 -3.984375 C 0.96875 -3.984375 0.4375 -3.46875 0.4375 -2.90625 C 0.4375 -2.609375 0.6875 -2.5625 0.75 -2.5625 C 0.90625 -2.5625 1.078125 -2.671875 1.078125 -2.890625 C 1.078125 -3.015625 1 -3.21875 0.734375 -3.21875 C 0.875 -3.515625 1.234375 -3.75 1.65625 -3.75 C 2.28125 -3.75 2.609375 -3.28125 2.609375 -2.796875 C 2.609375 -2.375 2.328125 -1.9375 1.921875 -1.546875 L 0.5 -0.25 C 0.4375 -0.1875 0.4375 -0.1875 0.4375 0 L 3.03125 0 Z M 3.21875 -1.125 "/>
</symbol>
<symbol overflow="visible" id="glyph1-2">
<path style="stroke:none;" d="M 2.140625 -3.796875 C 2.140625 -3.984375 2.125 -3.984375 1.9375 -3.984375 C 1.546875 -3.59375 0.9375 -3.59375 0.71875 -3.59375 L 0.71875 -3.359375 C 0.875 -3.359375 1.28125 -3.359375 1.640625 -3.53125 L 1.640625 -0.515625 C 1.640625 -0.3125 1.640625 -0.234375 1.015625 -0.234375 L 0.765625 -0.234375 L 0.765625 0 C 1.09375 -0.03125 1.5625 -0.03125 1.890625 -0.03125 C 2.21875 -0.03125 2.6875 -0.03125 3.015625 0 L 3.015625 -0.234375 L 2.765625 -0.234375 C 2.140625 -0.234375 2.140625 -0.3125 2.140625 -0.515625 Z M 2.140625 -3.796875 "/>
</symbol>
<symbol overflow="visible" id="glyph1-3">
<path style="stroke:none;" d="M 1.765625 -1.984375 C 2.265625 -1.984375 2.609375 -1.640625 2.609375 -1.03125 C 2.609375 -0.375 2.21875 -0.09375 1.78125 -0.09375 C 1.609375 -0.09375 1 -0.125 0.734375 -0.46875 C 0.96875 -0.5 1.0625 -0.65625 1.0625 -0.8125 C 1.0625 -1.015625 0.921875 -1.15625 0.71875 -1.15625 C 0.5625 -1.15625 0.375 -1.046875 0.375 -0.796875 C 0.375 -0.203125 1.03125 0.125 1.796875 0.125 C 2.6875 0.125 3.265625 -0.4375 3.265625 -1.03125 C 3.265625 -1.46875 2.9375 -1.9375 2.21875 -2.109375 C 2.703125 -2.265625 3.078125 -2.65625 3.078125 -3.140625 C 3.078125 -3.625 2.515625 -3.984375 1.796875 -3.984375 C 1.09375 -3.984375 0.5625 -3.65625 0.5625 -3.171875 C 0.5625 -2.90625 0.765625 -2.84375 0.890625 -2.84375 C 1.046875 -2.84375 1.203125 -2.9375 1.203125 -3.15625 C 1.203125 -3.34375 1.078125 -3.453125 0.90625 -3.46875 C 1.1875 -3.78125 1.734375 -3.78125 1.796875 -3.78125 C 2.09375 -3.78125 2.484375 -3.640625 2.484375 -3.140625 C 2.484375 -2.8125 2.296875 -2.234375 1.6875 -2.203125 C 1.578125 -2.203125 1.421875 -2.1875 1.375 -2.1875 C 1.3125 -2.171875 1.25 -2.171875 1.25 -2.078125 C 1.25 -1.984375 1.3125 -1.984375 1.40625 -1.984375 Z M 1.765625 -1.984375 "/>
</symbol>
<symbol overflow="visible" id="glyph2-0">
<path style="stroke:none;" d=""/>
</symbol>
<symbol overflow="visible" id="glyph2-1">
<path style="stroke:none;" d="M 2.734375 -2.25 C 2.5625 -2.203125 2.5 -2.0625 2.5 -1.96875 C 2.5 -1.875 2.5625 -1.765625 2.703125 -1.765625 C 2.828125 -1.765625 3 -1.859375 3 -2.109375 C 3 -2.515625 2.546875 -2.640625 2.15625 -2.640625 C 1.234375 -2.640625 1.015625 -2.03125 1.015625 -1.78125 C 1.015625 -1.296875 1.5625 -1.203125 1.71875 -1.171875 C 2.171875 -1.09375 2.515625 -1.03125 2.515625 -0.734375 C 2.515625 -0.609375 2.421875 -0.390625 2.203125 -0.28125 C 1.96875 -0.15625 1.71875 -0.140625 1.53125 -0.140625 C 1.328125 -0.140625 0.953125 -0.15625 0.78125 -0.359375 C 1 -0.390625 1.09375 -0.5625 1.09375 -0.703125 C 1.09375 -0.828125 1.015625 -0.921875 0.84375 -0.921875 C 0.6875 -0.921875 0.5 -0.796875 0.5 -0.515625 C 0.5 -0.1875 0.828125 0.0625 1.53125 0.0625 C 2.65625 0.0625 2.890625 -0.640625 2.890625 -0.90625 C 2.890625 -1.109375 2.8125 -1.25 2.671875 -1.359375 C 2.484375 -1.53125 2.25 -1.5625 1.96875 -1.609375 C 1.671875 -1.671875 1.390625 -1.71875 1.390625 -1.953125 C 1.390625 -1.953125 1.390625 -2.4375 2.140625 -2.4375 C 2.296875 -2.4375 2.59375 -2.421875 2.734375 -2.25 Z M 2.734375 -2.25 "/>
</symbol>
<symbol overflow="visible" id="glyph2-2">
<path style="stroke:none;" d="M 3.625 -3.96875 C 3.625 -4 3.640625 -4.03125 3.640625 -4.0625 C 3.640625 -4.15625 3.515625 -4.15625 3.453125 -4.140625 L 2.78125 -4.09375 C 2.671875 -4.09375 2.59375 -4.078125 2.59375 -3.9375 C 2.59375 -3.84375 2.671875 -3.84375 2.765625 -3.84375 C 2.9375 -3.84375 2.984375 -3.84375 3.0625 -3.8125 C 3.0625 -3.71875 3.0625 -3.703125 3.046875 -3.625 C 2.921875 -3.109375 2.8125 -2.703125 2.703125 -2.28125 C 2.609375 -2.421875 2.40625 -2.640625 2.046875 -2.640625 C 1.28125 -2.640625 0.453125 -1.84375 0.453125 -0.953125 C 0.453125 -0.3125 0.90625 0.0625 1.40625 0.0625 C 1.8125 0.0625 2.15625 -0.21875 2.296875 -0.359375 C 2.421875 0.015625 2.8125 0.0625 2.953125 0.0625 C 3.171875 0.0625 3.328125 -0.0625 3.4375 -0.25 C 3.578125 -0.484375 3.671875 -0.828125 3.671875 -0.859375 C 3.671875 -0.875 3.65625 -0.953125 3.546875 -0.953125 C 3.46875 -0.953125 3.453125 -0.90625 3.421875 -0.8125 C 3.328125 -0.4375 3.203125 -0.140625 2.96875 -0.140625 C 2.765625 -0.140625 2.75 -0.359375 2.75 -0.4375 C 2.75 -0.515625 2.75 -0.53125 2.78125 -0.640625 Z M 2.328125 -0.78125 C 2.296875 -0.671875 2.296875 -0.671875 2.21875 -0.578125 C 1.890625 -0.203125 1.578125 -0.140625 1.4375 -0.140625 C 1.1875 -0.140625 0.953125 -0.296875 0.953125 -0.71875 C 0.953125 -0.96875 1.078125 -1.5625 1.28125 -1.890625 C 1.453125 -2.21875 1.765625 -2.4375 2.046875 -2.4375 C 2.5 -2.4375 2.609375 -1.96875 2.609375 -1.921875 L 2.59375 -1.84375 Z M 2.328125 -0.78125 "/>
</symbol>
<symbol overflow="visible" id="glyph3-0">
<path style="stroke:none;" d=""/>
</symbol>
<symbol overflow="visible" id="glyph3-1">
<path style="stroke:none;" d="M -0.125 -4.25 C -0.125 -4.25 -0.125 -4.25 -0.140625 -4.28125 C -0.140625 -4.296875 -0.1875 -4.34375 -0.25 -4.296875 C -0.328125 -4.25 -0.96875 -2.875 -0.0625 -1.453125 C 0.859375 -0.046875 2.390625 -0.0625 2.46875 -0.109375 C 2.53125 -0.15625 2.515625 -0.1875 2.5 -0.21875 C 2.484375 -0.25 2.4375 -0.25 2.4375 -0.25 C 1.3125 -0.359375 0.609375 -1.125 0.25 -1.65625 C -0.40625 -2.6875 -0.359375 -3.65625 -0.125 -4.25 Z M -0.125 -4.25 "/>
</symbol>
<symbol overflow="visible" id="glyph3-2">
<path style="stroke:none;" d="M -0.671875 -2.84375 C -0.4375 -2.921875 -0.234375 -3.046875 -0.203125 -3.078125 C 0.09375 -3.265625 0.25 -3.46875 0.328125 -3.609375 C 0.40625 -3.71875 0.5625 -4.09375 0.5 -4.1875 C 0.46875 -4.25 0.421875 -4.21875 0.40625 -4.203125 C 0.390625 -4.203125 0.390625 -4.203125 0.34375 -4.15625 C 0.21875 -4 0 -3.75 -0.28125 -3.578125 C -0.515625 -3.421875 -0.765625 -3.328125 -1.03125 -3.265625 C -1.09375 -3.234375 -1.09375 -3.234375 -1.109375 -3.234375 C -1.171875 -3.1875 -1.15625 -3.140625 -1.109375 -3.078125 L -0.296875 -1.828125 C -0.234375 -1.75 -0.203125 -1.6875 -0.109375 -1.75 C -0.0625 -1.78125 -0.078125 -1.796875 -0.0625 -1.859375 C -0.03125 -2.140625 0.140625 -2.375 0.421875 -2.5625 C 0.65625 -2.71875 0.890625 -2.6875 1 -2.625 C 1.1875 -2.546875 1.328125 -2.375 1.46875 -2.171875 C 1.578125 -2 1.71875 -1.75 1.640625 -1.46875 C 1.59375 -1.171875 1.375 -1 1.28125 -0.9375 C 1 -0.765625 0.625 -0.6875 0.328125 -0.859375 C 0.484375 -0.96875 0.484375 -1.125 0.421875 -1.234375 C 0.328125 -1.359375 0.15625 -1.40625 0.015625 -1.328125 C -0.0625 -1.265625 -0.171875 -1.109375 -0.0625 -0.921875 C 0.21875 -0.5 0.84375 -0.421875 1.390625 -0.765625 C 2.015625 -1.171875 2.25 -1.921875 1.921875 -2.4375 C 1.625 -2.90625 0.921875 -3.078125 0.34375 -2.703125 C 0.078125 -2.546875 -0.09375 -2.328125 -0.171875 -2.078125 Z M -0.671875 -2.84375 "/>
</symbol>
<symbol overflow="visible" id="glyph3-3">
<path style="stroke:none;" d="M 1.9375 -2.40625 L 1.75 -2.296875 C 1.8125 -2.21875 1.921875 -1.90625 1.875 -1.84375 C 1.875 -1.796875 1.515625 -1.5625 1.453125 -1.515625 L 0.640625 -1 C 0.796875 -1.375 0.9375 -1.796875 1.078125 -2.140625 C 1.28125 -2.640625 1.484375 -3.09375 1.203125 -3.546875 C 0.859375 -4.078125 0.15625 -4.046875 -0.4375 -3.671875 C -1 -3.296875 -1.21875 -2.71875 -0.953125 -2.296875 C -0.8125 -2.078125 -0.609375 -2.15625 -0.546875 -2.203125 C -0.4375 -2.265625 -0.359375 -2.4375 -0.46875 -2.609375 C -0.5625 -2.75 -0.71875 -2.78125 -0.859375 -2.6875 C -0.859375 -2.96875 -0.6875 -3.234375 -0.421875 -3.421875 C -0.015625 -3.6875 0.484375 -3.671875 0.75 -3.265625 C 0.984375 -2.90625 0.90625 -2.46875 0.765625 -2 L 0.3125 -0.484375 C 0.28125 -0.40625 0.265625 -0.40625 0.296875 -0.375 L 0.375 -0.25 L 2.328125 -1.5 Z M 1.9375 -2.40625 "/>
</symbol>
<symbol overflow="visible" id="glyph3-4">
<path style="stroke:none;" d="M 0.953125 -2.109375 C 0.046875 -3.53125 -1.46875 -3.5 -1.5625 -3.453125 C -1.625 -3.40625 -1.59375 -3.34375 -1.59375 -3.34375 C -1.578125 -3.328125 -1.578125 -3.3125 -1.53125 -3.3125 C -0.578125 -3.21875 0.140625 -2.640625 0.625 -1.890625 C 0.875 -1.515625 1.078125 -1.09375 1.140625 -0.65625 C 1.25 -0.0625 1.125 0.375 1.046875 0.65625 C 1.03125 0.671875 1.03125 0.703125 1.046875 0.71875 C 1.046875 0.734375 1.09375 0.78125 1.15625 0.734375 C 1.25 0.6875 1.890625 -0.6875 0.953125 -2.109375 Z M 0.953125 -2.109375 "/>
</symbol>
<symbol overflow="visible" id="glyph3-5">
<path style="stroke:none;" d="M 0.46875 -2.28125 C 0.859375 -2.53125 1.28125 -2.453125 1.546875 -2.046875 C 1.8125 -1.609375 1.703125 -1.21875 1.34375 -0.984375 C 1.296875 -0.9375 0.796875 -0.625 0.421875 -0.703125 C 0.578125 -0.84375 0.578125 -1 0.5 -1.09375 C 0.40625 -1.25 0.203125 -1.28125 0.0625 -1.1875 C -0.078125 -1.109375 -0.125 -0.9375 0 -0.75 C 0.28125 -0.328125 0.890625 -0.4375 1.46875 -0.8125 C 2.140625 -1.265625 2.28125 -1.953125 2.03125 -2.359375 C 1.796875 -2.703125 1.3125 -2.78125 0.78125 -2.59375 C 1.171875 -3.078125 1.09375 -3.484375 0.9375 -3.71875 C 0.71875 -4.0625 0.140625 -4.046875 -0.375 -3.703125 C -0.90625 -3.359375 -1.1875 -2.875 -0.9375 -2.5 C -0.8125 -2.3125 -0.625 -2.359375 -0.546875 -2.40625 C -0.421875 -2.484375 -0.359375 -2.65625 -0.46875 -2.8125 C -0.53125 -2.90625 -0.65625 -3 -0.8125 -2.921875 C -0.75 -3.21875 -0.390625 -3.46875 -0.296875 -3.53125 C 0 -3.734375 0.296875 -3.71875 0.484375 -3.421875 C 0.640625 -3.171875 0.734375 -2.703125 0.328125 -2.390625 C 0.203125 -2.3125 0.1875 -2.3125 0.09375 -2.21875 C 0.046875 -2.1875 0 -2.15625 0.046875 -2.09375 C 0.078125 -2.03125 0.109375 -2.046875 0.1875 -2.109375 Z M 0.46875 -2.28125 "/>
</symbol>
<symbol overflow="visible" id="glyph4-0">
<path style="stroke:none;" d=""/>
</symbol>
<symbol overflow="visible" id="glyph4-1">
<path style="stroke:none;" d="M 1.09375 -0.78125 C 1.34375 -0.390625 1.296875 -0.015625 1.234375 0.15625 C 1.21875 0.1875 1.203125 0.21875 1.21875 0.25 C 1.25 0.28125 1.3125 0.296875 1.359375 0.28125 C 1.40625 0.25 1.578125 -0.34375 1.234375 -0.875 C 1.046875 -1.15625 0.8125 -1.25 0.625 -1.140625 C 0.46875 -1.03125 0.453125 -0.828125 0.546875 -0.703125 C 0.625 -0.578125 0.796875 -0.515625 0.953125 -0.625 C 1.015625 -0.65625 1.078125 -0.71875 1.09375 -0.78125 Z M 1.09375 -0.78125 "/>
</symbol>
<symbol overflow="visible" id="glyph5-0">
<path style="stroke:none;" d=""/>
</symbol>
<symbol overflow="visible" id="glyph5-1">
<path style="stroke:none;" d="M -3.625 -2.203125 C -3.625 -2.203125 -3.640625 -2.21875 -3.671875 -2.21875 C -3.6875 -2.21875 -3.734375 -2.203125 -3.734375 -2.125 C -3.734375 -2.03125 -2.9375 -0.75 -1.25 -0.75 C 0.4375 -0.75 1.25 -2.03125 1.25 -2.125 C 1.25 -2.203125 1.203125 -2.21875 1.171875 -2.21875 C 1.140625 -2.21875 1.125 -2.1875 1.109375 -2.171875 C 0.40625 -1.296875 -0.609375 -1.125 -1.25 -1.125 C -2.46875 -1.125 -3.265625 -1.6875 -3.625 -2.203125 Z M -3.625 -2.203125 "/>
</symbol>
<symbol overflow="visible" id="glyph5-2">
<path style="stroke:none;" d="M -0.96875 -2.9375 L -0.96875 -2.71875 C -0.875 -2.71875 -0.5625 -2.65625 -0.515625 -2.578125 C -0.484375 -2.546875 -0.484375 -2.125 -0.484375 -2.046875 L -0.484375 -1.078125 C -0.71875 -1.40625 -1 -1.765625 -1.203125 -2.0625 C -1.515625 -2.515625 -1.796875 -2.9375 -2.328125 -2.9375 C -2.96875 -2.9375 -3.3125 -2.328125 -3.3125 -1.625 C -3.3125 -0.953125 -2.9375 -0.453125 -2.4375 -0.453125 C -2.1875 -0.453125 -2.140625 -0.671875 -2.140625 -0.75 C -2.140625 -0.875 -2.234375 -1.03125 -2.4375 -1.03125 C -2.609375 -1.03125 -2.71875 -0.90625 -2.71875 -0.75 C -2.953125 -0.890625 -3.09375 -1.1875 -3.09375 -1.515625 C -3.09375 -2 -2.8125 -2.40625 -2.328125 -2.40625 C -1.90625 -2.40625 -1.578125 -2.109375 -1.265625 -1.734375 L -0.234375 -0.515625 C -0.1875 -0.46875 -0.1875 -0.453125 -0.15625 -0.453125 L 0 -0.453125 L 0 -2.765625 Z M -0.96875 -2.9375 "/>
</symbol>
<symbol overflow="visible" id="glyph5-3">
<path style="stroke:none;" d="M -1.65625 -1.640625 C -1.65625 -2.109375 -1.359375 -2.40625 -0.875 -2.40625 C -0.359375 -2.40625 -0.09375 -2.09375 -0.09375 -1.65625 C -0.09375 -1.59375 -0.09375 -1 -0.359375 -0.75 C -0.390625 -0.953125 -0.53125 -1.015625 -0.65625 -1.015625 C -0.84375 -1.015625 -0.96875 -0.875 -0.96875 -0.703125 C -0.96875 -0.546875 -0.859375 -0.40625 -0.640625 -0.40625 C -0.125 -0.40625 0.109375 -0.984375 0.109375 -1.671875 C 0.109375 -2.484375 -0.390625 -2.984375 -0.875 -2.984375 C -1.28125 -2.984375 -1.625 -2.625 -1.75 -2.0625 C -1.953125 -2.65625 -2.328125 -2.8125 -2.609375 -2.8125 C -3.015625 -2.8125 -3.3125 -2.3125 -3.3125 -1.6875 C -3.3125 -1.0625 -3.0625 -0.578125 -2.609375 -0.578125 C -2.375 -0.578125 -2.3125 -0.765625 -2.3125 -0.859375 C -2.3125 -1 -2.421875 -1.140625 -2.609375 -1.140625 C -2.71875 -1.140625 -2.859375 -1.078125 -2.890625 -0.90625 C -3.109375 -1.109375 -3.125 -1.5625 -3.125 -1.671875 C -3.125 -2.03125 -2.953125 -2.28125 -2.609375 -2.28125 C -2.3125 -2.28125 -1.859375 -2.09375 -1.828125 -1.578125 C -1.828125 -1.4375 -1.828125 -1.421875 -1.8125 -1.28125 C -1.8125 -1.234375 -1.8125 -1.171875 -1.734375 -1.171875 C -1.65625 -1.171875 -1.65625 -1.21875 -1.65625 -1.3125 Z M -1.65625 -1.640625 "/>
</symbol>
<symbol overflow="visible" id="glyph5-4">
<path style="stroke:none;" d="M -1.25 -1.953125 C -2.9375 -1.953125 -3.734375 -0.671875 -3.734375 -0.5625 C -3.734375 -0.484375 -3.671875 -0.484375 -3.671875 -0.484375 C -3.65625 -0.484375 -3.640625 -0.484375 -3.609375 -0.515625 C -3.015625 -1.265625 -2.140625 -1.5625 -1.25 -1.5625 C -0.796875 -1.5625 -0.328125 -1.484375 0.078125 -1.3125 C 0.640625 -1.078125 0.921875 -0.75 1.125 -0.515625 C 1.125 -0.5 1.15625 -0.484375 1.171875 -0.484375 C 1.1875 -0.484375 1.25 -0.484375 1.25 -0.5625 C 1.25 -0.671875 0.453125 -1.953125 -1.25 -1.953125 Z M -1.25 -1.953125 "/>
</symbol>
<symbol overflow="visible" id="glyph5-5">
<path style="stroke:none;" d="M -0.8125 -3.078125 L -1.03125 -3.078125 L -1.03125 -2.453125 L -3.21875 -2.453125 C -3.34375 -2.453125 -3.375 -2.453125 -3.375 -2.3125 C -3.375 -2.21875 -3.375 -2.21875 -3.296875 -2.15625 L -1.03125 -0.3125 L -0.8125 -0.3125 L -0.8125 -1.96875 L -0.421875 -1.96875 C -0.265625 -1.96875 -0.21875 -1.96875 -0.21875 -1.546875 L -0.21875 -1.359375 L 0 -1.359375 C -0.015625 -1.59375 -0.015625 -1.921875 -0.015625 -2.21875 C -0.015625 -2.5 -0.015625 -2.828125 0 -3.0625 L -0.21875 -3.0625 L -0.21875 -2.890625 C -0.21875 -2.453125 -0.265625 -2.453125 -0.421875 -2.453125 L -0.8125 -2.453125 Z M -2.84375 -2.015625 L -1.03125 -2.015625 L -1.03125 -0.546875 Z M -2.84375 -2.015625 "/>
</symbol>
<symbol overflow="visible" id="glyph5-6">
<path style="stroke:none;" d="M -3.171875 -1.984375 C -3.3125 -1.984375 -3.3125 -1.96875 -3.3125 -1.796875 C -3 -1.453125 -3 -0.890625 -3 -0.796875 L -3 -0.71875 L -2.78125 -0.71875 L -2.78125 -0.796875 C -2.78125 -0.90625 -2.796875 -1.234375 -2.921875 -1.53125 L -0.421875 -1.53125 C -0.28125 -1.53125 -0.21875 -1.53125 -0.21875 -1 L -0.21875 -0.75 L 0 -0.75 C -0.015625 -1.015625 -0.015625 -1.46875 -0.015625 -1.75 C -0.015625 -2.046875 -0.015625 -2.484375 0 -2.765625 L -0.21875 -2.765625 L -0.21875 -2.515625 C -0.21875 -1.984375 -0.28125 -1.984375 -0.421875 -1.984375 Z M -3.171875 -1.984375 "/>
</symbol>
<symbol overflow="visible" id="glyph6-0">
<path style="stroke:none;" d=""/>
</symbol>
<symbol overflow="visible" id="glyph6-1">
<path style="stroke:none;" d="M -0.0625 -1.34375 C 0.40625 -1.34375 0.6875 -1.09375 0.796875 -0.953125 C 0.828125 -0.90625 0.84375 -0.890625 0.875 -0.890625 C 0.90625 -0.890625 0.96875 -0.9375 0.96875 -0.984375 C 0.96875 -1.046875 0.578125 -1.515625 -0.046875 -1.515625 C -0.390625 -1.515625 -0.609375 -1.359375 -0.609375 -1.140625 C -0.609375 -0.953125 -0.453125 -0.84375 -0.296875 -0.84375 C -0.140625 -0.84375 0 -0.953125 0 -1.140625 C 0 -1.21875 -0.015625 -1.296875 -0.0625 -1.34375 Z M -0.0625 -1.34375 "/>
</symbol>
<symbol overflow="visible" id="glyph7-0">
<path style="stroke:none;" d=""/>
</symbol>
<symbol overflow="visible" id="glyph7-1">
<path style="stroke:none;" d="M 2.203125 -3.625 C 2.203125 -3.625 2.21875 -3.640625 2.21875 -3.671875 C 2.21875 -3.6875 2.203125 -3.734375 2.125 -3.734375 C 2.03125 -3.734375 0.75 -2.9375 0.75 -1.25 C 0.75 0.4375 2.03125 1.25 2.125 1.25 C 2.203125 1.25 2.21875 1.203125 2.21875 1.171875 C 2.21875 1.140625 2.1875 1.125 2.171875 1.109375 C 1.296875 0.40625 1.125 -0.609375 1.125 -1.25 C 1.125 -2.46875 1.6875 -3.265625 2.203125 -3.625 Z M 2.203125 -3.625 "/>
</symbol>
<symbol overflow="visible" id="glyph7-2">
<path style="stroke:none;" d="M 0.984375 -2.75 C 1.234375 -2.6875 1.46875 -2.6875 1.515625 -2.6875 C 1.859375 -2.6875 2.109375 -2.78125 2.234375 -2.84375 C 2.359375 -2.90625 2.703125 -3.125 2.703125 -3.234375 C 2.703125 -3.3125 2.640625 -3.3125 2.625 -3.3125 C 2.609375 -3.3125 2.609375 -3.3125 2.546875 -3.296875 C 2.359375 -3.234375 2.046875 -3.15625 1.71875 -3.15625 C 1.4375 -3.15625 1.171875 -3.203125 0.90625 -3.296875 C 0.84375 -3.3125 0.84375 -3.3125 0.828125 -3.3125 C 0.75 -3.3125 0.75 -3.265625 0.75 -3.1875 L 0.75 -1.6875 C 0.75 -1.59375 0.75 -1.53125 0.859375 -1.53125 C 0.90625 -1.53125 0.90625 -1.546875 0.953125 -1.59375 C 1.140625 -1.8125 1.40625 -1.921875 1.75 -1.921875 C 2.03125 -1.921875 2.203125 -1.765625 2.265625 -1.65625 C 2.375 -1.484375 2.40625 -1.265625 2.40625 -1.015625 C 2.40625 -0.8125 2.390625 -0.53125 2.1875 -0.34375 C 1.96875 -0.109375 1.6875 -0.09375 1.578125 -0.09375 C 1.25 -0.09375 0.890625 -0.234375 0.734375 -0.53125 C 0.9375 -0.546875 1.015625 -0.6875 1.015625 -0.8125 C 1.015625 -0.96875 0.890625 -1.09375 0.734375 -1.09375 C 0.625 -1.09375 0.453125 -1.015625 0.453125 -0.796875 C 0.453125 -0.296875 0.9375 0.109375 1.578125 0.109375 C 2.328125 0.109375 2.9375 -0.390625 2.9375 -1 C 2.9375 -1.5625 2.453125 -2.09375 1.765625 -2.09375 C 1.453125 -2.09375 1.1875 -2.015625 0.984375 -1.84375 Z M 0.984375 -2.75 "/>
</symbol>
<symbol overflow="visible" id="glyph7-3">
<path style="stroke:none;" d="M 1.984375 -3.171875 C 1.984375 -3.3125 1.96875 -3.3125 1.796875 -3.3125 C 1.453125 -3 0.890625 -3 0.796875 -3 L 0.71875 -3 L 0.71875 -2.78125 L 0.796875 -2.78125 C 0.90625 -2.78125 1.234375 -2.796875 1.53125 -2.921875 L 1.53125 -0.421875 C 1.53125 -0.28125 1.53125 -0.21875 1 -0.21875 L 0.75 -0.21875 L 0.75 0 C 1.015625 -0.015625 1.46875 -0.015625 1.75 -0.015625 C 2.046875 -0.015625 2.484375 -0.015625 2.765625 0 L 2.765625 -0.21875 L 2.515625 -0.21875 C 1.984375 -0.21875 1.984375 -0.28125 1.984375 -0.421875 Z M 1.984375 -3.171875 "/>
</symbol>
<symbol overflow="visible" id="glyph7-4">
<path style="stroke:none;" d="M 1.953125 -1.25 C 1.953125 -2.9375 0.671875 -3.734375 0.5625 -3.734375 C 0.484375 -3.734375 0.484375 -3.671875 0.484375 -3.671875 C 0.484375 -3.65625 0.484375 -3.640625 0.515625 -3.609375 C 1.265625 -3.015625 1.5625 -2.140625 1.5625 -1.25 C 1.5625 -0.796875 1.484375 -0.328125 1.3125 0.078125 C 1.078125 0.640625 0.75 0.921875 0.515625 1.125 C 0.5 1.125 0.484375 1.15625 0.484375 1.171875 C 0.484375 1.1875 0.484375 1.25 0.5625 1.25 C 0.671875 1.25 1.953125 0.453125 1.953125 -1.25 Z M 1.953125 -1.25 "/>
</symbol>
<symbol overflow="visible" id="glyph7-5">
<path style="stroke:none;" d="M 1.640625 -1.65625 C 2.109375 -1.65625 2.40625 -1.359375 2.40625 -0.875 C 2.40625 -0.359375 2.09375 -0.09375 1.65625 -0.09375 C 1.59375 -0.09375 1 -0.09375 0.75 -0.359375 C 0.953125 -0.390625 1.015625 -0.53125 1.015625 -0.65625 C 1.015625 -0.84375 0.875 -0.96875 0.703125 -0.96875 C 0.546875 -0.96875 0.40625 -0.859375 0.40625 -0.640625 C 0.40625 -0.125 0.984375 0.109375 1.671875 0.109375 C 2.484375 0.109375 2.984375 -0.390625 2.984375 -0.875 C 2.984375 -1.28125 2.625 -1.625 2.0625 -1.75 C 2.65625 -1.953125 2.8125 -2.328125 2.8125 -2.609375 C 2.8125 -3.015625 2.3125 -3.3125 1.6875 -3.3125 C 1.0625 -3.3125 0.578125 -3.0625 0.578125 -2.609375 C 0.578125 -2.375 0.765625 -2.3125 0.859375 -2.3125 C 1 -2.3125 1.140625 -2.421875 1.140625 -2.609375 C 1.140625 -2.71875 1.078125 -2.859375 0.90625 -2.890625 C 1.109375 -3.109375 1.5625 -3.125 1.671875 -3.125 C 2.03125 -3.125 2.28125 -2.953125 2.28125 -2.609375 C 2.28125 -2.3125 2.09375 -1.859375 1.578125 -1.828125 C 1.4375 -1.828125 1.421875 -1.828125 1.28125 -1.8125 C 1.234375 -1.8125 1.171875 -1.8125 1.171875 -1.734375 C 1.171875 -1.65625 1.21875 -1.65625 1.3125 -1.65625 Z M 1.640625 -1.65625 "/>
</symbol>
<symbol overflow="visible" id="glyph8-0">
<path style="stroke:none;" d=""/>
</symbol>
<symbol overflow="visible" id="glyph8-1">
<path style="stroke:none;" d="M 1.34375 -0.0625 C 1.34375 0.40625 1.09375 0.6875 0.953125 0.796875 C 0.90625 0.828125 0.890625 0.84375 0.890625 0.875 C 0.890625 0.90625 0.9375 0.96875 0.984375 0.96875 C 1.046875 0.96875 1.515625 0.578125 1.515625 -0.046875 C 1.515625 -0.390625 1.359375 -0.609375 1.140625 -0.609375 C 0.953125 -0.609375 0.84375 -0.453125 0.84375 -0.296875 C 0.84375 -0.140625 0.953125 0 1.140625 0 C 1.21875 0 1.296875 -0.015625 1.34375 -0.0625 Z M 1.34375 -0.0625 "/>
</symbol>
<symbol overflow="visible" id="glyph9-0">
<path style="stroke:none;" d=""/>
</symbol>
<symbol overflow="visible" id="glyph9-1">
<path style="stroke:none;" d="M 3.8125 -1.84375 C 3.8125 -1.84375 3.84375 -1.84375 3.859375 -1.875 C 3.859375 -1.890625 3.875 -1.9375 3.8125 -1.984375 C 3.734375 -2.03125 2.21875 -2.0625 1.3125 -0.640625 C 0.390625 0.765625 1.015625 2.15625 1.09375 2.203125 C 1.15625 2.25 1.203125 2.21875 1.21875 2.1875 C 1.234375 2.15625 1.21875 2.125 1.21875 2.125 C 0.875 1.046875 1.265625 0.09375 1.625 -0.4375 C 2.28125 -1.46875 3.203125 -1.8125 3.8125 -1.84375 Z M 3.8125 -1.84375 "/>
</symbol>
<symbol overflow="visible" id="glyph9-2">
<path style="stroke:none;" d="M 3 0.78125 L 2.8125 0.671875 C 2.75 0.75 2.546875 0.96875 2.4375 0.96875 C 2.40625 0.984375 2.046875 0.75 1.984375 0.703125 L 1.171875 0.1875 C 1.578125 0.15625 2.03125 0.109375 2.390625 0.109375 C 2.9375 0.109375 3.453125 0.09375 3.734375 -0.359375 C 4.078125 -0.890625 3.75 -1.515625 3.15625 -1.890625 C 2.59375 -2.265625 1.96875 -2.21875 1.703125 -1.796875 C 1.5625 -1.578125 1.734375 -1.4375 1.796875 -1.390625 C 1.90625 -1.328125 2.078125 -1.3125 2.1875 -1.484375 C 2.28125 -1.625 2.25 -1.78125 2.109375 -1.875 C 2.359375 -2 2.6875 -1.953125 2.953125 -1.765625 C 3.359375 -1.5 3.546875 -1.046875 3.28125 -0.640625 C 3.046875 -0.28125 2.625 -0.1875 2.140625 -0.125 L 0.5625 0.078125 C 0.5 0.09375 0.484375 0.09375 0.453125 0.125 L 0.375 0.25 L 2.328125 1.5 Z M 3 0.78125 "/>
</symbol>
<symbol overflow="visible" id="glyph9-3">
<path style="stroke:none;" d="M 2.328125 0.015625 C 3.234375 -1.40625 2.59375 -2.78125 2.5 -2.828125 C 2.4375 -2.875 2.40625 -2.8125 2.40625 -2.8125 C 2.390625 -2.796875 2.390625 -2.78125 2.40625 -2.75 C 2.703125 -1.84375 2.484375 -0.953125 2 -0.203125 C 1.75 0.171875 1.421875 0.53125 1.046875 0.78125 C 0.5625 1.125 0.125 1.1875 -0.171875 1.21875 C -0.1875 1.203125 -0.21875 1.234375 -0.234375 1.25 C -0.234375 1.265625 -0.28125 1.3125 -0.21875 1.359375 C -0.125 1.40625 1.390625 1.4375 2.328125 0.015625 Z M 2.328125 0.015625 "/>
</symbol>
<symbol overflow="visible" id="glyph9-4">
<path style="stroke:none;" d="M 2.28125 -0.5 C 2.671875 -0.25 2.75 0.171875 2.484375 0.578125 C 2.21875 1.015625 1.796875 1.0625 1.4375 0.828125 C 1.390625 0.78125 0.890625 0.46875 0.828125 0.109375 C 1.015625 0.1875 1.140625 0.09375 1.21875 0 C 1.3125 -0.15625 1.265625 -0.34375 1.125 -0.4375 C 0.984375 -0.515625 0.8125 -0.5 0.6875 -0.3125 C 0.40625 0.109375 0.765625 0.625 1.34375 1 C 2.015625 1.453125 2.71875 1.296875 2.96875 0.890625 C 3.203125 0.546875 3.09375 0.0625 2.6875 -0.34375 C 3.296875 -0.203125 3.625 -0.421875 3.78125 -0.65625 C 4 -1 3.734375 -1.515625 3.21875 -1.859375 C 2.6875 -2.203125 2.15625 -2.25 1.90625 -1.875 C 1.78125 -1.6875 1.90625 -1.515625 1.984375 -1.46875 C 2.109375 -1.390625 2.265625 -1.40625 2.375 -1.5625 C 2.4375 -1.65625 2.46875 -1.8125 2.34375 -1.921875 C 2.625 -2 3.015625 -1.78125 3.109375 -1.71875 C 3.40625 -1.515625 3.515625 -1.25 3.328125 -0.953125 C 3.171875 -0.703125 2.765625 -0.421875 2.328125 -0.671875 C 2.203125 -0.75 2.1875 -0.75 2.0625 -0.8125 C 2.015625 -0.84375 1.96875 -0.875 1.921875 -0.8125 C 1.890625 -0.75 1.921875 -0.734375 2 -0.671875 Z M 2.28125 -0.5 "/>
</symbol>
<symbol overflow="visible" id="glyph9-5">
<path style="stroke:none;" d="M 3.390625 -1.578125 C 3.46875 -1.703125 3.453125 -1.703125 3.296875 -1.796875 C 2.84375 -1.71875 2.375 -2.03125 2.296875 -2.078125 L 2.234375 -2.125 L 2.125 -1.9375 L 2.1875 -1.890625 C 2.28125 -1.828125 2.546875 -1.671875 2.875 -1.625 L 1.515625 0.46875 C 1.4375 0.59375 1.40625 0.640625 0.96875 0.359375 L 0.75 0.21875 L 0.625 0.40625 C 0.875 0.53125 1.25 0.78125 1.484375 0.9375 C 1.734375 1.09375 2.09375 1.34375 2.328125 1.5 L 2.453125 1.3125 L 2.234375 1.1875 C 1.796875 0.890625 1.828125 0.84375 1.90625 0.71875 Z M 3.390625 -1.578125 "/>
</symbol>
<symbol overflow="visible" id="glyph10-0">
<path style="stroke:none;" d=""/>
</symbol>
<symbol overflow="visible" id="glyph10-1">
<path style="stroke:none;" d="M 1.15625 0.6875 C 0.90625 1.078125 0.546875 1.171875 0.359375 1.1875 C 0.3125 1.1875 0.296875 1.1875 0.28125 1.21875 C 0.25 1.25 0.25 1.328125 0.296875 1.34375 C 0.34375 1.375 0.953125 1.3125 1.296875 0.78125 C 1.484375 0.5 1.46875 0.21875 1.28125 0.109375 C 1.125 0 0.953125 0.078125 0.859375 0.203125 C 0.78125 0.328125 0.796875 0.515625 0.953125 0.625 C 1.015625 0.65625 1.109375 0.6875 1.15625 0.6875 Z M 1.15625 0.6875 "/>
</symbol>
</g>
</defs>
<g id="surface1">
<path style="fill-rule:nonzero;fill:rgb(50%,50%,50%);fill-opacity:0.3;stroke-width:0.3985;stroke-linecap:butt;stroke-linejoin:miter;stroke:rgb(0%,0%,0%);stroke-opacity:1;stroke-miterlimit:10;" d="M 9.96125 -0.00171688 C 9.96125 5.502024 5.504219 9.962828 0.0003125 9.962828 C -5.503594 9.962828 -9.964531 5.502024 -9.964531 -0.00171688 C -9.964531 -5.501552 -5.503594 -9.962356 0.0003125 -9.962356 C 5.504219 -9.962356 9.96125 -5.501552 9.96125 -0.00171688 Z M 9.96125 -0.00171688 " transform="matrix(1,0,0,-1.00003,60.445,43.142814)"/>
<g style="fill:rgb(0%,0%,0%);fill-opacity:1;">
  <use xlink:href="#glyph0-1" x="56.131" y="44.574857"/>
</g>
<g style="fill:rgb(0%,0%,0%);fill-opacity:1;">
  <use xlink:href="#glyph1-1" x="60.608" y="45.570887"/>
</g>
<path style="fill-rule:nonzero;fill:rgb(50%,50%,50%);fill-opacity:0.3;stroke-width:0.3985;stroke-linecap:butt;stroke-linejoin:miter;stroke:rgb(0%,0%,0%);stroke-opacity:1;stroke-miterlimit:10;" d="M -38.425469 -31.379682 C -38.425469 -25.875941 -42.886406 -21.415137 -48.386406 -21.415137 C -53.890312 -21.415137 -58.35125 -25.875941 -58.35125 -31.379682 C -58.35125 -36.883423 -53.890312 -41.344227 -48.386406 -41.344227 C -42.886406 -41.344227 -38.425469 -36.883423 -38.425469 -31.379682 Z M -38.425469 -31.379682 " transform="matrix(1,0,0,-1.00003,60.445,43.142814)"/>
<g style="fill:rgb(0%,0%,0%);fill-opacity:1;">
  <use xlink:href="#glyph0-1" x="7.823" y="75.955799"/>
</g>
<g style="fill:rgb(0%,0%,0%);fill-opacity:1;">
  <use xlink:href="#glyph2-1" x="12.3" y="76.951829"/>
</g>
<path style="fill-rule:nonzero;fill:rgb(50%,50%,50%);fill-opacity:0.3;stroke-width:0.3985;stroke-linecap:butt;stroke-linejoin:miter;stroke:rgb(0%,0%,0%);stroke-opacity:1;stroke-miterlimit:10;" d="M -38.425469 31.380154 C -38.425469 36.879989 -42.886406 41.340793 -48.386406 41.340793 C -53.890312 41.340793 -58.35125 36.879989 -58.35125 31.380154 C -58.35125 25.876413 -53.890312 21.415609 -48.386406 21.415609 C -42.886406 21.415609 -38.425469 25.876413 -38.425469 31.380154 Z M -38.425469 31.380154 " transform="matrix(1,0,0,-1.00003,60.445,43.142814)"/>
<g style="fill:rgb(0%,0%,0%);fill-opacity:1;">
  <use xlink:href="#glyph0-1" x="7.744" y="13.194916"/>
</g>
<g style="fill:rgb(0%,0%,0%);fill-opacity:1;">
  <use xlink:href="#glyph1-2" x="12.221" y="14.190946"/>
</g>
<path style="fill-rule:nonzero;fill:rgb(50%,50%,50%);fill-opacity:0.3;stroke-width:0.3985;stroke-linecap:butt;stroke-linejoin:miter;stroke:rgb(0%,0%,0%);stroke-opacity:1;stroke-miterlimit:10;" d="M 58.351875 -31.379682 C 58.351875 -25.875941 53.890938 -21.415137 48.387031 -21.415137 C 42.883125 -21.415137 38.426094 -25.875941 38.426094 -31.379682 C 38.426094 -36.883423 42.883125 -41.344227 48.387031 -41.344227 C 53.890938 -41.344227 58.351875 -36.883423 58.351875 -31.379682 Z M 58.351875 -31.379682 " transform="matrix(1,0,0,-1.00003,60.445,43.142814)"/>
<g style="fill:rgb(0%,0%,0%);fill-opacity:1;">
  <use xlink:href="#glyph0-1" x="104.519" y="75.955799"/>
</g>
<g style="fill:rgb(0%,0%,0%);fill-opacity:1;">
  <use xlink:href="#glyph1-3" x="108.996" y="76.951829"/>
</g>
<path style="fill-rule:nonzero;fill:rgb(50%,50%,50%);fill-opacity:0.3;stroke-width:0.3985;stroke-linecap:butt;stroke-linejoin:miter;stroke:rgb(0%,0%,0%);stroke-opacity:1;stroke-miterlimit:10;" d="M 58.351875 31.380154 C 58.351875 36.879989 53.890938 41.340793 48.387031 41.340793 C 42.883125 41.340793 38.426094 36.879989 38.426094 31.380154 C 38.426094 25.876413 42.883125 21.415609 48.387031 21.415609 C 53.890938 21.415609 58.351875 25.876413 58.351875 31.380154 Z M 58.351875 31.380154 " transform="matrix(1,0,0,-1.00003,60.445,43.142814)"/>
<g style="fill:rgb(0%,0%,0%);fill-opacity:1;">
  <use xlink:href="#glyph0-1" x="104.425" y="13.160915"/>
</g>
<g style="fill:rgb(0%,0%,0%);fill-opacity:1;">
  <use xlink:href="#glyph2-2" x="108.902" y="14.222947"/>
</g>
<path style="fill:none;stroke-width:0.3985;stroke-linecap:butt;stroke-linejoin:miter;stroke:rgb(0%,0%,0%);stroke-opacity:1;stroke-miterlimit:10;" d="M -39.862969 -25.848598 L -8.909844 -5.778887 " transform="matrix(1,0,0,-1.00003,60.445,43.142814)"/>
<path style="fill:none;stroke-width:0.31879;stroke-linecap:round;stroke-linejoin:round;stroke:rgb(0%,0%,0%);stroke-opacity:1;stroke-miterlimit:10;" d="M -1.195556 1.594243 C -1.095847 0.994168 0.00115112 0.101171 0.299303 0.000929343 C 0.00152662 -0.0992702 -1.097673 -0.997311 -1.196282 -1.594479 " transform="matrix(0.83899,-0.544116,-0.5441,-0.839015,51.53455,48.921448)"/>
<g style="fill:rgb(0%,0%,0%);fill-opacity:1;">
  <use xlink:href="#glyph3-1" x="28.615991" y="61.469684"/>
  <use xlink:href="#glyph3-2" x="30.879897" y="60.001457"/>
</g>
<g style="fill:rgb(0%,0%,0%);fill-opacity:1;">
  <use xlink:href="#glyph4-1" x="33.724601" y="58.15656"/>
</g>
<g style="fill:rgb(0%,0%,0%);fill-opacity:1;">
  <use xlink:href="#glyph3-3" x="36.665261" y="56.249432"/>
  <use xlink:href="#glyph3-4" x="39.509666" y="54.404729"/>
</g>
<path style="fill:none;stroke-width:0.3985;stroke-linecap:butt;stroke-linejoin:miter;stroke:rgb(0%,0%,0%);stroke-opacity:1;stroke-miterlimit:10;" d="M -48.386406 -21.215924 L -48.386406 20.759379 " transform="matrix(1,0,0,-1.00003,60.445,43.142814)"/>
<path style="fill:none;stroke-width:0.31879;stroke-linecap:round;stroke-linejoin:round;stroke:rgb(0%,0%,0%);stroke-opacity:1;stroke-miterlimit:10;" d="M -1.195128 1.592786 C -1.097474 0.99513 0.000149039 0.100599 0.297015 -0.00096375 C 0.000149039 -0.09862 -1.097474 -0.997058 -1.195128 -1.594714 " transform="matrix(0,-1.00003,-1,0,12.05763,22.382962)"/>
<g style="fill:rgb(0%,0%,0%);fill-opacity:1;">
  <use xlink:href="#glyph5-1" x="10.116" y="50.98405"/>
  <use xlink:href="#glyph5-2" x="10.116" y="48.285598"/>
</g>
<g style="fill:rgb(0%,0%,0%);fill-opacity:1;">
  <use xlink:href="#glyph6-1" x="10.116" y="44.894867"/>
</g>
<g style="fill:rgb(0%,0%,0%);fill-opacity:1;">
  <use xlink:href="#glyph5-3" x="10.116" y="41.389762"/>
  <use xlink:href="#glyph5-4" x="10.116" y="37.999387"/>
</g>
<path style="fill:none;stroke-width:0.3985;stroke-linecap:butt;stroke-linejoin:miter;stroke:rgb(0%,0%,0%);stroke-opacity:1;stroke-miterlimit:10;" d="M -38.22625 -31.379682 L 37.765938 -31.379682 " transform="matrix(1,0,0,-1.00003,60.445,43.142814)"/>
<path style="fill:none;stroke-width:0.31879;stroke-linecap:round;stroke-linejoin:round;stroke:rgb(0%,0%,0%);stroke-opacity:1;stroke-miterlimit:10;" d="M -1.196445 1.59355 C -1.094882 0.995912 -0.0011325 0.101408 0.299649 -0.00015179 C -0.0011325 -0.0978051 -1.094882 -0.996216 -1.196445 -1.593854 " transform="matrix(1,0,0,-1.00003,98.21207,74.523286)"/>
<g style="fill:rgb(0%,0%,0%);fill-opacity:1;">
  <use xlink:href="#glyph7-1" x="52.604" y="78.956889"/>
  <use xlink:href="#glyph7-2" x="55.30237" y="78.956889"/>
</g>
<g style="fill:rgb(0%,0%,0%);fill-opacity:1;">
  <use xlink:href="#glyph8-1" x="58.693" y="78.956889"/>
</g>
<g style="fill:rgb(0%,0%,0%);fill-opacity:1;">
  <use xlink:href="#glyph7-3" x="62.198" y="78.956889"/>
  <use xlink:href="#glyph7-4" x="65.588273" y="78.956889"/>
</g>
<path style="fill:none;stroke-width:0.3985;stroke-linecap:butt;stroke-linejoin:miter;stroke:rgb(0%,0%,0%);stroke-opacity:1;stroke-miterlimit:10;" d="M -38.22625 31.380154 L 37.765938 31.380154 " transform="matrix(1,0,0,-1.00003,60.445,43.142814)"/>
<path style="fill:none;stroke-width:0.31879;stroke-linecap:round;stroke-linejoin:round;stroke:rgb(0%,0%,0%);stroke-opacity:1;stroke-miterlimit:10;" d="M -1.196445 1.594326 C -1.094882 0.996688 -0.0011325 0.0982775 0.299649 0.000624165 C -0.0011325 -0.100935 -1.094882 -0.99544 -1.196445 -1.593078 " transform="matrix(1,0,0,-1.00003,98.21207,11.762343)"/>
<g style="fill:rgb(0%,0%,0%);fill-opacity:1;">
  <use xlink:href="#glyph7-1" x="52.604" y="9.819815"/>
  <use xlink:href="#glyph7-5" x="55.30237" y="9.819815"/>
</g>
<g style="fill:rgb(0%,0%,0%);fill-opacity:1;">
  <use xlink:href="#glyph8-1" x="58.693" y="9.819815"/>
</g>
<g style="fill:rgb(0%,0%,0%);fill-opacity:1;">
  <use xlink:href="#glyph7-3" x="62.198" y="9.819815"/>
  <use xlink:href="#glyph7-4" x="65.588273" y="9.819815"/>
</g>
<path style="fill:none;stroke-width:0.3985;stroke-linecap:butt;stroke-linejoin:miter;stroke:rgb(0%,0%,0%);stroke-opacity:1;stroke-miterlimit:10;" d="M -8.527031 5.529367 L -39.47625 25.602984 " transform="matrix(1,0,0,-1.00003,60.445,43.142814)"/>
<path style="fill:none;stroke-width:0.31879;stroke-linecap:round;stroke-linejoin:round;stroke:rgb(0%,0%,0%);stroke-opacity:1;stroke-miterlimit:10;" d="M -1.196065 1.591817 C -1.094179 0.996775 -0.000381977 0.099886 0.297394 -0.000313574 C -0.000757472 -0.100555 -1.09563 -0.99683 -1.197465 -1.593628 " transform="matrix(-0.83899,-0.544116,-0.5441,0.839015,20.96809,17.540986)"/>
<g style="fill:rgb(0%,0%,0%);fill-opacity:1;">
  <use xlink:href="#glyph9-1" x="30.72989" y="21.555936"/>
  <use xlink:href="#glyph9-2" x="32.993796" y="23.024163"/>
</g>
<g style="fill:rgb(0%,0%,0%);fill-opacity:1;">
  <use xlink:href="#glyph10-1" x="35.8385" y="24.86906"/>
</g>
<g style="fill:rgb(0%,0%,0%);fill-opacity:1;">
  <use xlink:href="#glyph9-2" x="38.77916" y="26.776188"/>
  <use xlink:href="#glyph9-3" x="41.623565" y="28.620891"/>
</g>
<path style="fill:none;stroke-width:0.3985;stroke-linecap:butt;stroke-linejoin:miter;stroke:rgb(0%,0%,0%);stroke-opacity:1;stroke-miterlimit:10;" d="M 48.387031 -21.215924 L 48.387031 20.759379 " transform="matrix(1,0,0,-1.00003,60.445,43.142814)"/>
<path style="fill:none;stroke-width:0.31879;stroke-linecap:round;stroke-linejoin:round;stroke:rgb(0%,0%,0%);stroke-opacity:1;stroke-miterlimit:10;" d="M -1.195128 1.594089 C -1.097474 0.996432 0.000149039 0.097995 0.297015 0.00033875 C 0.000149039 -0.101224 -1.097474 -0.995755 -1.195128 -1.593411 " transform="matrix(0,-1.00003,-1,0,108.83237,22.382962)"/>
<g style="fill:rgb(0%,0%,0%);fill-opacity:1;">
  <use xlink:href="#glyph5-1" x="113.267" y="50.98405"/>
  <use xlink:href="#glyph5-5" x="113.267" y="48.285598"/>
</g>
<g style="fill:rgb(0%,0%,0%);fill-opacity:1;">
  <use xlink:href="#glyph6-1" x="113.267" y="44.894867"/>
</g>
<g style="fill:rgb(0%,0%,0%);fill-opacity:1;">
  <use xlink:href="#glyph5-6" x="113.267" y="41.389762"/>
  <use xlink:href="#glyph5-4" x="113.267" y="37.999387"/>
</g>
<path style="fill:none;stroke-width:0.3985;stroke-linecap:butt;stroke-linejoin:miter;stroke:rgb(0%,0%,0%);stroke-opacity:1;stroke-miterlimit:10;" d="M 8.527656 -5.528895 L 39.476875 -25.602511 " transform="matrix(1,0,0,-1.00003,60.445,43.142814)"/>
<path style="fill:none;stroke-width:0.31879;stroke-linecap:round;stroke-linejoin:round;stroke:rgb(0%,0%,0%);stroke-opacity:1;stroke-miterlimit:10;" d="M -1.195798 1.592554 C -1.097189 0.995386 -0.000114614 0.100622 0.297661 0.000422845 C -0.000490109 -0.0998186 -1.095363 -0.996093 -1.197197 -1.592891 " transform="matrix(0.83899,0.544116,0.5441,-0.839015,99.92191,68.744642)"/>
<g style="fill:rgb(0%,0%,0%);fill-opacity:1;">
  <use xlink:href="#glyph9-1" x="79.11689" y="52.935877"/>
  <use xlink:href="#glyph9-4" x="81.380796" y="54.404104"/>
</g>
<g style="fill:rgb(0%,0%,0%);fill-opacity:1;">
  <use xlink:href="#glyph10-1" x="84.2255" y="56.249001"/>
</g>
<g style="fill:rgb(0%,0%,0%);fill-opacity:1;">
  <use xlink:href="#glyph9-5" x="87.16616" y="58.156129"/>
  <use xlink:href="#glyph9-3" x="90.010565" y="60.000832"/>
</g>
<path style="fill:none;stroke-width:0.3985;stroke-linecap:butt;stroke-linejoin:miter;stroke:rgb(0%,0%,0%);stroke-opacity:1;stroke-miterlimit:10;" d="M 8.527656 5.529367 L 39.476875 25.602984 " transform="matrix(1,0,0,-1.00003,60.445,43.142814)"/>
<path style="fill:none;stroke-width:0.31879;stroke-linecap:round;stroke-linejoin:round;stroke:rgb(0%,0%,0%);stroke-opacity:1;stroke-miterlimit:10;" d="M -1.19694 1.593287 C -1.095105 0.99649 -0.000233076 0.100215 0.297918 -0.000026506 C 0.000142419 -0.100226 -1.096932 -0.99499 -1.195541 -1.592157 " transform="matrix(0.83899,-0.544116,-0.5441,-0.839015,99.92191,17.540986)"/>
<g style="fill:rgb(0%,0%,0%);fill-opacity:1;">
  <use xlink:href="#glyph3-1" x="77.002991" y="30.088743"/>
  <use xlink:href="#glyph3-5" x="79.266897" y="28.620515"/>
</g>
<g style="fill:rgb(0%,0%,0%);fill-opacity:1;">
  <use xlink:href="#glyph4-1" x="82.111601" y="26.775618"/>
</g>
<g style="fill:rgb(0%,0%,0%);fill-opacity:1;">
  <use xlink:href="#glyph3-5" x="85.052261" y="24.868491"/>
  <use xlink:href="#glyph3-4" x="87.896666" y="23.023788"/>
</g>
</g>
</svg>
