<?xml version="1.0" encoding="UTF-8"?>
<svg xmlns="http://www.w3.org/2000/svg" xmlns:xlink="http://www.w3.org/1999/xlink" width="132pt" height="98pt" viewBox="0 0 132 98" version="1.1">
<defs>
<g>
<symbol overflow="visible" id="glyph0-0">
<path style="stroke:none;" d=""/>
</symbol>
<symbol overflow="visible" id="glyph0-1">
<path style="stroke:none;" d="M 4.3125 -3.3125 C 4.3125 -3.9375 3.984375 -3.96875 3.90625 -3.96875 C 3.671875 -3.96875 3.4375 -3.734375 3.4375 -3.53125 C 3.4375 -3.390625 3.53125 -3.3125 3.59375 -3.265625 C 3.828125 -3.046875 3.90625 -2.75 3.90625 -2.515625 C 3.90625 -2.125 3.34375 -0.125 2.3125 -0.125 C 1.625 -0.125 1.625 -0.75 1.625 -0.921875 C 1.625 -1.296875 1.765625 -1.765625 2.078125 -2.578125 C 2.21875 -2.953125 2.25 -3.046875 2.25 -3.203125 C 2.25 -3.65625 1.921875 -3.96875 1.484375 -3.96875 C 0.625 -3.96875 0.265625 -2.6875 0.265625 -2.578125 C 0.265625 -2.5 0.328125 -2.46875 0.390625 -2.46875 C 0.484375 -2.46875 0.5 -2.53125 0.53125 -2.640625 C 0.71875 -3.296875 1.078125 -3.734375 1.453125 -3.734375 C 1.625 -3.734375 1.671875 -3.625 1.671875 -3.4375 C 1.671875 -3.296875 1.625 -3.125 1.546875 -2.921875 C 1.234375 -2.046875 1.015625 -1.484375 1.015625 -1.03125 C 1.015625 -0.1875 1.65625 0.09375 2.265625 0.09375 C 3.78125 0.09375 4.3125 -2.734375 4.3125 -3.3125 Z M 4.3125 -3.3125 "/>
</symbol>
<symbol overflow="visible" id="glyph1-0">
<path style="stroke:none;" d=""/>
</symbol>
<symbol overflow="visible" id="glyph1-1">
<path style="stroke:none;" d="M 3.21875 -1.125 L 3 -1.125 C 2.984375 -1.03125 2.921875 -0.640625 2.84375 -0.578125 C 2.796875 -0.53125 2.3125 -0.53125 2.21875 -0.53125 L 1.109375 -0.53125 L 1.875 -1.15625 C 2.078125 -1.328125 2.609375 -1.703125 2.796875 -1.890625 C 2.96875 -2.0625 3.21875 -2.375 3.21875 -2.796875 C 3.21875 -3.546875 2.546875 -3.984375 1.734375 -3.984375 C 0.96875 -3.984375 0.4375 -3.46875 0.4375 -2.90625 C 0.4375 -2.609375 0.6875 -2.5625 0.75 -2.5625 C 0.90625 -2.5625 1.078125 -2.671875 1.078125 -2.890625 C 1.078125 -3.015625 1 -3.21875 0.734375 -3.21875 C 0.875 -3.515625 1.234375 -3.75 1.65625 -3.75 C 2.28125 -3.75 2.609375 -3.28125 2.609375 -2.796875 C 2.609375 -2.375 2.328125 -1.9375 1.921875 -1.546875 L 0.5 -0.25 C 0.4375 -0.1875 0.4375 -0.1875 0.4375 0 L 3.03125 0 Z M 3.21875 -1.125 "/>
</symbol>
<symbol overflow="visible" id="glyph1-2">
<path style="stroke:none;" d="M 2.140625 -3.796875 C 2.140625 -3.984375 2.125 -3.984375 1.9375 -3.984375 C 1.546875 -3.59375 0.9375 -3.59375 0.71875 -3.59375 L 0.71875 -3.359375 C 0.875 -3.359375 1.28125 -3.359375 1.640625 -3.53125 L 1.640625 -0.515625 C 1.640625 -0.3125 1.640625 -0.234375 1.015625 -0.234375 L 0.765625 -0.234375 L 0.765625 0 C 1.09375 -0.03125 1.5625 -0.03125 1.890625 -0.03125 C 2.21875 -0.03125 2.6875 -0.03125 3.015625 0 L 3.015625 -0.234375 L 2.765625 -0.234375 C 2.140625 -0.234375 2.140625 -0.3125 2.140625 -0.515625 Z M 2.140625 -3.796875 "/>
</symbol>
<symbol overflow="visible" id="glyph1-3">
<path style="stroke:none;" d="M 1.765625 -1.984375 C 2.265625 -1.984375 2.609375 -1.640625 2.609375 -1.03125 C 2.609375 -0.375 2.21875 -0.09375 1.78125 -0.09375 C 1.609375 -0.09375 1 -0.125 0.734375 -0.46875 C 0.96875 -0.5 1.0625 -0.65625 1.0625 -0.8125 C 1.0625 -1.015625 0.921875 -1.15625 0.71875 -1.15625 C 0.5625 -1.15625 0.375 -1.046875 0.375 -0.796875 C 0.375 -0.203125 1.03125 0.125 1.796875 0.125 C 2.6875 0.125 3.265625 -0.4375 3.265625 -1.03125 C 3.265625 -1.46875 2.9375 -1.9375 2.21875 -2.109375 C 2.703125 -2.265625 3.078125 -2.65625 3.078125 -3.140625 C 3.078125 -3.625 2.515625 -3.984375 1.796875 -3.984375 C 1.09375 -3.984375 0.5625 -3.65625 0.5625 -3.171875 C 0.5625 -2.90625 0.765625 -2.84375 0.890625 -2.84375 C 1.046875 -2.84375 1.203125 -2.9375 1.203125 -3.15625 C 1.203125 -3.34375 1.078125 -3.453125 0.90625 -3.46875 C 1.1875 -3.78125 1.734375 -3.78125 1.796875 -3.78125 C 2.09375 -3.78125 2.484375 -3.640625 2.484375 -3.140625 C 2.484375 -2.8125 2.296875 -2.234375 1.6875 -2.203125 C 1.578125 -2.203125 1.421875 -2.1875 1.375 -2.1875 C 1.3125 -2.171875 1.25 -2.171875 1.25 -2.078125 C 1.25 -1.984375 1.3125 -1.984375 1.40625 -1.984375 Z M 1.765625 -1.984375 "/>
</symbol>
<symbol overflow="visible" id="glyph2-0">
<path style="stroke:none;" d=""/>
</symbol>
<symbol overflow="visible" id="glyph2-1">
<path style="stroke:none;" d="M 2.734375 -2.25 C 2.5625 -2.203125 2.5 -2.0625 2.5 -1.96875 C 2.5 -1.875 2.5625 -1.765625 2.703125 -1.765625 C 2.828125 -1.765625 3 -1.859375 3 -2.109375 C 3 -2.515625 2.546875 -2.640625 2.15625 -2.640625 C 1.234375 -2.640625 1.015625 -2.03125 1.015625 -1.78125 C 1.015625 -1.296875 1.5625 -1.203125 1.71875 -1.171875 C 2.171875 -1.09375 2.515625 -1.03125 2.515625 -0.734375 C 2.515625 -0.609375 2.421875 -0.390625 2.203125 -0.28125 C 1.96875 -0.15625 1.71875 -0.140625 1.53125 -0.140625 C 1.328125 -0.140625 0.953125 -0.15625 0.78125 -0.359375 C 1 -0.390625 1.09375 -0.5625 1.09375 -0.703125 C 1.09375 -0.828125 1.015625 -0.921875 0.84375 -0.921875 C 0.6875 -0.921875 0.5 -0.796875 0.5 -0.515625 C 0.5 -0.1875 0.828125 0.0625 1.53125 0.0625 C 2.65625 0.0625 2.890625 -0.640625 2.890625 -0.90625 C 2.890625 -1.109375 2.8125 -1.25 2.671875 -1.359375 C 2.484375 -1.53125 2.25 -1.5625 1.96875 -1.609375 C 1.671875 -1.671875 1.390625 -1.71875 1.390625 -1.953125 C 1.390625 -1.953125 1.390625 -2.4375 2.140625 -2.4375 C 2.296875 -2.4375 2.59375 -2.421875 2.734375 -2.25 Z M 2.734375 -2.25 "/>
</symbol>
<symbol overflow="visible" id="glyph2-2">
<path style="stroke:none;" d="M 3.625 -3.96875 C 3.625 -4 3.640625 -4.03125 3.640625 -4.0625 C 3.640625 -4.15625 3.515625 -4.15625 3.453125 -4.140625 L 2.78125 -4.09375 C 2.671875 -4.09375 2.59375 -4.078125 2.59375 -3.9375 C 2.59375 -3.84375 2.671875 -3.84375 2.765625 -3.84375 C 2.9375 -3.84375 2.984375 -3.84375 3.0625 -3.8125 C 3.0625 -3.71875 3.0625 -3.703125 3.046875 -3.625 C 2.921875 -3.109375 2.8125 -2.703125 2.703125 -2.28125 C 2.609375 -2.421875 2.40625 -2.640625 2.046875 -2.640625 C 1.28125 -2.640625 0.453125 -1.84375 0.453125 -0.953125 C 0.453125 -0.3125 0.90625 0.0625 1.40625 0.0625 C 1.8125 0.0625 2.15625 -0.21875 2.296875 -0.359375 C 2.421875 0.015625 2.8125 0.0625 2.953125 0.0625 C 3.171875 0.0625 3.328125 -0.0625 3.4375 -0.25 C 3.578125 -0.484375 3.671875 -0.828125 3.671875 -0.859375 C 3.671875 -0.875 3.65625 -0.953125 3.546875 -0.953125 C 3.46875 -0.953125 3.453125 -0.90625 3.421875 -0.8125 C 3.328125 -0.4375 3.203125 -0.140625 2.96875 -0.140625 C 2.765625 -0.140625 2.75 -0.359375 2.75 -0.4375 C 2.75 -0.515625 2.75 -0.53125 2.78125 -0.640625 Z M 2.328125 -0.78125 C 2.296875 -0.671875 2.296875 -0.671875 2.21875 -0.578125 C 1.890625 -0.203125 1.578125 -0.140625 1.4375 -0.140625 C 1.1875 -0.140625 0.953125 -0.296875 0.953125 -0.71875 C 0.953125 -0.96875 1.078125 -1.5625 1.28125 -1.890625 C 1.453125 -2.21875 1.765625 -2.4375 2.046875 -2.4375 C 2.5 -2.4375 2.609375 -1.96875 2.609375 -1.921875 L 2.59375 -1.84375 Z M 2.328125 -0.78125 "/>
</symbol>
<symbol overflow="visible" id="glyph3-0">
<path style="stroke:none;" d=""/>
</symbol>
<symbol overflow="visible" id="glyph3-1">
<path style="stroke:none;" d="M -0.234375 -4.234375 C -0.234375 -4.234375 -0.234375 -4.25 -0.25 -4.28125 C -0.265625 -4.296875 -0.296875 -4.328125 -0.359375 -4.28125 C -0.4375 -4.234375 -1.03125 -2.84375 -0.078125 -1.453125 C 0.875 -0.0625 2.375 -0.125 2.453125 -0.171875 C 2.515625 -0.21875 2.515625 -0.265625 2.484375 -0.28125 C 2.46875 -0.3125 2.4375 -0.3125 2.421875 -0.3125 C 1.296875 -0.40625 0.578125 -1.140625 0.21875 -1.671875 C -0.46875 -2.671875 -0.453125 -3.640625 -0.234375 -4.234375 Z M -0.234375 -4.234375 "/>
</symbol>
<symbol overflow="visible" id="glyph3-2">
<path style="stroke:none;" d="M 1.875 -2.453125 L 1.6875 -2.34375 C 1.734375 -2.265625 1.875 -1.96875 1.828125 -1.875 C 1.8125 -1.84375 1.46875 -1.609375 1.40625 -1.5625 L 0.609375 -1.015625 C 0.75 -1.390625 0.890625 -1.828125 1.015625 -2.15625 C 1.21875 -2.671875 1.40625 -3.140625 1.109375 -3.578125 C 0.734375 -4.109375 0.046875 -4.046875 -0.53125 -3.65625 C -1.09375 -3.28125 -1.28125 -2.671875 -1 -2.265625 C -0.859375 -2.046875 -0.671875 -2.140625 -0.59375 -2.1875 C -0.5 -2.265625 -0.421875 -2.421875 -0.53125 -2.59375 C -0.640625 -2.734375 -0.796875 -2.75 -0.921875 -2.65625 C -0.9375 -2.9375 -0.765625 -3.21875 -0.5 -3.40625 C -0.09375 -3.671875 0.390625 -3.671875 0.671875 -3.28125 C 0.90625 -2.9375 0.84375 -2.484375 0.703125 -2.03125 L 0.296875 -0.484375 C 0.28125 -0.421875 0.265625 -0.40625 0.28125 -0.375 L 0.375 -0.25 L 2.28125 -1.5625 Z M 1.875 -2.453125 "/>
</symbol>
<symbol overflow="visible" id="glyph3-3">
<path style="stroke:none;" d="M 2.078125 -2.421875 L 1.953125 -2.59375 L 1.4375 -2.234375 L 0.1875 -4.046875 C 0.125 -4.140625 0.109375 -4.171875 0 -4.09375 C -0.078125 -4.03125 -0.078125 -4.03125 -0.078125 -3.9375 L -0.328125 -1.015625 L -0.203125 -0.84375 L 1.171875 -1.78125 L 1.390625 -1.453125 C 1.46875 -1.328125 1.5 -1.296875 1.15625 -1.0625 L 1 -0.953125 L 1.125 -0.765625 C 1.296875 -0.921875 1.5625 -1.109375 1.8125 -1.265625 C 2.046875 -1.4375 2.3125 -1.609375 2.53125 -1.734375 L 2.40625 -1.921875 L 2.25 -1.828125 C 1.890625 -1.578125 1.859375 -1.609375 1.78125 -1.734375 L 1.5625 -2.0625 Z M 0.046875 -3.484375 L 1.078125 -1.984375 L -0.125 -1.15625 Z M 0.046875 -3.484375 "/>
</symbol>
<symbol overflow="visible" id="glyph3-4">
<path style="stroke:none;" d="M 0.90625 -2.140625 C -0.046875 -3.53125 -1.5625 -3.453125 -1.640625 -3.390625 C -1.703125 -3.359375 -1.671875 -3.3125 -1.671875 -3.3125 C -1.65625 -3.296875 -1.65625 -3.28125 -1.625 -3.265625 C -0.65625 -3.203125 0.0625 -2.65625 0.578125 -1.921875 C 0.828125 -1.546875 1.03125 -1.109375 1.125 -0.6875 C 1.25 -0.078125 1.140625 0.34375 1.0625 0.625 C 1.046875 0.640625 1.0625 0.671875 1.0625 0.6875 C 1.078125 0.703125 1.109375 0.75 1.171875 0.71875 C 1.25 0.65625 1.859375 -0.734375 0.90625 -2.140625 Z M 0.90625 -2.140625 "/>
</symbol>
<symbol overflow="visible" id="glyph3-5">
<path style="stroke:none;" d="M -0.15625 -3.734375 C -0.234375 -3.859375 -0.25 -3.84375 -0.390625 -3.75 C -0.5 -3.296875 -0.96875 -2.96875 -1.046875 -2.921875 L -1.109375 -2.875 L -0.984375 -2.703125 L -0.921875 -2.75 C -0.828125 -2.8125 -0.5625 -3.015625 -0.390625 -3.265625 L 1.03125 -1.203125 C 1.109375 -1.09375 1.140625 -1.046875 0.703125 -0.75 L 0.5 -0.609375 L 0.625 -0.421875 C 0.828125 -0.59375 1.1875 -0.84375 1.421875 -1 C 1.671875 -1.171875 2.03125 -1.421875 2.28125 -1.5625 L 2.15625 -1.75 L 1.953125 -1.609375 C 1.515625 -1.3125 1.484375 -1.359375 1.40625 -1.46875 Z M -0.15625 -3.734375 "/>
</symbol>
<symbol overflow="visible" id="glyph4-0">
<path style="stroke:none;" d=""/>
</symbol>
<symbol overflow="visible" id="glyph4-1">
<path style="stroke:none;" d="M 1.078125 -0.8125 C 1.34375 -0.4375 1.296875 -0.0625 1.234375 0.109375 C 1.21875 0.171875 1.21875 0.203125 1.234375 0.21875 C 1.25 0.25 1.3125 0.265625 1.359375 0.234375 C 1.40625 0.203125 1.578125 -0.390625 1.21875 -0.890625 C 1.03125 -1.1875 0.78125 -1.265625 0.59375 -1.140625 C 0.4375 -1.046875 0.453125 -0.859375 0.53125 -0.734375 C 0.625 -0.59375 0.78125 -0.546875 0.9375 -0.640625 C 1 -0.6875 1.046875 -0.75 1.078125 -0.8125 Z M 1.078125 -0.8125 "/>
</symbol>
<symbol overflow="visible" id="glyph5-0">
<path style="stroke:none;" d=""/>
</symbol>
<symbol overflow="visible" id="glyph5-1">
<path style="stroke:none;" d="M 2.203125 -3.625 C 2.203125 -3.625 2.21875 -3.640625 2.21875 -3.671875 C 2.21875 -3.6875 2.203125 -3.734375 2.125 -3.734375 C 2.03125 -3.734375 0.75 -2.9375 0.75 -1.25 C 0.75 0.4375 2.03125 1.25 2.125 1.25 C 2.203125 1.25 2.21875 1.203125 2.21875 1.171875 C 2.21875 1.140625 2.1875 1.125 2.171875 1.109375 C 1.296875 0.40625 1.125 -0.609375 1.125 -1.25 C 1.125 -2.46875 1.6875 -3.265625 2.203125 -3.625 Z M 2.203125 -3.625 "/>
</symbol>
<symbol overflow="visible" id="glyph5-2">
<path style="stroke:none;" d="M 0.984375 -2.75 C 1.234375 -2.6875 1.46875 -2.6875 1.515625 -2.6875 C 1.859375 -2.6875 2.109375 -2.78125 2.234375 -2.84375 C 2.359375 -2.90625 2.703125 -3.125 2.703125 -3.234375 C 2.703125 -3.3125 2.640625 -3.3125 2.625 -3.3125 C 2.609375 -3.3125 2.609375 -3.3125 2.546875 -3.296875 C 2.359375 -3.234375 2.046875 -3.15625 1.71875 -3.15625 C 1.4375 -3.15625 1.171875 -3.203125 0.90625 -3.296875 C 0.84375 -3.3125 0.84375 -3.3125 0.828125 -3.3125 C 0.75 -3.3125 0.75 -3.265625 0.75 -3.1875 L 0.75 -1.6875 C 0.75 -1.59375 0.75 -1.53125 0.859375 -1.53125 C 0.90625 -1.53125 0.90625 -1.546875 0.953125 -1.59375 C 1.140625 -1.8125 1.40625 -1.921875 1.75 -1.921875 C 2.03125 -1.921875 2.203125 -1.765625 2.265625 -1.65625 C 2.375 -1.484375 2.40625 -1.265625 2.40625 -1.015625 C 2.40625 -0.8125 2.390625 -0.53125 2.1875 -0.34375 C 1.96875 -0.109375 1.6875 -0.09375 1.578125 -0.09375 C 1.25 -0.09375 0.890625 -0.234375 0.734375 -0.53125 C 0.9375 -0.546875 1.015625 -0.6875 1.015625 -0.8125 C 1.015625 -0.96875 0.890625 -1.09375 0.734375 -1.09375 C 0.625 -1.09375 0.453125 -1.015625 0.453125 -0.796875 C 0.453125 -0.296875 0.9375 0.109375 1.578125 0.109375 C 2.328125 0.109375 2.9375 -0.390625 2.9375 -1 C 2.9375 -1.5625 2.453125 -2.09375 1.765625 -2.09375 C 1.453125 -2.09375 1.1875 -2.015625 0.984375 -1.84375 Z M 0.984375 -2.75 "/>
</symbol>
<symbol overflow="visible" id="glyph5-3">
<path style="stroke:none;" d="M 2.9375 -0.96875 L 2.71875 -0.96875 C 2.71875 -0.875 2.65625 -0.5625 2.578125 -0.515625 C 2.546875 -0.484375 2.125 -0.484375 2.046875 -0.484375 L 1.078125 -0.484375 C 1.40625 -0.71875 1.765625 -1 2.0625 -1.203125 C 2.515625 -1.515625 2.9375 -1.796875 2.9375 -2.328125 C 2.9375 -2.96875 2.328125 -3.3125 1.625 -3.3125 C 0.953125 -3.3125 0.453125 -2.9375 0.453125 -2.4375 C 0.453125 -2.1875 0.671875 -2.140625 0.75 -2.140625 C 0.875 -2.140625 1.03125 -2.234375 1.03125 -2.4375 C 1.03125 -2.609375 0.90625 -2.71875 0.75 -2.71875 C 0.890625 -2.953125 1.1875 -3.09375 1.515625 -3.09375 C 2 -3.09375 2.40625 -2.8125 2.40625 -2.328125 C 2.40625 -1.90625 2.109375 -1.578125 1.734375 -1.265625 L 0.515625 -0.234375 C 0.46875 -0.1875 0.453125 -0.1875 0.453125 -0.15625 L 0.453125 0 L 2.765625 0 Z M 2.9375 -0.96875 "/>
</symbol>
<symbol overflow="visible" id="glyph5-4">
<path style="stroke:none;" d="M 1.953125 -1.25 C 1.953125 -2.9375 0.671875 -3.734375 0.5625 -3.734375 C 0.484375 -3.734375 0.484375 -3.671875 0.484375 -3.671875 C 0.484375 -3.65625 0.484375 -3.640625 0.515625 -3.609375 C 1.265625 -3.015625 1.5625 -2.140625 1.5625 -1.25 C 1.5625 -0.796875 1.484375 -0.328125 1.3125 0.078125 C 1.078125 0.640625 0.75 0.921875 0.515625 1.125 C 0.5 1.125 0.484375 1.15625 0.484375 1.171875 C 0.484375 1.1875 0.484375 1.25 0.5625 1.25 C 0.671875 1.25 1.953125 0.453125 1.953125 -1.25 Z M 1.953125 -1.25 "/>
</symbol>
<symbol overflow="visible" id="glyph5-5">
<path style="stroke:none;" d="M 1.640625 -1.65625 C 2.109375 -1.65625 2.40625 -1.359375 2.40625 -0.875 C 2.40625 -0.359375 2.09375 -0.09375 1.65625 -0.09375 C 1.59375 -0.09375 1 -0.09375 0.75 -0.359375 C 0.953125 -0.390625 1.015625 -0.53125 1.015625 -0.65625 C 1.015625 -0.84375 0.875 -0.96875 0.703125 -0.96875 C 0.546875 -0.96875 0.40625 -0.859375 0.40625 -0.640625 C 0.40625 -0.125 0.984375 0.109375 1.671875 0.109375 C 2.484375 0.109375 2.984375 -0.390625 2.984375 -0.875 C 2.984375 -1.28125 2.625 -1.625 2.0625 -1.75 C 2.65625 -1.953125 2.8125 -2.328125 2.8125 -2.609375 C 2.8125 -3.015625 2.3125 -3.3125 1.6875 -3.3125 C 1.0625 -3.3125 0.578125 -3.0625 0.578125 -2.609375 C 0.578125 -2.375 0.765625 -2.3125 0.859375 -2.3125 C 1 -2.3125 1.140625 -2.421875 1.140625 -2.609375 C 1.140625 -2.71875 1.078125 -2.859375 0.90625 -2.890625 C 1.109375 -3.109375 1.5625 -3.125 1.671875 -3.125 C 2.03125 -3.125 2.28125 -2.953125 2.28125 -2.609375 C 2.28125 -2.3125 2.09375 -1.859375 1.578125 -1.828125 C 1.4375 -1.828125 1.421875 -1.828125 1.28125 -1.8125 C 1.234375 -1.8125 1.171875 -1.8125 1.171875 -1.734375 C 1.171875 -1.65625 1.21875 -1.65625 1.3125 -1.65625 Z M 1.640625 -1.65625 "/>
</symbol>
<symbol overflow="visible" id="glyph5-6">
<path style="stroke:none;" d="M 3.078125 -0.8125 L 3.078125 -1.03125 L 2.453125 -1.03125 L 2.453125 -3.21875 C 2.453125 -3.34375 2.453125 -3.375 2.3125 -3.375 C 2.21875 -3.375 2.21875 -3.375 2.15625 -3.296875 L 0.3125 -1.03125 L 0.3125 -0.8125 L 1.96875 -0.8125 L 1.96875 -0.421875 C 1.96875 -0.265625 1.96875 -0.21875 1.546875 -0.21875 L 1.359375 -0.21875 L 1.359375 0 C 1.59375 -0.015625 1.921875 -0.015625 2.21875 -0.015625 C 2.5 -0.015625 2.828125 -0.015625 3.0625 0 L 3.0625 -0.21875 L 2.890625 -0.21875 C 2.453125 -0.21875 2.453125 -0.265625 2.453125 -0.421875 L 2.453125 -0.8125 Z M 2.015625 -2.84375 L 2.015625 -1.03125 L 0.546875 -1.03125 Z M 2.015625 -2.84375 "/>
</symbol>
<symbol overflow="visible" id="glyph6-0">
<path style="stroke:none;" d=""/>
</symbol>
<symbol overflow="visible" id="glyph6-1">
<path style="stroke:none;" d="M 1.34375 -0.0625 C 1.34375 0.40625 1.09375 0.6875 0.953125 0.796875 C 0.90625 0.828125 0.890625 0.84375 0.890625 0.875 C 0.890625 0.90625 0.9375 0.96875 0.984375 0.96875 C 1.046875 0.96875 1.515625 0.578125 1.515625 -0.046875 C 1.515625 -0.390625 1.359375 -0.609375 1.140625 -0.609375 C 0.953125 -0.609375 0.84375 -0.453125 0.84375 -0.296875 C 0.84375 -0.140625 0.953125 0 1.140625 0 C 1.21875 0 1.296875 -0.015625 1.34375 -0.0625 Z M 1.34375 -0.0625 "/>
</symbol>
<symbol overflow="visible" id="glyph7-0">
<path style="stroke:none;" d=""/>
</symbol>
<symbol overflow="visible" id="glyph7-1">
<path style="stroke:none;" d="M 3.859375 -1.734375 C 3.859375 -1.734375 3.890625 -1.75 3.90625 -1.78125 C 3.921875 -1.796875 3.921875 -1.828125 3.859375 -1.875 C 3.78125 -1.921875 2.28125 -2 1.328125 -0.609375 C 0.375 0.78125 0.96875 2.1875 1.046875 2.234375 C 1.109375 2.28125 1.140625 2.234375 1.171875 2.21875 C 1.1875 2.1875 1.15625 2.15625 1.171875 2.15625 C 0.828125 1.0625 1.265625 0.140625 1.625 -0.390625 C 2.3125 -1.390625 3.234375 -1.734375 3.859375 -1.734375 Z M 3.859375 -1.734375 "/>
</symbol>
<symbol overflow="visible" id="glyph7-2">
<path style="stroke:none;" d="M 2.296875 -0.4375 C 2.671875 -0.171875 2.75 0.234375 2.484375 0.640625 C 2.1875 1.0625 1.765625 1.109375 1.40625 0.859375 C 1.359375 0.828125 0.875 0.484375 0.828125 0.125 C 1 0.21875 1.140625 0.140625 1.21875 0.03125 C 1.328125 -0.125 1.265625 -0.296875 1.125 -0.40625 C 1 -0.484375 0.8125 -0.46875 0.6875 -0.296875 C 0.40625 0.125 0.75 0.65625 1.3125 1.046875 C 1.984375 1.5 2.671875 1.359375 2.953125 0.96875 C 3.171875 0.625 3.078125 0.140625 2.6875 -0.265625 C 3.296875 -0.109375 3.625 -0.328125 3.796875 -0.5625 C 4.015625 -0.890625 3.78125 -1.421875 3.265625 -1.78125 C 2.75 -2.125 2.203125 -2.203125 1.953125 -1.828125 C 1.8125 -1.625 1.9375 -1.46875 2.015625 -1.421875 C 2.140625 -1.34375 2.3125 -1.359375 2.421875 -1.515625 C 2.484375 -1.59375 2.515625 -1.75 2.390625 -1.859375 C 2.6875 -1.9375 3.046875 -1.6875 3.140625 -1.625 C 3.4375 -1.421875 3.546875 -1.140625 3.359375 -0.859375 C 3.1875 -0.609375 2.765625 -0.34375 2.328125 -0.609375 C 2.21875 -0.6875 2.203125 -0.6875 2.09375 -0.78125 C 2.046875 -0.796875 2 -0.84375 1.953125 -0.765625 C 1.90625 -0.703125 1.9375 -0.671875 2.015625 -0.609375 Z M 2.296875 -0.4375 "/>
</symbol>
<symbol overflow="visible" id="glyph7-3">
<path style="stroke:none;" d="M 2.96875 0.859375 L 2.78125 0.75 C 2.734375 0.828125 2.5 1.03125 2.421875 1.03125 C 2.375 1.03125 2.03125 0.796875 1.96875 0.75 L 1.171875 0.203125 C 1.5625 0.203125 2.015625 0.171875 2.390625 0.1875 C 2.9375 0.171875 3.4375 0.171875 3.734375 -0.265625 C 4.109375 -0.796875 3.796875 -1.421875 3.21875 -1.8125 C 2.65625 -2.1875 2.03125 -2.171875 1.75 -1.765625 C 1.609375 -1.546875 1.765625 -1.390625 1.84375 -1.34375 C 1.9375 -1.265625 2.109375 -1.265625 2.21875 -1.4375 C 2.328125 -1.578125 2.296875 -1.71875 2.171875 -1.8125 C 2.40625 -1.9375 2.734375 -1.875 3 -1.6875 C 3.40625 -1.421875 3.578125 -0.953125 3.296875 -0.5625 C 3.0625 -0.21875 2.625 -0.109375 2.140625 -0.0625 L 0.546875 0.109375 C 0.5 0.109375 0.484375 0.09375 0.46875 0.125 L 0.375 0.25 L 2.28125 1.5625 Z M 2.96875 0.859375 "/>
</symbol>
<symbol overflow="visible" id="glyph7-4">
<path style="stroke:none;" d="M 2.3125 0.078125 C 3.265625 -1.3125 2.65625 -2.703125 2.578125 -2.765625 C 2.515625 -2.796875 2.484375 -2.75 2.484375 -2.75 C 2.46875 -2.734375 2.46875 -2.71875 2.46875 -2.671875 C 2.75 -1.765625 2.5 -0.875 1.984375 -0.140625 C 1.734375 0.234375 1.40625 0.578125 1.03125 0.8125 C 0.53125 1.140625 0.109375 1.1875 -0.21875 1.21875 C -0.234375 1.203125 -0.25 1.234375 -0.25 1.25 C -0.265625 1.265625 -0.296875 1.3125 -0.234375 1.34375 C -0.15625 1.40625 1.359375 1.484375 2.3125 0.078125 Z M 2.3125 0.078125 "/>
</symbol>
<symbol overflow="visible" id="glyph7-5">
<path style="stroke:none;" d="M 2.984375 1.078125 L 3.109375 0.90625 L 2.59375 0.546875 L 3.84375 -1.265625 C 3.90625 -1.359375 3.921875 -1.390625 3.8125 -1.46875 C 3.734375 -1.53125 3.734375 -1.53125 3.640625 -1.5 L 0.828125 -0.671875 L 0.703125 -0.5 L 2.078125 0.4375 L 1.859375 0.765625 C 1.78125 0.890625 1.75 0.921875 1.40625 0.6875 L 1.25 0.578125 L 1.125 0.765625 C 1.328125 0.890625 1.59375 1.078125 1.84375 1.234375 C 2.078125 1.40625 2.34375 1.578125 2.53125 1.734375 L 2.65625 1.546875 L 2.5 1.453125 C 2.140625 1.203125 2.171875 1.171875 2.25 1.046875 L 2.46875 0.71875 Z M 3.265625 -1.203125 L 2.234375 0.296875 L 1.03125 -0.53125 Z M 3.265625 -1.203125 "/>
</symbol>
<symbol overflow="visible" id="glyph8-0">
<path style="stroke:none;" d=""/>
</symbol>
<symbol overflow="visible" id="glyph8-1">
<path style="stroke:none;" d="M 1.140625 0.71875 C 0.875 1.09375 0.515625 1.1875 0.328125 1.203125 C 0.28125 1.203125 0.25 1.203125 0.234375 1.21875 C 0.21875 1.25 0.21875 1.328125 0.265625 1.359375 C 0.3125 1.390625 0.921875 1.328125 1.28125 0.828125 C 1.46875 0.53125 1.46875 0.265625 1.28125 0.140625 C 1.125 0.046875 0.953125 0.109375 0.875 0.234375 C 0.78125 0.375 0.78125 0.546875 0.9375 0.640625 C 1 0.6875 1.078125 0.71875 1.140625 0.71875 Z M 1.140625 0.71875 "/>
</symbol>
<symbol overflow="visible" id="glyph9-0">
<path style="stroke:none;" d=""/>
</symbol>
<symbol overflow="visible" id="glyph9-1">
<path style="stroke:none;" d="M 3.625 2.203125 C 3.625 2.203125 3.640625 2.21875 3.671875 2.21875 C 3.6875 2.21875 3.734375 2.203125 3.734375 2.125 C 3.734375 2.03125 2.9375 0.75 1.25 0.75 C -0.4375 0.75 -1.25 2.03125 -1.25 2.125 C -1.25 2.203125 -1.203125 2.21875 -1.171875 2.21875 C -1.140625 2.21875 -1.125 2.1875 -1.109375 2.171875 C -0.40625 1.296875 0.609375 1.125 1.25 1.125 C 2.46875 1.125 3.265625 1.6875 3.625 2.203125 Z M 3.625 2.203125 "/>
</symbol>
<symbol overflow="visible" id="glyph9-2">
<path style="stroke:none;" d="M 3.171875 1.984375 C 3.3125 1.984375 3.3125 1.96875 3.3125 1.796875 C 3 1.453125 3 0.890625 3 0.796875 L 3 0.71875 L 2.78125 0.71875 L 2.78125 0.796875 C 2.78125 0.90625 2.796875 1.234375 2.921875 1.53125 L 0.421875 1.53125 C 0.28125 1.53125 0.21875 1.53125 0.21875 1 L 0.21875 0.75 L 0 0.75 C 0.015625 1.015625 0.015625 1.46875 0.015625 1.75 C 0.015625 2.046875 0.015625 2.484375 0 2.765625 L 0.21875 2.765625 L 0.21875 2.515625 C 0.21875 1.984375 0.28125 1.984375 0.421875 1.984375 Z M 3.171875 1.984375 "/>
</symbol>
<symbol overflow="visible" id="glyph9-3">
<path style="stroke:none;" d="M 1.65625 1.640625 C 1.65625 2.109375 1.359375 2.40625 0.875 2.40625 C 0.359375 2.40625 0.09375 2.09375 0.09375 1.65625 C 0.09375 1.59375 0.09375 1 0.359375 0.75 C 0.390625 0.953125 0.53125 1.015625 0.65625 1.015625 C 0.84375 1.015625 0.96875 0.875 0.96875 0.703125 C 0.96875 0.546875 0.859375 0.40625 0.640625 0.40625 C 0.125 0.40625 -0.109375 0.984375 -0.109375 1.671875 C -0.109375 2.484375 0.390625 2.984375 0.875 2.984375 C 1.28125 2.984375 1.625 2.625 1.75 2.0625 C 1.953125 2.65625 2.328125 2.8125 2.609375 2.8125 C 3.015625 2.8125 3.3125 2.3125 3.3125 1.6875 C 3.3125 1.0625 3.0625 0.578125 2.609375 0.578125 C 2.375 0.578125 2.3125 0.765625 2.3125 0.859375 C 2.3125 1 2.421875 1.140625 2.609375 1.140625 C 2.71875 1.140625 2.859375 1.078125 2.890625 0.90625 C 3.109375 1.109375 3.125 1.5625 3.125 1.671875 C 3.125 2.03125 2.953125 2.28125 2.609375 2.28125 C 2.3125 2.28125 1.859375 2.09375 1.828125 1.578125 C 1.828125 1.4375 1.828125 1.421875 1.8125 1.28125 C 1.8125 1.234375 1.8125 1.171875 1.734375 1.171875 C 1.65625 1.171875 1.65625 1.21875 1.65625 1.3125 Z M 1.65625 1.640625 "/>
</symbol>
<symbol overflow="visible" id="glyph9-4">
<path style="stroke:none;" d="M 1.25 1.953125 C 2.9375 1.953125 3.734375 0.671875 3.734375 0.5625 C 3.734375 0.484375 3.671875 0.484375 3.671875 0.484375 C 3.65625 0.484375 3.640625 0.484375 3.609375 0.515625 C 3.015625 1.265625 2.140625 1.5625 1.25 1.5625 C 0.796875 1.5625 0.328125 1.484375 -0.078125 1.3125 C -0.640625 1.078125 -0.921875 0.75 -1.125 0.515625 C -1.125 0.5 -1.15625 0.484375 -1.171875 0.484375 C -1.1875 0.484375 -1.25 0.484375 -1.25 0.5625 C -1.25 0.671875 -0.453125 1.953125 1.25 1.953125 Z M 1.25 1.953125 "/>
</symbol>
<symbol overflow="visible" id="glyph10-0">
<path style="stroke:none;" d=""/>
</symbol>
<symbol overflow="visible" id="glyph10-1">
<path style="stroke:none;" d="M 0.0625 1.34375 C -0.40625 1.34375 -0.6875 1.09375 -0.796875 0.953125 C -0.828125 0.90625 -0.84375 0.890625 -0.875 0.890625 C -0.90625 0.890625 -0.96875 0.9375 -0.96875 0.984375 C -0.96875 1.046875 -0.578125 1.515625 0.046875 1.515625 C 0.390625 1.515625 0.609375 1.359375 0.609375 1.140625 C 0.609375 0.953125 0.453125 0.84375 0.296875 0.84375 C 0.140625 0.84375 0 0.953125 0 1.140625 C 0 1.21875 0.015625 1.296875 0.0625 1.34375 Z M 0.0625 1.34375 "/>
</symbol>
</g>
</defs>
<g id="surface1">
<path style="fill-rule:nonzero;fill:rgb(50%,50%,50%);fill-opacity:0.3;stroke-width:0.3985;stroke-linecap:butt;stroke-linejoin:miter;stroke:rgb(0%,0%,0%);stroke-opacity:1;stroke-miterlimit:10;" d="M 9.96256 -0.00000816935 C 9.96256 5.503458 5.501757 9.964038 0.00192175 9.964038 C -5.501819 9.964038 -9.962623 5.503458 -9.962623 -0.00000816935 C -9.962623 -5.503474 -5.501819 -9.964055 0.00192175 -9.964055 C 5.501757 -9.964055 9.96256 -5.503474 9.96256 -0.00000816935 Z M 9.96256 -0.00000816935 " transform="matrix(1.00003,0,0,-1.00008,66.400422,49.097648)"/>
<g style="fill:rgb(0%,0%,0%);fill-opacity:1;">
  <use xlink:href="#glyph0-1" x="62.086293" y="50.529763"/>
</g>
<g style="fill:rgb(0%,0%,0%);fill-opacity:1;">
  <use xlink:href="#glyph1-1" x="66.562427" y="51.525842"/>
</g>
<path style="fill-rule:nonzero;fill:rgb(50%,50%,50%);fill-opacity:0.3;stroke-width:0.3985;stroke-linecap:butt;stroke-linejoin:miter;stroke:rgb(0%,0%,0%);stroke-opacity:1;stroke-miterlimit:10;" d="M 9.96256 37.332943 C 9.96256 42.836409 5.501757 47.296989 0.00192175 47.296989 C -5.501819 47.296989 -9.962623 42.836409 -9.962623 37.332943 C -9.962623 31.829477 -5.501819 27.368896 0.00192175 27.368896 C 5.501757 27.368896 9.96256 31.829477 9.96256 37.332943 Z M 9.96256 37.332943 " transform="matrix(1.00003,0,0,-1.00008,66.400422,49.097648)"/>
<g style="fill:rgb(0%,0%,0%);fill-opacity:1;">
  <use xlink:href="#glyph0-1" x="62.086293" y="13.194776"/>
</g>
<g style="fill:rgb(0%,0%,0%);fill-opacity:1;">
  <use xlink:href="#glyph1-2" x="66.562427" y="14.190856"/>
</g>
<path style="fill-rule:nonzero;fill:rgb(50%,50%,50%);fill-opacity:0.3;stroke-width:0.3985;stroke-linecap:butt;stroke-linejoin:miter;stroke:rgb(0%,0%,0%);stroke-opacity:1;stroke-miterlimit:10;" d="M -44.375653 -0.00000816935 C -44.375653 5.503458 -48.836457 9.964038 -54.340198 9.964038 C -59.843939 9.964038 -64.304743 5.503458 -64.304743 -0.00000816935 C -64.304743 -5.503474 -59.843939 -9.964055 -54.340198 -9.964055 C -48.836457 -9.964055 -44.375653 -5.503474 -44.375653 -0.00000816935 Z M -44.375653 -0.00000816935 " transform="matrix(1.00003,0,0,-1.00008,66.400422,49.097648)"/>
<g style="fill:rgb(0%,0%,0%);fill-opacity:1;">
  <use xlink:href="#glyph0-1" x="7.824665" y="50.529763"/>
</g>
<g style="fill:rgb(0%,0%,0%);fill-opacity:1;">
  <use xlink:href="#glyph2-1" x="12.300799" y="51.525842"/>
</g>
<path style="fill-rule:nonzero;fill:rgb(50%,50%,50%);fill-opacity:0.3;stroke-width:0.3985;stroke-linecap:butt;stroke-linejoin:miter;stroke:rgb(0%,0%,0%);stroke-opacity:1;stroke-miterlimit:10;" d="M 9.96256 -37.332959 C 9.96256 -31.829493 5.501757 -27.368912 0.00192175 -27.368912 C -5.501819 -27.368912 -9.962623 -31.829493 -9.962623 -37.332959 C -9.962623 -42.836425 -5.501819 -47.297006 0.00192175 -47.297006 C 5.501757 -47.297006 9.96256 -42.836425 9.96256 -37.332959 Z M 9.96256 -37.332959 " transform="matrix(1.00003,0,0,-1.00008,66.400422,49.097648)"/>
<g style="fill:rgb(0%,0%,0%);fill-opacity:1;">
  <use xlink:href="#glyph0-1" x="62.086293" y="87.864749"/>
</g>
<g style="fill:rgb(0%,0%,0%);fill-opacity:1;">
  <use xlink:href="#glyph1-3" x="66.562427" y="88.860829"/>
</g>
<path style="fill-rule:nonzero;fill:rgb(50%,50%,50%);fill-opacity:0.3;stroke-width:0.3985;stroke-linecap:butt;stroke-linejoin:miter;stroke:rgb(0%,0%,0%);stroke-opacity:1;stroke-miterlimit:10;" d="M 64.30468 -0.00000816935 C 64.30468 5.503458 59.843876 9.964038 54.340135 9.964038 C 48.836394 9.964038 44.375591 5.503458 44.375591 -0.00000816935 C 44.375591 -5.503474 48.836394 -9.964055 54.340135 -9.964055 C 59.843876 -9.964055 64.30468 -5.503474 64.30468 -0.00000816935 Z M 64.30468 -0.00000816935 " transform="matrix(1.00003,0,0,-1.00008,66.400422,49.097648)"/>
<g style="fill:rgb(0%,0%,0%);fill-opacity:1;">
  <use xlink:href="#glyph0-1" x="116.33492" y="50.49676"/>
</g>
<g style="fill:rgb(0%,0%,0%);fill-opacity:1;">
  <use xlink:href="#glyph2-2" x="120.811054" y="51.559845"/>
</g>
<path style="fill:none;stroke-width:0.3985;stroke-linecap:butt;stroke-linejoin:miter;stroke:rgb(0%,0%,0%);stroke-opacity:1;stroke-miterlimit:10;" d="M -45.965449 5.753438 L -8.751722 31.317799 " transform="matrix(1.00003,0,0,-1.00008,66.400422,49.097648)"/>
<path style="fill:none;stroke-width:0.31879;stroke-linecap:round;stroke-linejoin:round;stroke:rgb(0%,0%,0%);stroke-opacity:1;stroke-miterlimit:10;" d="M -1.197271 1.593729 C -1.095055 0.997464 -0.00129814 0.0991381 0.300714 0.000655093 C -0.00082365 -0.100231 -1.095742 -0.997235 -1.196119 -1.591753 " transform="matrix(0.824215,-0.566265,-0.566237,-0.824256,57.647049,17.776293)"/>
<g style="fill:rgb(0%,0%,0%);fill-opacity:1;">
  <use xlink:href="#glyph3-1" x="31.666786" y="33.2692"/>
  <use xlink:href="#glyph3-2" x="33.890822" y="31.741206"/>
</g>
<g style="fill:rgb(0%,0%,0%);fill-opacity:1;">
  <use xlink:href="#glyph4-1" x="36.684605" y="29.821776"/>
</g>
<g style="fill:rgb(0%,0%,0%);fill-opacity:1;">
  <use xlink:href="#glyph3-3" x="39.574302" y="27.83645"/>
  <use xlink:href="#glyph3-4" x="42.368615" y="25.916656"/>
</g>
<path style="fill:none;stroke-width:0.3985;stroke-linecap:butt;stroke-linejoin:miter;stroke:rgb(0%,0%,0%);stroke-opacity:1;stroke-miterlimit:10;" d="M -44.17644 -0.00000816935 L -10.618853 -0.00000816935 " transform="matrix(1.00003,0,0,-1.00008,66.400422,49.097648)"/>
<path style="fill:none;stroke-width:0.31879;stroke-linecap:round;stroke-linejoin:round;stroke:rgb(0%,0%,0%);stroke-opacity:1;stroke-miterlimit:10;" d="M -1.19384 1.593614 C -1.096187 0.996006 0.00143663 0.101546 0.298303 -0.00000816935 C 0.00143663 -0.101563 -1.096187 -0.996022 -1.19384 -1.593631 " transform="matrix(1.00003,0,0,-1.00008,55.779813,49.097648)"/>
<g style="fill:rgb(0%,0%,0%);fill-opacity:1;">
  <use xlink:href="#glyph5-1" x="31.388372" y="47.154493"/>
  <use xlink:href="#glyph5-2" x="34.086823" y="47.154493"/>
</g>
<g style="fill:rgb(0%,0%,0%);fill-opacity:1;">
  <use xlink:href="#glyph6-1" x="37.476554" y="47.154493"/>
</g>
<g style="fill:rgb(0%,0%,0%);fill-opacity:1;">
  <use xlink:href="#glyph5-3" x="40.982659" y="47.154493"/>
  <use xlink:href="#glyph5-4" x="44.373034" y="47.154493"/>
</g>
<path style="fill:none;stroke-width:0.3985;stroke-linecap:butt;stroke-linejoin:miter;stroke:rgb(0%,0%,0%);stroke-opacity:1;stroke-miterlimit:10;" d="M -45.965449 -5.753454 L -8.751722 -31.317815 " transform="matrix(1.00003,0,0,-1.00008,66.400422,49.097648)"/>
<path style="fill:none;stroke-width:0.31879;stroke-linecap:round;stroke-linejoin:round;stroke:rgb(0%,0%,0%);stroke-opacity:1;stroke-miterlimit:10;" d="M -1.19611 1.59174 C -1.095733 0.997221 -0.000814398 0.100218 0.300723 -0.000668561 C -0.00128888 -0.0991516 -1.095046 -0.997478 -1.197262 -1.593743 " transform="matrix(0.824215,0.566265,0.566237,-0.824256,57.647049,80.419004)"/>
<g style="fill:rgb(0%,0%,0%);fill-opacity:1;">
  <use xlink:href="#glyph7-1" x="30.256847" y="66.979287"/>
  <use xlink:href="#glyph7-2" x="32.480884" y="68.507281"/>
</g>
<g style="fill:rgb(0%,0%,0%);fill-opacity:1;">
  <use xlink:href="#glyph8-1" x="35.274666" y="70.42671"/>
</g>
<g style="fill:rgb(0%,0%,0%);fill-opacity:1;">
  <use xlink:href="#glyph7-3" x="38.164363" y="72.412037"/>
  <use xlink:href="#glyph7-4" x="40.958676" y="74.33183"/>
</g>
<path style="fill:none;stroke-width:0.3985;stroke-linecap:butt;stroke-linejoin:miter;stroke:rgb(0%,0%,0%);stroke-opacity:1;stroke-miterlimit:10;" d="M 8.376671 31.579497 L 45.586492 6.015136 " transform="matrix(1.00003,0,0,-1.00008,66.400422,49.097648)"/>
<path style="fill:none;stroke-width:0.31879;stroke-linecap:round;stroke-linejoin:round;stroke:rgb(0%,0%,0%);stroke-opacity:1;stroke-miterlimit:10;" d="M -1.194844 1.593411 C -1.097687 0.996681 0.000451462 0.101889 0.298769 -0.00120904 C -0.0000230225 -0.0974801 -1.097 -0.998018 -1.195996 -1.592071 " transform="matrix(0.824215,0.566265,0.566237,-0.824256,111.98881,43.083727)"/>
<g style="fill:rgb(0%,0%,0%);fill-opacity:1;">
  <use xlink:href="#glyph7-1" x="88.208586" y="24.38888"/>
  <use xlink:href="#glyph7-5" x="90.432622" y="25.916874"/>
</g>
<g style="fill:rgb(0%,0%,0%);fill-opacity:1;">
  <use xlink:href="#glyph8-1" x="93.226405" y="27.836303"/>
</g>
<g style="fill:rgb(0%,0%,0%);fill-opacity:1;">
  <use xlink:href="#glyph7-3" x="96.116102" y="29.82163"/>
  <use xlink:href="#glyph7-4" x="98.910414" y="31.741423"/>
</g>
<path style="fill:none;stroke-width:0.3985;stroke-linecap:butt;stroke-linejoin:miter;stroke:rgb(0%,0%,0%);stroke-opacity:1;stroke-miterlimit:10;" d="M 10.161773 -0.00000816935 L 43.71936 -0.00000816935 " transform="matrix(1.00003,0,0,-1.00008,66.400422,49.097648)"/>
<path style="fill:none;stroke-width:0.31879;stroke-linecap:round;stroke-linejoin:round;stroke:rgb(0%,0%,0%);stroke-opacity:1;stroke-miterlimit:10;" d="M -1.195746 1.593614 C -1.094187 0.996006 -0.000469771 0.101546 0.300302 -0.00000816935 C -0.000469771 -0.101563 -1.094187 -0.996022 -1.195746 -1.593631 " transform="matrix(1.00003,0,0,-1.00008,110.121564,49.097648)"/>
<g style="fill:rgb(0%,0%,0%);fill-opacity:1;">
  <use xlink:href="#glyph5-1" x="85.730002" y="47.154493"/>
  <use xlink:href="#glyph5-5" x="88.428453" y="47.154493"/>
</g>
<g style="fill:rgb(0%,0%,0%);fill-opacity:1;">
  <use xlink:href="#glyph6-1" x="91.818184" y="47.154493"/>
</g>
<g style="fill:rgb(0%,0%,0%);fill-opacity:1;">
  <use xlink:href="#glyph5-6" x="95.32429" y="47.154493"/>
  <use xlink:href="#glyph5-4" x="98.714664" y="47.154493"/>
</g>
<path style="fill:none;stroke-width:0.3985;stroke-linecap:butt;stroke-linejoin:miter;stroke:rgb(0%,0%,0%);stroke-opacity:1;stroke-miterlimit:10;" d="M 8.376671 -31.579513 L 45.586492 -6.015152 " transform="matrix(1.00003,0,0,-1.00008,66.400422,49.097648)"/>
<path style="fill:none;stroke-width:0.31879;stroke-linecap:round;stroke-linejoin:round;stroke:rgb(0%,0%,0%);stroke-opacity:1;stroke-miterlimit:10;" d="M -1.196005 1.592058 C -1.097009 0.998005 -0.0000322748 0.0974666 0.29876 0.00119557 C 0.00044221 -0.101903 -1.097696 -0.996694 -1.194853 -1.593424 " transform="matrix(0.824215,-0.566265,-0.566237,-0.824256,111.98881,55.111569)"/>
<g style="fill:rgb(0%,0%,0%);fill-opacity:1;">
  <use xlink:href="#glyph3-1" x="89.618524" y="75.859606"/>
  <use xlink:href="#glyph3-3" x="91.842561" y="74.331613"/>
</g>
<g style="fill:rgb(0%,0%,0%);fill-opacity:1;">
  <use xlink:href="#glyph4-1" x="94.636344" y="72.412183"/>
</g>
<g style="fill:rgb(0%,0%,0%);fill-opacity:1;">
  <use xlink:href="#glyph3-5" x="97.52604" y="70.426857"/>
  <use xlink:href="#glyph3-4" x="100.320353" y="68.507063"/>
</g>
<path style="fill:none;stroke-width:0.3985;stroke-linecap:butt;stroke-linejoin:miter;stroke:rgb(0%,0%,0%);stroke-opacity:1;stroke-miterlimit:10;" d="M 0.00192175 -10.163258 L 0.00192175 -26.712715 " transform="matrix(1.00003,0,0,-1.00008,66.400422,49.097648)"/>
<path style="fill:none;stroke-width:0.31879;stroke-linecap:round;stroke-linejoin:round;stroke:rgb(0%,0%,0%);stroke-opacity:1;stroke-miterlimit:10;" d="M -1.194492 1.595624 C -1.096844 0.997986 0.000724903 0.0995751 0.297576 0.00192175 C 0.000724903 -0.0996377 -1.096844 -0.998048 -1.194492 -1.595687 " transform="matrix(0,1.00008,1.00003,0,66.400422,75.811775)"/>
<g style="fill:rgb(0%,0%,0%);fill-opacity:1;">
  <use xlink:href="#glyph9-1" x="68.34348" y="59.923514"/>
  <use xlink:href="#glyph9-2" x="68.34348" y="62.6221"/>
</g>
<g style="fill:rgb(0%,0%,0%);fill-opacity:1;">
  <use xlink:href="#glyph10-1" x="68.34348" y="66.012001"/>
</g>
<g style="fill:rgb(0%,0%,0%);fill-opacity:1;">
  <use xlink:href="#glyph9-3" x="68.34348" y="69.518282"/>
  <use xlink:href="#glyph9-4" x="68.34348" y="72.908826"/>
</g>
<path style="fill:none;stroke-width:0.3985;stroke-linecap:butt;stroke-linejoin:miter;stroke:rgb(0%,0%,0%);stroke-opacity:1;stroke-miterlimit:10;" d="M 0.00192175 27.169693 L 0.00192175 10.620236 " transform="matrix(1.00003,0,0,-1.00008,66.400422,49.097648)"/>
<path style="fill:none;stroke-width:0.31879;stroke-linecap:round;stroke-linejoin:round;stroke:rgb(0%,0%,0%);stroke-opacity:1;stroke-miterlimit:10;" d="M -1.195163 1.595624 C -1.097514 0.997986 0.0000540389 0.0995751 0.300811 0.00192175 C 0.0000540389 -0.0996377 -1.097514 -0.998048 -1.195163 -1.595687 " transform="matrix(0,1.00008,1.00003,0,66.400422,38.476508)"/>
<g style="fill:rgb(0%,0%,0%);fill-opacity:1;">
  <use xlink:href="#glyph9-1" x="68.34348" y="22.588528"/>
  <use xlink:href="#glyph9-2" x="68.34348" y="25.287114"/>
</g>
<g style="fill:rgb(0%,0%,0%);fill-opacity:1;">
  <use xlink:href="#glyph10-1" x="68.34348" y="28.677015"/>
</g>
<g style="fill:rgb(0%,0%,0%);fill-opacity:1;">
  <use xlink:href="#glyph9-2" x="68.34348" y="32.183295"/>
  <use xlink:href="#glyph9-4" x="68.34348" y="35.573839"/>
</g>
</g>
</svg>
