<?xml version="1.0" encoding="UTF-8"?>
<svg xmlns="http://www.w3.org/2000/svg" xmlns:xlink="http://www.w3.org/1999/xlink" width="175pt" height="86pt" viewBox="0 0 175 86" version="1.1">
<defs>
<g>
<symbol overflow="visible" id="glyph0-0">
<path style="stroke:none;" d=""/>
</symbol>
<symbol overflow="visible" id="glyph0-1">
<path style="stroke:none;" d="M 4.3125 -3.3125 C 4.3125 -3.9375 3.984375 -3.96875 3.90625 -3.96875 C 3.671875 -3.96875 3.4375 -3.734375 3.4375 -3.53125 C 3.4375 -3.390625 3.53125 -3.3125 3.59375 -3.265625 C 3.828125 -3.046875 3.90625 -2.75 3.90625 -2.515625 C 3.90625 -2.125 3.34375 -0.125 2.3125 -0.125 C 1.625 -0.125 1.625 -0.75 1.625 -0.921875 C 1.625 -1.296875 1.765625 -1.765625 2.078125 -2.578125 C 2.21875 -2.953125 2.25 -3.046875 2.25 -3.203125 C 2.25 -3.65625 1.921875 -3.96875 1.484375 -3.96875 C 0.625 -3.96875 0.265625 -2.6875 0.265625 -2.578125 C 0.265625 -2.5 0.328125 -2.46875 0.390625 -2.46875 C 0.484375 -2.46875 0.5 -2.53125 0.53125 -2.640625 C 0.71875 -3.296875 1.078125 -3.734375 1.453125 -3.734375 C 1.625 -3.734375 1.671875 -3.625 1.671875 -3.4375 C 1.671875 -3.296875 1.625 -3.125 1.546875 -2.921875 C 1.234375 -2.046875 1.015625 -1.484375 1.015625 -1.03125 C 1.015625 -0.1875 1.65625 0.09375 2.265625 0.09375 C 3.78125 0.09375 4.3125 -2.734375 4.3125 -3.3125 Z M 4.3125 -3.3125 "/>
</symbol>
<symbol overflow="visible" id="glyph1-0">
<path style="stroke:none;" d=""/>
</symbol>
<symbol overflow="visible" id="glyph1-1">
<path style="stroke:none;" d="M 3.296875 -1.90625 C 3.296875 -2.34375 3.296875 -3.984375 1.828125 -3.984375 C 0.359375 -3.984375 0.359375 -2.34375 0.359375 -1.90625 C 0.359375 -1.484375 0.359375 0.125 1.828125 0.125 C 3.296875 0.125 3.296875 -1.484375 3.296875 -1.90625 Z M 1.828125 -0.0625 C 1.578125 -0.0625 1.171875 -0.1875 1.015625 -0.6875 C 0.921875 -1.03125 0.921875 -1.609375 0.921875 -1.984375 C 0.921875 -2.390625 0.921875 -2.84375 1.015625 -3.171875 C 1.15625 -3.703125 1.609375 -3.78125 1.828125 -3.78125 C 2.09375 -3.78125 2.5 -3.65625 2.625 -3.203125 C 2.71875 -2.890625 2.71875 -2.453125 2.71875 -1.984375 C 2.71875 -1.609375 2.71875 -1 2.625 -0.671875 C 2.453125 -0.140625 2.015625 -0.0625 1.828125 -0.0625 Z M 1.828125 -0.0625 "/>
</symbol>
<symbol overflow="visible" id="glyph1-2">
<path style="stroke:none;" d="M 3.21875 -1.125 L 3 -1.125 C 2.984375 -1.03125 2.921875 -0.640625 2.84375 -0.578125 C 2.796875 -0.53125 2.3125 -0.53125 2.21875 -0.53125 L 1.109375 -0.53125 L 1.875 -1.15625 C 2.078125 -1.328125 2.609375 -1.703125 2.796875 -1.890625 C 2.96875 -2.0625 3.21875 -2.375 3.21875 -2.796875 C 3.21875 -3.546875 2.546875 -3.984375 1.734375 -3.984375 C 0.96875 -3.984375 0.4375 -3.46875 0.4375 -2.90625 C 0.4375 -2.609375 0.6875 -2.5625 0.75 -2.5625 C 0.90625 -2.5625 1.078125 -2.671875 1.078125 -2.890625 C 1.078125 -3.015625 1 -3.21875 0.734375 -3.21875 C 0.875 -3.515625 1.234375 -3.75 1.65625 -3.75 C 2.28125 -3.75 2.609375 -3.28125 2.609375 -2.796875 C 2.609375 -2.375 2.328125 -1.9375 1.921875 -1.546875 L 0.5 -0.25 C 0.4375 -0.1875 0.4375 -0.1875 0.4375 0 L 3.03125 0 Z M 3.21875 -1.125 "/>
</symbol>
<symbol overflow="visible" id="glyph1-3">
<path style="stroke:none;" d="M 3.375 -0.984375 L 3.375 -1.21875 L 2.671875 -1.21875 L 2.671875 -3.859375 C 2.671875 -4 2.671875 -4.046875 2.53125 -4.046875 C 2.421875 -4.046875 2.40625 -4.015625 2.359375 -3.953125 L 0.28125 -1.21875 L 0.28125 -0.984375 L 2.140625 -0.984375 L 2.140625 -0.5 C 2.140625 -0.3125 2.140625 -0.234375 1.640625 -0.234375 L 1.453125 -0.234375 L 1.453125 0 C 1.578125 0 2.140625 -0.03125 2.40625 -0.03125 C 2.671875 -0.03125 3.234375 0 3.34375 0 L 3.34375 -0.234375 L 3.171875 -0.234375 C 2.671875 -0.234375 2.671875 -0.3125 2.671875 -0.5 L 2.671875 -0.984375 Z M 2.171875 -3.390625 L 2.171875 -1.21875 L 0.53125 -1.21875 Z M 2.171875 -3.390625 "/>
</symbol>
<symbol overflow="visible" id="glyph1-4">
<path style="stroke:none;" d="M 2.140625 -3.796875 C 2.140625 -3.984375 2.125 -3.984375 1.9375 -3.984375 C 1.546875 -3.59375 0.9375 -3.59375 0.71875 -3.59375 L 0.71875 -3.359375 C 0.875 -3.359375 1.28125 -3.359375 1.640625 -3.53125 L 1.640625 -0.515625 C 1.640625 -0.3125 1.640625 -0.234375 1.015625 -0.234375 L 0.765625 -0.234375 L 0.765625 0 C 1.09375 -0.03125 1.5625 -0.03125 1.890625 -0.03125 C 2.21875 -0.03125 2.6875 -0.03125 3.015625 0 L 3.015625 -0.234375 L 2.765625 -0.234375 C 2.140625 -0.234375 2.140625 -0.3125 2.140625 -0.515625 Z M 2.140625 -3.796875 "/>
</symbol>
<symbol overflow="visible" id="glyph1-5">
<path style="stroke:none;" d="M 1.765625 -1.984375 C 2.265625 -1.984375 2.609375 -1.640625 2.609375 -1.03125 C 2.609375 -0.375 2.21875 -0.09375 1.78125 -0.09375 C 1.609375 -0.09375 1 -0.125 0.734375 -0.46875 C 0.96875 -0.5 1.0625 -0.65625 1.0625 -0.8125 C 1.0625 -1.015625 0.921875 -1.15625 0.71875 -1.15625 C 0.5625 -1.15625 0.375 -1.046875 0.375 -0.796875 C 0.375 -0.203125 1.03125 0.125 1.796875 0.125 C 2.6875 0.125 3.265625 -0.4375 3.265625 -1.03125 C 3.265625 -1.46875 2.9375 -1.9375 2.21875 -2.109375 C 2.703125 -2.265625 3.078125 -2.65625 3.078125 -3.140625 C 3.078125 -3.625 2.515625 -3.984375 1.796875 -3.984375 C 1.09375 -3.984375 0.5625 -3.65625 0.5625 -3.171875 C 0.5625 -2.90625 0.765625 -2.84375 0.890625 -2.84375 C 1.046875 -2.84375 1.203125 -2.9375 1.203125 -3.15625 C 1.203125 -3.34375 1.078125 -3.453125 0.90625 -3.46875 C 1.1875 -3.78125 1.734375 -3.78125 1.796875 -3.78125 C 2.09375 -3.78125 2.484375 -3.640625 2.484375 -3.140625 C 2.484375 -2.8125 2.296875 -2.234375 1.6875 -2.203125 C 1.578125 -2.203125 1.421875 -2.1875 1.375 -2.1875 C 1.3125 -2.171875 1.25 -2.171875 1.25 -2.078125 C 1.25 -1.984375 1.3125 -1.984375 1.40625 -1.984375 Z M 1.765625 -1.984375 "/>
</symbol>
<symbol overflow="visible" id="glyph1-6">
<path style="stroke:none;" d="M 1.015625 -3.328125 C 1.21875 -3.265625 1.421875 -3.25 1.625 -3.25 C 1.765625 -3.25 2.09375 -3.25 2.46875 -3.453125 C 2.578125 -3.515625 2.9375 -3.765625 2.9375 -3.890625 C 2.9375 -3.96875 2.890625 -3.984375 2.859375 -3.984375 C 2.84375 -3.984375 2.84375 -3.984375 2.765625 -3.953125 C 2.5625 -3.875 2.25 -3.78125 1.859375 -3.78125 C 1.5625 -3.78125 1.25 -3.84375 0.96875 -3.9375 C 0.921875 -3.96875 0.890625 -3.984375 0.875 -3.984375 C 0.78125 -3.984375 0.78125 -3.90625 0.78125 -3.8125 L 0.78125 -2.015625 C 0.78125 -1.921875 0.78125 -1.84375 0.890625 -1.84375 C 0.953125 -1.84375 0.96875 -1.875 1 -1.921875 C 1.15625 -2.109375 1.421875 -2.3125 1.890625 -2.3125 C 2.625 -2.3125 2.625 -1.421875 2.625 -1.234375 C 2.625 -1 2.609375 -0.65625 2.40625 -0.40625 C 2.21875 -0.1875 1.9375 -0.09375 1.6875 -0.09375 C 1.28125 -0.09375 0.859375 -0.3125 0.71875 -0.671875 C 1.015625 -0.671875 1.046875 -0.90625 1.046875 -0.96875 C 1.046875 -1.140625 0.921875 -1.28125 0.734375 -1.28125 C 0.6875 -1.28125 0.4375 -1.25 0.4375 -0.953125 C 0.4375 -0.40625 0.953125 0.125 1.703125 0.125 C 2.53125 0.125 3.21875 -0.453125 3.21875 -1.203125 C 3.21875 -1.890625 2.671875 -2.5 1.890625 -2.5 C 1.515625 -2.5 1.203125 -2.375 1.015625 -2.21875 Z M 1.015625 -3.328125 "/>
</symbol>
<symbol overflow="visible" id="glyph2-0">
<path style="stroke:none;" d=""/>
</symbol>
<symbol overflow="visible" id="glyph2-1">
<path style="stroke:none;" d="M 0.46875 -2.28125 C 0.859375 -2.53125 1.28125 -2.453125 1.546875 -2.046875 C 1.8125 -1.609375 1.703125 -1.21875 1.34375 -0.984375 C 1.296875 -0.953125 0.796875 -0.625 0.421875 -0.703125 C 0.578125 -0.84375 0.578125 -1 0.5 -1.09375 C 0.40625 -1.25 0.203125 -1.28125 0.0625 -1.1875 C -0.078125 -1.109375 -0.125 -0.9375 0 -0.75 C 0.28125 -0.328125 0.890625 -0.4375 1.46875 -0.8125 C 2.140625 -1.265625 2.28125 -1.953125 2.03125 -2.359375 C 1.796875 -2.703125 1.3125 -2.78125 0.78125 -2.59375 C 1.171875 -3.09375 1.09375 -3.484375 0.9375 -3.71875 C 0.71875 -4.0625 0.140625 -4.046875 -0.375 -3.703125 C -0.90625 -3.359375 -1.1875 -2.875 -0.9375 -2.5 C -0.8125 -2.3125 -0.625 -2.359375 -0.546875 -2.40625 C -0.421875 -2.484375 -0.359375 -2.65625 -0.46875 -2.8125 C -0.53125 -2.90625 -0.65625 -3 -0.8125 -2.921875 C -0.75 -3.21875 -0.390625 -3.46875 -0.296875 -3.53125 C 0 -3.734375 0.296875 -3.71875 0.484375 -3.421875 C 0.640625 -3.171875 0.734375 -2.703125 0.328125 -2.390625 C 0.203125 -2.3125 0.1875 -2.3125 0.09375 -2.21875 C 0.046875 -2.1875 0 -2.15625 0.046875 -2.09375 C 0.078125 -2.03125 0.109375 -2.046875 0.1875 -2.109375 Z M 0.46875 -2.28125 "/>
</symbol>
<symbol overflow="visible" id="glyph2-2">
<path style="stroke:none;" d="M 1.9375 -2.40625 L 1.75 -2.296875 C 1.8125 -2.21875 1.921875 -1.921875 1.875 -1.84375 C 1.875 -1.796875 1.515625 -1.5625 1.453125 -1.515625 L 0.640625 -1 C 0.796875 -1.375 0.9375 -1.796875 1.078125 -2.140625 C 1.28125 -2.640625 1.484375 -3.09375 1.203125 -3.546875 C 0.859375 -4.078125 0.15625 -4.046875 -0.4375 -3.671875 C -1 -3.296875 -1.21875 -2.71875 -0.953125 -2.296875 C -0.8125 -2.078125 -0.609375 -2.15625 -0.546875 -2.203125 C -0.4375 -2.265625 -0.359375 -2.4375 -0.46875 -2.609375 C -0.5625 -2.75 -0.71875 -2.78125 -0.859375 -2.6875 C -0.859375 -2.96875 -0.6875 -3.234375 -0.421875 -3.421875 C -0.015625 -3.6875 0.484375 -3.671875 0.75 -3.265625 C 0.984375 -2.90625 0.90625 -2.46875 0.765625 -2 L 0.3125 -0.484375 C 0.28125 -0.40625 0.265625 -0.40625 0.296875 -0.375 L 0.375 -0.25 L 2.328125 -1.5 Z M 1.9375 -2.40625 "/>
</symbol>
<symbol overflow="visible" id="glyph3-0">
<path style="stroke:none;" d=""/>
</symbol>
<symbol overflow="visible" id="glyph3-1">
<path style="stroke:none;" d="M 2.28125 -0.5 C 2.671875 -0.25 2.75 0.171875 2.484375 0.578125 C 2.21875 1.015625 1.796875 1.0625 1.4375 0.828125 C 1.390625 0.796875 0.890625 0.46875 0.828125 0.109375 C 1.015625 0.1875 1.140625 0.09375 1.21875 0 C 1.3125 -0.15625 1.265625 -0.34375 1.125 -0.4375 C 0.984375 -0.515625 0.8125 -0.5 0.6875 -0.3125 C 0.40625 0.109375 0.765625 0.625 1.34375 1 C 2.015625 1.453125 2.71875 1.296875 2.96875 0.890625 C 3.203125 0.546875 3.09375 0.0625 2.6875 -0.34375 C 3.296875 -0.1875 3.625 -0.421875 3.78125 -0.65625 C 4 -1 3.734375 -1.515625 3.21875 -1.859375 C 2.6875 -2.203125 2.15625 -2.25 1.90625 -1.875 C 1.78125 -1.6875 1.90625 -1.515625 1.984375 -1.46875 C 2.109375 -1.390625 2.265625 -1.40625 2.375 -1.5625 C 2.4375 -1.65625 2.46875 -1.8125 2.34375 -1.921875 C 2.625 -2 3.015625 -1.78125 3.109375 -1.71875 C 3.40625 -1.515625 3.515625 -1.25 3.328125 -0.953125 C 3.171875 -0.703125 2.765625 -0.421875 2.328125 -0.671875 C 2.203125 -0.75 2.1875 -0.75 2.0625 -0.8125 C 2.015625 -0.84375 1.96875 -0.875 1.921875 -0.8125 C 1.890625 -0.75 1.921875 -0.734375 2 -0.671875 Z M 2.28125 -0.5 "/>
</symbol>
<symbol overflow="visible" id="glyph3-2">
<path style="stroke:none;" d="M 3 0.78125 L 2.8125 0.671875 C 2.75 0.75 2.546875 0.984375 2.4375 0.96875 C 2.40625 0.984375 2.046875 0.75 1.984375 0.703125 L 1.171875 0.1875 C 1.578125 0.15625 2.03125 0.109375 2.390625 0.109375 C 2.9375 0.109375 3.453125 0.09375 3.734375 -0.359375 C 4.078125 -0.890625 3.75 -1.515625 3.15625 -1.890625 C 2.59375 -2.265625 1.96875 -2.21875 1.703125 -1.796875 C 1.5625 -1.578125 1.734375 -1.4375 1.796875 -1.390625 C 1.90625 -1.328125 2.078125 -1.3125 2.1875 -1.484375 C 2.28125 -1.625 2.25 -1.78125 2.109375 -1.875 C 2.359375 -2 2.6875 -1.953125 2.953125 -1.765625 C 3.359375 -1.5 3.546875 -1.046875 3.28125 -0.640625 C 3.046875 -0.28125 2.625 -0.1875 2.140625 -0.125 L 0.5625 0.078125 C 0.5 0.09375 0.484375 0.09375 0.453125 0.125 L 0.375 0.25 L 2.328125 1.5 Z M 3 0.78125 "/>
</symbol>
<symbol overflow="visible" id="glyph4-0">
<path style="stroke:none;" d=""/>
</symbol>
<symbol overflow="visible" id="glyph4-1">
<path style="stroke:none;" d="M 2.75 0.984375 C 2.6875 1.234375 2.6875 1.46875 2.6875 1.515625 C 2.6875 1.859375 2.78125 2.109375 2.84375 2.234375 C 2.90625 2.359375 3.125 2.703125 3.234375 2.703125 C 3.3125 2.703125 3.3125 2.640625 3.3125 2.625 C 3.3125 2.609375 3.3125 2.609375 3.296875 2.546875 C 3.234375 2.359375 3.15625 2.046875 3.15625 1.71875 C 3.15625 1.4375 3.203125 1.171875 3.296875 0.90625 C 3.3125 0.84375 3.3125 0.84375 3.3125 0.828125 C 3.3125 0.75 3.265625 0.75 3.1875 0.75 L 1.6875 0.75 C 1.59375 0.75 1.53125 0.75 1.53125 0.859375 C 1.53125 0.90625 1.546875 0.90625 1.59375 0.953125 C 1.8125 1.140625 1.921875 1.40625 1.921875 1.75 C 1.921875 2.03125 1.765625 2.203125 1.65625 2.265625 C 1.484375 2.375 1.265625 2.40625 1.015625 2.40625 C 0.8125 2.40625 0.53125 2.390625 0.34375 2.1875 C 0.109375 1.96875 0.09375 1.6875 0.09375 1.578125 C 0.09375 1.25 0.234375 0.890625 0.53125 0.734375 C 0.546875 0.9375 0.6875 1.015625 0.8125 1.015625 C 0.96875 1.015625 1.09375 0.890625 1.09375 0.734375 C 1.09375 0.625 1.015625 0.453125 0.796875 0.453125 C 0.296875 0.453125 -0.109375 0.9375 -0.109375 1.578125 C -0.109375 2.328125 0.390625 2.9375 1 2.9375 C 1.5625 2.9375 2.09375 2.453125 2.09375 1.765625 C 2.09375 1.453125 2.015625 1.1875 1.84375 0.984375 Z M 2.75 0.984375 "/>
</symbol>
<symbol overflow="visible" id="glyph4-2">
<path style="stroke:none;" d="M 3.171875 1.984375 C 3.3125 1.984375 3.3125 1.96875 3.3125 1.796875 C 3 1.453125 3 0.890625 3 0.796875 L 3 0.71875 L 2.78125 0.71875 L 2.78125 0.796875 C 2.78125 0.90625 2.796875 1.234375 2.921875 1.53125 L 0.421875 1.53125 C 0.28125 1.53125 0.21875 1.53125 0.21875 1 L 0.21875 0.75 L 0 0.75 C 0.015625 1.015625 0.015625 1.46875 0.015625 1.75 C 0.015625 2.046875 0.015625 2.484375 0 2.765625 L 0.21875 2.765625 L 0.21875 2.515625 C 0.21875 1.984375 0.28125 1.984375 0.421875 1.984375 Z M 3.171875 1.984375 "/>
</symbol>
<symbol overflow="visible" id="glyph5-0">
<path style="stroke:none;" d=""/>
</symbol>
<symbol overflow="visible" id="glyph5-1">
<path style="stroke:none;" d="M -1.109375 -4.390625 C -1.109375 -4.46875 -1.109375 -4.59375 -1.25 -4.59375 C -1.390625 -4.59375 -1.390625 -4.46875 -1.390625 -4.390625 L -1.390625 -1.015625 C -1.390625 -0.9375 -1.390625 -0.796875 -1.25 -0.796875 C -1.109375 -0.796875 -1.109375 -0.9375 -1.109375 -1.015625 Z M -1.109375 -4.390625 "/>
</symbol>
<symbol overflow="visible" id="glyph6-0">
<path style="stroke:none;" d=""/>
</symbol>
<symbol overflow="visible" id="glyph6-1">
<path style="stroke:none;" d="M -1.65625 -1.640625 C -1.65625 -2.109375 -1.359375 -2.40625 -0.875 -2.40625 C -0.359375 -2.40625 -0.09375 -2.09375 -0.09375 -1.65625 C -0.09375 -1.59375 -0.09375 -1 -0.359375 -0.75 C -0.390625 -0.953125 -0.53125 -1.015625 -0.65625 -1.015625 C -0.84375 -1.015625 -0.96875 -0.875 -0.96875 -0.703125 C -0.96875 -0.546875 -0.859375 -0.40625 -0.640625 -0.40625 C -0.125 -0.40625 0.109375 -0.984375 0.109375 -1.671875 C 0.109375 -2.484375 -0.390625 -2.984375 -0.875 -2.984375 C -1.28125 -2.984375 -1.625 -2.625 -1.75 -2.0625 C -1.953125 -2.65625 -2.328125 -2.8125 -2.609375 -2.8125 C -3.015625 -2.8125 -3.3125 -2.3125 -3.3125 -1.6875 C -3.3125 -1.0625 -3.0625 -0.578125 -2.609375 -0.578125 C -2.375 -0.578125 -2.3125 -0.765625 -2.3125 -0.859375 C -2.3125 -1 -2.421875 -1.140625 -2.609375 -1.140625 C -2.71875 -1.140625 -2.859375 -1.078125 -2.890625 -0.90625 C -3.109375 -1.109375 -3.125 -1.5625 -3.125 -1.671875 C -3.125 -2.03125 -2.953125 -2.28125 -2.609375 -2.28125 C -2.3125 -2.28125 -1.859375 -2.09375 -1.828125 -1.578125 C -1.828125 -1.4375 -1.828125 -1.421875 -1.8125 -1.28125 C -1.8125 -1.234375 -1.8125 -1.171875 -1.734375 -1.171875 C -1.65625 -1.171875 -1.65625 -1.21875 -1.65625 -1.3125 Z M -1.65625 -1.640625 "/>
</symbol>
<symbol overflow="visible" id="glyph6-2">
<path style="stroke:none;" d="M -3.171875 -1.984375 C -3.3125 -1.984375 -3.3125 -1.96875 -3.3125 -1.796875 C -3 -1.453125 -3 -0.890625 -3 -0.796875 L -3 -0.71875 L -2.78125 -0.71875 L -2.78125 -0.796875 C -2.78125 -0.90625 -2.796875 -1.234375 -2.921875 -1.53125 L -0.421875 -1.53125 C -0.28125 -1.53125 -0.21875 -1.53125 -0.21875 -1 L -0.21875 -0.75 L 0 -0.75 C -0.015625 -1.015625 -0.015625 -1.46875 -0.015625 -1.75 C -0.015625 -2.046875 -0.015625 -2.484375 0 -2.765625 L -0.21875 -2.765625 L -0.21875 -2.515625 C -0.21875 -1.984375 -0.28125 -1.984375 -0.421875 -1.984375 Z M -3.171875 -1.984375 "/>
</symbol>
<symbol overflow="visible" id="glyph7-0">
<path style="stroke:none;" d=""/>
</symbol>
<symbol overflow="visible" id="glyph7-1">
<path style="stroke:none;" d="M 4.390625 -1.109375 C 4.46875 -1.109375 4.59375 -1.109375 4.59375 -1.25 C 4.59375 -1.390625 4.46875 -1.390625 4.390625 -1.390625 L 1.015625 -1.390625 C 0.9375 -1.390625 0.796875 -1.390625 0.796875 -1.25 C 0.796875 -1.109375 0.9375 -1.109375 1.015625 -1.109375 Z M 4.390625 -1.109375 "/>
</symbol>
<symbol overflow="visible" id="glyph8-0">
<path style="stroke:none;" d=""/>
</symbol>
<symbol overflow="visible" id="glyph8-1">
<path style="stroke:none;" d="M 1.984375 -3.171875 C 1.984375 -3.3125 1.96875 -3.3125 1.796875 -3.3125 C 1.453125 -3 0.890625 -3 0.796875 -3 L 0.71875 -3 L 0.71875 -2.78125 L 0.796875 -2.78125 C 0.90625 -2.78125 1.234375 -2.796875 1.53125 -2.921875 L 1.53125 -0.421875 C 1.53125 -0.28125 1.53125 -0.21875 1 -0.21875 L 0.75 -0.21875 L 0.75 0 C 1.015625 -0.015625 1.46875 -0.015625 1.75 -0.015625 C 2.046875 -0.015625 2.484375 -0.015625 2.765625 0 L 2.765625 -0.21875 L 2.515625 -0.21875 C 1.984375 -0.21875 1.984375 -0.28125 1.984375 -0.421875 Z M 1.984375 -3.171875 "/>
</symbol>
<symbol overflow="visible" id="glyph9-0">
<path style="stroke:none;" d=""/>
</symbol>
<symbol overflow="visible" id="glyph9-1">
<path style="stroke:none;" d="M 3.71875 2.59375 C 3.765625 2.65625 3.84375 2.75 3.9375 2.65625 C 4.046875 2.5625 3.96875 2.46875 3.921875 2.40625 L 1.71875 -0.140625 C 1.65625 -0.203125 1.5625 -0.296875 1.453125 -0.203125 C 1.359375 -0.109375 1.453125 -0.015625 1.515625 0.046875 Z M 3.71875 2.59375 "/>
</symbol>
<symbol overflow="visible" id="glyph10-0">
<path style="stroke:none;" d=""/>
</symbol>
<symbol overflow="visible" id="glyph10-1">
<path style="stroke:none;" d="M 3.6875 -0.578125 C 3.796875 -0.671875 3.78125 -0.6875 3.671875 -0.8125 C 3.21875 -0.875 2.84375 -1.296875 2.78125 -1.359375 L 2.734375 -1.421875 L 2.578125 -1.28125 L 2.625 -1.21875 C 2.703125 -1.140625 2.921875 -0.890625 3.203125 -0.75 L 1.3125 0.875 C 1.21875 0.96875 1.171875 1.015625 0.828125 0.609375 L 0.65625 0.421875 L 0.484375 0.5625 C 0.6875 0.75 0.984375 1.09375 1.15625 1.3125 C 1.359375 1.53125 1.640625 1.859375 1.8125 2.09375 L 1.984375 1.953125 L 1.8125 1.765625 C 1.46875 1.359375 1.515625 1.3125 1.609375 1.21875 Z M 3.6875 -0.578125 "/>
</symbol>
<symbol overflow="visible" id="glyph11-0">
<path style="stroke:none;" d=""/>
</symbol>
<symbol overflow="visible" id="glyph11-1">
<path style="stroke:none;" d="M 2.03125 -4.03125 C 2.078125 -4.09375 2.15625 -4.1875 2.0625 -4.28125 C 1.953125 -4.375 1.875 -4.28125 1.828125 -4.21875 L -0.375 -1.671875 C -0.4375 -1.609375 -0.53125 -1.515625 -0.421875 -1.421875 C -0.328125 -1.328125 -0.234375 -1.421875 -0.171875 -1.484375 Z M 2.03125 -4.03125 "/>
</symbol>
<symbol overflow="visible" id="glyph12-0">
<path style="stroke:none;" d=""/>
</symbol>
<symbol overflow="visible" id="glyph12-1">
<path style="stroke:none;" d="M 1.1875 -2.859375 L 1.046875 -2.703125 C 1.125 -2.640625 1.3125 -2.390625 1.296875 -2.296875 C 1.3125 -2.234375 1.03125 -1.921875 0.984375 -1.859375 L 0.34375 -1.125 C 0.375 -1.53125 0.40625 -1.984375 0.4375 -2.34375 C 0.5 -2.890625 0.5625 -3.390625 0.15625 -3.75 C -0.328125 -4.15625 -0.96875 -3.9375 -1.4375 -3.40625 C -1.875 -2.890625 -1.921875 -2.265625 -1.546875 -1.9375 C -1.359375 -1.78125 -1.1875 -1.921875 -1.140625 -1.96875 C -1.046875 -2.0625 -1.015625 -2.25 -1.171875 -2.375 C -1.296875 -2.484375 -1.46875 -2.46875 -1.578125 -2.34375 C -1.65625 -2.609375 -1.5625 -2.921875 -1.359375 -3.171875 C -1.03125 -3.546875 -0.546875 -3.65625 -0.1875 -3.34375 C 0.140625 -3.0625 0.1875 -2.625 0.1875 -2.140625 L 0.171875 -0.546875 C 0.171875 -0.484375 0.15625 -0.46875 0.171875 -0.453125 L 0.296875 -0.34375 L 1.8125 -2.09375 Z M 1.1875 -2.859375 "/>
</symbol>
</g>
</defs>
<g id="surface1">
<path style="fill-rule:nonzero;fill:rgb(50%,50%,50%);fill-opacity:0.3;stroke-width:0.3985;stroke-linecap:butt;stroke-linejoin:miter;stroke:rgb(0%,0%,0%);stroke-opacity:1;stroke-miterlimit:10;" d="M 9.964377 0.000581863 C 9.964377 5.504048 5.503529 9.964628 -0.000267425 9.964628 C -5.504064 9.964628 -9.961006 5.504048 -9.961006 0.000581863 C -9.961006 -5.502884 -5.504064 -9.963465 -0.000267425 -9.963465 C 5.503529 -9.963465 9.964377 -5.502884 9.964377 0.000581863 Z M 9.964377 0.000581863 " transform="matrix(1.00002,0,0,-1.00008,12.058861,42.973238)"/>
<g style="fill:rgb(0%,0%,0%);fill-opacity:1;">
  <use xlink:href="#glyph0-1" x="7.744775" y="44.405353"/>
</g>
<g style="fill:rgb(0%,0%,0%);fill-opacity:1;">
  <use xlink:href="#glyph1-1" x="12.220864" y="45.401432"/>
</g>
<path style="fill-rule:nonzero;fill:rgb(50%,50%,50%);fill-opacity:0.3;stroke-width:0.3985;stroke-linecap:butt;stroke-linejoin:miter;stroke:rgb(0%,0%,0%);stroke-opacity:1;stroke-miterlimit:10;" d="M 58.350128 -31.37972 C 58.350128 -25.876254 53.88928 -21.415674 48.385484 -21.415674 C 42.885594 -21.415674 38.424745 -25.876254 38.424745 -31.37972 C 38.424745 -36.883186 42.885594 -41.343767 48.385484 -41.343767 C 53.88928 -41.343767 58.350128 -36.883186 58.350128 -31.37972 Z M 58.350128 -31.37972 " transform="matrix(1.00002,0,0,-1.00008,12.058861,42.973238)"/>
<g style="fill:rgb(0%,0%,0%);fill-opacity:1;">
  <use xlink:href="#glyph0-1" x="56.133743" y="75.787863"/>
</g>
<g style="fill:rgb(0%,0%,0%);fill-opacity:1;">
  <use xlink:href="#glyph1-2" x="60.609832" y="76.783943"/>
</g>
<path style="fill-rule:nonzero;fill:rgb(50%,50%,50%);fill-opacity:0.3;stroke-width:0.3985;stroke-linecap:butt;stroke-linejoin:miter;stroke:rgb(0%,0%,0%);stroke-opacity:1;stroke-miterlimit:10;" d="M 112.688885 -31.37972 C 112.688885 -25.876254 108.228037 -21.415674 102.728147 -21.415674 C 97.224351 -21.415674 92.763502 -25.876254 92.763502 -31.37972 C 92.763502 -36.883186 97.224351 -41.343767 102.728147 -41.343767 C 108.228037 -41.343767 112.688885 -36.883186 112.688885 -31.37972 Z M 112.688885 -31.37972 " transform="matrix(1.00002,0,0,-1.00008,12.058861,42.973238)"/>
<g style="fill:rgb(0%,0%,0%);fill-opacity:1;">
  <use xlink:href="#glyph0-1" x="110.474829" y="75.787863"/>
</g>
<g style="fill:rgb(0%,0%,0%);fill-opacity:1;">
  <use xlink:href="#glyph1-3" x="114.950919" y="76.783943"/>
</g>
<path style="fill-rule:nonzero;fill:rgb(50%,50%,50%);fill-opacity:0.3;stroke-width:0.3985;stroke-linecap:butt;stroke-linejoin:miter;stroke:rgb(0%,0%,0%);stroke-opacity:1;stroke-miterlimit:10;" d="M 58.350128 31.380884 C 58.350128 36.880444 53.88928 41.341025 48.385484 41.341025 C 42.885594 41.341025 38.424745 36.880444 38.424745 31.380884 C 38.424745 25.877418 42.885594 21.416837 48.385484 21.416837 C 53.88928 21.416837 58.350128 25.877418 58.350128 31.380884 Z M 58.350128 31.380884 " transform="matrix(1.00002,0,0,-1.00008,12.058861,42.973238)"/>
<g style="fill:rgb(0%,0%,0%);fill-opacity:1;">
  <use xlink:href="#glyph0-1" x="56.133743" y="13.023842"/>
</g>
<g style="fill:rgb(0%,0%,0%);fill-opacity:1;">
  <use xlink:href="#glyph1-4" x="60.609832" y="14.019922"/>
</g>
<path style="fill-rule:nonzero;fill:rgb(50%,50%,50%);fill-opacity:0.3;stroke-width:0.3985;stroke-linecap:butt;stroke-linejoin:miter;stroke:rgb(0%,0%,0%);stroke-opacity:1;stroke-miterlimit:10;" d="M 112.688885 31.380884 C 112.688885 36.880444 108.228037 41.341025 102.728147 41.341025 C 97.224351 41.341025 92.763502 36.880444 92.763502 31.380884 C 92.763502 25.877418 97.224351 21.416837 102.728147 21.416837 C 108.228037 21.416837 112.688885 25.877418 112.688885 31.380884 Z M 112.688885 31.380884 " transform="matrix(1.00002,0,0,-1.00008,12.058861,42.973238)"/>
<g style="fill:rgb(0%,0%,0%);fill-opacity:1;">
  <use xlink:href="#glyph0-1" x="110.474829" y="13.023842"/>
</g>
<g style="fill:rgb(0%,0%,0%);fill-opacity:1;">
  <use xlink:href="#glyph1-5" x="114.950919" y="14.019922"/>
</g>
<path style="fill-rule:nonzero;fill:rgb(50%,50%,50%);fill-opacity:0.3;stroke-width:0.3985;stroke-linecap:butt;stroke-linejoin:miter;stroke:rgb(0%,0%,0%);stroke-opacity:1;stroke-miterlimit:10;" d="M 161.078542 0.000581863 C 161.078542 5.504048 156.617694 9.964628 151.113898 9.964628 C 145.614008 9.964628 141.15316 5.504048 141.15316 0.000581863 C 141.15316 -5.502884 145.614008 -9.963465 151.113898 -9.963465 C 156.617694 -9.963465 161.078542 -5.502884 161.078542 0.000581863 Z M 161.078542 0.000581863 " transform="matrix(1.00002,0,0,-1.00008,12.058861,42.973238)"/>
<g style="fill:rgb(0%,0%,0%);fill-opacity:1;">
  <use xlink:href="#glyph0-1" x="158.862797" y="44.405353"/>
</g>
<g style="fill:rgb(0%,0%,0%);fill-opacity:1;">
  <use xlink:href="#glyph1-6" x="163.338887" y="45.401432"/>
</g>
<path style="fill:none;stroke-width:0.3985;stroke-linecap:butt;stroke-linejoin:miter;stroke:rgb(0%,0%,0%);stroke-opacity:1;stroke-miterlimit:10;" d="M 8.526906 5.527483 L 39.475506 25.600096 " transform="matrix(1.00002,0,0,-1.00008,12.058861,42.973238)"/>
<path style="fill:none;stroke-width:0.31879;stroke-linecap:round;stroke-linejoin:round;stroke:rgb(0%,0%,0%);stroke-opacity:1;stroke-miterlimit:10;" d="M -1.194245 1.592713 C -1.095682 0.998063 -0.000829142 0.101811 0.300593 -0.000556163 C -0.000450912 -0.0986221 -1.094204 -0.995459 -1.194927 -1.595878 " transform="matrix(0.839007,-0.544144,-0.544111,-0.839057,51.536561,17.37013)"/>
<g style="fill:rgb(0%,0%,0%);fill-opacity:1;">
  <use xlink:href="#glyph2-1" x="32.915134" y="25.250842"/>
</g>
<path style="fill:none;stroke-width:0.3985;stroke-linecap:butt;stroke-linejoin:miter;stroke:rgb(0%,0%,0%);stroke-opacity:1;stroke-miterlimit:10;" d="M 8.526906 -5.530226 L 39.475506 -25.602839 " transform="matrix(1.00002,0,0,-1.00008,12.058861,42.973238)"/>
<path style="fill:none;stroke-width:0.31879;stroke-linecap:round;stroke-linejoin:round;stroke:rgb(0%,0%,0%);stroke-opacity:1;stroke-miterlimit:10;" d="M -1.193435 1.593578 C -1.094837 0.996436 -0.00108413 0.0995985 0.299959 0.00153257 C -0.00146236 -0.100834 -1.096315 -0.997087 -1.194878 -1.591736 " transform="matrix(0.839007,0.544144,0.544111,-0.839057,51.536561,68.576346)"/>
<g style="fill:rgb(0%,0%,0%);fill-opacity:1;">
  <use xlink:href="#glyph3-1" x="31.168528" y="63.388696"/>
</g>
<path style="fill:none;stroke-width:0.3985;stroke-linecap:butt;stroke-linejoin:miter;stroke:rgb(0%,0%,0%);stroke-opacity:1;stroke-miterlimit:10;" d="M 50.151073 21.373872 L 50.151073 -20.911808 " transform="matrix(1.00002,0,0,-1.00008,12.058861,42.973238)"/>
<path style="fill:none;stroke-width:0.31879;stroke-linecap:round;stroke-linejoin:round;stroke:rgb(0%,0%,0%);stroke-opacity:1;stroke-miterlimit:10;" d="M -1.197089 1.592991 C -1.095535 0.995347 -0.00187235 0.100834 0.298885 -0.000726701 C -0.00187235 -0.098381 -1.095535 -0.996801 -1.197089 -1.594445 " transform="matrix(0,1.00008,1.00002,0,62.211664,63.888591)"/>
<g style="fill:rgb(0%,0%,0%);fill-opacity:1;">
  <use xlink:href="#glyph4-1" x="65.730935" y="41.278103"/>
</g>
<path style="fill:none;stroke-width:0.3985;stroke-linecap:butt;stroke-linejoin:miter;stroke:rgb(0%,0%,0%);stroke-opacity:1;stroke-miterlimit:10;" d="M 46.6238 -21.372708 L 46.6238 20.912971 " transform="matrix(1.00002,0,0,-1.00008,12.058861,42.973238)"/>
<path style="fill:none;stroke-width:0.31879;stroke-linecap:round;stroke-linejoin:round;stroke:rgb(0%,0%,0%);stroke-opacity:1;stroke-miterlimit:10;" d="M -1.195926 1.592878 C -1.094371 0.995234 -0.000708628 0.10072 0.300049 -0.000840094 C -0.000708628 -0.0984944 -1.094371 -0.996914 -1.195926 -1.594558 " transform="matrix(0,-1.00008,-1.00002,0,58.682754,22.057885)"/>
<g style="fill:rgb(0%,0%,0%);fill-opacity:1;">
  <use xlink:href="#glyph5-1" x="54.331707" y="47.36659"/>
</g>
<g style="fill:rgb(0%,0%,0%);fill-opacity:1;">
  <use xlink:href="#glyph6-1" x="54.331707" y="41.970158"/>
</g>
<path style="fill:none;stroke-width:0.3985;stroke-linecap:butt;stroke-linejoin:miter;stroke:rgb(0%,0%,0%);stroke-opacity:1;stroke-miterlimit:10;" d="M 58.549343 31.380884 L 92.107265 31.380884 " transform="matrix(1.00002,0,0,-1.00008,12.058861,42.973238)"/>
<path style="fill:none;stroke-width:0.31879;stroke-linecap:round;stroke-linejoin:round;stroke:rgb(0%,0%,0%);stroke-opacity:1;stroke-miterlimit:10;" d="M -1.195233 1.594976 C -1.097579 0.997368 0.0000554247 0.0990024 0.296924 0.00135394 C 0.0000554247 -0.1002 -1.097579 -0.99466 -1.195233 -1.592269 " transform="matrix(1.00002,0,0,-1.00008,104.167913,11.591198)"/>
<g style="fill:rgb(0%,0%,0%);fill-opacity:1;">
  <use xlink:href="#glyph7-1" x="83.224284" y="7.24038"/>
</g>
<g style="fill:rgb(0%,0%,0%);fill-opacity:1;">
  <use xlink:href="#glyph8-1" x="88.620392" y="7.24038"/>
</g>
<path style="fill:none;stroke-width:0.3985;stroke-linecap:butt;stroke-linejoin:miter;stroke:rgb(0%,0%,0%);stroke-opacity:1;stroke-miterlimit:10;" d="M 55.037694 23.697905 L 95.775161 -23.349113 " transform="matrix(1.00002,0,0,-1.00008,12.058861,42.973238)"/>
<path style="fill:none;stroke-width:0.31879;stroke-linecap:round;stroke-linejoin:round;stroke:rgb(0%,0%,0%);stroke-opacity:1;stroke-miterlimit:10;" d="M -1.196233 1.592957 C -1.09797 0.99634 -0.000481288 0.097758 0.297302 0.000102598 C -0.000197831 -0.0988346 -1.096108 -0.994578 -1.196993 -1.594443 " transform="matrix(0.654573,0.75604,0.755995,-0.654612,107.836567,66.326076)"/>
<g style="fill:rgb(0%,0%,0%);fill-opacity:1;">
  <use xlink:href="#glyph9-1" x="73.66674" y="20.214786"/>
</g>
<g style="fill:rgb(0%,0%,0%);fill-opacity:1;">
  <use xlink:href="#glyph10-1" x="77.198816" y="24.29438"/>
</g>
<path style="fill:none;stroke-width:0.3985;stroke-linecap:butt;stroke-linejoin:miter;stroke:rgb(0%,0%,0%);stroke-opacity:1;stroke-miterlimit:10;" d="M 58.549343 -31.37972 L 92.107265 -31.37972 " transform="matrix(1.00002,0,0,-1.00008,12.058861,42.973238)"/>
<path style="fill:none;stroke-width:0.31879;stroke-linecap:round;stroke-linejoin:round;stroke:rgb(0%,0%,0%);stroke-opacity:1;stroke-miterlimit:10;" d="M -1.195233 1.593432 C -1.097579 0.995824 0.0000554247 0.101364 0.296924 -0.000190212 C 0.0000554247 -0.0978387 -1.097579 -0.996204 -1.195233 -1.593813 " transform="matrix(1.00002,0,0,-1.00008,104.167913,74.355279)"/>
<g style="fill:rgb(0%,0%,0%);fill-opacity:1;">
  <use xlink:href="#glyph8-1" x="85.922338" y="81.086287"/>
</g>
<path style="fill:none;stroke-width:0.3985;stroke-linecap:butt;stroke-linejoin:miter;stroke:rgb(0%,0%,0%);stroke-opacity:1;stroke-miterlimit:10;" d="M 111.251414 25.850076 L 142.20392 5.777463 " transform="matrix(1.00002,0,0,-1.00008,12.058861,42.973238)"/>
<path style="fill:none;stroke-width:0.31879;stroke-linecap:round;stroke-linejoin:round;stroke:rgb(0%,0%,0%);stroke-opacity:1;stroke-miterlimit:10;" d="M -1.196396 1.592589 C -1.094521 0.997573 -0.00076782 0.100736 0.296998 0.000544407 C -0.00114605 -0.099697 -1.095999 -0.99595 -1.195714 -1.596002 " transform="matrix(0.839007,0.544144,0.544111,-0.839057,154.266145,37.194316)"/>
<g style="fill:rgb(0%,0%,0%);fill-opacity:1;">
  <use xlink:href="#glyph3-2" x="139.475694" y="23.406498"/>
</g>
<path style="fill:none;stroke-width:0.3985;stroke-linecap:butt;stroke-linejoin:miter;stroke:rgb(0%,0%,0%);stroke-opacity:1;stroke-miterlimit:10;" d="M 96.075936 23.697905 L 55.33847 -23.349113 " transform="matrix(1.00002,0,0,-1.00008,12.058861,42.973238)"/>
<path style="fill:none;stroke-width:0.31879;stroke-linecap:round;stroke-linejoin:round;stroke:rgb(0%,0%,0%);stroke-opacity:1;stroke-miterlimit:10;" d="M -1.196168 1.593491 C -1.09784 0.996579 0.000626712 0.0978823 0.298126 -0.0010549 C 0.000343254 -0.0987103 -1.097145 -0.997293 -1.195408 -1.593909 " transform="matrix(-0.654573,0.75604,0.755995,0.654612,67.399068,66.326076)"/>
<g style="fill:rgb(0%,0%,0%);fill-opacity:1;">
  <use xlink:href="#glyph11-1" x="95.817288" y="26.856831"/>
</g>
<g style="fill:rgb(0%,0%,0%);fill-opacity:1;">
  <use xlink:href="#glyph12-1" x="99.349364" y="22.777237"/>
</g>
<path style="fill:none;stroke-width:0.3985;stroke-linecap:butt;stroke-linejoin:miter;stroke:rgb(0%,0%,0%);stroke-opacity:1;stroke-miterlimit:10;" d="M 111.251414 -25.848913 L 142.20392 -5.780206 " transform="matrix(1.00002,0,0,-1.00008,12.058861,42.973238)"/>
<path style="fill:none;stroke-width:0.31879;stroke-linecap:round;stroke-linejoin:round;stroke:rgb(0%,0%,0%);stroke-opacity:1;stroke-miterlimit:10;" d="M -1.197206 1.593701 C -1.095366 0.996926 -0.000512833 0.100673 0.297631 0.000431998 C -0.000134604 -0.0997594 -1.093888 -0.996596 -1.195763 -1.591613 " transform="matrix(0.839007,-0.544144,-0.544111,-0.839057,154.266145,48.75216)"/>
<g style="fill:rgb(0%,0%,0%);fill-opacity:1;">
  <use xlink:href="#glyph2-2" x="141.222301" y="65.23304"/>
</g>
<path style="fill:none;stroke-width:0.3985;stroke-linecap:butt;stroke-linejoin:miter;stroke:rgb(0%,0%,0%);stroke-opacity:1;stroke-miterlimit:10;" d="M 104.493736 -21.372708 L 104.493736 20.912971 " transform="matrix(1.00002,0,0,-1.00008,12.058861,42.973238)"/>
<path style="fill:none;stroke-width:0.31879;stroke-linecap:round;stroke-linejoin:round;stroke:rgb(0%,0%,0%);stroke-opacity:1;stroke-miterlimit:10;" d="M -1.195926 1.595818 C -1.094371 0.998174 -0.000708628 0.099754 0.300049 -0.00180645 C -0.000708628 -0.0994607 -1.094371 -0.99788 -1.195926 -1.595525 " transform="matrix(0,-1.00008,-1.00002,0,116.552881,22.057885)"/>
<g style="fill:rgb(0%,0%,0%);fill-opacity:1;">
  <use xlink:href="#glyph6-2" x="113.032881" y="44.668374"/>
</g>
<path style="fill:none;stroke-width:0.3985;stroke-linecap:butt;stroke-linejoin:miter;stroke:rgb(0%,0%,0%);stroke-opacity:1;stroke-miterlimit:10;" d="M 100.962557 21.373872 L 100.962557 -20.911808 " transform="matrix(1.00002,0,0,-1.00008,12.058861,42.973238)"/>
<path style="fill:none;stroke-width:0.31879;stroke-linecap:round;stroke-linejoin:round;stroke:rgb(0%,0%,0%);stroke-opacity:1;stroke-miterlimit:10;" d="M -1.197089 1.593185 C -1.095535 0.995541 -0.00187235 0.101028 0.298885 -0.000532931 C -0.00187235 -0.0981872 -1.095535 -0.996607 -1.197089 -1.594251 " transform="matrix(0,1.00008,1.00002,0,113.02397,63.888591)"/>
<g style="fill:rgb(0%,0%,0%);fill-opacity:1;">
  <use xlink:href="#glyph4-2" x="116.542951" y="41.278103"/>
</g>
</g>
</svg>
