<svg xmlns="http://www.w3.org/2000/svg" xmlns:xlink="http://www.w3.org/1999/xlink" xmlns:inkscape="http://www.inkscape.org/namespaces/inkscape" version="1.1" width="132" height="98" viewBox="0 0 132 98">
<defs>
<path id="font_1_1" d="M.48098756 .3693695C.48098756 .43937684 .44400025 .44337464 .43499757 .44337464 .4099884 .44337464 .38398744 .41638185 .38398744 .39337159 .38398744 .3783722 .3929901 .37036134 .3999939 .36436463 .4269867 .33935548 .43598939 .30734254 .43598939 .28134156 .43598939 .23731995 .37298585 .014251709 .25698854 .014251709 .18199158 .014251709 .18199158 .08427429 .18199158 .10227966 .18199158 .14529419 .19599915 .19630432 .23098755 .28733827 .24699402 .3293457 .25099183 .33935548 .25099183 .35835267 .25099183 .40737916 .21398926 .4423828 .16499329 .4423828 .068984989 .4423828 .0289917 .30033876 .0289917 .28833009 .0289917 .2793274 .035995485 .27633668 .042999269 .27633668 .053985597 .27633668 .054992677 .28233338 .05899048 .29533387 .07998657 .36836244 .11999512 .41737367 .1619873 .41737367 .18199158 .41737367 .18598938 .40437318 .18598938 .3843689 .18598938 .36735536 .18199158 .34934999 .17298889 .3253479 .13699341 .22932434 .11299133 .16529846 .11299133 .11528015 .11299133 .021255494 .18399048-.0107421879 .25299073-.0107421879 .42099-.0107421879 .48098756 .30534364 .48098756 .3693695Z"/>
<path id="font_2_2" d="M.5379944 .18702698H.5009918C.49899293 .17301941 .4889984 .10699463 .47399903 .09599304 .46699525 .08999634 .38598634 .08999634 .37199403 .08999634H.18499756L.31298829 .19403076C.34700013 .22103882 .43598939 .28504945 .46699525 .31506349 .49699403 .3450775 .5379944 .39608766 .5379944 .46710206 .5379944 .5920563 .4249878 .66503909 .29100038 .66503909 .1619873 .66503909 .07199097 .58006289 .07199097 .48609925 .07199097 .43510438 .114990238 .42910768 .12599182 .42910768 .15098572 .42910768 .17999268 .44709779 .17999268 .48310853 .17999268 .50509646 .16699219 .5371094 .12298584 .5371094 .1459961 .5880585 .20698548 .6260376 .27598573 .6260376 .3809967 .6260376 .43699647 .5480957 .43699647 .46710206 .43699647 .39608766 .3899994 .32305909 .31999208 .25904847L.08299255 .041992189C.07299805 .03199768 .07199097 .0309906 .07199097 0H.5069885L.5379944 .18702698Z"/>
<path id="font_2_1" d="M.35899354 .6349335C.35899354 .66503909 .35499574 .66503909 .32499696 .66503909 .25898744 .60058596 .15699768 .60058596 .12098694 .60058596V.5615845C.14698792 .5615845 .21299744 .5615845 .272995 .58958438V.08496094C.272995 .051986696 .272995 .038986207 .16999817 .038986207H.1269989V0C.18199158 .0039978029 .2599945 .0039978029 .31599427 .0039978029 .37199403 .0039978029 .44999696 .0039978029 .5049896 0V.038986207H.46199037C.35899354 .038986207 .35899354 .051986696 .35899354 .08496094V.6349335Z"/>
<path id="font_3_2" d="M.45700074 .37594605C.42799378 .36894227 .4169922 .34394837 .4169922 .32894898 .4169922 .3129425 .42900086 .2959442 .45199586 .2959442 .47200013 .2959442 .5009918 .30995179 .5009918 .35295106 .5009918 .4203949 .4249878 .44140626 .3600006 .44140626 .20698548 .44140626 .16999817 .33995057 .16999817 .2969513 .16999817 .21612549 .2619934 .2001648 .28799439 .19616699 .36299134 .18319702 .42099 .17222595 .42099 .1232605 .42099 .102264408 .4039917 .06626892 .36799623 .04624939 .32899476 .025222779 .28599549 .023223877 .25698854 .023223877 .22200012 .023223877 .1599884 .027236939 .1309967 .060272218 .1659851 .06626892 .18299866 .09326172 .18299866 .117263797 .18299866 .13825989 .16899109 .15527344 .14199829 .15527344 .115997318 .15527344 .083999637 .13426209 .083999637 .087265018 .083999637 .03224182 .13899231-.009765625 .2559967-.009765625 .44299317-.009765625 .48298646 .10626221 .48298646 .15226746 .48298646 .18519593 .46899415 .20814514 .44599916 .22810364 .4139862 .25604249 .3769989 .26202394 .32899476 .27000428 .27999879 .27897645 .23199463 .28697206 .23199463 .325943 .23199463 .32695008 .23199463 .40838624 .35899354 .40838624 .38398744 .40838624 .43399049 .4043274 .45700074 .37594605Z"/>
<path id="font_2_3" d="M.2939911 .33203126C.3789978 .33203126 .43598939 .274765 .43598939 .17237854 .43598939 .062408449 .36999513 .014511108 .29699708 .014511108 .269989 .014511108 .16699219 .020492554 .12199402 .07836914 .16099549 .0823822 .1769867 .10836792 .1769867 .13537598 .1769867 .16937256 .15299988 .19238281 .11999512 .19238281 .09298706 .19238281 .06298828 .17536927 .06298828 .13337708 .06298828 .034469606 .17298889-.021484375 .2999878-.021484375 .44799806-.021484375 .5469971 .07337952 .5469971 .17237854 .5469971 .24562073 .4909973 .3229828 .37199403 .35302735 .45098878 .37902833 .5149994 .44306947 .5149994 .5251007 .5149994 .60505679 .42099 .66503909 .30099488 .66503909 .18399048 .66503909 .09498596 .61105349 .09498596 .5290985 .09498596 .48609925 .12799073 .47409059 .147995 .47409059 .17399597 .47409059 .20098877 .49209596 .20098877 .5270996 .20098877 .5580902 .1789856 .5760956 .1519928 .5800934 .19898987 .6320343 .2899933 .6320343 .29899598 .6320343 .34999085 .6320343 .4139862 .60806277 .4139862 .5251007 .4139862 .47009278 .3829956 .37402345 .2829895 .36802674 .2649994 .36701966 .23799134 .36502076 .22898865 .36502076 .21899414 .36402894 .20799256 .36302186 .20799256 .34802247 .20799256 .33203126 .21899414 .33203126 .23599243 .33203126H.2939911Z"/>
<path id="font_3_1" d="M.6049957 .66430667C.60598757 .66830447 .60798647 .67430117 .60798647 .67930606 .60798647 .6953125 .58799746 .6943054 .57598879 .69329836L.46398927 .6843109C.44699098 .68330386 .43399049 .682312 .43399049 .65930178 .43399049 .64331057 .44699098 .64331057 .46199037 .64331057 .49198915 .64331057 .49899293 .64131167 .5119934 .63630679 .5109863 .62132266 .5109863 .61932376 .5079956 .60632327 .4869995 .5203552 .47099305 .45339967 .45098878 .38139344 .43699647 .4044037 .40299989 .44140626 .34098817 .44140626 .21299744 .44140626 .07499695 .3073578 .07499695 .16029358 .07499695 .052246095 .15098572-.009765625 .23599243-.009765625 .30299378-.009765625 .3600006 .036239625 .3849945 .06124878 .4039917-.0017700195 .47099305-.009765625 .49299623-.009765625 .5289917-.009765625 .5549927 .010223389 .57398989 .041229249 .598999 .08125305 .61299136 .13928223 .61299136 .14428711 .61299136 .14628601 .6119995 .15829468 .59399417 .15829468 .57899478 .15829468 .57699587 .1512909 .57299807 .13528443 .5569916 .07424927 .5359955 .023223877 .49699403 .023223877 .46299745 .023223877 .45999146 .059249879 .45999146 .07424927 .45999146 .087249759 .45999146 .09025574 .46499635 .10826111L.6049957 .66430667M.3889923 .13127136C.38398744 .11326599 .38398744 .11126709 .36999513 .09625244 .31498719 .034225465 .2639923 .023223877 .23899842 .023223877 .19898987 .023223877 .1599884 .050231935 .1599884 .121276859 .1599884 .16229248 .18099976 .2603302 .21299744 .3173523 .24299622 .37138368 .2939911 .4084015 .34199525 .4084015 .4169922 .4084015 .43598939 .32936097 .43598939 .32235719L.43299867 .3083496 .3889923 .13127136Z"/>
<path id="font_4_3" d="M.18598938 .32769776C.18699646 .37371827 .18798828 .4528656 .22399903 .51808169 .25299073 .5720825 .31799317 .628006 .41099549 .628006 .42999269 .628006 .47499085 .6260071 .5049896 .6020813 .4889984 .5980835 .46299745 .5830841 .46299745 .5490875 .46299745 .51708987 .4869995 .49609376 .5159912 .49609376 .5329895 .49609376 .56900027 .5050812 .56900027 .5520935 .56900027 .6060791 .5309906 .6660156 .4099884 .6660156 .23799134 .6660156 .07998657 .52508547 .07998657 .317688 .07998657 .078567508 .19699097-.022460938 .34298707-.022460938 .44198609-.022460938 .4889984 .014526367 .522995 .042541505 .58699038 .095565799 .59999087 .15460205 .59999087 .20463562 .59999087 .26565553 .5799866 .314682 .5279999 .36071778 .48399354 .40072633 .43798829 .42773438 .35099793 .42773438 .29299928 .42773438 .22799683 .39971925 .18598938 .32769776M.34298707 .01852417C.18899536 .01852417 .18899536 .18461609 .18899536 .2266388 .18899536 .30368043 .24398804 .39372254 .34899903 .39372254 .3999939 .39372254 .43199159 .38072206 .46299745 .34069825 .49299623 .30368043 .49398805 .2616577 .49398805 .20562744 .49398805 .14759827 .49398805 .109573367 .46199037 .06956482 .43399049 .0365448 .39898683 .01852417 .34298707 .01852417Z"/>
<path id="font_4_2" d="M.61698916 .1630249V.20703125H.49198915V.64675906C.49198915 .67074587 .4909973 .6767578 .46499635 .6767578 .44499208 .6767578 .44400025 .67575076 .43299867 .66174319L.06298828 .20703125V.1630249H.3959961V.085006717C.3959961 .054000856 .3959961 .04399109 .30899049 .04399109H.27398683V0C.32099916 .0019989014 .38598634 .0039978029 .44400025 .0039978029 .5019989 .0039978029 .56599429 .0019989014 .6139984 0V.04399109H.57899478C.49198915 .04399109 .49198915 .054000856 .49198915 .085006717V.1630249H.61698916M.4039917 .5688019V.20703125H.10998535L.4039917 .5688019Z"/>
<path id="font_4_1" d="M.397995 .63591006C.397995 .6660156 .394989 .6660156 .3619995 .6660156 .29100038 .6016083 .17999268 .6016083 .1599884 .6016083H.14299011V.5576172H.1599884C.18299866 .5576172 .24798584 .5606079 .30599977 .58561709V.08596802C.30599977 .054977418 .30599977 .04399109 .19999695 .04399109H.1499939V0C.20498657 .0039978029 .2939911 .0039978029 .35198976 .0039978029 .4099884 .0039978029 .49899293 .0039978029 .55400088 0V.04399109H.5039978C.397995 .04399109 .397995 .054977418 .397995 .08596802V.63591006Z"/>
</defs>
<path transform="matrix(1.00002,0,0,-1.00008,66.39894,49.09765)" d="M9.96277 0C9.96277 5.50235 5.50235 9.96277 0 9.96277-5.50235 9.96277-9.96277 5.50235-9.96277 0-9.96277-5.50235-5.50235-9.96277 0-9.96277 5.50235-9.96277 9.96277-5.50235 9.96277 0ZM0 0" fill="#7f807f" fill-opacity=".3"/>
<path transform="matrix(1.00002,0,0,-1.00008,66.39894,49.09765)" stroke-width=".3985" stroke-linecap="butt" stroke-miterlimit="10" stroke-linejoin="miter" fill="none" stroke="#000000" d="M9.96277 0C9.96277 5.50235 5.50235 9.96277 0 9.96277-5.50235 9.96277-9.96277 5.50235-9.96277 0-9.96277-5.50235-5.50235-9.96277 0-9.96277 5.50235-9.96277 9.96277-5.50235 9.96277 0ZM0 0"/>
<use data-text="v" xlink:href="#font_1_1" transform="matrix(8.966579,0,0,-8.967117,62.084856,50.529764)"/>
<use data-text="2" xlink:href="#font_2_2" transform="matrix(5.97772,0,0,-5.9780786,66.56094,51.52584)"/>
<path transform="matrix(1.00002,0,0,-1.00008,66.39894,49.09765)" d="M9.96277 37.33229C9.96277 42.83466 5.50235 47.29506 0 47.29506-5.50235 47.29506-9.96277 42.83466-9.96277 37.33229-9.96277 31.82994-5.50235 27.36952 0 27.36952 5.50235 27.36952 9.96277 31.82994 9.96277 37.33229ZM0 37.33229" fill="#7f807f" fill-opacity=".3"/>
<path transform="matrix(1.00002,0,0,-1.00008,66.39894,49.09765)" stroke-width=".3985" stroke-linecap="butt" stroke-miterlimit="10" stroke-linejoin="miter" fill="none" stroke="#000000" d="M9.96277 37.33229C9.96277 42.83466 5.50235 47.29506 0 47.29506-5.50235 47.29506-9.96277 42.83466-9.96277 37.33229-9.96277 31.82994-5.50235 27.36952 0 27.36952 5.50235 27.36952 9.96277 31.82994 9.96277 37.33229ZM0 37.33229"/>
<use data-text="v" xlink:href="#font_1_1" transform="matrix(8.966579,0,0,-8.967117,62.084856,13.194775)"/>
<use data-text="1" xlink:href="#font_2_1" transform="matrix(5.97772,0,0,-5.9780786,66.56094,14.190853)"/>
<path transform="matrix(1.00002,0,0,-1.00008,66.39894,49.09765)" d="M-44.37737 0C-44.37737 5.50235-48.83778 9.96277-54.34013 9.96277-59.84248 9.96277-64.3029 5.50235-64.3029 0-64.3029-5.50235-59.84248-9.96277-54.34013-9.96277-48.83778-9.96277-44.37737-5.50235-44.37737 0ZM-54.34013 0" fill="#7f807f" fill-opacity=".3"/>
<path transform="matrix(1.00002,0,0,-1.00008,66.39894,49.09765)" stroke-width=".3985" stroke-linecap="butt" stroke-miterlimit="10" stroke-linejoin="miter" fill="none" stroke="#000000" d="M-44.37737 0C-44.37737 5.50235-48.83778 9.96277-54.34013 9.96277-59.84248 9.96277-64.3029 5.50235-64.3029 0-64.3029-5.50235-59.84248-9.96277-54.34013-9.96277-48.83778-9.96277-44.37737-5.50235-44.37737 0ZM-54.34013 0"/>
<use data-text="v" xlink:href="#font_1_1" transform="matrix(8.966579,0,0,-8.967117,7.823761,50.529764)"/>
<use data-text="s" xlink:href="#font_3_2" transform="matrix(5.97772,0,0,-5.9780786,12.29985,51.52584)"/>
<path transform="matrix(1.00002,0,0,-1.00008,66.39894,49.09765)" d="M9.96277-37.33229C9.96277-31.82994 5.50235-27.36952 0-27.36952-5.50235-27.36952-9.96277-31.82994-9.96277-37.33229-9.96277-42.83466-5.50235-47.29506 0-47.29506 5.50235-47.29506 9.96277-42.83466 9.96277-37.33229ZM0-37.33229" fill="#7f807f" fill-opacity=".3"/>
<path transform="matrix(1.00002,0,0,-1.00008,66.39894,49.09765)" stroke-width=".3985" stroke-linecap="butt" stroke-miterlimit="10" stroke-linejoin="miter" fill="none" stroke="#000000" d="M9.96277-37.33229C9.96277-31.82994 5.50235-27.36952 0-27.36952-5.50235-27.36952-9.96277-31.82994-9.96277-37.33229-9.96277-42.83466-5.50235-47.29506 0-47.29506 5.50235-47.29506 9.96277-42.83466 9.96277-37.33229ZM0-37.33229"/>
<use data-text="v" xlink:href="#font_1_1" transform="matrix(8.966579,0,0,-8.967117,62.084856,87.864749)"/>
<use data-text="3" xlink:href="#font_2_3" transform="matrix(5.97772,0,0,-5.9780786,66.56094,88.860828)"/>
<path transform="matrix(1.00002,0,0,-1.00008,66.39894,49.09765)" d="M64.3029 0C64.3029 5.50235 59.84248 9.96277 54.34013 9.96277 48.83778 9.96277 44.37737 5.50235 44.37737 0 44.37737-5.50235 48.83778-9.96277 54.34013-9.96277 59.84248-9.96277 64.3029-5.50235 64.3029 0ZM54.34013 0" fill="#7f807f" fill-opacity=".3"/>
<path transform="matrix(1.00002,0,0,-1.00008,66.39894,49.09765)" stroke-width=".3985" stroke-linecap="butt" stroke-miterlimit="10" stroke-linejoin="miter" fill="none" stroke="#000000" d="M64.3029 0C64.3029 5.50235 59.84248 9.96277 54.34013 9.96277 48.83778 9.96277 44.37737 5.50235 44.37737 0 44.37737-5.50235 48.83778-9.96277 54.34013-9.96277 59.84248-9.96277 64.3029-5.50235 64.3029 0ZM54.34013 0"/>
<use data-text="v" xlink:href="#font_1_1" transform="matrix(8.966579,0,0,-8.967117,116.33294,50.49676)"/>
<use data-text="d" xlink:href="#font_3_1" transform="matrix(5.97772,0,0,-5.9780786,120.80903,51.559846)"/>
<path transform="matrix(1.00002,0,0,-1.00008,66.39894,49.09765)" stroke-width=".3985" stroke-linecap="butt" stroke-miterlimit="10" stroke-linejoin="miter" fill="none" stroke="#000000" d="M-45.96472 5.75395-8.7531 31.31885"/>
<path transform="matrix(.82420656,-.5662653,-.5662313,-.82425597,57.645658,17.776295)" stroke-width=".31879" stroke-linecap="round" stroke-linejoin="round" fill="none" stroke="#000000" d="M-1.19551 1.59401C-1.09587 .99626 0 .09961 .29886 0 0-.09961-1.09587-.99626-1.19551-1.59401"/>
<use data-text="6" xlink:href="#font_4_3" transform="matrix(4.10562,-2.8207372,-2.8205679,-4.105866,37.436784,30.81501)"/>
<path transform="matrix(1.00002,0,0,-1.00008,66.39894,49.09765)" stroke-width=".3985" stroke-linecap="butt" stroke-miterlimit="10" stroke-linejoin="miter" fill="none" stroke="#000000" d="M-44.17812 0H-10.62029"/>
<path transform="matrix(1.00002,0,0,-1.00008,55.77844,49.09765)" stroke-width=".31879" stroke-linecap="round" stroke-linejoin="round" fill="none" stroke="#000000" d="M-1.19551 1.59401C-1.09587 .99626 0 .09961 .29886 0 0-.09961-1.09587-.99626-1.19551-1.59401"/>
<use data-text="4" xlink:href="#font_4_2" transform="matrix(4.9813997,0,0,-4.9816987,37.533365,48.400594)"/>
<path transform="matrix(1.00002,0,0,-1.00008,66.39894,49.09765)" stroke-width=".3985" stroke-linecap="butt" stroke-miterlimit="10" stroke-linejoin="miter" fill="none" stroke="#000000" d="M-45.96472-5.75395-8.7531-31.31885"/>
<path transform="matrix(.82420656,.5662653,.5662313,-.82425597,57.645658,80.41901)" stroke-width=".31879" stroke-linecap="round" stroke-linejoin="round" fill="none" stroke="#000000" d="M-1.19551 1.59401C-1.09587 .99626 0 .09961 .29886 0 0-.09961-1.09587-.99626-1.19551-1.59401"/>
<use data-text="1" xlink:href="#font_4_1" transform="matrix(4.10562,2.8207372,2.8205679,-4.105866,35.618844,70.026538)"/>
<path transform="matrix(1.00002,0,0,-1.00008,66.39894,49.09765)" stroke-width=".3985" stroke-linecap="butt" stroke-miterlimit="10" stroke-linejoin="miter" fill="none" stroke="#000000" d="M8.3754 31.57834 45.58704 6.01344"/>
<path transform="matrix(.82420656,.5662653,.5662313,-.82425597,111.98688,43.08373)" stroke-width=".31879" stroke-linecap="round" stroke-linejoin="round" fill="none" stroke="#000000" d="M-1.19551 1.59401C-1.09587 .99626 0 .09961 .29886 0 0-.09961-1.09587-.99626-1.19551-1.59401"/>
<use data-text="1" xlink:href="#font_4_1" transform="matrix(4.10562,2.8207372,2.8205679,-4.105866,92.566989,28.89524)"/>
<path transform="matrix(1.00002,0,0,-1.00008,66.39894,49.09765)" stroke-width=".3985" stroke-linecap="butt" stroke-miterlimit="10" stroke-linejoin="miter" fill="none" stroke="#000000" d="M10.16202 0H43.71983"/>
<path transform="matrix(1.00002,0,0,-1.00008,110.119647,49.09765)" stroke-width=".31879" stroke-linecap="round" stroke-linejoin="round" fill="none" stroke="#000000" d="M-1.19551 1.59401C-1.09587 .99626 0 .09961 .29886 0 0-.09961-1.09587-.99626-1.19551-1.59401"/>
<use data-text="4" xlink:href="#font_4_2" transform="matrix(4.9813997,0,0,-4.9816987,91.87445,48.400594)"/>
<path transform="matrix(1.00002,0,0,-1.00008,66.39894,49.09765)" stroke-width=".3985" stroke-linecap="butt" stroke-miterlimit="10" stroke-linejoin="miter" fill="none" stroke="#000000" d="M8.3754-31.57834 45.58704-6.01344"/>
<path transform="matrix(.82420656,-.5662653,-.5662313,-.82425597,111.98688,55.11157)" stroke-width=".31879" stroke-linecap="round" stroke-linejoin="round" fill="none" stroke="#000000" d="M-1.19551 1.59401C-1.09587 .99626 0 .09961 .29886 0 0-.09961-1.09587-.99626-1.19551-1.59401"/>
<use data-text="6" xlink:href="#font_4_3" transform="matrix(4.10562,-2.8207372,-2.8205679,-4.105866,94.384929,71.9463)"/>
<path transform="matrix(1.00002,0,0,-1.00008,66.39894,49.09765)" stroke-width=".3985" stroke-linecap="butt" stroke-miterlimit="10" stroke-linejoin="miter" fill="none" stroke="#000000" d="M0 10.16202V26.71199"/>
<path transform="matrix(0,-1.00008,-1.00002,-0,66.39894,22.383522)" stroke-width=".31879" stroke-linecap="round" stroke-linejoin="round" fill="none" stroke="#000000" d="M-1.19551 1.59401C-1.09587 .99626 0 .09961 .29886 0 0-.09961-1.09587-.99626-1.19551-1.59401"/>
<use data-text="1" xlink:href="#font_4_1" transform="matrix(0,-4.9816987,-4.9813997,-0,65.701938,32.12529)"/>
<path transform="matrix(1.00002,0,0,-1.00008,66.39894,49.09765)" stroke-width=".3985" stroke-linecap="butt" stroke-miterlimit="10" stroke-linejoin="miter" fill="none" stroke="#000000" d="M0-10.16202V-26.71199"/>
<path transform="matrix(0,1.00008,1.00002,0,66.39894,75.811779)" stroke-width=".31879" stroke-linecap="round" stroke-linejoin="round" fill="none" stroke="#000000" d="M-1.19551 1.59401C-1.09587 .99626 0 .09961 .29886 0 0-.09961-1.09587-.99626-1.19551-1.59401"/>
<use data-text="1" xlink:href="#font_4_1" transform="matrix(0,4.9816987,4.9813997,0,67.09596,66.07001)"/>
</svg>
