<svg xmlns="http://www.w3.org/2000/svg" xmlns:xlink="http://www.w3.org/1999/xlink" xmlns:inkscape="http://www.inkscape.org/namespaces/inkscape" version="1.1" width="168" height="159" viewBox="0 0 168 159">
<defs>
<path id="font_1_7" d="M.32998658 .3310547C.42199708 .3310547 .48298646 .2737732 .48298646 .17437744 .48298646 .07237244 .41999818 .01852417 .33099366 .01852417 .31999208 .01852417 .20098877 .01852417 .1499939 .070373538 .19099427 .07637024 .20298767 .1073761 .20298767 .13137818 .20298767 .16838074 .1749878 .19238281 .14199829 .19238281 .10998535 .19238281 .07998657 .17137146 .07998657 .12937927 .07998657 .025512696 .19799805-.022460938 .33399964-.022460938 .49798585-.022460938 .59999087 .07637024 .59999087 .17337036 .59999087 .25567628 .5269928 .3260193 .41299439 .35205079 .5329895 .3909912 .5649872 .46684266 .5649872 .5228424 .5649872 .60491946 .46299745 .6660156 .33699037 .6660156 .21398926 .6660156 .114990238 .61395266 .114990238 .5238342 .114990238 .47683717 .15299988 .46484376 .17199707 .46484376 .20098877 .46484376 .22898865 .48583985 .22898865 .5218353 .22898865 .5448303 .21699524 .5728302 .18099976 .57884219 .22399903 .625 .31298829 .628006 .33399964 .628006 .40699769 .628006 .45899964 .5908661 .45899964 .5228424 .45899964 .46484376 .42099 .37402345 .31599427 .368042 .28799439 .3670349 .28399659 .3660431 .2579956 .365036 .24699402 .3640442 .23599243 .36305238 .23599243 .34805299 .23599243 .3310547 .24598694 .3310547 .2639923 .3310547H.32998658Z"/>
<path id="font_2_3" d="M.62098696 .39237977C.57499697 .3783722 .57499697 .3343506 .57499697 .33335877 .57499697 .3163452 .58699038 .29234315 .6199951 .29234315 .647995 .29234315 .6819916 .3163452 .6819916 .36036683 .6819916 .41937257 .6159973 .4423828 .5629883 .4423828 .49798585 .4423828 .45599366 .40037538 .43598939 .37435914 .40299989 .43138124 .33898927 .4423828 .30299378 .4423828 .17799378 .4423828 .10699463 .32435609 .10699463 .28733827 .10699463 .2733307 .12298584 .2733307 .12799073 .2733307 .13699341 .2733307 .14498902 .27433778 .14898682 .28533937 .1789856 .38336183 .26098634 .40837098 .29899598 .40837098 .33198548 .40837098 .36999513 .39437867 .36999513 .34135438 .36999513 .3163452 .35198976 .24732971 .31799317 .11427307 .30299378 .057266237 .25698854 .023254395 .21398926 .023254395 .20698548 .023254395 .17799378 .023254395 .1539917 .039260866 .19898987 .055267335 .19898987 .09327698 .19898987 .09727478 .19898987 .12628174 .1769867 .13928223 .15499878 .13928223 .12998963 .13928223 .09298706 .119277957 .09298706 .0712738 .09298706 .010253906 .16099549-.0107421879 .21199036-.0107421879 .2669983-.0107421879 .31199647 .021255494 .33599855 .057266237 .37599183-.002746582 .43998719-.0107421879 .47099305-.0107421879 .5970001-.0107421879 .66799929 .10827637 .66799929 .14428711 .66799929 .15829468 .651001 .15829468 .6469879 .15829468 .6299896 .15829468 .6279907 .15229798 .625 .14329529 .59599307 .053253175 .5189972 .023254395 .47499085 .023254395 .44499208 .023254395 .4039917 .03425598 .4039917 .090270999 .4039917 .10227966 .4039917 .10928345 .4119873 .14329529 .42900086 .21331787 .45599366 .32435609 .46398927 .34236146 .47698976 .36836244 .5099945 .40837098 .5609894 .40837098 .56399539 .40837098 .59799197 .40837098 .62098696 .39237977Z"/>
<path id="font_1_3" d="M.5419922 .22167969H.8899994C.9029999 .22167969 .9299927 .22167969 .9299927 .24967957 .9299927 .27767945 .9029999 .27767945 .8899994 .27767945H.5419922V.6259613C.5419922 .63998416 .5419922 .6669922 .5139923 .6669922 .48599244 .6669922 .48599244 .63998416 .48599244 .6259613V.27767945H.13699341C.12399292 .27767945 .09700012 .27767945 .09700012 .24967957 .09700012 .22167969 .12399292 .22167969 .13699341 .22167969H.48599244V-.12602234C.48599244-.13999939 .48599244-.16699219 .5139923-.16699219 .5419922-.16699219 .5419922-.13999939 .5419922-.12602234V.22167969Z"/>
<path id="font_1_8" d="M.19599915 .55078127C.24899292 .53778079 .2939911 .53778079 .30499269 .53778079 .37298585 .53778079 .4229889 .55778506 .44898988 .57177737 .47299195 .583786 .54100039 .6267853 .54100039 .64878848 .54100039 .66378787 .5299988 .66578677 .5269928 .66578677 .5249939 .66578677 .522995 .66578677 .5119934 .66078189 .47399903 .6477814 .4119873 .63378909 .34599305 .63378909 .2889862 .63378909 .23399353 .64378359 .18099976 .66178897 .16999817 .66578677 .16799927 .66578677 .1659851 .66578677 .1519928 .66578677 .1519928 .6537781 .1519928 .63778689V.33763124C.1519928 .32061769 .1519928 .30760194 .17098999 .30760194 .18199158 .30760194 .18299866 .30960084 .19198609 .32061769 .22999573 .36468507 .2829895 .38671876 .35099793 .38671876 .40899659 .38671876 .44099427 .35266114 .45498658 .33163453 .47799684 .2975769 .48298646 .2525177 .48298646 .20446778 .48298646 .16246033 .47898866 .10646057 .43998719 .067489627 .394989 .021530152 .33799745 .01852417 .31599427 .01852417 .25099183 .01852417 .17799378 .04650879 .14698792 .10546875 .18899536 .10845947 .20298767 .13845825 .20298767 .1614685 .20298767 .19346619 .1789856 .21746826 .14698792 .21746826 .125 .21746826 .09098816 .20446778 .09098816 .15846253 .09098816 .0605011 .18699646-.022460938 .31799317-.022460938 .46699525-.022460938 .58898928 .07748413 .58898928 .20146179 .58898928 .3146057 .49198915 .41970826 .35299684 .41970826 .2899933 .41970826 .23899842 .40371705 .19599915 .37068177V.55078127Z"/>
<path id="font_2_4" d="M.6619873 .3733673C.66600039 .3883667 .66600039 .39537049 .66600039 .39637757 .66600039 .41838075 .647995 .43138124 .6289978 .43138124 .58898928 .43138124 .58099368 .39637757 .57398989 .3693695L.5529938 .28633119 .5219879 .16130066C.5179901 .14828491 .5130005 .12728882 .5119934 .121276859 .5109863 .11727905 .45700074 .023254395 .37199403 .023254395 .32598878 .023254395 .2899933 .04525757 .2899933 .10928345 .2899933 .16429138 .31999208 .23731995 .34899903 .30934144 .35398866 .3213501 .36099244 .33735658 .36099244 .35435487 .36099244 .40338136 .31399537 .4423828 .2519989 .4423828 .14698792 .4423828 .09098816 .3143463 .09098816 .28733827 .09098816 .2733307 .10699463 .2733307 .11199951 .2733307 .1289978 .2733307 .12998963 .27833558 .1349945 .29333497 .1559906 .36236573 .20298767 .40837098 .24798584 .40837098 .2669983 .40837098 .27799989 .39736939 .27799989 .37036134 .27799989 .35035707 .27198792 .3363495 .2649994 .31834413 .21598816 .1993103 .20698548 .16329956 .20698548 .123291019 .20698548 .012252808 .2999878-.0107421879 .36698915-.0107421879 .42399598-.0107421879 .46598817 .01725769 .4909973 .038253786 .47698976-.01777649 .46598817-.061904909 .4189911-.10990906 .3959961-.13290406 .34899903-.17108155 .2869873-.17108155 .2689972-.17108155 .23199463-.1680603 .20899964-.14691162 .2539978-.13591004 .25898744-.09690857 .25898744-.0868988 .25898744-.057907106 .23599243-.045898439 .21499634-.045898439 .18598938-.045898439 .1519928-.06990051 .1519928-.11590576 .1519928-.16604615 .20298767-.20507813 .2869873-.20507813 .40098573-.20507813 .5359955-.12890625 .56799319-.00074768069L.6619873 .3733673Z"/>
<path id="font_1_11" d="M.8909912 .3408203C.9049988 .3408203 .9299927 .3408203 .9299927 .3688202 .9299927 .39682008 .901001 .39682008 .8860016 .39682008H.14099121C.12599182 .39682008 .09700012 .39682008 .09700012 .3688202 .09700012 .3408203 .12298584 .3408203 .13598633 .3408203H.8909912M.8860016 .10316467C.901001 .10316467 .9299927 .10316467 .9299927 .13116455 .9299927 .15917969 .9049988 .15917969 .8909912 .15917969H.13598633C.12199402 .15917969 .09700012 .15917969 .09700012 .13116455 .09700012 .10316467 .12599182 .10316467 .14099121 .10316467H.8860016Z"/>
<path id="font_1_10" d="M.42900086 .36079408C.5319977 .40382386 .5649872 .45687867 .5649872 .513916 .5649872 .6179962 .44999696 .6660156 .34098817 .6660156 .21699524 .6660156 .114990238 .5959778 .114990238 .4958954 .114990238 .40382386 .19400025 .36279298 .24598694 .3357849 .13999939 .29473878 .07998657 .23570252 .07998657 .15364075 .07998657 .03353882 .21299744-.022460938 .33898927-.022460938 .47898866-.022460938 .59999087 .05255127 .59999087 .1706543 .59999087 .27973939 .49598695 .33078004 .42900086 .36079408M.23298645 .46287538C.18998719 .4848938 .1769867 .51091006 .1769867 .53492739 .1769867 .59898379 .25898744 .628006 .33898927 .628006 .4189911 .628006 .5029907 .588974 .5029907 .51290896 .5029907 .42485047 .3889923 .38381959 .3880005 .38381959 .3869934 .38381959 .38598634 .38381959 .3769989 .38882447L.23298645 .46287538M.2889862 .31376649 .44400025 .23469544C.47999574 .21568299 .5309906 .18865967 .5309906 .1346283 .5309906 .05355835 .42999269 .01852417 .34098817 .01852417 .25 .01852417 .14898682 .063568118 .14898682 .15463257 .14898682 .2537079 .25698854 .29974366 .2889862 .31376649Z"/>
<path id="font_1_6" d="M.58898928 .19296265H.5469971C.5439911 .17396546 .5339966 .11198425 .5179901 .101989749 .5099945 .09599304 .42599488 .09599304 .41099549 .09599304H.21499634C.2809906 .14497376 .35499574 .20095825 .4149933 .24093628 .5049896 .30291749 .58898928 .36090089 .58898928 .46687318 .58898928 .59495547 .46798707 .6660156 .32499696 .6660156 .18998719 .6660156 .09098816 .58795168 .09098816 .48986817 .09098816 .4378662 .1349945 .42886354 .14898682 .42886354 .17599488 .42886354 .20799256 .4468689 .20799256 .48786927 .20799256 .52386477 .18199158 .543869 .15098572 .546875 .1789856 .59194949 .23699951 .6220093 .3039856 .6220093 .40098573 .6220093 .48199464 .5639038 .48199464 .4658661 .48199464 .3818817 .42399598 .31791688 .34700013 .2529297L.102996829 .04598999C.09298706 .036987306 .09199524 .036987306 .09098816 .02999878V0H.55599978L.58898928 .19296265Z"/>
<path id="font_1_1" d="M.44099427 .7259979C.44099427 .72698977 .44400025 .73098757 .44400025 .73599246 .44400025 .73999026 .44198609 .75 .4269867 .75 .40699769 .75 .1499939 .58999636 .1499939 .25 .1499939-.08900452 .40699769-.25 .4269867-.25 .44198609-.25 .44400025-.2400055 .44400025-.23600769 .44400025-.2290039 .43998719-.22601319 .43598939-.2230072 .25898744-.08200073 .22698975 .12098694 .22698975 .25 .22698975 .49499513 .33999635 .6559906 .44099427 .7259979Z"/>
<path id="font_1_4" d="M.6009979 .31976319C.6009979 .3918152 .6009979 .6660156 .33999635 .6660156 .07899475 .6660156 .07899475 .3918152 .07899475 .31976319 .07899475 .2467041 .07899475-.022460938 .33999635-.022460938 .6009979-.022460938 .6009979 .2467041 .6009979 .31976319M.33999635 .010528564C.30299378 .010528564 .21899414 .023544312 .19400025 .12461853 .17999268 .17866516 .1789856 .24971009 .1789856 .33177186 .1789856 .405838 .1789856 .47488404 .19499207 .5319214 .21998596 .6159973 .29699708 .63301089 .33999635 .63301089 .4139862 .63301089 .46699525 .5949707 .4869995 .5249176 .5009918 .47387696 .5009918 .39082337 .5009918 .33177186 .5009918 .26371766 .5009918 .18266297 .48599244 .12261963 .45999146 .025543213 .37998963 .010528564 .33999635 .010528564Z"/>
<path id="font_2_2" d="M.269989 .01399231C.269989-.08216858 .21798706-.13726807 .19099427-.15931702 .18099976-.16732788 .1789856-.16934204 .1789856-.17634583 .1789856-.18234253 .18798828-.19433594 .19699097-.19433594 .20999146-.19433594 .3039856-.1162262 .3039856 .008987427 .3039856 .07699585 .27398683 .12199402 .22898865 .12199402 .19099427 .12199402 .16799927 .09199524 .16799927 .06098938 .16799927 .0289917 .19099427 0 .22898865 0 .24398804 0 .25898744 .0039978029 .269989 .01399231Z"/>
<path id="font_1_2" d="M.3909912 .25C.3909912 .58898928 .13398743 .75 .11399841 .75 .09799194 .75 .09799194 .73799136 .09799194 .73599246 .09799194 .73498538 .09799194 .72898867 .10398865 .72299197 .2539978 .60398867 .31399537 .42999269 .31399537 .25 .31399537 .1599884 .29699708 .06599426 .2630005-.01600647 .21499634-.13000489 .1519928-.18501282 .102996829-.2250061 .099990848-.227005 .09799194-.23200989 .09799194-.23600769 .09799194-.23800659 .09799194-.25 .11399841-.25 .13398743-.25 .3909912-.0900116 .3909912 .25Z"/>
<path id="font_1_5" d="M.397995 .63591006C.397995 .6660156 .394989 .6660156 .3619995 .6660156 .29100038 .6016083 .17999268 .6016083 .1599884 .6016083H.14299011V.5576172H.1599884C.18299866 .5576172 .24798584 .5606079 .30599977 .58561709V.08596802C.30599977 .054977418 .30599977 .04399109 .19999695 .04399109H.1499939V0C.20498657 .0039978029 .2939911 .0039978029 .35198976 .0039978029 .4099884 .0039978029 .49899293 .0039978029 .55400088 0V.04399109H.5039978C.397995 .04399109 .397995 .054977418 .397995 .08596802V.63591006Z"/>
<path id="font_2_1" d="M.2899933 .06098938C.2899933 .09399414 .2619934 .12199402 .22898865 .12199402 .19599915 .12199402 .16799927 .09399414 .16799927 .06098938 .16799927 .027999878 .19599915 0 .22898865 0 .2619934 0 .2899933 .027999878 .2899933 .06098938Z"/>
<path id="font_1_9" d="M.18598938 .32769776C.18699646 .37371827 .18798828 .4528656 .22399903 .51808169 .25299073 .5720825 .31799317 .628006 .41099549 .628006 .42999269 .628006 .47499085 .6260071 .5049896 .6020813 .4889984 .5980835 .46299745 .5830841 .46299745 .5490875 .46299745 .51708987 .4869995 .49609376 .5159912 .49609376 .5329895 .49609376 .56900027 .5050812 .56900027 .5520935 .56900027 .6060791 .5309906 .6660156 .4099884 .6660156 .23799134 .6660156 .07998657 .52508547 .07998657 .317688 .07998657 .078567508 .19699097-.022460938 .34298707-.022460938 .44198609-.022460938 .4889984 .014526367 .522995 .042541505 .58699038 .095565799 .59999087 .15460205 .59999087 .20463562 .59999087 .26565553 .5799866 .314682 .5279999 .36071778 .48399354 .40072633 .43798829 .42773438 .35099793 .42773438 .29299928 .42773438 .22799683 .39971925 .18598938 .32769776M.34298707 .01852417C.18899536 .01852417 .18899536 .18461609 .18899536 .2266388 .18899536 .30368043 .24398804 .39372254 .34899903 .39372254 .3999939 .39372254 .43199159 .38072206 .46299745 .34069825 .49299623 .30368043 .49398805 .2616577 .49398805 .20562744 .49398805 .14759827 .49398805 .109573367 .46199037 .06956482 .43399049 .0365448 .39898683 .01852417 .34298707 .01852417Z"/>
</defs>
<g>
<path transform="matrix(1.00006,0,0,-1,25.093667,142.93)" d="M0 0V113.38763L70.867 70.867 106.3005 0H0" fill="#0000ff" fill-opacity=".4"/>
<path transform="matrix(1.00006,0,0,-1,25.093667,142.93)" stroke-width=".3985" stroke-linecap="butt" stroke-miterlimit="10" stroke-linejoin="miter" fill="none" stroke="#0000ff" stroke-opacity=".4" d="M0 0V113.38763L70.867 70.867 106.3005 0H0"/>
</g>
<path transform="matrix(1.00006,0,0,-1,25.093667,142.93)" stroke-width="1.19553" stroke-linecap="butt" stroke-miterlimit="10" stroke-linejoin="miter" fill="none" stroke="#000000" d="M-14.17317 0H140.77762"/>
<path transform="matrix(1.00006,0,0,-1,165.87973,142.93)" stroke-width=".9564" stroke-linecap="round" stroke-linejoin="round" fill="none" stroke="#000000" d="M-1.91284 2.55046C-1.75343 1.59402 0 .15938 .4782 0 0-.15938-1.75343-1.59402-1.91284-2.55046"/>
<path transform="matrix(1.00006,0,0,-1,25.093667,142.93)" stroke-width="1.19553" stroke-linecap="butt" stroke-miterlimit="10" stroke-linejoin="miter" fill="none" stroke="#000000" d="M0-14.17317V140.77762"/>
<path transform="matrix(0,-1,-1.00006,-0,25.093667,2.1523743)" stroke-width=".9564" stroke-linecap="round" stroke-linejoin="round" fill="none" stroke="#000000" d="M-1.91284 2.55046C-1.75343 1.59402 0 .15938 .4782 0 0-.15938-1.75343-1.59402-1.91284-2.55046"/>
<path transform="matrix(1.00006,0,0,-1,25.093667,142.93)" stroke-width=".79701" stroke-linecap="butt" stroke-miterlimit="10" stroke-linejoin="miter" fill="none" stroke="#000000" d="M0 0V113.38763L70.867 70.867 106.3005 0H0"/>
<path transform="matrix(1.00006,0,0,-1,25.093667,142.93)" stroke-width=".79701" stroke-linecap="butt" stroke-dasharray="2.98883,2.98883" stroke-miterlimit="10" stroke-linejoin="miter" fill="none" stroke="#008080" d="M0 113.38763 141.73404 28.34636"/>
<use data-text="3" xlink:href="#font_1_7" transform="matrix(4.271571,2.5628789,2.5630327,-4.271315,40.63067,33.396974)" fill="#008080"/>
<use data-text="x" xlink:href="#font_2_3" transform="matrix(4.271571,2.5628789,2.5630327,-4.271315,43.537668,35.141145)" fill="#008080"/>
<use data-text="+" xlink:href="#font_1_3" transform="matrix(4.271571,2.5628789,2.5630327,-4.271315,48.31749,38.008958)" fill="#008080"/>
<use data-text="5" xlink:href="#font_1_8" transform="matrix(4.271571,2.5628789,2.5630327,-4.271315,54.101198,41.479097)" fill="#008080"/>
<use data-text="y" xlink:href="#font_2_4" transform="matrix(4.271571,2.5628789,2.5630327,-4.271315,57.0119,43.22548)" fill="#008080"/>
<use data-text="=" xlink:href="#font_1_11" transform="matrix(4.271571,2.5628789,2.5630327,-4.271315,62.032693,46.23787)" fill="#008080"/>
<use data-text="8" xlink:href="#font_1_10" transform="matrix(4.271571,2.5628789,2.5630327,-4.271315,68.16667,49.918169)" fill="#008080"/>
<path transform="matrix(1.00006,0,0,-1,25.093667,142.93)" stroke-width=".79701" stroke-linecap="butt" stroke-dasharray="2.98883,2.98883" stroke-miterlimit="10" stroke-linejoin="miter" fill="none" stroke="#ff8000" d="M35.43347 141.73404 106.3005 0"/>
<use data-text="2" xlink:href="#font_1_6" transform="matrix(2.2276214,4.4550755,4.455343,-2.2274879,114.23854,98.125698)" fill="#ff8000"/>
<use data-text="x" xlink:href="#font_2_3" transform="matrix(2.2276214,4.4550755,4.455343,-2.2274879,115.75455,101.15757)" fill="#ff8000"/>
<use data-text="+" xlink:href="#font_1_3" transform="matrix(2.2276214,4.4550755,4.455343,-2.2274879,118.247219,106.14274)" fill="#ff8000"/>
<use data-text="y" xlink:href="#font_2_4" transform="matrix(2.2276214,4.4550755,4.455343,-2.2274879,121.26535,112.178768)" fill="#ff8000"/>
<use data-text="=" xlink:href="#font_1_11" transform="matrix(2.2276214,4.4550755,4.455343,-2.2274879,123.88368,117.41526)" fill="#ff8000"/>
<use data-text="3" xlink:href="#font_1_7" transform="matrix(2.2276214,4.4550755,4.455343,-2.2274879,127.08032,123.80828)" fill="#ff8000"/>
<path transform="matrix(1.00006,0,0,-1,25.093667,142.93)" d="M2.49069 0C2.49069 1.37558 1.37558 2.49069 0 2.49069-1.37558 2.49069-2.49069 1.37558-2.49069 0-2.49069-1.37558-1.37558-2.49069 0-2.49069 1.37558-2.49069 2.49069-1.37558 2.49069 0ZM0 0"/>
<path transform="matrix(1.00006,0,0,-1,25.093667,142.93)" stroke-width=".3985" stroke-linecap="butt" stroke-miterlimit="10" stroke-linejoin="miter" fill="none" stroke="#000000" d="M2.49069 0C2.49069 1.37558 1.37558 2.49069 0 2.49069-1.37558 2.49069-2.49069 1.37558-2.49069 0-2.49069-1.37558-1.37558-2.49069 0-2.49069 1.37558-2.49069 2.49069-1.37558 2.49069 0ZM0 0"/>
<use data-text="(" xlink:href="#font_1_1" transform="matrix(4.9815986,0,0,-4.9813,5.890518,150.18599)"/>
<use data-text="0" xlink:href="#font_1_4" transform="matrix(4.9815986,0,0,-4.9813,8.585564,150.18599)"/>
<use data-text="," xlink:href="#font_2_2" transform="matrix(4.9815986,0,0,-4.9813,11.979881,150.18599)"/>
<use data-text="0" xlink:href="#font_1_4" transform="matrix(4.9815986,0,0,-4.9813,15.485092,150.18599)"/>
<use data-text=")" xlink:href="#font_1_2" transform="matrix(4.9815986,0,0,-4.9813,18.872574,150.18599)"/>
<path transform="matrix(1.00006,0,0,-1,25.093667,142.93)" d="M2.49069 113.38763C2.49069 114.76321 1.37558 115.87833 0 115.87833-1.37558 115.87833-2.49069 114.76321-2.49069 113.38763-2.49069 112.01204-1.37558 110.89694 0 110.89694 1.37558 110.89694 2.49069 112.01204 2.49069 113.38763ZM0 113.38763"/>
<path transform="matrix(1.00006,0,0,-1,25.093667,142.93)" stroke-width=".3985" stroke-linecap="butt" stroke-miterlimit="10" stroke-linejoin="miter" fill="none" stroke="#000000" d="M2.49069 113.38763C2.49069 114.76321 1.37558 115.87833 0 115.87833-1.37558 115.87833-2.49069 114.76321-2.49069 113.38763-2.49069 112.01204-1.37558 110.89694 0 110.89694 1.37558 110.89694 2.49069 112.01204 2.49069 113.38763ZM0 113.38763"/>
<use data-text="(" xlink:href="#font_1_1" transform="matrix(4.9815986,0,0,-4.9813,.21717835,30.787995)"/>
<use data-text="0" xlink:href="#font_1_4" transform="matrix(4.9815986,0,0,-4.9813,2.9122239,30.787995)"/>
<use data-text="," xlink:href="#font_2_2" transform="matrix(4.9815986,0,0,-4.9813,6.3065416,30.787995)"/>
<use data-text="1" xlink:href="#font_1_5" transform="matrix(4.9815986,0,0,-4.9813,9.811752,30.787995)"/>
<use data-text="." xlink:href="#font_2_1" transform="matrix(4.9815986,0,0,-4.9813,13.20195,30.787995)"/>
<use data-text="6" xlink:href="#font_1_9" transform="matrix(4.9815986,0,0,-4.9813,15.485085,30.787995)"/>
<use data-text=")" xlink:href="#font_1_2" transform="matrix(4.9815986,0,0,-4.9813,18.872574,30.787995)"/>
<path transform="matrix(1.00006,0,0,-1,25.093667,142.93)" d="M108.7912 0C108.7912 1.37558 107.67609 2.49069 106.3005 2.49069 104.92493 2.49069 103.80981 1.37558 103.80981 0 103.80981-1.37558 104.92493-2.49069 106.3005-2.49069 107.67609-2.49069 108.7912-1.37558 108.7912 0ZM106.3005 0"/>
<path transform="matrix(1.00006,0,0,-1,25.093667,142.93)" stroke-width=".3985" stroke-linecap="butt" stroke-miterlimit="10" stroke-linejoin="miter" fill="none" stroke="#000000" d="M108.7912 0C108.7912 1.37558 107.67609 2.49069 106.3005 2.49069 104.92493 2.49069 103.80981 1.37558 103.80981 0 103.80981-1.37558 104.92493-2.49069 106.3005-2.49069 107.67609-2.49069 108.7912-1.37558 108.7912 0ZM106.3005 0"/>
<use data-text="(" xlink:href="#font_1_1" transform="matrix(4.9815986,0,0,-4.9813,120.722408,150.18599)"/>
<use data-text="1" xlink:href="#font_1_5" transform="matrix(4.9815986,0,0,-4.9813,123.41745,150.18599)"/>
<use data-text="." xlink:href="#font_2_1" transform="matrix(4.9815986,0,0,-4.9813,126.81177,150.18599)"/>
<use data-text="5" xlink:href="#font_1_8" transform="matrix(4.9815986,0,0,-4.9813,129.09491,150.18599)"/>
<use data-text="," xlink:href="#font_2_2" transform="matrix(4.9815986,0,0,-4.9813,132.4851,150.18599)"/>
<use data-text="0" xlink:href="#font_1_4" transform="matrix(4.9815986,0,0,-4.9813,135.99031,150.18599)"/>
<use data-text=")" xlink:href="#font_1_2" transform="matrix(4.9815986,0,0,-4.9813,139.3778,150.18599)"/>
<path transform="matrix(1.00006,0,0,-1,25.093667,142.93)" d="M73.3577 70.867C73.3577 72.24258 72.24258 73.3577 70.867 73.3577 69.49142 73.3577 68.37631 72.24258 68.37631 70.867 68.37631 69.49142 69.49142 68.37631 70.867 68.37631 72.24258 68.37631 73.3577 69.49142 73.3577 70.867ZM70.867 70.867"/>
<path transform="matrix(1.00006,0,0,-1,25.093667,142.93)" stroke-width=".3985" stroke-linecap="butt" stroke-miterlimit="10" stroke-linejoin="miter" fill="none" stroke="#000000" d="M73.3577 70.867C73.3577 72.24258 72.24258 73.3577 70.867 73.3577 69.49142 73.3577 68.37631 72.24258 68.37631 70.867 68.37631 69.49142 69.49142 68.37631 70.867 68.37631 72.24258 68.37631 73.3577 69.49142 73.3577 70.867ZM70.867 70.867"/>
<use data-text="(" xlink:href="#font_1_1" transform="matrix(4.9815986,0,0,-4.9813,99.48513,67.29799)"/>
<use data-text="1" xlink:href="#font_1_5" transform="matrix(4.9815986,0,0,-4.9813,102.180179,67.29799)"/>
<use data-text="," xlink:href="#font_2_2" transform="matrix(4.9815986,0,0,-4.9813,105.57449,67.29799)"/>
<use data-text="1" xlink:href="#font_1_5" transform="matrix(4.9815986,0,0,-4.9813,109.079708,67.29799)"/>
<use data-text=")" xlink:href="#font_1_2" transform="matrix(4.9815986,0,0,-4.9813,112.467189,67.29799)"/>
</svg>
