<svg xmlns="http://www.w3.org/2000/svg" xmlns:xlink="http://www.w3.org/1999/xlink" version="1.1" width="201" height="181" viewBox="0 0 201 181">
<defs>
<path id="font_1_6" d="M.58898928 .19296265H.5469971C.5439911 .17396546 .5339966 .11198425 .5179901 .101989749 .5099945 .09599304 .42599488 .09599304 .41099549 .09599304H.21499634C.2809906 .14497376 .35499574 .20095825 .4149933 .24093628 .5049896 .30291749 .58898928 .36090089 .58898928 .46687318 .58898928 .59495547 .46798707 .6660156 .32499696 .6660156 .18998719 .6660156 .09098816 .58795168 .09098816 .48986817 .09098816 .4378662 .1349945 .42886354 .14898682 .42886354 .17599488 .42886354 .20799256 .4468689 .20799256 .48786927 .20799256 .52386477 .18199158 .543869 .15098572 .546875 .1789856 .59194949 .23699951 .6220093 .3039856 .6220093 .40098573 .6220093 .48199464 .5639038 .48199464 .4658661 .48199464 .3818817 .42399598 .31791688 .34700013 .2529297L.102996829 .04598999C.09298706 .036987306 .09199524 .036987306 .09098816 .02999878V0H.55599978L.58898928 .19296265Z"/>
<path id="font_2_4" d="M.62098696 .39237977C.57499697 .3783722 .57499697 .3343506 .57499697 .33335877 .57499697 .3163452 .58699038 .29234315 .6199951 .29234315 .647995 .29234315 .6819916 .3163452 .6819916 .36036683 .6819916 .41937257 .6159973 .4423828 .5629883 .4423828 .49798585 .4423828 .45599366 .40037538 .43598939 .37435914 .40299989 .43138124 .33898927 .4423828 .30299378 .4423828 .17799378 .4423828 .10699463 .32435609 .10699463 .28733827 .10699463 .2733307 .12298584 .2733307 .12799073 .2733307 .13699341 .2733307 .14498902 .27433778 .14898682 .28533937 .1789856 .38336183 .26098634 .40837098 .29899598 .40837098 .33198548 .40837098 .36999513 .39437867 .36999513 .34135438 .36999513 .3163452 .35198976 .24732971 .31799317 .11427307 .30299378 .057266237 .25698854 .023254395 .21398926 .023254395 .20698548 .023254395 .17799378 .023254395 .1539917 .039260866 .19898987 .055267335 .19898987 .09327698 .19898987 .09727478 .19898987 .12628174 .1769867 .13928223 .15499878 .13928223 .12998963 .13928223 .09298706 .119277957 .09298706 .0712738 .09298706 .010253906 .16099549-.0107421879 .21199036-.0107421879 .2669983-.0107421879 .31199647 .021255494 .33599855 .057266237 .37599183-.002746582 .43998719-.0107421879 .47099305-.0107421879 .5970001-.0107421879 .66799929 .10827637 .66799929 .14428711 .66799929 .15829468 .651001 .15829468 .6469879 .15829468 .6299896 .15829468 .6279907 .15229798 .625 .14329529 .59599307 .053253175 .5189972 .023254395 .47499085 .023254395 .44499208 .023254395 .4039917 .03425598 .4039917 .090270999 .4039917 .10227966 .4039917 .10928345 .4119873 .14329529 .42900086 .21331787 .45599366 .32435609 .46398927 .34236146 .47698976 .36836244 .5099945 .40837098 .5609894 .40837098 .56399539 .40837098 .59799197 .40837098 .62098696 .39237977Z"/>
<path id="font_1_3" d="M.5419922 .22167969H.8899994C.9029999 .22167969 .9299927 .22167969 .9299927 .24967957 .9299927 .27767945 .9029999 .27767945 .8899994 .27767945H.5419922V.6259613C.5419922 .63998416 .5419922 .6669922 .5139923 .6669922 .48599244 .6669922 .48599244 .63998416 .48599244 .6259613V.27767945H.13699341C.12399292 .27767945 .09700012 .27767945 .09700012 .24967957 .09700012 .22167969 .12399292 .22167969 .13699341 .22167969H.48599244V-.12602234C.48599244-.13999939 .48599244-.16699219 .5139923-.16699219 .5419922-.16699219 .5419922-.13999939 .5419922-.12602234V.22167969Z"/>
<path id="font_1_7" d="M.32998658 .3310547C.42199708 .3310547 .48298646 .2737732 .48298646 .17437744 .48298646 .07237244 .41999818 .01852417 .33099366 .01852417 .31999208 .01852417 .20098877 .01852417 .1499939 .070373538 .19099427 .07637024 .20298767 .1073761 .20298767 .13137818 .20298767 .16838074 .1749878 .19238281 .14199829 .19238281 .10998535 .19238281 .07998657 .17137146 .07998657 .12937927 .07998657 .025512696 .19799805-.022460938 .33399964-.022460938 .49798585-.022460938 .59999087 .07637024 .59999087 .17337036 .59999087 .25567628 .5269928 .3260193 .41299439 .35205079 .5329895 .3909912 .5649872 .46684266 .5649872 .5228424 .5649872 .60491946 .46299745 .6660156 .33699037 .6660156 .21398926 .6660156 .114990238 .61395266 .114990238 .5238342 .114990238 .47683717 .15299988 .46484376 .17199707 .46484376 .20098877 .46484376 .22898865 .48583985 .22898865 .5218353 .22898865 .5448303 .21699524 .5728302 .18099976 .57884219 .22399903 .625 .31298829 .628006 .33399964 .628006 .40699769 .628006 .45899964 .5908661 .45899964 .5228424 .45899964 .46484376 .42099 .37402345 .31599427 .368042 .28799439 .3670349 .28399659 .3660431 .2579956 .365036 .24699402 .3640442 .23599243 .36305238 .23599243 .34805299 .23599243 .3310547 .24598694 .3310547 .2639923 .3310547H.32998658Z"/>
<path id="font_2_5" d="M.6619873 .3733673C.66600039 .3883667 .66600039 .39537049 .66600039 .39637757 .66600039 .41838075 .647995 .43138124 .6289978 .43138124 .58898928 .43138124 .58099368 .39637757 .57398989 .3693695L.5529938 .28633119 .5219879 .16130066C.5179901 .14828491 .5130005 .12728882 .5119934 .121276859 .5109863 .11727905 .45700074 .023254395 .37199403 .023254395 .32598878 .023254395 .2899933 .04525757 .2899933 .10928345 .2899933 .16429138 .31999208 .23731995 .34899903 .30934144 .35398866 .3213501 .36099244 .33735658 .36099244 .35435487 .36099244 .40338136 .31399537 .4423828 .2519989 .4423828 .14698792 .4423828 .09098816 .3143463 .09098816 .28733827 .09098816 .2733307 .10699463 .2733307 .11199951 .2733307 .1289978 .2733307 .12998963 .27833558 .1349945 .29333497 .1559906 .36236573 .20298767 .40837098 .24798584 .40837098 .2669983 .40837098 .27799989 .39736939 .27799989 .37036134 .27799989 .35035707 .27198792 .3363495 .2649994 .31834413 .21598816 .1993103 .20698548 .16329956 .20698548 .123291019 .20698548 .012252808 .2999878-.0107421879 .36698915-.0107421879 .42399598-.0107421879 .46598817 .01725769 .4909973 .038253786 .47698976-.01777649 .46598817-.061904909 .4189911-.10990906 .3959961-.13290406 .34899903-.17108155 .2869873-.17108155 .2689972-.17108155 .23199463-.1680603 .20899964-.14691162 .2539978-.13591004 .25898744-.09690857 .25898744-.0868988 .25898744-.057907106 .23599243-.045898439 .21499634-.045898439 .18598938-.045898439 .1519928-.06990051 .1519928-.11590576 .1519928-.16604615 .20298767-.20507813 .2869873-.20507813 .40098573-.20507813 .5359955-.12890625 .56799319-.00074768069L.6619873 .3733673Z"/>
<path id="font_1_11" d="M.8909912 .3408203C.9049988 .3408203 .9299927 .3408203 .9299927 .3688202 .9299927 .39682008 .901001 .39682008 .8860016 .39682008H.14099121C.12599182 .39682008 .09700012 .39682008 .09700012 .3688202 .09700012 .3408203 .12298584 .3408203 .13598633 .3408203H.8909912M.8860016 .10316467C.901001 .10316467 .9299927 .10316467 .9299927 .13116455 .9299927 .15917969 .9049988 .15917969 .8909912 .15917969H.13598633C.12199402 .15917969 .09700012 .15917969 .09700012 .13116455 .09700012 .10316467 .12599182 .10316467 .14099121 .10316467H.8860016Z"/>
<path id="font_1_8" d="M.61698916 .1630249V.20703125H.49198915V.64675906C.49198915 .67074587 .4909973 .6767578 .46499635 .6767578 .44499208 .6767578 .44400025 .67575076 .43299867 .66174319L.06298828 .20703125V.1630249H.3959961V.085006717C.3959961 .054000856 .3959961 .04399109 .30899049 .04399109H.27398683V0C.32099916 .0019989014 .38598634 .0039978029 .44400025 .0039978029 .5019989 .0039978029 .56599429 .0019989014 .6139984 0V.04399109H.57899478C.49198915 .04399109 .49198915 .054000856 .49198915 .085006717V.1630249H.61698916M.4039917 .5688019V.20703125H.10998535L.4039917 .5688019Z"/>
<path id="font_1_10" d="M.18598938 .32769776C.18699646 .37371827 .18798828 .4528656 .22399903 .51808169 .25299073 .5720825 .31799317 .628006 .41099549 .628006 .42999269 .628006 .47499085 .6260071 .5049896 .6020813 .4889984 .5980835 .46299745 .5830841 .46299745 .5490875 .46299745 .51708987 .4869995 .49609376 .5159912 .49609376 .5329895 .49609376 .56900027 .5050812 .56900027 .5520935 .56900027 .6060791 .5309906 .6660156 .4099884 .6660156 .23799134 .6660156 .07998657 .52508547 .07998657 .317688 .07998657 .078567508 .19699097-.022460938 .34298707-.022460938 .44198609-.022460938 .4889984 .014526367 .522995 .042541505 .58699038 .095565799 .59999087 .15460205 .59999087 .20463562 .59999087 .26565553 .5799866 .314682 .5279999 .36071778 .48399354 .40072633 .43798829 .42773438 .35099793 .42773438 .29299928 .42773438 .22799683 .39971925 .18598938 .32769776M.34298707 .01852417C.18899536 .01852417 .18899536 .18461609 .18899536 .2266388 .18899536 .30368043 .24398804 .39372254 .34899903 .39372254 .3999939 .39372254 .43199159 .38072206 .46299745 .34069825 .49299623 .30368043 .49398805 .2616577 .49398805 .20562744 .49398805 .14759827 .49398805 .109573367 .46199037 .06956482 .43399049 .0365448 .39898683 .01852417 .34298707 .01852417Z"/>
<path id="font_1_1" d="M.44099427 .7259979C.44099427 .72698977 .44400025 .73098757 .44400025 .73599246 .44400025 .73999026 .44198609 .75 .4269867 .75 .40699769 .75 .1499939 .58999636 .1499939 .25 .1499939-.08900452 .40699769-.25 .4269867-.25 .44198609-.25 .44400025-.2400055 .44400025-.23600769 .44400025-.2290039 .43998719-.22601319 .43598939-.2230072 .25898744-.08200073 .22698975 .12098694 .22698975 .25 .22698975 .49499513 .33999635 .6559906 .44099427 .7259979Z"/>
<path id="font_1_4" d="M.6009979 .31976319C.6009979 .3918152 .6009979 .6660156 .33999635 .6660156 .07899475 .6660156 .07899475 .3918152 .07899475 .31976319 .07899475 .2467041 .07899475-.022460938 .33999635-.022460938 .6009979-.022460938 .6009979 .2467041 .6009979 .31976319M.33999635 .010528564C.30299378 .010528564 .21899414 .023544312 .19400025 .12461853 .17999268 .17866516 .1789856 .24971009 .1789856 .33177186 .1789856 .405838 .1789856 .47488404 .19499207 .5319214 .21998596 .6159973 .29699708 .63301089 .33999635 .63301089 .4139862 .63301089 .46699525 .5949707 .4869995 .5249176 .5009918 .47387696 .5009918 .39082337 .5009918 .33177186 .5009918 .26371766 .5009918 .18266297 .48599244 .12261963 .45999146 .025543213 .37998963 .010528564 .33999635 .010528564Z"/>
<path id="font_2_2" d="M.269989 .01399231C.269989-.08216858 .21798706-.13726807 .19099427-.15931702 .18099976-.16732788 .1789856-.16934204 .1789856-.17634583 .1789856-.18234253 .18798828-.19433594 .19699097-.19433594 .20999146-.19433594 .3039856-.1162262 .3039856 .008987427 .3039856 .07699585 .27398683 .12199402 .22898865 .12199402 .19099427 .12199402 .16799927 .09199524 .16799927 .06098938 .16799927 .0289917 .19099427 0 .22898865 0 .24398804 0 .25898744 .0039978029 .269989 .01399231Z"/>
<path id="font_1_2" d="M.3909912 .25C.3909912 .58898928 .13398743 .75 .11399841 .75 .09799194 .75 .09799194 .73799136 .09799194 .73599246 .09799194 .73498538 .09799194 .72898867 .10398865 .72299197 .2539978 .60398867 .31399537 .42999269 .31399537 .25 .31399537 .1599884 .29699708 .06599426 .2630005-.01600647 .21499634-.13000489 .1519928-.18501282 .102996829-.2250061 .099990848-.227005 .09799194-.23200989 .09799194-.23600769 .09799194-.23800659 .09799194-.25 .11399841-.25 .13398743-.25 .3909912-.0900116 .3909912 .25Z"/>
<path id="font_2_1" d="M.2899933 .06098938C.2899933 .09399414 .2619934 .12199402 .22898865 .12199402 .19599915 .12199402 .16799927 .09399414 .16799927 .06098938 .16799927 .027999878 .19599915 0 .22898865 0 .2619934 0 .2899933 .027999878 .2899933 .06098938Z"/>
<path id="font_1_9" d="M.19599915 .55078127C.24899292 .53778079 .2939911 .53778079 .30499269 .53778079 .37298585 .53778079 .4229889 .55778506 .44898988 .57177737 .47299195 .583786 .54100039 .6267853 .54100039 .64878848 .54100039 .66378787 .5299988 .66578677 .5269928 .66578677 .5249939 .66578677 .522995 .66578677 .5119934 .66078189 .47399903 .6477814 .4119873 .63378909 .34599305 .63378909 .2889862 .63378909 .23399353 .64378359 .18099976 .66178897 .16999817 .66578677 .16799927 .66578677 .1659851 .66578677 .1519928 .66578677 .1519928 .6537781 .1519928 .63778689V.33763124C.1519928 .32061769 .1519928 .30760194 .17098999 .30760194 .18199158 .30760194 .18299866 .30960084 .19198609 .32061769 .22999573 .36468507 .2829895 .38671876 .35099793 .38671876 .40899659 .38671876 .44099427 .35266114 .45498658 .33163453 .47799684 .2975769 .48298646 .2525177 .48298646 .20446778 .48298646 .16246033 .47898866 .10646057 .43998719 .067489627 .394989 .021530152 .33799745 .01852417 .31599427 .01852417 .25099183 .01852417 .17799378 .04650879 .14698792 .10546875 .18899536 .10845947 .20298767 .13845825 .20298767 .1614685 .20298767 .19346619 .1789856 .21746826 .14698792 .21746826 .125 .21746826 .09098816 .20446778 .09098816 .15846253 .09098816 .0605011 .18699646-.022460938 .31799317-.022460938 .46699525-.022460938 .58898928 .07748413 .58898928 .20146179 .58898928 .3146057 .49198915 .41970826 .35299684 .41970826 .2899933 .41970826 .23899842 .40371705 .19599915 .37068177V.55078127Z"/>
<path id="font_2_3" d="M.60398867 .69999697C.61099246 .71499636 .61099246 .71899417 .61099246 .7220001 .61099246 .7369995 .59799197 .75 .58299258 .75 .5669861 .75 .5589905 .7389984 .5529938 .72499087L.13198853-.2000122C.125-.2150116 .125-.2190094 .125-.22200012 .125-.23701477 .13798523-.25 .15299988-.25 .16899109-.25 .1769867-.23901367 .18299866-.2250061L.60398867 .69999697Z"/>
<path id="font_1_5" d="M.397995 .63591006C.397995 .6660156 .394989 .6660156 .3619995 .6660156 .29100038 .6016083 .17999268 .6016083 .1599884 .6016083H.14299011V.5576172H.1599884C.18299866 .5576172 .24798584 .5606079 .30599977 .58561709V.08596802C.30599977 .054977418 .30599977 .04399109 .19999695 .04399109H.1499939V0C.20498657 .0039978029 .2939911 .0039978029 .35198976 .0039978029 .4099884 .0039978029 .49899293 .0039978029 .55400088 0V.04399109H.5039978C.397995 .04399109 .397995 .054977418 .397995 .08596802V.63591006Z"/>
</defs>
<g>
<path transform="matrix(1.00002,0,0,-1.00003,29.866318,171.2787)" d="M0 0V36.85027L11.33855 34.01564 28.34636 22.6771 34.01564 0H0" fill="#0000ff" fill-opacity=".4"/>
<path transform="matrix(1.00002,0,0,-1.00003,29.866318,171.2787)" stroke-width=".3985" stroke-linecap="butt" stroke-miterlimit="10" stroke-linejoin="miter" fill="none" stroke="#0000ff" stroke-opacity=".4" d="M0 0V36.85027L11.33855 34.01564 28.34636 22.6771 34.01564 0H0"/>
</g>
<path transform="matrix(1.00002,0,0,-1.00003,29.866318,171.2787)" stroke-width="1.19553" stroke-linecap="butt" stroke-miterlimit="10" stroke-linejoin="miter" fill="none" stroke="#000000" d="M-8.5039 0H169.12184"/>
<path transform="matrix(1.00002,0,0,-1.00003,198.99155,171.2787)" stroke-width=".9564" stroke-linecap="round" stroke-linejoin="round" fill="none" stroke="#000000" d="M-1.91284 2.55046C-1.75343 1.59402 0 .15938 .4782 0 0-.15938-1.75343-1.59402-1.91284-2.55046"/>
<path transform="matrix(1.00002,0,0,-1.00003,29.866318,171.2787)" stroke-width="1.19553" stroke-linecap="butt" stroke-miterlimit="10" stroke-linejoin="miter" fill="none" stroke="#000000" d="M0-8.5039V169.12184"/>
<path transform="matrix(0,-1.00003,-1.00002,-0,29.866318,2.1517792)" stroke-width=".9564" stroke-linecap="round" stroke-linejoin="round" fill="none" stroke="#000000" d="M-1.91284 2.55046C-1.75343 1.59402 0 .15938 .4782 0 0-.15938-1.75343-1.59402-1.91284-2.55046"/>
<path transform="matrix(1.00002,0,0,-1.00003,29.866318,171.2787)" stroke-width=".79701" stroke-linecap="butt" stroke-miterlimit="10" stroke-linejoin="miter" fill="none" stroke="#000000" d="M0 0V36.85027L11.33855 34.01564 28.34636 22.6771 34.01564 0H0"/>
<path transform="matrix(1.00002,0,0,-1.00003,29.866318,171.2787)" stroke-width=".79701" stroke-linecap="butt" stroke-dasharray="2.98883,2.98883" stroke-miterlimit="10" stroke-linejoin="miter" fill="none" stroke="#ff0000" d="M-5.66927 45.35419 70.86594-5.66927"/>
<use data-text="2" xlink:href="#font_1_6" transform="matrix(4.144624,2.7630606,2.7630327,-4.1446654,64.19156,146.9526)" fill="#ff0000"/>
<use data-text="x" xlink:href="#font_2_4" transform="matrix(4.144624,2.7630606,2.7630327,-4.1446654,67.01216,148.83301)" fill="#ff0000"/>
<use data-text="+" xlink:href="#font_1_3" transform="matrix(4.144624,2.7630606,2.7630327,-4.1446654,71.64993,151.9248)" fill="#ff0000"/>
<use data-text="3" xlink:href="#font_1_7" transform="matrix(4.144624,2.7630606,2.7630327,-4.1446654,77.26591,155.66876)" fill="#ff0000"/>
<use data-text="y" xlink:href="#font_2_5" transform="matrix(4.144624,2.7630606,2.7630327,-4.1446654,80.08595,157.5488)" fill="#ff0000"/>
<use data-text="=" xlink:href="#font_1_11" transform="matrix(4.144624,2.7630606,2.7630327,-4.1446654,84.95752,160.79648)" fill="#ff0000"/>
<use data-text="2" xlink:href="#font_1_6" transform="matrix(4.144624,2.7630606,2.7630327,-4.1446654,90.909198,164.76422)" fill="#ff0000"/>
<use data-text="2" xlink:href="#font_1_6" transform="matrix(4.144624,2.7630606,2.7630327,-4.1446654,93.73169,166.64588)" fill="#ff0000"/>
<path transform="matrix(1.00002,0,0,-1.00003,29.866318,171.2787)" stroke-width=".79701" stroke-linecap="butt" stroke-dasharray="2.98883,2.98883" stroke-miterlimit="10" stroke-linejoin="miter" fill="none" stroke="#bf0040" d="M-5.66927 38.2676 170.07825-5.66927"/>
<use data-text="x" xlink:href="#font_2_4" transform="matrix(4.832655,1.2080513,1.2080393,-4.8327038,95.98665,146.1261)" fill="#bf0040"/>
<use data-text="+" xlink:href="#font_1_3" transform="matrix(4.832655,1.2080513,1.2080393,-4.8327038,101.39336,147.47765)" fill="#bf0040"/>
<use data-text="4" xlink:href="#font_1_8" transform="matrix(4.832655,1.2080513,1.2080393,-4.8327038,107.941608,149.11457)" fill="#bf0040"/>
<use data-text="y" xlink:href="#font_2_5" transform="matrix(4.832655,1.2080513,1.2080393,-4.8327038,111.230777,149.93679)" fill="#bf0040"/>
<use data-text="=" xlink:href="#font_1_11" transform="matrix(4.832655,1.2080513,1.2080393,-4.8327038,116.91106,151.35672)" fill="#bf0040"/>
<use data-text="2" xlink:href="#font_1_6" transform="matrix(4.832655,1.2080513,1.2080393,-4.8327038,123.85074,153.09148)" fill="#bf0040"/>
<use data-text="6" xlink:href="#font_1_10" transform="matrix(4.832655,1.2080513,1.2080393,-4.8327038,127.141788,153.91416)" fill="#bf0040"/>
<path transform="matrix(1.00002,0,0,-1.00003,29.866318,171.2787)" stroke-width=".79701" stroke-linecap="butt" stroke-dasharray="2.98883,2.98883" stroke-miterlimit="10" stroke-linejoin="miter" fill="none" stroke="#ff8000" d="M-5.66927 158.7397 35.43297-5.66927"/>
<use data-text="4" xlink:href="#font_1_8" transform="matrix(1.2080393,4.8327038,4.832655,-1.2080513,36.7706,43.4993)" fill="#ff8000"/>
<use data-text="x" xlink:href="#font_2_4" transform="matrix(1.2080393,4.8327038,4.832655,-1.2080513,37.592729,46.788179)" fill="#ff8000"/>
<use data-text="+" xlink:href="#font_1_3" transform="matrix(1.2080393,4.8327038,4.832655,-1.2080513,38.944505,52.195894)" fill="#ff8000"/>
<use data-text="y" xlink:href="#font_2_5" transform="matrix(1.2080393,4.8327038,4.832655,-1.2080513,40.581239,58.74356)" fill="#ff8000"/>
<use data-text="=" xlink:href="#font_1_11" transform="matrix(1.2080393,4.8327038,4.832655,-1.2080513,42.00116,64.423908)" fill="#ff8000"/>
<use data-text="2" xlink:href="#font_1_6" transform="matrix(1.2080393,4.8327038,4.832655,-1.2080513,43.7359,71.36366)" fill="#ff8000"/>
<use data-text="4" xlink:href="#font_1_8" transform="matrix(1.2080393,4.8327038,4.832655,-1.2080513,44.55858,74.65474)" fill="#ff8000"/>
<path transform="matrix(1.00002,0,0,-1.00003,29.866318,171.2787)" d="M1.19551 0C1.19551 .66026 .66026 1.19551 0 1.19551-.66026 1.19551-1.19551 .66026-1.19551 0-1.19551-.66026-.66026-1.19551 0-1.19551 .66026-1.19551 1.19551-.66026 1.19551 0ZM0 0"/>
<path transform="matrix(1.00002,0,0,-1.00003,29.866318,171.2787)" stroke-width=".3985" stroke-linecap="butt" stroke-miterlimit="10" stroke-linejoin="miter" fill="none" stroke="#000000" d="M1.19551 0C1.19551 .66026 .66026 1.19551 0 1.19551-.66026 1.19551-1.19551 .66026-1.19551 0-1.19551-.66026-.66026-1.19551 0-1.19551 .66026-1.19551 1.19551-.66026 1.19551 0ZM0 0"/>
<use data-text="(" xlink:href="#font_1_1" transform="matrix(4.9813997,0,0,-4.9814498,10.663933,178.53491)"/>
<use data-text="0" xlink:href="#font_1_4" transform="matrix(4.9813997,0,0,-4.9814498,13.363853,178.53491)"/>
<use data-text="," xlink:href="#font_2_2" transform="matrix(4.9813997,0,0,-4.9814498,16.753052,178.53491)"/>
<use data-text="0" xlink:href="#font_1_4" transform="matrix(4.9813997,0,0,-4.9814498,20.258118,178.53491)"/>
<use data-text=")" xlink:href="#font_1_2" transform="matrix(4.9813997,0,0,-4.9814498,23.65046,178.53491)"/>
<path transform="matrix(1.00002,0,0,-1.00003,29.866318,171.2787)" d="M1.19551 36.85027C1.19551 37.51054 .66026 38.04579 0 38.04579-.66026 38.04579-1.19551 37.51054-1.19551 36.85027-1.19551 36.19-.66026 35.65475 0 35.65475 .66026 35.65475 1.19551 36.19 1.19551 36.85027ZM0 36.85027"/>
<path transform="matrix(1.00002,0,0,-1.00003,29.866318,171.2787)" stroke-width=".3985" stroke-linecap="butt" stroke-miterlimit="10" stroke-linejoin="miter" fill="none" stroke="#000000" d="M1.19551 36.85027C1.19551 37.51054 .66026 38.04579 0 38.04579-.66026 38.04579-1.19551 37.51054-1.19551 36.85027-1.19551 36.19-.66026 35.65475 0 35.65475 .66026 35.65475 1.19551 36.19 1.19551 36.85027ZM0 36.85027"/>
<use data-text="(" xlink:href="#font_1_1" transform="matrix(4.9813997,0,0,-4.9814498,4.990822,135.67264)"/>
<use data-text="0" xlink:href="#font_1_4" transform="matrix(4.9813997,0,0,-4.9814498,7.6907427,135.67264)"/>
<use data-text="," xlink:href="#font_2_2" transform="matrix(4.9813997,0,0,-4.9814498,11.079941,135.67264)"/>
<use data-text="6" xlink:href="#font_1_10" transform="matrix(4.9813997,0,0,-4.9814498,14.585007,135.67264)"/>
<use data-text="." xlink:href="#font_2_1" transform="matrix(4.9813997,0,0,-4.9814498,17.975075,135.67264)"/>
<use data-text="5" xlink:href="#font_1_9" transform="matrix(4.9813997,0,0,-4.9814498,20.258126,135.67264)"/>
<use data-text=")" xlink:href="#font_1_2" transform="matrix(4.9813997,0,0,-4.9814498,23.650475,135.67264)"/>
<path transform="matrix(1.00002,0,0,-1.00003,29.866318,171.2787)" d="M1.19551 41.57463C1.19551 42.23491 .66026 42.77016 0 42.77016-.66026 42.77016-1.19551 42.23491-1.19551 41.57463-1.19551 40.91437-.66026 40.37912 0 40.37912 .66026 40.37912 1.19551 40.91437 1.19551 41.57463ZM0 41.57463"/>
<path transform="matrix(1.00002,0,0,-1.00003,29.866318,171.2787)" stroke-width=".3985" stroke-linecap="butt" stroke-miterlimit="10" stroke-linejoin="miter" fill="none" stroke="#000000" d="M1.19551 41.57463C1.19551 42.23491 .66026 42.77016 0 42.77016-.66026 42.77016-1.19551 42.23491-1.19551 41.57463-1.19551 40.91437-.66026 40.37912 0 40.37912 .66026 40.37912 1.19551 40.91437 1.19551 41.57463ZM0 41.57463"/>
<use data-text="(" xlink:href="#font_1_1" transform="matrix(4.9813997,0,0,-4.9814498,.21672058,130.94849)"/>
<use data-text="0" xlink:href="#font_1_4" transform="matrix(4.9813997,0,0,-4.9814498,2.9166413,130.94849)"/>
<use data-text="," xlink:href="#font_2_2" transform="matrix(4.9813997,0,0,-4.9814498,6.3058397,130.94849)"/>
<use data-text="2" xlink:href="#font_1_6" transform="matrix(4.9813997,0,0,-4.9814498,9.810905,130.94849)"/>
<use data-text="2" xlink:href="#font_1_6" transform="matrix(4.9813997,0,0,-4.9814498,13.203247,130.94849)"/>
<use data-text="/" xlink:href="#font_2_3" transform="matrix(4.9813997,0,0,-4.9814498,16.59105,130.94849)"/>
<use data-text="3" xlink:href="#font_1_7" transform="matrix(4.9813997,0,0,-4.9814498,20.258118,130.94849)"/>
<use data-text=")" xlink:href="#font_1_2" transform="matrix(4.9813997,0,0,-4.9814498,23.650467,130.94849)"/>
<path transform="matrix(1.00002,0,0,-1.00003,29.866318,171.2787)" d="M1.19551 36.85027C1.19551 37.51054 .66026 38.04579 0 38.04579-.66026 38.04579-1.19551 37.51054-1.19551 36.85027-1.19551 36.19-.66026 35.65475 0 35.65475 .66026 35.65475 1.19551 36.19 1.19551 36.85027ZM0 36.85027"/>
<path transform="matrix(1.00002,0,0,-1.00003,29.866318,171.2787)" stroke-width=".3985" stroke-linecap="butt" stroke-miterlimit="10" stroke-linejoin="miter" fill="none" stroke="#000000" d="M1.19551 36.85027C1.19551 37.51054 .66026 38.04579 0 38.04579-.66026 38.04579-1.19551 37.51054-1.19551 36.85027-1.19551 36.19-.66026 35.65475 0 35.65475 .66026 35.65475 1.19551 36.19 1.19551 36.85027ZM0 36.85027"/>
<use data-text="(" xlink:href="#font_1_1" transform="matrix(4.9813997,0,0,-4.9814498,4.990822,135.67264)"/>
<use data-text="0" xlink:href="#font_1_4" transform="matrix(4.9813997,0,0,-4.9814498,7.6907427,135.67264)"/>
<use data-text="," xlink:href="#font_2_2" transform="matrix(4.9813997,0,0,-4.9814498,11.079941,135.67264)"/>
<use data-text="6" xlink:href="#font_1_10" transform="matrix(4.9813997,0,0,-4.9814498,14.585007,135.67264)"/>
<use data-text="." xlink:href="#font_2_1" transform="matrix(4.9813997,0,0,-4.9814498,17.975075,135.67264)"/>
<use data-text="5" xlink:href="#font_1_9" transform="matrix(4.9813997,0,0,-4.9814498,20.258126,135.67264)"/>
<use data-text=")" xlink:href="#font_1_2" transform="matrix(4.9813997,0,0,-4.9814498,23.650475,135.67264)"/>
<path transform="matrix(1.00002,0,0,-1.00003,29.866318,171.2787)" d="M1.19551 136.06259C1.19551 136.72286 .66026 137.2581 0 137.2581-.66026 137.2581-1.19551 136.72286-1.19551 136.06259-1.19551 135.40233-.66026 134.86708 0 134.86708 .66026 134.86708 1.19551 135.40233 1.19551 136.06259ZM0 136.06259"/>
<path transform="matrix(1.00002,0,0,-1.00003,29.866318,171.2787)" stroke-width=".3985" stroke-linecap="butt" stroke-miterlimit="10" stroke-linejoin="miter" fill="none" stroke="#000000" d="M1.19551 136.06259C1.19551 136.72286 .66026 137.2581 0 137.2581-.66026 137.2581-1.19551 136.72286-1.19551 136.06259-1.19551 135.40233-.66026 134.86708 0 134.86708 .66026 134.86708 1.19551 135.40233 1.19551 136.06259ZM0 136.06259"/>
<use data-text="(" xlink:href="#font_1_1" transform="matrix(4.9813997,0,0,-4.9814498,7.2738649,36.457658)"/>
<use data-text="0" xlink:href="#font_1_4" transform="matrix(4.9813997,0,0,-4.9814498,9.973785,36.457658)"/>
<use data-text="," xlink:href="#font_2_2" transform="matrix(4.9813997,0,0,-4.9814498,13.362984,36.457658)"/>
<use data-text="2" xlink:href="#font_1_6" transform="matrix(4.9813997,0,0,-4.9814498,16.86805,36.457658)"/>
<use data-text="4" xlink:href="#font_1_8" transform="matrix(4.9813997,0,0,-4.9814498,20.260392,36.457658)"/>
<use data-text=")" xlink:href="#font_1_2" transform="matrix(4.9813997,0,0,-4.9814498,23.65274,36.457658)"/>
<path transform="matrix(1.00002,0,0,-1.00003,29.866318,171.2787)" d="M35.21115 0C35.21115 .66026 34.6759 1.19551 34.01564 1.19551 33.35536 1.19551 32.82011 .66026 32.82011 0 32.82011-.66026 33.35536-1.19551 34.01564-1.19551 34.6759-1.19551 35.21115-.66026 35.21115 0ZM34.01564 0"/>
<path transform="matrix(1.00002,0,0,-1.00003,29.866318,171.2787)" stroke-width=".3985" stroke-linecap="butt" stroke-miterlimit="10" stroke-linejoin="miter" fill="none" stroke="#000000" d="M35.21115 0C35.21115 .66026 34.6759 1.19551 34.01564 1.19551 33.35536 1.19551 32.82011 .66026 32.82011 0 32.82011-.66026 33.35536-1.19551 34.01564-1.19551 34.6759-1.19551 35.21115-.66026 35.21115 0ZM34.01564 0"/>
<use data-text="(" xlink:href="#font_1_1" transform="matrix(4.9813997,0,0,-4.9814498,56.04084,178.53491)"/>
<use data-text="6" xlink:href="#font_1_10" transform="matrix(4.9813997,0,0,-4.9814498,58.74076,178.53491)"/>
<use data-text="," xlink:href="#font_2_2" transform="matrix(4.9813997,0,0,-4.9814498,62.12996,178.53491)"/>
<use data-text="0" xlink:href="#font_1_4" transform="matrix(4.9813997,0,0,-4.9814498,65.635028,178.53491)"/>
<use data-text=")" xlink:href="#font_1_2" transform="matrix(4.9813997,0,0,-4.9814498,69.02737,178.53491)"/>
<path transform="matrix(1.00002,0,0,-1.00003,29.866318,171.2787)" d="M63.55754 0C63.55754 .66026 63.0223 1.19551 62.36201 1.19551 61.70175 1.19551 61.1665 .66026 61.1665 0 61.1665-.66026 61.70175-1.19551 62.36201-1.19551 63.0223-1.19551 63.55754-.66026 63.55754 0ZM62.36201 0"/>
<path transform="matrix(1.00002,0,0,-1.00003,29.866318,171.2787)" stroke-width=".3985" stroke-linecap="butt" stroke-miterlimit="10" stroke-linejoin="miter" fill="none" stroke="#000000" d="M63.55754 0C63.55754 .66026 63.0223 1.19551 62.36201 1.19551 61.70175 1.19551 61.1665 .66026 61.1665 0 61.1665-.66026 61.70175-1.19551 62.36201-1.19551 63.0223-1.19551 63.55754-.66026 63.55754 0ZM62.36201 0"/>
<use data-text="(" xlink:href="#font_1_1" transform="matrix(4.9813997,0,0,-4.9814498,82.693378,178.53491)"/>
<use data-text="1" xlink:href="#font_1_5" transform="matrix(4.9813997,0,0,-4.9814498,85.393299,178.53491)"/>
<use data-text="1" xlink:href="#font_1_5" transform="matrix(4.9813997,0,0,-4.9814498,88.78563,178.53491)"/>
<use data-text="," xlink:href="#font_2_2" transform="matrix(4.9813997,0,0,-4.9814498,92.17257,178.53491)"/>
<use data-text="0" xlink:href="#font_1_4" transform="matrix(4.9813997,0,0,-4.9814498,95.67764,178.53491)"/>
<use data-text=")" xlink:href="#font_1_2" transform="matrix(4.9813997,0,0,-4.9814498,99.06999,178.53491)"/>
<path transform="matrix(1.00002,0,0,-1.00003,29.866318,171.2787)" d="M35.21115 0C35.21115 .66026 34.6759 1.19551 34.01564 1.19551 33.35536 1.19551 32.82011 .66026 32.82011 0 32.82011-.66026 33.35536-1.19551 34.01564-1.19551 34.6759-1.19551 35.21115-.66026 35.21115 0ZM34.01564 0"/>
<path transform="matrix(1.00002,0,0,-1.00003,29.866318,171.2787)" stroke-width=".3985" stroke-linecap="butt" stroke-miterlimit="10" stroke-linejoin="miter" fill="none" stroke="#000000" d="M35.21115 0C35.21115 .66026 34.6759 1.19551 34.01564 1.19551 33.35536 1.19551 32.82011 .66026 32.82011 0 32.82011-.66026 33.35536-1.19551 34.01564-1.19551 34.6759-1.19551 35.21115-.66026 35.21115 0ZM34.01564 0"/>
<use data-text="(" xlink:href="#font_1_1" transform="matrix(4.9813997,0,0,-4.9814498,56.04084,178.53491)"/>
<use data-text="6" xlink:href="#font_1_10" transform="matrix(4.9813997,0,0,-4.9814498,58.74076,178.53491)"/>
<use data-text="," xlink:href="#font_2_2" transform="matrix(4.9813997,0,0,-4.9814498,62.12996,178.53491)"/>
<use data-text="0" xlink:href="#font_1_4" transform="matrix(4.9813997,0,0,-4.9814498,65.635028,178.53491)"/>
<use data-text=")" xlink:href="#font_1_2" transform="matrix(4.9813997,0,0,-4.9814498,69.02737,178.53491)"/>
<path transform="matrix(1.00002,0,0,-1.00003,29.866318,171.2787)" d="M148.59665 0C148.59665 .66026 148.06142 1.19551 147.40114 1.19551 146.74088 1.19551 146.20563 .66026 146.20563 0 146.20563-.66026 146.74088-1.19551 147.40114-1.19551 148.06142-1.19551 148.59665-.66026 148.59665 0ZM147.40114 0"/>
<path transform="matrix(1.00002,0,0,-1.00003,29.866318,171.2787)" stroke-width=".3985" stroke-linecap="butt" stroke-miterlimit="10" stroke-linejoin="miter" fill="none" stroke="#000000" d="M148.59665 0C148.59665 .66026 148.06142 1.19551 147.40114 1.19551 146.74088 1.19551 146.20563 .66026 146.20563 0 146.20563-.66026 146.74088-1.19551 147.40114-1.19551 148.06142-1.19551 148.59665-.66026 148.59665 0ZM147.40114 0"/>
<use data-text="(" xlink:href="#font_1_1" transform="matrix(4.9813997,0,0,-4.9814498,167.73409,178.53491)"/>
<use data-text="2" xlink:href="#font_1_6" transform="matrix(4.9813997,0,0,-4.9814498,170.434,178.53491)"/>
<use data-text="6" xlink:href="#font_1_10" transform="matrix(4.9813997,0,0,-4.9814498,173.82634,178.53491)"/>
<use data-text="," xlink:href="#font_2_2" transform="matrix(4.9813997,0,0,-4.9814498,177.21329,178.53491)"/>
<use data-text="0" xlink:href="#font_1_4" transform="matrix(4.9813997,0,0,-4.9814498,180.71836,178.53491)"/>
<use data-text=")" xlink:href="#font_1_2" transform="matrix(4.9813997,0,0,-4.9814498,184.1107,178.53491)"/>
</svg>
