<svg xmlns="http://www.w3.org/2000/svg" xmlns:xlink="http://www.w3.org/1999/xlink" xmlns:inkscape="http://www.inkscape.org/namespaces/inkscape" version="1.1" width="100" height="91" viewBox="0 0 100 91">
<defs>
<path id="font_1_2" d="M.40699769 .31729127H.5309906C.6199951 .31729127 .6279907 .3032837 .6279907 .2702484 .6279907 .25422669 .6230011 .22920227 .62098696 .22419739 .62098696 .2211914 .6199951 .2191925 .6199951 .21717835 .6199951 .21118164 .6239929 .2001648 .6409912 .2001648 .6549988 .2001648 .6599884 .2041626 .6639862 .2211914L.72299197 .46211244C.72299197 .46310426 .72299197 .4790802 .7029877 .4790802 .6859894 .4790802 .6839905 .4730835 .6799927 .45611573 .6569977 .37727357 .6299896 .3623047 .5349884 .3623047H.41799928L.47799684 .60084536C.48599244 .63179019 .48599244 .63378909 .5279999 .63378909H.71099856C.8529968 .63378909 .8880005 .60783389 .8880005 .50901797 .8880005 .48706056 .8849945 .46110536 .8849945 .45910646 .8849945 .44514466 .894989 .44015504 .9059906 .44015504 .9249878 .44015504 .9259949 .4491272 .9279938 .46809388L.94400027 .6457825 .94599917 .66078189C.94599917 .67878726 .93099978 .67878726 .9129944 .67878726H.31098939C.29100038 .67878726 .27598573 .67878726 .27598573 .65078738 .27598573 .63378909 .28799439 .63378909 .31298829 .63378909 .32299806 .63378909 .35598756 .63378909 .3769989 .62779238 .3769989 .6158142 .3769989 .6138153 .37399293 .60284426L.24398804 .08303833C.23599243 .053009035 .23498535 .04499817 .1579895 .04499817 .1329956 .04499817 .116989139 .04499817 .116989139 .016998291 .116989139 .008987427 .12399292 0 .1349945 0 .15699768 0 .18199158 .0029907227 .20399475 .0029907227 .22898865 .0029907227 .25498963 .0039978029 .2809906 .0039978029 .30899049 .0039978029 .33599855 .0029907227 .3639984 .0029907227 .3909912 .0029907227 .41999818 0 .44699098 0 .45298768 0 .47299195 0 .47299195 .027999878 .47299195 .04499817 .45899964 .04499817 .43299867 .04499817 .40899659 .04499817 .40098573 .04499817 .375 .04699707 .35099793 .04899597 .34399415 .05000305 .34399415 .06201172 .34399415 .06802368 .34399415 .07002258 .34799195 .08403015L.40699769 .31729127Z"/>
<path id="font_2_1" d="M.81900027 .38171388C.81900027 .5657959 .6049957 .60580447 .47200013 .60580447 .32798768 .60580447 .125 .5597992 .125 .38272096V.02053833C.125 .0045318605 .125-.022460938 .15299988-.022460938 .18099976-.022460938 .18099976 .0045318605 .18099976 .02053833V.3787079C.18099976 .40872193 .18099976 .47476197 .28599549 .5177765 .35899354 .5477905 .44099427 .5498047 .47200013 .5498047 .522995 .5498047 .59498599 .5437927 .6579895 .5177765 .7630005 .47476197 .7630005 .40872193 .7630005 .37771607V.02053833C.7630005 .0045318605 .7630005-.022460938 .79100039-.022460938 .81900027-.022460938 .81900027 .0045318605 .81900027 .02053833V.38171388Z"/>
<path id="font_1_3" d="M.84098818 .55859377C.84799197 .56759646 .84799197 .56959536 .86099246 .5836029 .8789978 .6036072 .9079895 .63360598 .97299197 .63760378 .98399356 .63861086 1 .63861086 1 .66560366 1 .6716156 .99598696 .6826172 .98399356 .6826172 .9700012 .6826172 .95399478 .6796112 .93899539 .6796112 .923996 .6796112 .9079895 .6786041 .8929901 .6786041 .8739929 .6786041 .85598757 .6796112 .83799746 .6796112 .81999209 .6796112 .798996 .6826172 .7809906 .6826172 .7649994 .6826172 .7569885 .6716156 .7569885 .65460208 .7569885 .63861086 .772995 .63760378 .7799988 .63760378 .79499819 .63661196 .82099917 .63261416 .82099917 .61260989 .82099917 .6056061 .81700137 .5935974 .8029938 .5746002L.45199586 .092544559 .33599855 .6026001C.33399964 .61260989 .33399964 .61460879 .33399964 .6175995 .33399964 .63160708 .3659973 .63760378 .40098573 .63760378 .4139862 .63760378 .43099977 .63760378 .43099977 .66560366 .43099977 .6736145 .4249878 .6826172 .41299439 .6826172 .3919983 .6826172 .36799623 .6796112 .34599305 .6796112 .32199098 .6796112 .29899598 .6786041 .2749939 .6786041 .2539978 .6786041 .23199463 .6796112 .21099854 .6796112 .19198609 .6796112 .16999817 .6826172 .1519928 .6826172 .14498902 .6826172 .12799073 .6826172 .12799073 .65460208 .12799073 .63760378 .14199829 .63760378 .1599884 .63760378 .21899414 .63760378 .21998596 .63061526 .22499085 .6096039L.3619995 .0065307619C.36698915-.014465332 .36898805-.022460938 .3939972-.022460938 .4059906-.022460938 .4189911-.022460938 .43598939 .0005340576L.84098818 .55859377Z"/>
<path id="font_3_1" d="M.397995 .63591006C.397995 .6660156 .394989 .6660156 .3619995 .6660156 .29100038 .6016083 .17999268 .6016083 .1599884 .6016083H.14299011V.5576172H.1599884C.18299866 .5576172 .24798584 .5606079 .30599977 .58561709V.08596802C.30599977 .054977418 .30599977 .04399109 .19999695 .04399109H.1499939V0C.20498657 .0039978029 .2939911 .0039978029 .35198976 .0039978029 .4099884 .0039978029 .49899293 .0039978029 .55400088 0V.04399109H.5039978C.397995 .04399109 .397995 .054977418 .397995 .08596802V.63591006Z"/>
<path id="font_1_4" d="M.5149994 .38616944C.49699403 .3811493 .46899415 .3601532 .46899415 .32614137 .46899415 .30015565 .48799134 .28515626 .5130005 .28515626 .5369873 .28515626 .57499697 .30415345 .57499697 .35414125 .57499697 .42938233 .47799684 .4423828 .4229889 .4423828 .2539978 .4423828 .10699463 .30415345 .10699463 .17118836 .10699463 .084228519 .17098999-.0107421879 .32199098-.0107421879 .34098817-.0107421879 .42099-.0107421879 .4889984 .01524353 .55599978 .041244508 .59599307 .08721924 .59599307 .098220828 .59599307 .10621643 .58299258 .12121582 .57398989 .12121582 .56900027 .12121582 .56799319 .12020874 .5519867 .10421753 .5069885 .053237916 .4229889 .023254395 .32299806 .023254395 .23899842 .023254395 .19898987 .070236209 .19898987 .13920594 .19898987 .24116516 .2649994 .40837098 .4229889 .40837098 .43399049 .40837098 .48399354 .40837098 .5149994 .38616944Z"/>
<path id="font_3_2" d="M.58898928 .19296265H.5469971C.5439911 .17396546 .5339966 .11198425 .5179901 .101989749 .5099945 .09599304 .42599488 .09599304 .41099549 .09599304H.21499634C.2809906 .14497376 .35499574 .20095825 .4149933 .24093628 .5049896 .30291749 .58898928 .36090089 .58898928 .46687318 .58898928 .59495547 .46798707 .6660156 .32499696 .6660156 .18998719 .6660156 .09098816 .58795168 .09098816 .48986817 .09098816 .4378662 .1349945 .42886354 .14898682 .42886354 .17599488 .42886354 .20799256 .4468689 .20799256 .48786927 .20799256 .52386477 .18199158 .543869 .15098572 .546875 .1789856 .59194949 .23699951 .6220093 .3039856 .6220093 .40098573 .6220093 .48199464 .5639038 .48199464 .4658661 .48199464 .3818817 .42399598 .31791688 .34700013 .2529297L.102996829 .04598999C.09298706 .036987306 .09199524 .036987306 .09098816 .02999878V0H.55599978L.58898928 .19296265Z"/>
<path id="font_1_1" d="M.9229889 .23794556C.9249878 .24194336 .92900088 .24995423 .92900088 .25494386 .92900088 .26094056 .9249878 .27194215 .9079895 .27194215 .8929901 .27194215 .8919983 .26994325 .8809967 .24494934 .8089905 .09098816 .7519989 .04499817 .57398989 .04499817H.37298585C.36499024 .04499817 .35099793 .04499817 .34098817 .04699707 .34199525 .054992677 .34199525 .056991579 .34399415 .06498718L.4099884 .3300171H.5399933C.6359863 .3300171 .6389923 .31298829 .6389923 .28096009 .6389923 .27394105 .6389923 .26394654 .6329956 .23895264 .6329956 .23594666 .6319885 .23194885 .6319885 .22994995 .6319885 .22895813 .6319885 .21295166 .6519928 .21295166 .6689911 .21295166 .67099 .21894837 .6749878 .23594666L.7319946 .45993043C.73298647 .46392823 .7350006 .46992494 .7350006 .4749298 .7350006 .48091126 .73098757 .49191285 .71398928 .49191285 .69699099 .49191285 .69499209 .48490907 .69099429 .46992494 .66799929 .3880005 .6359863 .37501527 .54299929 .37501527H.42099L.47799684 .6008148C.48599244 .6317749 .48599244 .63378909 .5279999 .63378909H.7220001C.86499026 .63378909 .9059906 .60980227 .9059906 .5058899 .9059906 .49090577 .9029999 .4729309 .9029999 .4589386 .9029999 .4449463 .9129944 .43995667 .923996 .43995667 .94299319 .43995667 .94400027 .4489441 .94599917 .46792604L.96199038 .6457825 .96398928 .66078189C.96398928 .67878726 .94898989 .67878726 .93099978 .67878726H.31098939C.29100038 .67878726 .27598573 .67878726 .27598573 .65078738 .27598573 .63378909 .28799439 .63378909 .31298829 .63378909 .32299806 .63378909 .35598756 .63378909 .3769989 .62779238 .3769989 .61579897 .3769989 .61380007 .37399293 .6028137L.24398804 .082977298C.23599243 .052993776 .23498535 .04499817 .1579895 .04499817 .1329956 .04499817 .116989139 .04499817 .116989139 .016998291 .116989139 0 .1329956 0 .1499939 0H.7869873C.81199648 0 .8129883 0 .82199099 .018997193L.9229889 .23794556Z"/>
<path id="font_3_4" d="M.61698916 .1630249V.20703125H.49198915V.64675906C.49198915 .67074587 .4909973 .6767578 .46499635 .6767578 .44499208 .6767578 .44400025 .67575076 .43299867 .66174319L.06298828 .20703125V.1630249H.3959961V.085006717C.3959961 .054000856 .3959961 .04399109 .30899049 .04399109H.27398683V0C.32099916 .0019989014 .38598634 .0039978029 .44400025 .0039978029 .5019989 .0039978029 .56599429 .0019989014 .6139984 0V.04399109H.57899478C.49198915 .04399109 .49198915 .054000856 .49198915 .085006717V.1630249H.61698916M.4039917 .5688019V.20703125H.10998535L.4039917 .5688019Z"/>
<path id="font_3_3" d="M.32998658 .3310547C.42199708 .3310547 .48298646 .2737732 .48298646 .17437744 .48298646 .07237244 .41999818 .01852417 .33099366 .01852417 .31999208 .01852417 .20098877 .01852417 .1499939 .070373538 .19099427 .07637024 .20298767 .1073761 .20298767 .13137818 .20298767 .16838074 .1749878 .19238281 .14199829 .19238281 .10998535 .19238281 .07998657 .17137146 .07998657 .12937927 .07998657 .025512696 .19799805-.022460938 .33399964-.022460938 .49798585-.022460938 .59999087 .07637024 .59999087 .17337036 .59999087 .25567628 .5269928 .3260193 .41299439 .35205079 .5329895 .3909912 .5649872 .46684266 .5649872 .5228424 .5649872 .60491946 .46299745 .6660156 .33699037 .6660156 .21398926 .6660156 .114990238 .61395266 .114990238 .5238342 .114990238 .47683717 .15299988 .46484376 .17199707 .46484376 .20098877 .46484376 .22898865 .48583985 .22898865 .5218353 .22898865 .5448303 .21699524 .5728302 .18099976 .57884219 .22399903 .625 .31298829 .628006 .33399964 .628006 .40699769 .628006 .45899964 .5908661 .45899964 .5228424 .45899964 .46484376 .42099 .37402345 .31599427 .368042 .28799439 .3670349 .28399659 .3660431 .2579956 .365036 .24699402 .3640442 .23599243 .36305238 .23599243 .34805299 .23599243 .3310547 .24598694 .3310547 .2639923 .3310547H.32998658Z"/>
</defs>
<path transform="matrix(1,0,0,-1,21.938004,41.803)" stroke-width=".3985" stroke-linecap="butt" stroke-miterlimit="10" stroke-linejoin="miter" fill="none" stroke="#000000" d="M14.17339 17.00824C14.17339 24.83609 7.82784 31.18164 0 31.18164-7.82784 31.18164-14.17339 24.83609-14.17339 17.00824-14.17339 9.18039-7.82784 2.83484 0 2.83484 7.82784 2.83484 14.17339 9.18039 14.17339 17.00824ZM0 17.00824"/>
<path transform="matrix(1,0,0,-1,21.938004,41.803)" stroke-width=".3985" stroke-linecap="butt" stroke-miterlimit="10" stroke-linejoin="miter" fill="none" stroke="#000000" d="M14.17339-17.00824C14.17339-9.18039 7.82784-2.83484 0-2.83484-7.82784-2.83484-14.17339-9.18039-14.17339-17.00824-14.17339-24.83609-7.82784-31.18164 0-31.18164 7.82784-31.18164 14.17339-24.83609 14.17339-17.00824ZM0-17.00824"/>
<path transform="matrix(1,0,0,-1,21.938004,41.803)" stroke-width=".3985" stroke-linecap="butt" stroke-miterlimit="10" stroke-linejoin="miter" fill="none" stroke="#000000" d="M-19.84267-39.68535H19.84267V39.68535H-19.84267V-39.68535"/>
<path transform="matrix(1,0,0,-1,21.938004,41.803)" d="M1.99255 17.00824C1.99255 18.1087 1.10046 19.0008 0 19.0008-1.10046 19.0008-1.99255 18.1087-1.99255 17.00824-1.99255 15.90776-1.10046 15.01569 0 15.01569 1.10046 15.01569 1.99255 15.90776 1.99255 17.00824ZM0 17.00824" fill="#0000ff"/>
<path transform="matrix(1,0,0,-1,21.938004,41.803)" stroke-width=".3985" stroke-linecap="butt" stroke-miterlimit="10" stroke-linejoin="miter" fill="none" stroke="#0000ff" d="M1.99255 17.00824C1.99255 18.1087 1.10046 19.0008 0 19.0008-1.10046 19.0008-1.99255 18.1087-1.99255 17.00824-1.99255 15.90776-1.10046 15.01569 0 15.01569 1.10046 15.01569 1.99255 15.90776 1.99255 17.00824ZM0 17.00824"/>
<path transform="matrix(1,0,0,-1,21.938004,41.803)" d="M9.07924 9.92155C9.07924 11.02202 8.18715 11.91411 7.08669 11.91411 5.9862 11.91411 5.09413 11.02202 5.09413 9.92155 5.09413 8.82108 5.9862 7.929 7.08669 7.929 8.18715 7.929 9.07924 8.82108 9.07924 9.92155ZM7.08669 9.92155" fill="#0000ff"/>
<path transform="matrix(1,0,0,-1,21.938004,41.803)" stroke-width=".3985" stroke-linecap="butt" stroke-miterlimit="10" stroke-linejoin="miter" fill="none" stroke="#0000ff" d="M9.07924 9.92155C9.07924 11.02202 8.18715 11.91411 7.08669 11.91411 5.9862 11.91411 5.09413 11.02202 5.09413 9.92155 5.09413 8.82108 5.9862 7.929 7.08669 7.929 8.18715 7.929 9.07924 8.82108 9.07924 9.92155ZM7.08669 9.92155"/>
<path transform="matrix(1,0,0,-1,21.938004,41.803)" d="M-5.09413 9.92155C-5.09413 11.02202-5.9862 11.91411-7.08669 11.91411-8.18715 11.91411-9.07924 11.02202-9.07924 9.92155-9.07924 8.82108-8.18715 7.929-7.08669 7.929-5.9862 7.929-5.09413 8.82108-5.09413 9.92155ZM-7.08669 9.92155" fill="#0000ff"/>
<path transform="matrix(1,0,0,-1,21.938004,41.803)" stroke-width=".3985" stroke-linecap="butt" stroke-miterlimit="10" stroke-linejoin="miter" fill="none" stroke="#0000ff" d="M-5.09413 9.92155C-5.09413 11.02202-5.9862 11.91411-7.08669 11.91411-8.18715 11.91411-9.07924 11.02202-9.07924 9.92155-9.07924 8.82108-8.18715 7.929-7.08669 7.929-5.9862 7.929-5.09413 8.82108-5.09413 9.92155ZM-7.08669 9.92155"/>
<path transform="matrix(1,0,0,-1,21.938004,41.803)" d="M9.07924 24.09494C9.07924 25.19542 8.18715 26.0875 7.08669 26.0875 5.9862 26.0875 5.09413 25.19542 5.09413 24.09494 5.09413 22.99448 5.9862 22.10239 7.08669 22.10239 8.18715 22.10239 9.07924 22.99448 9.07924 24.09494ZM7.08669 24.09494" fill="#0000ff"/>
<path transform="matrix(1,0,0,-1,21.938004,41.803)" stroke-width=".3985" stroke-linecap="butt" stroke-miterlimit="10" stroke-linejoin="miter" fill="none" stroke="#0000ff" d="M9.07924 24.09494C9.07924 25.19542 8.18715 26.0875 7.08669 26.0875 5.9862 26.0875 5.09413 25.19542 5.09413 24.09494 5.09413 22.99448 5.9862 22.10239 7.08669 22.10239 8.18715 22.10239 9.07924 22.99448 9.07924 24.09494ZM7.08669 24.09494"/>
<path transform="matrix(1,0,0,-1,21.938004,41.803)" d="M-5.09413 24.09494C-5.09413 25.19542-5.9862 26.0875-7.08669 26.0875-8.18715 26.0875-9.07924 25.19542-9.07924 24.09494-9.07924 22.99448-8.18715 22.10239-7.08669 22.10239-5.9862 22.10239-5.09413 22.99448-5.09413 24.09494ZM-7.08669 24.09494" fill="#0000ff"/>
<path transform="matrix(1,0,0,-1,21.938004,41.803)" stroke-width=".3985" stroke-linecap="butt" stroke-miterlimit="10" stroke-linejoin="miter" fill="none" stroke="#0000ff" d="M-5.09413 24.09494C-5.09413 25.19542-5.9862 26.0875-7.08669 26.0875-8.18715 26.0875-9.07924 25.19542-9.07924 24.09494-9.07924 22.99448-8.18715 22.10239-7.08669 22.10239-5.9862 22.10239-5.09413 22.99448-5.09413 24.09494ZM-7.08669 24.09494"/>
<path transform="matrix(1,0,0,-1,21.938004,41.803)" d="M1.99255-9.92155C1.99255-8.82108 1.10046-7.929 0-7.929-1.10046-7.929-1.99255-8.82108-1.99255-9.92155-1.99255-11.02202-1.10046-11.91411 0-11.91411 1.10046-11.91411 1.99255-11.02202 1.99255-9.92155ZM0-9.92155" fill="#ff0000"/>
<path transform="matrix(1,0,0,-1,21.938004,41.803)" stroke-width=".3985" stroke-linecap="butt" stroke-miterlimit="10" stroke-linejoin="miter" fill="none" stroke="#ff0000" d="M1.99255-9.92155C1.99255-8.82108 1.10046-7.929 0-7.929-1.10046-7.929-1.99255-8.82108-1.99255-9.92155-1.99255-11.02202-1.10046-11.91411 0-11.91411 1.10046-11.91411 1.99255-11.02202 1.99255-9.92155ZM0-9.92155"/>
<path transform="matrix(1,0,0,-1,21.938004,41.803)" d="M9.07924-19.84267C9.07924-18.74219 8.18715-17.85011 7.08669-17.85011 5.9862-17.85011 5.09413-18.74219 5.09413-19.84267 5.09413-20.94313 5.9862-21.83522 7.08669-21.83522 8.18715-21.83522 9.07924-20.94313 9.07924-19.84267ZM7.08669-19.84267" fill="#ff0000"/>
<path transform="matrix(1,0,0,-1,21.938004,41.803)" stroke-width=".3985" stroke-linecap="butt" stroke-miterlimit="10" stroke-linejoin="miter" fill="none" stroke="#ff0000" d="M9.07924-19.84267C9.07924-18.74219 8.18715-17.85011 7.08669-17.85011 5.9862-17.85011 5.09413-18.74219 5.09413-19.84267 5.09413-20.94313 5.9862-21.83522 7.08669-21.83522 8.18715-21.83522 9.07924-20.94313 9.07924-19.84267ZM7.08669-19.84267"/>
<path transform="matrix(1,0,0,-1,21.938004,41.803)" d="M-5.09413-19.84267C-5.09413-18.74219-5.9862-17.85011-7.08669-17.85011-8.18715-17.85011-9.07924-18.74219-9.07924-19.84267-9.07924-20.94313-8.18715-21.83522-7.08669-21.83522-5.9862-21.83522-5.09413-20.94313-5.09413-19.84267ZM-7.08669-19.84267" fill="#ff0000"/>
<path transform="matrix(1,0,0,-1,21.938004,41.803)" stroke-width=".3985" stroke-linecap="butt" stroke-miterlimit="10" stroke-linejoin="miter" fill="none" stroke="#ff0000" d="M-5.09413-19.84267C-5.09413-18.74219-5.9862-17.85011-7.08669-17.85011-8.18715-17.85011-9.07924-18.74219-9.07924-19.84267-9.07924-20.94313-8.18715-21.83522-7.08669-21.83522-5.9862-21.83522-5.09413-20.94313-5.09413-19.84267ZM-7.08669-19.84267"/>
<path transform="matrix(1,0,0,-1,21.938004,41.803)" stroke-width=".3985" stroke-linecap="butt" stroke-miterlimit="10" stroke-linejoin="miter" fill="none" stroke="#000000" d="M70.867 17.00824C70.867 24.83609 64.52145 31.18164 56.69362 31.18164 48.86577 31.18164 42.52022 24.83609 42.52022 17.00824 42.52022 9.18039 48.86577 2.83484 56.69362 2.83484 64.52145 2.83484 70.867 9.18039 70.867 17.00824ZM56.69362 17.00824"/>
<path transform="matrix(1,0,0,-1,21.938004,41.803)" stroke-width=".3985" stroke-linecap="butt" stroke-miterlimit="10" stroke-linejoin="miter" fill="none" stroke="#000000" d="M70.867-17.00824C70.867-9.18039 64.52145-2.83484 56.69362-2.83484 48.86577-2.83484 42.52022-9.18039 42.52022-17.00824 42.52022-24.83609 48.86577-31.18164 56.69362-31.18164 64.52145-31.18164 70.867-24.83609 70.867-17.00824ZM56.69362-17.00824"/>
<path transform="matrix(1,0,0,-1,21.938004,41.803)" stroke-width=".3985" stroke-linecap="butt" stroke-miterlimit="10" stroke-linejoin="miter" fill="none" stroke="#000000" d="M36.85092-39.68535H76.53629V39.68535H36.85092V-39.68535"/>
<path transform="matrix(1,0,0,-1,21.938004,41.803)" d="M65.77286 9.92155C65.77286 11.02202 64.88077 11.91411 63.7803 11.91411 62.67982 11.91411 61.78775 11.02202 61.78775 9.92155 61.78775 8.82108 62.67982 7.929 63.7803 7.929 64.88077 7.929 65.77286 8.82108 65.77286 9.92155ZM63.7803 9.92155" fill="#0000ff"/>
<path transform="matrix(1,0,0,-1,21.938004,41.803)" stroke-width=".3985" stroke-linecap="butt" stroke-miterlimit="10" stroke-linejoin="miter" fill="none" stroke="#0000ff" d="M65.77286 9.92155C65.77286 11.02202 64.88077 11.91411 63.7803 11.91411 62.67982 11.91411 61.78775 11.02202 61.78775 9.92155 61.78775 8.82108 62.67982 7.929 63.7803 7.929 64.88077 7.929 65.77286 8.82108 65.77286 9.92155ZM63.7803 9.92155"/>
<path transform="matrix(1,0,0,-1,21.938004,41.803)" d="M51.59946 9.92155C51.59946 11.02202 50.70738 11.91411 49.6069 11.91411 48.50644 11.91411 47.61435 11.02202 47.61435 9.92155 47.61435 8.82108 48.50644 7.929 49.6069 7.929 50.70738 7.929 51.59946 8.82108 51.59946 9.92155ZM49.6069 9.92155" fill="#0000ff"/>
<path transform="matrix(1,0,0,-1,21.938004,41.803)" stroke-width=".3985" stroke-linecap="butt" stroke-miterlimit="10" stroke-linejoin="miter" fill="none" stroke="#0000ff" d="M51.59946 9.92155C51.59946 11.02202 50.70738 11.91411 49.6069 11.91411 48.50644 11.91411 47.61435 11.02202 47.61435 9.92155 47.61435 8.82108 48.50644 7.929 49.6069 7.929 50.70738 7.929 51.59946 8.82108 51.59946 9.92155ZM49.6069 9.92155"/>
<path transform="matrix(1,0,0,-1,21.938004,41.803)" d="M65.77286 24.09494C65.77286 25.19542 64.88077 26.0875 63.7803 26.0875 62.67982 26.0875 61.78775 25.19542 61.78775 24.09494 61.78775 22.99448 62.67982 22.10239 63.7803 22.10239 64.88077 22.10239 65.77286 22.99448 65.77286 24.09494ZM63.7803 24.09494" fill="#0000ff"/>
<path transform="matrix(1,0,0,-1,21.938004,41.803)" stroke-width=".3985" stroke-linecap="butt" stroke-miterlimit="10" stroke-linejoin="miter" fill="none" stroke="#0000ff" d="M65.77286 24.09494C65.77286 25.19542 64.88077 26.0875 63.7803 26.0875 62.67982 26.0875 61.78775 25.19542 61.78775 24.09494 61.78775 22.99448 62.67982 22.10239 63.7803 22.10239 64.88077 22.10239 65.77286 22.99448 65.77286 24.09494ZM63.7803 24.09494"/>
<path transform="matrix(1,0,0,-1,21.938004,41.803)" d="M51.59946 24.09494C51.59946 25.19542 50.70738 26.0875 49.6069 26.0875 48.50644 26.0875 47.61435 25.19542 47.61435 24.09494 47.61435 22.99448 48.50644 22.10239 49.6069 22.10239 50.70738 22.10239 51.59946 22.99448 51.59946 24.09494ZM49.6069 24.09494" fill="#0000ff"/>
<path transform="matrix(1,0,0,-1,21.938004,41.803)" stroke-width=".3985" stroke-linecap="butt" stroke-miterlimit="10" stroke-linejoin="miter" fill="none" stroke="#0000ff" d="M51.59946 24.09494C51.59946 25.19542 50.70738 26.0875 49.6069 26.0875 48.50644 26.0875 47.61435 25.19542 47.61435 24.09494 47.61435 22.99448 48.50644 22.10239 49.6069 22.10239 50.70738 22.10239 51.59946 22.99448 51.59946 24.09494ZM49.6069 24.09494"/>
<path transform="matrix(1,0,0,-1,21.938004,41.803)" d="M65.77286-9.92155C65.77286-8.82108 64.88077-7.929 63.7803-7.929 62.67982-7.929 61.78775-8.82108 61.78775-9.92155 61.78775-11.02202 62.67982-11.91411 63.7803-11.91411 64.88077-11.91411 65.77286-11.02202 65.77286-9.92155ZM63.7803-9.92155" fill="#ff0000"/>
<path transform="matrix(1,0,0,-1,21.938004,41.803)" stroke-width=".3985" stroke-linecap="butt" stroke-miterlimit="10" stroke-linejoin="miter" fill="none" stroke="#ff0000" d="M65.77286-9.92155C65.77286-8.82108 64.88077-7.929 63.7803-7.929 62.67982-7.929 61.78775-8.82108 61.78775-9.92155 61.78775-11.02202 62.67982-11.91411 63.7803-11.91411 64.88077-11.91411 65.77286-11.02202 65.77286-9.92155ZM63.7803-9.92155"/>
<path transform="matrix(1,0,0,-1,21.938004,41.803)" d="M51.59946-9.92155C51.59946-8.82108 50.70738-7.929 49.6069-7.929 48.50644-7.929 47.61435-8.82108 47.61435-9.92155 47.61435-11.02202 48.50644-11.91411 49.6069-11.91411 50.70738-11.91411 51.59946-11.02202 51.59946-9.92155ZM49.6069-9.92155" fill="#ff0000"/>
<path transform="matrix(1,0,0,-1,21.938004,41.803)" stroke-width=".3985" stroke-linecap="butt" stroke-miterlimit="10" stroke-linejoin="miter" fill="none" stroke="#ff0000" d="M51.59946-9.92155C51.59946-8.82108 50.70738-7.929 49.6069-7.929 48.50644-7.929 47.61435-8.82108 47.61435-9.92155 47.61435-11.02202 48.50644-11.91411 49.6069-11.91411 50.70738-11.91411 51.59946-11.02202 51.59946-9.92155ZM49.6069-9.92155"/>
<path transform="matrix(1,0,0,-1,21.938004,41.803)" d="M65.77286-24.09494C65.77286-22.99448 64.88077-22.10239 63.7803-22.10239 62.67982-22.10239 61.78775-22.99448 61.78775-24.09494 61.78775-25.19542 62.67982-26.0875 63.7803-26.0875 64.88077-26.0875 65.77286-25.19542 65.77286-24.09494ZM63.7803-24.09494" fill="#ff0000"/>
<path transform="matrix(1,0,0,-1,21.938004,41.803)" stroke-width=".3985" stroke-linecap="butt" stroke-miterlimit="10" stroke-linejoin="miter" fill="none" stroke="#ff0000" d="M65.77286-24.09494C65.77286-22.99448 64.88077-22.10239 63.7803-22.10239 62.67982-22.10239 61.78775-22.99448 61.78775-24.09494 61.78775-25.19542 62.67982-26.0875 63.7803-26.0875 64.88077-26.0875 65.77286-25.19542 65.77286-24.09494ZM63.7803-24.09494"/>
<path transform="matrix(1,0,0,-1,21.938004,41.803)" d="M51.59946-24.09494C51.59946-22.99448 50.70738-22.10239 49.6069-22.10239 48.50644-22.10239 47.61435-22.99448 47.61435-24.09494 47.61435-25.19542 48.50644-26.0875 49.6069-26.0875 50.70738-26.0875 51.59946-25.19542 51.59946-24.09494ZM49.6069-24.09494" fill="#ff0000"/>
<path transform="matrix(1,0,0,-1,21.938004,41.803)" stroke-width=".3985" stroke-linecap="butt" stroke-miterlimit="10" stroke-linejoin="miter" fill="none" stroke="#ff0000" d="M51.59946-24.09494C51.59946-22.99448 50.70738-22.10239 49.6069-22.10239 48.50644-22.10239 47.61435-22.99448 47.61435-24.09494 47.61435-25.19542 48.50644-26.0875 49.6069-26.0875 50.70738-26.0875 51.59946-25.19542 51.59946-24.09494ZM49.6069-24.09494"/>
<use data-text="F" xlink:href="#font_1_2" transform="matrix(4.9813,0,0,-4.9813,11.357002,7.3240015)"/>
<use data-text="&#x2229;" xlink:href="#font_2_1" transform="matrix(4.9813,0,0,-4.9813,18.172005,7.3240015)"/>
<use data-text="V" xlink:href="#font_1_3" transform="matrix(4.9813,0,0,-4.9813,24.507004,7.3240015)"/>
<use data-text="1" xlink:href="#font_3_1" transform="matrix(4.9813,0,0,-4.9813,28.630005,8.818001)"/>
<use data-text="F" xlink:href="#font_1_2" transform="matrix(4.9813,0,0,-4.9813,9.491005,78.567)"/>
<use data-text="c" xlink:href="#font_1_4" transform="matrix(4.9813,0,0,-4.9813,14.677002,76.556)"/>
<use data-text="&#x2229;" xlink:href="#font_2_1" transform="matrix(4.9813,0,0,-4.9813,20.04,78.567)"/>
<use data-text="V" xlink:href="#font_1_3" transform="matrix(4.9813,0,0,-4.9813,26.374,78.567)"/>
<use data-text="1" xlink:href="#font_3_1" transform="matrix(4.9813,0,0,-4.9813,30.497002,80.061)"/>
<use data-text="F" xlink:href="#font_1_2" transform="matrix(4.9813,0,0,-4.9813,68.051,7.3240015)"/>
<use data-text="&#x2229;" xlink:href="#font_2_1" transform="matrix(4.9813,0,0,-4.9813,74.866008,7.3240015)"/>
<use data-text="V" xlink:href="#font_1_3" transform="matrix(4.9813,0,0,-4.9813,81.201007,7.3240015)"/>
<use data-text="2" xlink:href="#font_3_2" transform="matrix(4.9813,0,0,-4.9813,85.324008,8.818001)"/>
<use data-text="F" xlink:href="#font_1_2" transform="matrix(4.9813,0,0,-4.9813,66.184009,78.567)"/>
<use data-text="c" xlink:href="#font_1_4" transform="matrix(4.9813,0,0,-4.9813,71.369998,76.556)"/>
<use data-text="&#x2229;" xlink:href="#font_2_1" transform="matrix(4.9813,0,0,-4.9813,76.733,78.567)"/>
<use data-text="V" xlink:href="#font_1_3" transform="matrix(4.9813,0,0,-4.9813,83.067,78.567)"/>
<use data-text="2" xlink:href="#font_3_2" transform="matrix(4.9813,0,0,-4.9813,87.19,80.061)"/>
<use data-text="V" xlink:href="#font_1_3" transform="matrix(4.9813,0,0,-4.9813,17.932007,88.11301)"/>
<use data-text="1" xlink:href="#font_3_1" transform="matrix(4.9813,0,0,-4.9813,22.056008,89.607)"/>
<use data-text="V" xlink:href="#font_1_3" transform="matrix(4.9813,0,0,-4.9813,74.62601,88.11301)"/>
<use data-text="2" xlink:href="#font_3_2" transform="matrix(4.9813,0,0,-4.9813,78.75,89.607)"/>
<path transform="matrix(1,0,0,-1,21.938004,41.803)" stroke-width=".3985" stroke-linecap="butt" stroke-dasharray="2.98883,2.98883" stroke-miterlimit="10" stroke-linejoin="miter" fill="none" stroke="#000000" d="M14.37263 17.00824H42.32097"/>
<use data-text="E" xlink:href="#font_1_1" transform="matrix(4.9813,0,0,-4.9813,45.833005,19.781002)"/>
<use data-text="2" xlink:href="#font_3_2" transform="matrix(4.9813,0,0,-4.9813,50.849004,21.275002)"/>
<path transform="matrix(1,0,0,-1,21.938004,41.803)" stroke-width=".3985" stroke-linecap="butt" stroke-dasharray="2.98883,2.98883" stroke-miterlimit="10" stroke-linejoin="miter" fill="none" stroke="#000000" d="M12.32407 9.61357 44.36954-9.61357"/>
<use data-text="E" xlink:href="#font_1_1" transform="matrix(4.271315,2.5627793,2.5627793,-4.271315,58.660646,40.981317)"/>
<use data-text="4" xlink:href="#font_3_4" transform="matrix(4.271315,2.5627793,2.5627793,-4.271315,62.19307,44.843004)"/>
<path transform="matrix(1,0,0,-1,21.938004,41.803)" stroke-width=".3985" stroke-linecap="butt" stroke-dasharray="2.98883,2.98883" stroke-miterlimit="10" stroke-linejoin="miter" fill="none" stroke="#000000" d="M12.32407-9.61357 44.36954 9.61357"/>
<use data-text="E" xlink:href="#font_1_1" transform="matrix(4.271315,-2.5627793,-2.5627793,-4.271315,34.273859,45.562227)"/>
<use data-text="3" xlink:href="#font_3_3" transform="matrix(4.271315,-2.5627793,-2.5627793,-4.271315,39.34356,44.26265)"/>
<path transform="matrix(1,0,0,-1,21.938004,41.803)" stroke-width=".3985" stroke-linecap="butt" stroke-dasharray="2.98883,2.98883" stroke-miterlimit="10" stroke-linejoin="miter" fill="none" stroke="#000000" d="M14.37263-17.00824H42.32097"/>
<use data-text="E" xlink:href="#font_1_1" transform="matrix(4.9813,0,0,-4.9813,45.833005,65.735)"/>
<use data-text="1" xlink:href="#font_3_1" transform="matrix(4.9813,0,0,-4.9813,50.849004,67.229)"/>
</svg>
