<svg xmlns="http://www.w3.org/2000/svg" xmlns:xlink="http://www.w3.org/1999/xlink" xmlns:inkscape="http://www.inkscape.org/namespaces/inkscape" version="1.1" width="229" height="149" viewBox="0 0 229 149">
<defs>
<path id="font_1_1" d="M.48098756 .3693695C.48098756 .43937684 .44400025 .44337464 .43499757 .44337464 .4099884 .44337464 .38398744 .41638185 .38398744 .39337159 .38398744 .3783722 .3929901 .37036134 .3999939 .36436463 .4269867 .33935548 .43598939 .30734254 .43598939 .28134156 .43598939 .23731995 .37298585 .014251709 .25698854 .014251709 .18199158 .014251709 .18199158 .08427429 .18199158 .10227966 .18199158 .14529419 .19599915 .19630432 .23098755 .28733827 .24699402 .3293457 .25099183 .33935548 .25099183 .35835267 .25099183 .40737916 .21398926 .4423828 .16499329 .4423828 .068984989 .4423828 .0289917 .30033876 .0289917 .28833009 .0289917 .2793274 .035995485 .27633668 .042999269 .27633668 .053985597 .27633668 .054992677 .28233338 .05899048 .29533387 .07998657 .36836244 .11999512 .41737367 .1619873 .41737367 .18199158 .41737367 .18598938 .40437318 .18598938 .3843689 .18598938 .36735536 .18199158 .34934999 .17298889 .3253479 .13699341 .22932434 .11299133 .16529846 .11299133 .11528015 .11299133 .021255494 .18399048-.0107421879 .25299073-.0107421879 .42099-.0107421879 .48098756 .30534364 .48098756 .3693695Z"/>
<path id="font_2_2" d="M.45700074 .37594605C.42799378 .36894227 .4169922 .34394837 .4169922 .32894898 .4169922 .3129425 .42900086 .2959442 .45199586 .2959442 .47200013 .2959442 .5009918 .30995179 .5009918 .35295106 .5009918 .4203949 .4249878 .44140626 .3600006 .44140626 .20698548 .44140626 .16999817 .33995057 .16999817 .2969513 .16999817 .21612549 .2619934 .2001648 .28799439 .19616699 .36299134 .18319702 .42099 .17222595 .42099 .1232605 .42099 .102264408 .4039917 .06626892 .36799623 .04624939 .32899476 .025222779 .28599549 .023223877 .25698854 .023223877 .22200012 .023223877 .1599884 .027236939 .1309967 .060272218 .1659851 .06626892 .18299866 .09326172 .18299866 .117263797 .18299866 .13825989 .16899109 .15527344 .14199829 .15527344 .115997318 .15527344 .083999637 .13426209 .083999637 .087265018 .083999637 .03224182 .13899231-.009765625 .2559967-.009765625 .44299317-.009765625 .48298646 .10626221 .48298646 .15226746 .48298646 .18519593 .46899415 .20814514 .44599916 .22810364 .4139862 .25604249 .3769989 .26202394 .32899476 .27000428 .27999879 .27897645 .23199463 .28697206 .23199463 .325943 .23199463 .32695008 .23199463 .40838624 .35899354 .40838624 .38398744 .40838624 .43399049 .4043274 .45700074 .37594605Z"/>
<path id="font_3_1" d="M.35899354 .6349335C.35899354 .66503909 .35499574 .66503909 .32499696 .66503909 .25898744 .60058596 .15699768 .60058596 .12098694 .60058596V.5615845C.14698792 .5615845 .21299744 .5615845 .272995 .58958438V.08496094C.272995 .051986696 .272995 .038986207 .16999817 .038986207H.1269989V0C.18199158 .0039978029 .2599945 .0039978029 .31599427 .0039978029 .37199403 .0039978029 .44999696 .0039978029 .5049896 0V.038986207H.46199037C.35899354 .038986207 .35899354 .051986696 .35899354 .08496094V.6349335Z"/>
<path id="font_3_2" d="M.5379944 .18702698H.5009918C.49899293 .17301941 .4889984 .10699463 .47399903 .09599304 .46699525 .08999634 .38598634 .08999634 .37199403 .08999634H.18499756L.31298829 .19403076C.34700013 .22103882 .43598939 .28504945 .46699525 .31506349 .49699403 .3450775 .5379944 .39608766 .5379944 .46710206 .5379944 .5920563 .4249878 .66503909 .29100038 .66503909 .1619873 .66503909 .07199097 .58006289 .07199097 .48609925 .07199097 .43510438 .114990238 .42910768 .12599182 .42910768 .15098572 .42910768 .17999268 .44709779 .17999268 .48310853 .17999268 .50509646 .16699219 .5371094 .12298584 .5371094 .1459961 .5880585 .20698548 .6260376 .27598573 .6260376 .3809967 .6260376 .43699647 .5480957 .43699647 .46710206 .43699647 .39608766 .3899994 .32305909 .31999208 .25904847L.08299255 .041992189C.07299805 .03199768 .07199097 .0309906 .07199097 0H.5069885L.5379944 .18702698Z"/>
<path id="font_3_3" d="M.2939911 .33203126C.3789978 .33203126 .43598939 .274765 .43598939 .17237854 .43598939 .062408449 .36999513 .014511108 .29699708 .014511108 .269989 .014511108 .16699219 .020492554 .12199402 .07836914 .16099549 .0823822 .1769867 .10836792 .1769867 .13537598 .1769867 .16937256 .15299988 .19238281 .11999512 .19238281 .09298706 .19238281 .06298828 .17536927 .06298828 .13337708 .06298828 .034469606 .17298889-.021484375 .2999878-.021484375 .44799806-.021484375 .5469971 .07337952 .5469971 .17237854 .5469971 .24562073 .4909973 .3229828 .37199403 .35302735 .45098878 .37902833 .5149994 .44306947 .5149994 .5251007 .5149994 .60505679 .42099 .66503909 .30099488 .66503909 .18399048 .66503909 .09498596 .61105349 .09498596 .5290985 .09498596 .48609925 .12799073 .47409059 .147995 .47409059 .17399597 .47409059 .20098877 .49209596 .20098877 .5270996 .20098877 .5580902 .1789856 .5760956 .1519928 .5800934 .19898987 .6320343 .2899933 .6320343 .29899598 .6320343 .34999085 .6320343 .4139862 .60806277 .4139862 .5251007 .4139862 .47009278 .3829956 .37402345 .2829895 .36802674 .2649994 .36701966 .23799134 .36502076 .22898865 .36502076 .21899414 .36402894 .20799256 .36302186 .20799256 .34802247 .20799256 .33203126 .21899414 .33203126 .23599243 .33203126H.2939911Z"/>
<path id="font_3_4" d="M.56399539 .1640625V.2030487H.44699098V.6448059C.44699098 .6678009 .44699098 .6748047 .42199708 .6748047 .4039917 .6748047 .4019928 .6717987 .3929901 .65979006L.04598999 .2030487V.1640625H.35699464V.08401489C.35699464 .050994874 .35699464 .038986207 .272995 .038986207H.24398804V0C.2639923 .0009918213 .35798646 .0039978029 .4019928 .0039978029 .44599916 .0039978029 .5399933 .0009918213 .55999758 0V.038986207H.5309906C.44699098 .038986207 .44699098 .050994874 .44699098 .08401489V.1640625H.56399539M.3639984 .56585696V.2030487H.08898926L.3639984 .56585696Z"/>
<path id="font_2_1" d="M.6049957 .66430667C.60598757 .66830447 .60798647 .67430117 .60798647 .67930606 .60798647 .6953125 .58799746 .6943054 .57598879 .69329836L.46398927 .6843109C.44699098 .68330386 .43399049 .682312 .43399049 .65930178 .43399049 .64331057 .44699098 .64331057 .46199037 .64331057 .49198915 .64331057 .49899293 .64131167 .5119934 .63630679 .5109863 .62132266 .5109863 .61932376 .5079956 .60632327 .4869995 .5203552 .47099305 .45339967 .45098878 .38139344 .43699647 .4044037 .40299989 .44140626 .34098817 .44140626 .21299744 .44140626 .07499695 .3073578 .07499695 .16029358 .07499695 .052246095 .15098572-.009765625 .23599243-.009765625 .30299378-.009765625 .3600006 .036239625 .3849945 .06124878 .4039917-.0017700195 .47099305-.009765625 .49299623-.009765625 .5289917-.009765625 .5549927 .010223389 .57398989 .041229249 .598999 .08125305 .61299136 .13928223 .61299136 .14428711 .61299136 .14628601 .6119995 .15829468 .59399417 .15829468 .57899478 .15829468 .57699587 .1512909 .57299807 .13528443 .5569916 .07424927 .5359955 .023223877 .49699403 .023223877 .46299745 .023223877 .45999146 .059249879 .45999146 .07424927 .45999146 .087249759 .45999146 .09025574 .46499635 .10826111L.6049957 .66430667M.3889923 .13127136C.38398744 .11326599 .38398744 .11126709 .36999513 .09625244 .31498719 .034225465 .2639923 .023223877 .23899842 .023223877 .19898987 .023223877 .1599884 .050231935 .1599884 .121276859 .1599884 .16229248 .18099976 .2603302 .21299744 .3173523 .24299622 .37138368 .2939911 .4084015 .34199525 .4084015 .4169922 .4084015 .43598939 .32936097 .43598939 .32235719L.43299867 .3083496 .3889923 .13127136Z"/>
<path id="font_3_5" d="M.16999817 .5549774C.20298767 .54599 .23799134 .5419922 .27198792 .5419922 .2939911 .5419922 .34999085 .5419922 .41299439 .5769806 .42999269 .58699038 .49198915 .6279907 .49198915 .6490326 .49198915 .6620331 .48199464 .66503909 .47799684 .66503909 .47499085 .66503909 .47399903 .66503909 .46299745 .661026 .4269867 .6470337 .37599183 .63298037 .31098939 .63298037 .2619934 .63298037 .20799256 .64201357 .16299439 .6590271 .15299988 .6630249 .14898682 .66503909 .14498902 .66503909 .1309967 .66503909 .1309967 .6540375 .1309967 .6380005V.33787538C.1309967 .32086183 .1309967 .30885316 .14898682 .30885316 .1579895 .30885316 .16099549 .31285096 .16799927 .32086183 .19299317 .35289 .23699951 .38693238 .31498719 .38693238 .43798829 .38693238 .43798829 .23677063 .43798829 .20472718 .43798829 .16567993 .43499757 .10961914 .4019928 .068573 .37098695 .030532837 .32499696 .014511108 .28199769 .014511108 .21299744 .014511108 .14399719 .05255127 .11999512 .11061096 .16899109 .11161804 .1749878 .15066529 .1749878 .16267395 .1749878 .18971253 .1539917 .21372986 .12298584 .21372986 .11399841 .21372986 .07199097 .20872498 .07199097 .15867615 .07199097 .0665741 .15899658-.021484375 .2849884-.021484375 .42199708-.021484375 .5379944 .07557678 .5379944 .20072937 .5379944 .31484986 .44599916 .4189453 .31698609 .4189453 .2519989 .4189453 .20199585 .39793397 .16999817 .37091065V.5549774Z"/>
<path id="font_3_6" d="M.16299439 .33073426C.1639862 .38076783 .1659851 .46383668 .20098877 .52589419 .24499512 .60191348 .31098939 .6320343 .37098695 .6320343 .3939972 .6320343 .43998719 .62802127 .46398927 .5998993 .4269867 .5939026 .42099 .5679016 .42099 .55189517 .42099 .52589419 .43899537 .50390627 .46899415 .50390627 .49899293 .50390627 .5179901 .52290347 .5179901 .55389407 .5179901 .6149597 .47200013 .66503909 .36999513 .66503909 .21499634 .66503909 .06298828 .52989199 .06298828 .31672669 .06298828 .07354736 .17599488-.021484375 .30799867-.021484375 .34700013-.021484375 .4149933-.015487671 .47599793 .043533327 .5079956 .075546268 .5469971 .11558533 .5469971 .2036438 .5469971 .2376709 .54299929 .30171205 .48199464 .3587494 .44699098 .3907776 .40299989 .42578126 .31799317 .42578126 .24798584 .42578126 .19699097 .3897705 .16299439 .33073426M.30699159 .014511108C.1659851 .014511108 .1659851 .18663025 .1659851 .22566223 .1659851 .3117218 .22299195 .3937683 .31298829 .3937683 .36499024 .3937683 .394989 .37275697 .4189911 .34074403 .44699098 .30171205 .44699098 .25668336 .44699098 .2036438 .44699098 .13459778 .44499208 .10057068 .41099549 .060546876 .3869934 .030517579 .35499574 .014511108 .30699159 .014511108Z"/>
<path id="font_3_7" d="M.57099917 .60369876C.5799866 .6137085 .5799866 .6157074 .5799866 .6437073H.32199098C.2809906 .6437073 .25698854 .64471438 .21798706 .64772036 .16899109 .6507416 .15699768 .65174868 .1519928 .67578127H.114990238L.07899475 .45666505H.115997318C.11898804 .4776764 .1289978 .5366974 .14399719 .547699 .1519928 .55371096 .23799134 .55371096 .25299073 .55371096H.47898866C.46798707 .53970339 .4139862 .4756775 .3899994 .44667054 .29299928 .32962037 .22499085 .1875763 .22499085 .03552246 .22499085 .026519776 .22499085-.021484375 .272995-.021484375 .32199098-.021484375 .32199098 .024520874 .32199098 .037521364V.0655365C.32199098 .25759889 .36299134 .3556366 .41299439 .41566468L.57099917 .60369876Z"/>
<path id="font_3_8" d="M.3849945 .36080934C.45899964 .39382936 .5149994 .4428711 .5149994 .51493838 .5149994 .61302188 .4099884 .66503909 .30599977 .66503909 .19299317 .66503909 .09498596 .5970001 .09498596 .49591065 .09498596 .4338684 .13598633 .38581849 .17799378 .36080934 .18798828 .35479737 .21199036 .34178163 .22200012 .3357849 .1559906 .3107605 .06298828 .25471498 .06298828 .15362549 .06298828 .03652954 .18798828-.021484375 .3039856-.021484375 .43699647-.021484375 .5469971 .058547975 .5469971 .16964722 .5469971 .23869324 .5049896 .27973939 .48999024 .29475404 .47099305 .3127594 .42099 .3407898 .3849945 .36080934M.20399475 .45988465C.20199585 .46089173 .15098572 .48890687 .15098572 .5349579 .15098572 .6000061 .22999573 .6320343 .3039856 .6320343 .38198854 .6320343 .45899964 .58898928 .45899964 .5139313 .45899964 .4368744 .37599183 .39582826 .34799195 .38182069L.20399475 .45988465M.2619934 .3147583C.272995 .3087616 .37998963 .248703 .40699769 .23469544 .42799378 .22167969 .48298646 .19166565 .48298646 .13461304 .48298646 .055541994 .3909912 .014511108 .30599977 .014511108 .21299744 .014511108 .1269989 .06855774 .1269989 .15362549 .1269989 .23869324 .20698548 .29475404 .2619934 .3147583Z"/>
<path id="font_3_9" d="M.44699098 .31478883C.44699098 .23873902 .43998719 .16366577 .4039917 .103637699 .3789978 .06463623 .33099366 .014511108 .25299073 .014511108 .22999573 .014511108 .17599488 .01751709 .147995 .043640138 .17999268 .05064392 .18899536 .072647098 .18899536 .09164429 .18899536 .11764526 .17098999 .13964844 .14099121 .13964844 .11099243 .13964844 .09199524 .12063599 .09199524 .089645389 .09199524 .008514404 .16699219-.021484375 .2539978-.021484375 .4079895-.021484375 .5469971 .118637088 .5469971 .32780458 .5469971 .5709839 .43598939 .66503909 .30799867 .66503909 .1789856 .66503909 .06298828 .5729828 .06298828 .44088746 .06298828 .36582948 .09098816 .3237915 .1269989 .2877655 .17098999 .24473572 .21899414 .21875 .2919922 .21875 .3789978 .21875 .42599488 .27575685 .44699098 .31478883M.29699708 .25074769C.23498535 .25074769 .20799256 .2817688 .19198609 .30278016 .1639862 .34080506 .16299439 .3838501 .16299439 .44088746 .16299439 .49993897 .16299439 .5389557 .19599915 .5799866 .22399903 .6140137 .25698854 .6320343 .30899049 .6320343 .44400025 .6320343 .44400025 .46090699 .44400025 .42086793 .44400025 .33081056 .3849945 .25074769 .29699708 .25074769Z"/>
<path id="font_4_2" d="M.58898928 .19296265H.5469971C.5439911 .17396546 .5339966 .11198425 .5179901 .101989749 .5099945 .09599304 .42599488 .09599304 .41099549 .09599304H.21499634C.2809906 .14497376 .35499574 .20095825 .4149933 .24093628 .5049896 .30291749 .58898928 .36090089 .58898928 .46687318 .58898928 .59495547 .46798707 .6660156 .32499696 .6660156 .18998719 .6660156 .09098816 .58795168 .09098816 .48986817 .09098816 .4378662 .1349945 .42886354 .14898682 .42886354 .17599488 .42886354 .20799256 .4468689 .20799256 .48786927 .20799256 .52386477 .18199158 .543869 .15098572 .546875 .1789856 .59194949 .23699951 .6220093 .3039856 .6220093 .40098573 .6220093 .48199464 .5639038 .48199464 .4658661 .48199464 .3818817 .42399598 .31791688 .34700013 .2529297L.102996829 .04598999C.09298706 .036987306 .09199524 .036987306 .09098816 .02999878V0H.55599978L.58898928 .19296265Z"/>
<path id="font_4_9" d="M.49398805 .31782533C.49398805 .25479127 .48999024 .17860413 .45599366 .1194458 .4229889 .061447145 .3639984 .01852417 .2829895 .01852417 .27198792 .01852417 .21099854 .01852417 .1769867 .04244995 .20199585 .049453737 .21699524 .06845093 .21699524 .094451908 .21699524 .12644959 .19299317 .14746094 .1639862 .14746094 .14698792 .14746094 .11099243 .13845825 .11099243 .09144592 .11099243-.022460938 .2579956-.022460938 .2849884-.022460938 .45298768-.022460938 .59999087 .12045288 .59999087 .32783509 .59999087 .5699768 .48199464 .6660156 .34399415 .6660156 .24398804 .6660156 .19499207 .63101199 .15499878 .59698489 .09298706 .5459595 .07998657 .49093629 .07998657 .43989564 .07998657 .38287355 .09700012 .3318329 .15098572 .2848053 .19799805 .2427826 .24398804 .21679688 .32899476 .21679688 .36999513 .21679688 .44198609 .23078919 .49398805 .31782533M.33099366 .25079347C.29100038 .25079347 .25299073 .25779725 .21699524 .30282594 .18699646 .33984376 .18598938 .38085938 .18598938 .43989564 .18598938 .51194766 .18899536 .54196169 .22698975 .5819855 .24198914 .598999 .27198792 .628006 .34399415 .628006 .4909973 .628006 .4909973 .46290589 .4909973 .41989137 .4909973 .33683778 .43199159 .25079347 .33099366 .25079347Z"/>
<path id="font_4_7" d="M.625 .59983828C.6339874 .60884097 .6339874 .61083987 .6349945 .6158447V.6438446H.3929901C.36698915 .6438446 .22099304 .64782717 .20298767 .6508026 .17999268 .655777 .1789856 .6657715 .1769867 .67578127H.1349945L.09700012 .4507904H.13899231C.14099121 .4657898 .1519928 .530838 .16899109 .5418396 .1749878 .5468445 .2689972 .54785159 .28399659 .54785159H.5219879C.47999574 .4988098 .42599488 .44477845 .3869934 .39575196 .2679901 .2436676 .25299073 .099594119 .25299073 .03855896 .25299073-.016464234 .28799439-.022460938 .30599977-.022460938 .35899354-.022460938 .35899354 .028549195 .35899354 .04055786V.060562135C.35899354 .23866272 .39698792 .34872438 .45700074 .4147644L.625 .59983828Z"/>
<path id="font_4_1" d="M.397995 .63591006C.397995 .6660156 .394989 .6660156 .3619995 .6660156 .29100038 .6016083 .17999268 .6016083 .1599884 .6016083H.14299011V.5576172H.1599884C.18299866 .5576172 .24798584 .5606079 .30599977 .58561709V.08596802C.30599977 .054977418 .30599977 .04399109 .19999695 .04399109H.1499939V0C.20498657 .0039978029 .2939911 .0039978029 .35198976 .0039978029 .4099884 .0039978029 .49899293 .0039978029 .55400088 0V.04399109H.5039978C.397995 .04399109 .397995 .054977418 .397995 .08596802V.63591006Z"/>
<path id="font_4_5" d="M.19599915 .55078127C.24899292 .53778079 .2939911 .53778079 .30499269 .53778079 .37298585 .53778079 .4229889 .55778506 .44898988 .57177737 .47299195 .583786 .54100039 .6267853 .54100039 .64878848 .54100039 .66378787 .5299988 .66578677 .5269928 .66578677 .5249939 .66578677 .522995 .66578677 .5119934 .66078189 .47399903 .6477814 .4119873 .63378909 .34599305 .63378909 .2889862 .63378909 .23399353 .64378359 .18099976 .66178897 .16999817 .66578677 .16799927 .66578677 .1659851 .66578677 .1519928 .66578677 .1519928 .6537781 .1519928 .63778689V.33763124C.1519928 .32061769 .1519928 .30760194 .17098999 .30760194 .18199158 .30760194 .18299866 .30960084 .19198609 .32061769 .22999573 .36468507 .2829895 .38671876 .35099793 .38671876 .40899659 .38671876 .44099427 .35266114 .45498658 .33163453 .47799684 .2975769 .48298646 .2525177 .48298646 .20446778 .48298646 .16246033 .47898866 .10646057 .43998719 .067489627 .394989 .021530152 .33799745 .01852417 .31599427 .01852417 .25099183 .01852417 .17799378 .04650879 .14698792 .10546875 .18899536 .10845947 .20298767 .13845825 .20298767 .1614685 .20298767 .19346619 .1789856 .21746826 .14698792 .21746826 .125 .21746826 .09098816 .20446778 .09098816 .15846253 .09098816 .0605011 .18699646-.022460938 .31799317-.022460938 .46699525-.022460938 .58898928 .07748413 .58898928 .20146179 .58898928 .3146057 .49198915 .41970826 .35299684 .41970826 .2899933 .41970826 .23899842 .40371705 .19599915 .37068177V.55078127Z"/>
<path id="font_4_6" d="M.18598938 .32769776C.18699646 .37371827 .18798828 .4528656 .22399903 .51808169 .25299073 .5720825 .31799317 .628006 .41099549 .628006 .42999269 .628006 .47499085 .6260071 .5049896 .6020813 .4889984 .5980835 .46299745 .5830841 .46299745 .5490875 .46299745 .51708987 .4869995 .49609376 .5159912 .49609376 .5329895 .49609376 .56900027 .5050812 .56900027 .5520935 .56900027 .6060791 .5309906 .6660156 .4099884 .6660156 .23799134 .6660156 .07998657 .52508547 .07998657 .317688 .07998657 .078567508 .19699097-.022460938 .34298707-.022460938 .44198609-.022460938 .4889984 .014526367 .522995 .042541505 .58699038 .095565799 .59999087 .15460205 .59999087 .20463562 .59999087 .26565553 .5799866 .314682 .5279999 .36071778 .48399354 .40072633 .43798829 .42773438 .35099793 .42773438 .29299928 .42773438 .22799683 .39971925 .18598938 .32769776M.34298707 .01852417C.18899536 .01852417 .18899536 .18461609 .18899536 .2266388 .18899536 .30368043 .24398804 .39372254 .34899903 .39372254 .3999939 .39372254 .43199159 .38072206 .46299745 .34069825 .49299623 .30368043 .49398805 .2616577 .49398805 .20562744 .49398805 .14759827 .49398805 .109573367 .46199037 .06956482 .43399049 .0365448 .39898683 .01852417 .34298707 .01852417Z"/>
<path id="font_4_8" d="M.42900086 .36079408C.5319977 .40382386 .5649872 .45687867 .5649872 .513916 .5649872 .6179962 .44999696 .6660156 .34098817 .6660156 .21699524 .6660156 .114990238 .5959778 .114990238 .4958954 .114990238 .40382386 .19400025 .36279298 .24598694 .3357849 .13999939 .29473878 .07998657 .23570252 .07998657 .15364075 .07998657 .03353882 .21299744-.022460938 .33898927-.022460938 .47898866-.022460938 .59999087 .05255127 .59999087 .1706543 .59999087 .27973939 .49598695 .33078004 .42900086 .36079408M.23298645 .46287538C.18998719 .4848938 .1769867 .51091006 .1769867 .53492739 .1769867 .59898379 .25898744 .628006 .33898927 .628006 .4189911 .628006 .5029907 .588974 .5029907 .51290896 .5029907 .42485047 .3889923 .38381959 .3880005 .38381959 .3869934 .38381959 .38598634 .38381959 .3769989 .38882447L.23298645 .46287538M.2889862 .31376649 .44400025 .23469544C.47999574 .21568299 .5309906 .18865967 .5309906 .1346283 .5309906 .05355835 .42999269 .01852417 .34098817 .01852417 .25 .01852417 .14898682 .063568118 .14898682 .15463257 .14898682 .2537079 .25698854 .29974366 .2889862 .31376649Z"/>
<path id="font_4_4" d="M.61698916 .1630249V.20703125H.49198915V.64675906C.49198915 .67074587 .4909973 .6767578 .46499635 .6767578 .44499208 .6767578 .44400025 .67575076 .43299867 .66174319L.06298828 .20703125V.1630249H.3959961V.085006717C.3959961 .054000856 .3959961 .04399109 .30899049 .04399109H.27398683V0C.32099916 .0019989014 .38598634 .0039978029 .44400025 .0039978029 .5019989 .0039978029 .56599429 .0019989014 .6139984 0V.04399109H.57899478C.49198915 .04399109 .49198915 .054000856 .49198915 .085006717V.1630249H.61698916M.4039917 .5688019V.20703125H.10998535L.4039917 .5688019Z"/>
<path id="font_4_3" d="M.32998658 .3310547C.42199708 .3310547 .48298646 .2737732 .48298646 .17437744 .48298646 .07237244 .41999818 .01852417 .33099366 .01852417 .31999208 .01852417 .20098877 .01852417 .1499939 .070373538 .19099427 .07637024 .20298767 .1073761 .20298767 .13137818 .20298767 .16838074 .1749878 .19238281 .14199829 .19238281 .10998535 .19238281 .07998657 .17137146 .07998657 .12937927 .07998657 .025512696 .19799805-.022460938 .33399964-.022460938 .49798585-.022460938 .59999087 .07637024 .59999087 .17337036 .59999087 .25567628 .5269928 .3260193 .41299439 .35205079 .5329895 .3909912 .5649872 .46684266 .5649872 .5228424 .5649872 .60491946 .46299745 .6660156 .33699037 .6660156 .21398926 .6660156 .114990238 .61395266 .114990238 .5238342 .114990238 .47683717 .15299988 .46484376 .17199707 .46484376 .20098877 .46484376 .22898865 .48583985 .22898865 .5218353 .22898865 .5448303 .21699524 .5728302 .18099976 .57884219 .22399903 .625 .31298829 .628006 .33399964 .628006 .40699769 .628006 .45899964 .5908661 .45899964 .5228424 .45899964 .46484376 .42099 .37402345 .31599427 .368042 .28799439 .3670349 .28399659 .3660431 .2579956 .365036 .24699402 .3640442 .23599243 .36305238 .23599243 .34805299 .23599243 .3310547 .24598694 .3310547 .2639923 .3310547H.32998658Z"/>
</defs>
<path transform="matrix(1.00006,0,0,-1.00008,114.79174,74.52468)" d="M9.96277 0C9.96277 5.50235 5.50235 9.96277 0 9.96277-5.50235 9.96277-9.96277 5.50235-9.96277 0-9.96277-5.50235-5.50235-9.96277 0-9.96277 5.50235-9.96277 9.96277-5.50235 9.96277 0ZM0 0" fill="#7f807f" fill-opacity=".3"/>
<path transform="matrix(1.00006,0,0,-1.00008,114.79174,74.52468)" stroke-width=".3985" stroke-linecap="butt" stroke-miterlimit="10" stroke-linejoin="miter" fill="none" stroke="#000000" d="M9.96277 0C9.96277 5.50235 5.50235 9.96277 0 9.96277-5.50235 9.96277-9.96277 5.50235-9.96277 0-9.96277-5.50235-5.50235-9.96277 0-9.96277 5.50235-9.96277 9.96277-5.50235 9.96277 0ZM0 0"/>
<use data-text="v" xlink:href="#font_1_1" transform="matrix(8.966938,0,0,-8.967117,110.55749,75.956798)"/>
<use data-text="s" xlink:href="#font_2_2" transform="matrix(5.9779589,0,0,-5.9780786,115.03376,76.95387)"/>
<path transform="matrix(1.00006,0,0,-1.00008,114.79174,74.52468)" d="M-38.4246-31.37953C-38.4246-25.87718-42.88501-21.41676-48.38737-21.41676-53.88972-21.41676-58.35014-25.87718-58.35014-31.37953-58.35014-36.8819-53.88972-41.3423-48.38737-41.3423-42.88501-41.3423-38.4246-36.8819-38.4246-31.37953ZM-48.38737-31.37953" fill="#7f807f" fill-opacity=".3"/>
<path transform="matrix(1.00006,0,0,-1.00008,114.79174,74.52468)" stroke-width=".3985" stroke-linecap="butt" stroke-miterlimit="10" stroke-linejoin="miter" fill="none" stroke="#000000" d="M-38.4246-31.37953C-38.4246-25.87718-42.88501-21.41676-48.38737-21.41676-53.88972-21.41676-58.35014-25.87718-58.35014-31.37953-58.35014-36.8819-53.88972-41.3423-48.38737-41.3423-42.88501-41.3423-38.4246-36.8819-38.4246-31.37953ZM-48.38737-31.37953"/>
<use data-text="v" xlink:href="#font_1_1" transform="matrix(8.966938,0,0,-8.967117,62.087587,107.33931)"/>
<use data-text="1" xlink:href="#font_3_1" transform="matrix(5.9779589,0,0,-5.9780786,66.56386,108.33639)"/>
<path transform="matrix(1.00006,0,0,-1.00008,114.79174,74.52468)" d="M58.35014-31.37953C58.35014-25.87718 53.88972-21.41676 48.38737-21.41676 42.88501-21.41676 38.4246-25.87718 38.4246-31.37953 38.4246-36.8819 42.88501-41.3423 48.38737-41.3423 53.88972-41.3423 58.35014-36.8819 58.35014-31.37953ZM48.38737-31.37953" fill="#7f807f" fill-opacity=".3"/>
<path transform="matrix(1.00006,0,0,-1.00008,114.79174,74.52468)" stroke-width=".3985" stroke-linecap="butt" stroke-miterlimit="10" stroke-linejoin="miter" fill="none" stroke="#000000" d="M58.35014-31.37953C58.35014-25.87718 53.88972-21.41676 48.38737-21.41676 42.88501-21.41676 38.4246-25.87718 38.4246-31.37953 38.4246-36.8819 42.88501-41.3423 48.38737-41.3423 53.88972-41.3423 58.35014-36.8819 58.35014-31.37953ZM48.38737-31.37953"/>
<use data-text="v" xlink:href="#font_1_1" transform="matrix(8.966938,0,0,-8.967117,158.86838,107.33931)"/>
<use data-text="2" xlink:href="#font_3_2" transform="matrix(5.9779589,0,0,-5.9780786,163.34467,108.33639)"/>
<path transform="matrix(1.00006,0,0,-1.00008,114.79174,74.52468)" d="M-38.4246 31.37953C-38.4246 36.8819-42.88501 41.3423-48.38737 41.3423-53.88972 41.3423-58.35014 36.8819-58.35014 31.37953-58.35014 25.87718-53.88972 21.41676-48.38737 21.41676-42.88501 21.41676-38.4246 25.87718-38.4246 31.37953ZM-48.38737 31.37953" fill="#7f807f" fill-opacity=".3"/>
<path transform="matrix(1.00006,0,0,-1.00008,114.79174,74.52468)" stroke-width=".3985" stroke-linecap="butt" stroke-miterlimit="10" stroke-linejoin="miter" fill="none" stroke="#000000" d="M-38.4246 31.37953C-38.4246 36.8819-42.88501 41.3423-48.38737 41.3423-53.88972 41.3423-58.35014 36.8819-58.35014 31.37953-58.35014 25.87718-53.88972 21.41676-48.38737 21.41676-42.88501 21.41676-38.4246 25.87718-38.4246 31.37953ZM-48.38737 31.37953"/>
<use data-text="v" xlink:href="#font_1_1" transform="matrix(8.966938,0,0,-8.967117,62.087587,44.575288)"/>
<use data-text="3" xlink:href="#font_3_3" transform="matrix(5.9779589,0,0,-5.9780786,66.56386,45.572366)"/>
<path transform="matrix(1.00006,0,0,-1.00008,114.79174,74.52468)" d="M58.35014 31.37953C58.35014 36.8819 53.88972 41.3423 48.38737 41.3423 42.88501 41.3423 38.4246 36.8819 38.4246 31.37953 38.4246 25.87718 42.88501 21.41676 48.38737 21.41676 53.88972 21.41676 58.35014 25.87718 58.35014 31.37953ZM48.38737 31.37953" fill="#7f807f" fill-opacity=".3"/>
<path transform="matrix(1.00006,0,0,-1.00008,114.79174,74.52468)" stroke-width=".3985" stroke-linecap="butt" stroke-miterlimit="10" stroke-linejoin="miter" fill="none" stroke="#000000" d="M58.35014 31.37953C58.35014 36.8819 53.88972 41.3423 48.38737 41.3423 42.88501 41.3423 38.4246 36.8819 38.4246 31.37953 38.4246 25.87718 42.88501 21.41676 48.38737 21.41676 53.88972 21.41676 58.35014 25.87718 58.35014 31.37953ZM48.38737 31.37953"/>
<use data-text="v" xlink:href="#font_1_1" transform="matrix(8.966938,0,0,-8.967117,158.86838,44.575288)"/>
<use data-text="4" xlink:href="#font_3_4" transform="matrix(5.9779589,0,0,-5.9780786,163.34467,45.572366)"/>
<path transform="matrix(1.00006,0,0,-1.00008,114.79174,74.52468)" d="M9.96277-62.75908C9.96277-57.25673 5.50235-52.79631 0-52.79631-5.50235-52.79631-9.96277-57.25673-9.96277-62.75908-9.96277-68.26143-5.50235-72.72185 0-72.72185 5.50235-72.72185 9.96277-68.26143 9.96277-62.75908ZM0-62.75908" fill="#7f807f" fill-opacity=".3"/>
<path transform="matrix(1.00006,0,0,-1.00008,114.79174,74.52468)" stroke-width=".3985" stroke-linecap="butt" stroke-miterlimit="10" stroke-linejoin="miter" fill="none" stroke="#000000" d="M9.96277-62.75908C9.96277-57.25673 5.50235-52.79631 0-52.79631-5.50235-52.79631-9.96277-57.25673-9.96277-62.75908-9.96277-68.26143-5.50235-72.72185 0-72.72185 5.50235-72.72185 9.96277-68.26143 9.96277-62.75908ZM0-62.75908"/>
<use data-text="v" xlink:href="#font_1_1" transform="matrix(8.966938,0,0,-8.967117,110.384479,138.6878)"/>
<use data-text="d" xlink:href="#font_2_1" transform="matrix(5.9779589,0,0,-5.9780786,114.86075,139.7509)"/>
<path transform="matrix(1.00006,0,0,-1.00008,114.79174,74.52468)" d="M9.96277 62.75908C9.96277 68.26143 5.50235 72.72185 0 72.72185-5.50235 72.72185-9.96277 68.26143-9.96277 62.75908-9.96277 57.25673-5.50235 52.79631 0 52.79631 5.50235 52.79631 9.96277 57.25673 9.96277 62.75908ZM0 62.75908" fill="#7f807f" fill-opacity=".3"/>
<path transform="matrix(1.00006,0,0,-1.00008,114.79174,74.52468)" stroke-width=".3985" stroke-linecap="butt" stroke-miterlimit="10" stroke-linejoin="miter" fill="none" stroke="#000000" d="M9.96277 62.75908C9.96277 68.26143 5.50235 72.72185 0 72.72185-5.50235 72.72185-9.96277 68.26143-9.96277 62.75908-9.96277 57.25673-5.50235 52.79631 0 52.79631 5.50235 52.79631 9.96277 57.25673 9.96277 62.75908ZM0 62.75908"/>
<use data-text="v" xlink:href="#font_1_1" transform="matrix(8.966938,0,0,-8.967117,110.47748,13.192776)"/>
<use data-text="5" xlink:href="#font_3_5" transform="matrix(5.9779589,0,0,-5.9780786,114.95375,14.1898579)"/>
<path transform="matrix(1.00006,0,0,-1.00008,114.79174,74.52468)" d="M-92.76474 31.37953C-92.76474 36.8819-97.22516 41.3423-102.72751 41.3423-108.22987 41.3423-112.69028 36.8819-112.69028 31.37953-112.69028 25.87718-108.22987 21.41676-102.72751 21.41676-97.22516 21.41676-92.76474 25.87718-92.76474 31.37953ZM-102.72751 31.37953" fill="#7f807f" fill-opacity=".3"/>
<path transform="matrix(1.00006,0,0,-1.00008,114.79174,74.52468)" stroke-width=".3985" stroke-linecap="butt" stroke-miterlimit="10" stroke-linejoin="miter" fill="none" stroke="#000000" d="M-92.76474 31.37953C-92.76474 36.8819-97.22516 41.3423-102.72751 41.3423-108.22987 41.3423-112.69028 36.8819-112.69028 31.37953-112.69028 25.87718-108.22987 21.41676-102.72751 21.41676-97.22516 21.41676-92.76474 25.87718-92.76474 31.37953ZM-102.72751 31.37953"/>
<use data-text="v" xlink:href="#font_1_1" transform="matrix(8.966938,0,0,-8.967117,7.7443239,44.575288)"/>
<use data-text="6" xlink:href="#font_3_6" transform="matrix(5.9779589,0,0,-5.9780786,12.220596,45.572366)"/>
<path transform="matrix(1.00006,0,0,-1.00008,114.79174,74.52468)" d="M-92.76474-31.37953C-92.76474-25.87718-97.22516-21.41676-102.72751-21.41676-108.22987-21.41676-112.69028-25.87718-112.69028-31.37953-112.69028-36.8819-108.22987-41.3423-102.72751-41.3423-97.22516-41.3423-92.76474-36.8819-92.76474-31.37953ZM-102.72751-31.37953" fill="#7f807f" fill-opacity=".3"/>
<path transform="matrix(1.00006,0,0,-1.00008,114.79174,74.52468)" stroke-width=".3985" stroke-linecap="butt" stroke-miterlimit="10" stroke-linejoin="miter" fill="none" stroke="#000000" d="M-92.76474-31.37953C-92.76474-25.87718-97.22516-21.41676-102.72751-21.41676-108.22987-21.41676-112.69028-25.87718-112.69028-31.37953-112.69028-36.8819-108.22987-41.3423-102.72751-41.3423-97.22516-41.3423-92.76474-36.8819-92.76474-31.37953ZM-102.72751-31.37953"/>
<use data-text="v" xlink:href="#font_1_1" transform="matrix(8.966938,0,0,-8.967117,7.7443239,107.33931)"/>
<use data-text="7" xlink:href="#font_3_7" transform="matrix(5.9779589,0,0,-5.9780786,12.220596,108.33639)"/>
<path transform="matrix(1.00006,0,0,-1.00008,114.79174,74.52468)" d="M112.69028 31.37953C112.69028 36.8819 108.22987 41.3423 102.72751 41.3423 97.22516 41.3423 92.76474 36.8819 92.76474 31.37953 92.76474 25.87718 97.22516 21.41676 102.72751 21.41676 108.22987 21.41676 112.69028 25.87718 112.69028 31.37953ZM102.72751 31.37953" fill="#7f807f" fill-opacity=".3"/>
<path transform="matrix(1.00006,0,0,-1.00008,114.79174,74.52468)" stroke-width=".3985" stroke-linecap="butt" stroke-miterlimit="10" stroke-linejoin="miter" fill="none" stroke="#000000" d="M112.69028 31.37953C112.69028 36.8819 108.22987 41.3423 102.72751 41.3423 97.22516 41.3423 92.76474 36.8819 92.76474 31.37953 92.76474 25.87718 97.22516 21.41676 102.72751 21.41676 108.22987 21.41676 112.69028 25.87718 112.69028 31.37953ZM102.72751 31.37953"/>
<use data-text="v" xlink:href="#font_1_1" transform="matrix(8.966938,0,0,-8.967117,213.21164,44.575288)"/>
<use data-text="8" xlink:href="#font_3_8" transform="matrix(5.9779589,0,0,-5.9780786,217.68791,45.572366)"/>
<path transform="matrix(1.00006,0,0,-1.00008,114.79174,74.52468)" d="M112.69028-31.37953C112.69028-25.87718 108.22987-21.41676 102.72751-21.41676 97.22516-21.41676 92.76474-25.87718 92.76474-31.37953 92.76474-36.8819 97.22516-41.3423 102.72751-41.3423 108.22987-41.3423 112.69028-36.8819 112.69028-31.37953ZM102.72751-31.37953" fill="#7f807f" fill-opacity=".3"/>
<path transform="matrix(1.00006,0,0,-1.00008,114.79174,74.52468)" stroke-width=".3985" stroke-linecap="butt" stroke-miterlimit="10" stroke-linejoin="miter" fill="none" stroke="#000000" d="M112.69028-31.37953C112.69028-25.87718 108.22987-21.41676 102.72751-21.41676 97.22516-21.41676 92.76474-25.87718 92.76474-31.37953 92.76474-36.8819 97.22516-41.3423 102.72751-41.3423 108.22987-41.3423 112.69028-36.8819 112.69028-31.37953ZM102.72751-31.37953"/>
<use data-text="v" xlink:href="#font_1_1" transform="matrix(8.966938,0,0,-8.967117,213.21164,107.33931)"/>
<use data-text="9" xlink:href="#font_3_9" transform="matrix(5.9779589,0,0,-5.9780786,217.68791,108.33639)"/>
<path transform="matrix(1.00006,0,0,-1.00008,114.79174,74.52468)" stroke-width=".3985" stroke-linecap="butt" stroke-miterlimit="10" stroke-linejoin="miter" fill="none" stroke="#000000" d="M0-10.16202V-52.13878"/>
<path transform="matrix(0,1.00008,1.00006,0,114.79174,126.66763)" stroke-width=".31879" stroke-linecap="round" stroke-linejoin="round" fill="none" stroke="#000000" d="M-1.19551 1.59401C-1.09587 .99626 0 .09961 .29886 0 0-.09961-1.09587-.99626-1.19551-1.59401"/>
<use data-text="2" xlink:href="#font_4_2" transform="matrix(0,4.9816987,4.9815986,0,115.48878,104.21205)"/>
<path transform="matrix(1.00006,0,0,-1.00008,114.79174,74.52468)" stroke-width=".3985" stroke-linecap="butt" stroke-miterlimit="10" stroke-linejoin="miter" fill="none" stroke="#000000" d="M-8.5258-5.52911-39.47691-25.60106"/>
<path transform="matrix(-.8390403,.5441435,.5441326,.8390571,75.31246,100.12779)" stroke-width=".31879" stroke-linecap="round" stroke-linejoin="round" fill="none" stroke="#000000" d="M-1.19551 1.59401C-1.09587 .99626 0 .09961 .29886 0 0-.09961-1.09587-.99626-1.19551-1.59401"/>
<use data-text="9" xlink:href="#font_4_9" transform="matrix(4.179511,-2.710542,-2.7104877,-4.179595,88.79454,90.55327)"/>
<path transform="matrix(1.00006,0,0,-1.00008,114.79174,74.52468)" stroke-width=".3985" stroke-linecap="butt" stroke-miterlimit="10" stroke-linejoin="miter" fill="none" stroke="#000000" d="M8.5258-5.52911 39.47691-25.60106"/>
<path transform="matrix(.8390403,.5441435,.5441326,-.8390571,154.27103,100.12779)" stroke-width=".31879" stroke-linecap="round" stroke-linejoin="round" fill="none" stroke="#000000" d="M-1.19551 1.59401C-1.09587 .99626 0 .09961 .29886 0 0-.09961-1.09587-.99626-1.19551-1.59401"/>
<use data-text="7" xlink:href="#font_4_7" transform="matrix(4.179511,2.710542,2.7104877,-4.179595,137.94408,88.70836)"/>
<path transform="matrix(1.00006,0,0,-1.00008,114.79174,74.52468)" stroke-width=".3985" stroke-linecap="butt" stroke-miterlimit="10" stroke-linejoin="miter" fill="none" stroke="#000000" d="M8.5258 5.52911 39.47691 25.60106"/>
<path transform="matrix(.8390403,-.5441435,-.5441326,-.8390571,154.27103,48.92157)" stroke-width=".31879" stroke-linecap="round" stroke-linejoin="round" fill="none" stroke="#000000" d="M-1.19551 1.59401C-1.09587 .99626 0 .09961 .29886 0 0-.09961-1.09587-.99626-1.19551-1.59401"/>
<use data-text="7" xlink:href="#font_4_7" transform="matrix(4.179511,-2.710542,-2.7104877,-4.179595,137.18445,59.17076)"/>
<path transform="matrix(1.00006,0,0,-1.00008,114.79174,74.52468)" stroke-width=".3985" stroke-linecap="butt" stroke-miterlimit="10" stroke-linejoin="miter" fill="none" stroke="#000000" d="M0 10.16202V52.13878"/>
<path transform="matrix(0,-1.00008,-1.00006,-0,114.79174,22.381733)" stroke-width=".31879" stroke-linecap="round" stroke-linejoin="round" fill="none" stroke="#000000" d="M-1.19551 1.59401C-1.09587 .99626 0 .09961 .29886 0 0-.09961-1.09587-.99626-1.19551-1.59401"/>
<use data-text="1" xlink:href="#font_4_1" transform="matrix(0,-4.9816987,-4.9815986,-0,118.698978,46.533433)"/>
<use data-text="5" xlink:href="#font_4_5" transform="matrix(0,-4.9816987,-4.9815986,-0,118.698978,43.145875)"/>
<path transform="matrix(1.00006,0,0,-1.00008,114.79174,74.52468)" stroke-width=".3985" stroke-linecap="butt" stroke-miterlimit="10" stroke-linejoin="miter" fill="none" stroke="#000000" d="M-8.5258 5.52911-39.47691 25.60106"/>
<path transform="matrix(-.8390403,-.5441435,-.5441326,.8390571,75.31246,48.92157)" stroke-width=".31879" stroke-linecap="round" stroke-linejoin="round" fill="none" stroke="#000000" d="M-1.19551 1.59401C-1.09587 .99626 0 .09961 .29886 0 0-.09961-1.09587-.99626-1.19551-1.59401"/>
<use data-text="6" xlink:href="#font_4_6" transform="matrix(4.179511,2.710542,2.7104877,-4.179595,89.55417,57.326845)"/>
<path transform="matrix(1.00006,0,0,-1.00008,114.79174,74.52468)" stroke-width=".3985" stroke-linecap="butt" stroke-miterlimit="10" stroke-linejoin="miter" fill="none" stroke="#000000" d="M-8.5258 57.22995-39.47691 37.158"/>
<path transform="matrix(-.8390403,.5441435,.5441326,.8390571,75.31246,37.36371)" stroke-width=".31879" stroke-linecap="round" stroke-linejoin="round" fill="none" stroke="#000000" d="M-1.19551 1.59401C-1.09587 .99626 0 .09961 .29886 0 0-.09961-1.09587-.99626-1.19551-1.59401"/>
<use data-text="1" xlink:href="#font_4_1" transform="matrix(4.179511,-2.710542,-2.7104877,-4.179595,88.79454,27.788254)"/>
<path transform="matrix(1.00006,0,0,-1.00008,114.79174,74.52468)" stroke-width=".3985" stroke-linecap="butt" stroke-miterlimit="10" stroke-linejoin="miter" fill="none" stroke="#000000" d="M8.5258 57.22995 39.47691 37.158"/>
<path transform="matrix(.8390403,.5441435,.5441326,-.8390571,154.27103,37.36371)" stroke-width=".31879" stroke-linecap="round" stroke-linejoin="round" fill="none" stroke="#000000" d="M-1.19551 1.59401C-1.09587 .99626 0 .09961 .29886 0 0-.09961-1.09587-.99626-1.19551-1.59401"/>
<use data-text="1" xlink:href="#font_4_1" transform="matrix(4.179511,2.710542,2.7104877,-4.179595,137.94408,25.94432)"/>
<path transform="matrix(1.00006,0,0,-1.00008,114.79174,74.52468)" stroke-width=".3985" stroke-linecap="butt" stroke-miterlimit="10" stroke-linejoin="miter" fill="none" stroke="#000000" d="M-9.71854 59.79047-92.5707 34.48201"/>
<path transform="matrix(-.9564173,.29215337,.29214753,.95643648,22.215485,40.039896)" stroke-width=".31879" stroke-linecap="round" stroke-linejoin="round" fill="none" stroke="#000000" d="M-1.19551 1.59401C-1.09587 .99626 0 .09961 .29886 0 0-.09961-1.09587-.99626-1.19551-1.59401"/>
<use data-text="8" xlink:href="#font_4_8" transform="matrix(4.7642018,-1.4553034,-1.4552744,-4.764297,61.600145,27.27994)"/>
<path transform="matrix(1.00006,0,0,-1.00008,114.79174,74.52468)" stroke-width=".3985" stroke-linecap="butt" stroke-miterlimit="10" stroke-linejoin="miter" fill="none" stroke="#000000" d="M9.71854 59.79047 92.5707 34.48201"/>
<path transform="matrix(.9564173,.29215337,.29214753,-.95643648,207.368,40.039896)" stroke-width=".31879" stroke-linecap="round" stroke-linejoin="round" fill="none" stroke="#000000" d="M-1.19551 1.59401C-1.09587 .99626 0 .09961 .29886 0 0-.09961-1.09587-.99626-1.19551-1.59401"/>
<use data-text="9" xlink:href="#font_4_9" transform="matrix(4.7642018,1.4553034,1.4552744,-4.764297,164.74102,26.289193)"/>
<path transform="matrix(1.00006,0,0,-1.00008,114.79174,74.52468)" stroke-width=".3985" stroke-linecap="butt" stroke-miterlimit="10" stroke-linejoin="miter" fill="none" stroke="#000000" d="M-58.5494 31.37953H-92.10721"/>
<path transform="matrix(-1.00006,-0,0,1.00008,22.679009,43.14264)" stroke-width=".31879" stroke-linecap="round" stroke-linejoin="round" fill="none" stroke="#000000" d="M-1.19551 1.59401C-1.09587 .99626 0 .09961 .29886 0 0-.09961-1.09587-.99626-1.19551-1.59401"/>
<use data-text="7" xlink:href="#font_4_7" transform="matrix(4.9815986,0,0,-4.9816987,37.534105,42.445116)"/>
<path transform="matrix(1.00006,0,0,-1.00008,114.79174,74.52468)" stroke-width=".3985" stroke-linecap="butt" stroke-miterlimit="10" stroke-linejoin="miter" fill="none" stroke="#000000" d="M-55.03899 23.69725-95.77579-23.35097"/>
<path transform="matrix(-.65459927,.7560405,.7560254,.65461239,19.010209,97.87752)" stroke-width=".31879" stroke-linecap="round" stroke-linejoin="round" fill="none" stroke="#000000" d="M-1.19551 1.59401C-1.09587 .99626 0 .09961 .29886 0 0-.09961-1.09587-.99626-1.19551-1.59401"/>
<use data-text="6" xlink:href="#font_4_6" transform="matrix(3.260755,-3.7660645,-3.765989,-3.2608205,37.592409,75.349239)"/>
<path transform="matrix(1.00006,0,0,-1.00008,114.79174,74.52468)" stroke-width=".3985" stroke-linecap="butt" stroke-miterlimit="10" stroke-linejoin="miter" fill="none" stroke="#000000" d="M-48.38737 21.21751V-20.75923"/>
<path transform="matrix(0,1.00008,1.00006,0,66.40147,95.28557)" stroke-width=".31879" stroke-linecap="round" stroke-linejoin="round" fill="none" stroke="#000000" d="M-1.19551 1.59401C-1.09587 .99626 0 .09961 .29886 0 0-.09961-1.09587-.99626-1.19551-1.59401"/>
<use data-text="4" xlink:href="#font_4_4" transform="matrix(0,4.9816987,4.9815986,0,67.09889,72.829547)"/>
<path transform="matrix(1.00006,0,0,-1.00008,114.79174,74.52468)" stroke-width=".3985" stroke-linecap="butt" stroke-miterlimit="10" stroke-linejoin="miter" fill="none" stroke="#000000" d="M-102.72751 21.21751V-20.75923"/>
<path transform="matrix(0,1.00008,1.00006,0,12.058075,95.28557)" stroke-width=".31879" stroke-linecap="round" stroke-linejoin="round" fill="none" stroke="#000000" d="M-1.19551 1.59401C-1.09587 .99626 0 .09961 .29886 0 0-.09961-1.09587-.99626-1.19551-1.59401"/>
<use data-text="1" xlink:href="#font_4_1" transform="matrix(0,4.9816987,4.9815986,0,8.150345,72.829547)"/>
<path transform="matrix(1.00006,0,0,-1.00008,114.79174,74.52468)" stroke-width=".3985" stroke-linecap="butt" stroke-miterlimit="10" stroke-linejoin="miter" fill="none" stroke="#000000" d="M-92.56549-31.37953H-59.00768"/>
<path transform="matrix(1.00006,0,0,-1.00008,55.78052,105.90672)" stroke-width=".31879" stroke-linecap="round" stroke-linejoin="round" fill="none" stroke="#000000" d="M-1.19551 1.59401C-1.09587 .99626 0 .09961 .29886 0 0-.09961-1.09587-.99626-1.19551-1.59401"/>
<use data-text="8" xlink:href="#font_4_8" transform="matrix(4.9815986,0,0,-4.9816987,37.534105,109.8145)"/>
<path transform="matrix(1.00006,0,0,-1.00008,114.79174,74.52468)" stroke-width=".3985" stroke-linecap="butt" stroke-miterlimit="10" stroke-linejoin="miter" fill="none" stroke="#000000" d="M-39.86156-36.90866-8.91045-56.9806"/>
<path transform="matrix(.8390403,.5441435,.5441326,-.8390571,105.88075,131.50984)" stroke-width=".31879" stroke-linecap="round" stroke-linejoin="round" fill="none" stroke="#000000" d="M-1.19551 1.59401C-1.09587 .99626 0 .09961 .29886 0 0-.09961-1.09587-.99626-1.19551-1.59401"/>
<use data-text="1" xlink:href="#font_4_1" transform="matrix(4.179511,2.710542,2.7104877,-4.179595,85.62594,123.0321)"/>
<use data-text="4" xlink:href="#font_4_4" transform="matrix(4.179511,2.710542,2.7104877,-4.179595,88.46801,124.87527)"/>
<path transform="matrix(1.00006,0,0,-1.00008,114.79174,74.52468)" stroke-width=".3985" stroke-linecap="butt" stroke-miterlimit="10" stroke-linejoin="miter" fill="none" stroke="#000000" d="M-93.00897-34.34814-10.15681-59.6566"/>
<path transform="matrix(.9564173,.29215337,.29214753,-.95643648,104.63432,134.18604)" stroke-width=".31879" stroke-linecap="round" stroke-linejoin="round" fill="none" stroke="#000000" d="M-1.19551 1.59401C-1.09587 .99626 0 .09961 .29886 0 0-.09961-1.09587-.99626-1.19551-1.59401"/>
<use data-text="9" xlink:href="#font_4_9" transform="matrix(4.7642018,1.4553034,1.4552744,-4.764297,60.661775,124.84009)"/>
<path transform="matrix(1.00006,0,0,-1.00008,114.79174,74.52468)" stroke-width=".3985" stroke-linecap="butt" stroke-miterlimit="10" stroke-linejoin="miter" fill="none" stroke="#000000" d="M58.5494 31.37953H92.10721"/>
<path transform="matrix(1.00006,0,0,-1.00008,206.90448,43.14264)" stroke-width=".31879" stroke-linecap="round" stroke-linejoin="round" fill="none" stroke="#000000" d="M-1.19551 1.59401C-1.09587 .99626 0 .09961 .29886 0 0-.09961-1.09587-.99626-1.19551-1.59401"/>
<use data-text="9" xlink:href="#font_4_9" transform="matrix(4.9815986,0,0,-4.9816987,188.65818,42.445116)"/>
<path transform="matrix(1.00006,0,0,-1.00008,114.79174,74.52468)" stroke-width=".3985" stroke-linecap="butt" stroke-miterlimit="10" stroke-linejoin="miter" fill="none" stroke="#000000" d="M48.38737 21.21751V-20.75923"/>
<path transform="matrix(0,1.00008,1.00006,0,163.182,95.28557)" stroke-width=".31879" stroke-linecap="round" stroke-linejoin="round" fill="none" stroke="#000000" d="M-1.19551 1.59401C-1.09587 .99626 0 .09961 .29886 0 0-.09961-1.09587-.99626-1.19551-1.59401"/>
<use data-text="3" xlink:href="#font_4_3" transform="matrix(0,4.9816987,4.9815986,0,159.27439,72.829547)"/>
<path transform="matrix(1.00006,0,0,-1.00008,114.79174,74.52468)" stroke-width=".3985" stroke-linecap="butt" stroke-miterlimit="10" stroke-linejoin="miter" fill="none" stroke="#000000" d="M102.72751 21.21751V-20.75923"/>
<path transform="matrix(0,1.00008,1.00006,0,217.5254,95.28557)" stroke-width=".31879" stroke-linecap="round" stroke-linejoin="round" fill="none" stroke="#000000" d="M-1.19551 1.59401C-1.09587 .99626 0 .09961 .29886 0 0-.09961-1.09587-.99626-1.19551-1.59401"/>
<use data-text="2" xlink:href="#font_4_2" transform="matrix(0,4.9816987,4.9815986,0,218.22293,72.829547)"/>
<path transform="matrix(1.00006,0,0,-1.00008,114.79174,74.52468)" stroke-width=".3985" stroke-linecap="butt" stroke-miterlimit="10" stroke-linejoin="miter" fill="none" stroke="#000000" d="M96.0759 23.69725 55.3391-23.35097"/>
<path transform="matrix(-.65459927,.7560405,.7560254,.65461239,170.13416,97.87752)" stroke-width=".31879" stroke-linecap="round" stroke-linejoin="round" fill="none" stroke="#000000" d="M-1.19551 1.59401C-1.09587 .99626 0 .09961 .29886 0 0-.09961-1.09587-.99626-1.19551-1.59401"/>
<use data-text="8" xlink:href="#font_4_8" transform="matrix(3.260755,-3.7660645,-3.765989,-3.2608205,188.71648,75.349239)"/>
<path transform="matrix(1.00006,0,0,-1.00008,114.79174,74.52468)" stroke-width=".3985" stroke-linecap="butt" stroke-miterlimit="10" stroke-linejoin="miter" fill="none" stroke="#000000" d="M92.56549-31.37953H59.00768"/>
<path transform="matrix(-1.00006,-0,0,1.00008,173.80297,105.90672)" stroke-width=".31879" stroke-linecap="round" stroke-linejoin="round" fill="none" stroke="#000000" d="M-1.19551 1.59401C-1.09587 .99626 0 .09961 .29886 0 0-.09961-1.09587-.99626-1.19551-1.59401"/>
<use data-text="7" xlink:href="#font_4_7" transform="matrix(4.9815986,0,0,-4.9816987,188.65818,109.8145)"/>
<path transform="matrix(1.00006,0,0,-1.00008,114.79174,74.52468)" stroke-width=".3985" stroke-linecap="butt" stroke-miterlimit="10" stroke-linejoin="miter" fill="none" stroke="#000000" d="M93.00897-34.34814 10.15681-59.6566"/>
<path transform="matrix(-.9564173,.29215337,.29214753,.95643648,124.94916,134.18604)" stroke-width=".31879" stroke-linecap="round" stroke-linejoin="round" fill="none" stroke="#000000" d="M-1.19551 1.59401C-1.09587 .99626 0 .09961 .29886 0 0-.09961-1.09587-.99626-1.19551-1.59401"/>
<use data-text="8" xlink:href="#font_4_8" transform="matrix(4.7642018,-1.4553034,-1.4552744,-4.764297,165.67839,125.82982)"/>
<path transform="matrix(1.00006,0,0,-1.00008,114.79174,74.52468)" stroke-width=".3985" stroke-linecap="butt" stroke-miterlimit="10" stroke-linejoin="miter" fill="none" stroke="#000000" d="M39.86156-36.90866 8.91045-56.9806"/>
<path transform="matrix(-.8390403,.5441435,.5441326,.8390571,123.70273,131.50984)" stroke-width=".31879" stroke-linecap="round" stroke-linejoin="round" fill="none" stroke="#000000" d="M-1.19551 1.59401C-1.09587 .99626 0 .09961 .29886 0 0-.09961-1.09587-.99626-1.19551-1.59401"/>
<use data-text="1" xlink:href="#font_4_1" transform="matrix(4.179511,-2.710542,-2.7104877,-4.179595,138.26851,126.72116)"/>
<use data-text="5" xlink:href="#font_4_5" transform="matrix(4.179511,-2.710542,-2.7104877,-4.179595,141.11058,124.87799)"/>
</svg>
