<svg xmlns="http://www.w3.org/2000/svg" xmlns:xlink="http://www.w3.org/1999/xlink" xmlns:inkscape="http://www.inkscape.org/namespaces/inkscape" version="1.1" width="188" height="123" viewBox="0 0 188 123">
<defs>
<path id="font_1_1" d="M.48098756 .3693695C.48098756 .43937684 .44400025 .44337464 .43499757 .44337464 .4099884 .44337464 .38398744 .41638185 .38398744 .39337159 .38398744 .3783722 .3929901 .37036134 .3999939 .36436463 .4269867 .33935548 .43598939 .30734254 .43598939 .28134156 .43598939 .23731995 .37298585 .014251709 .25698854 .014251709 .18199158 .014251709 .18199158 .08427429 .18199158 .10227966 .18199158 .14529419 .19599915 .19630432 .23098755 .28733827 .24699402 .3293457 .25099183 .33935548 .25099183 .35835267 .25099183 .40737916 .21398926 .4423828 .16499329 .4423828 .068984989 .4423828 .0289917 .30033876 .0289917 .28833009 .0289917 .2793274 .035995485 .27633668 .042999269 .27633668 .053985597 .27633668 .054992677 .28233338 .05899048 .29533387 .07998657 .36836244 .11999512 .41737367 .1619873 .41737367 .18199158 .41737367 .18598938 .40437318 .18598938 .3843689 .18598938 .36735536 .18199158 .34934999 .17298889 .3253479 .13699341 .22932434 .11299133 .16529846 .11299133 .11528015 .11299133 .021255494 .18399048-.0107421879 .25299073-.0107421879 .42099-.0107421879 .48098756 .30534364 .48098756 .3693695Z"/>
<path id="font_2_3" d="M.2939911 .33203126C.3789978 .33203126 .43598939 .274765 .43598939 .17237854 .43598939 .062408449 .36999513 .014511108 .29699708 .014511108 .269989 .014511108 .16699219 .020492554 .12199402 .07836914 .16099549 .0823822 .1769867 .10836792 .1769867 .13537598 .1769867 .16937256 .15299988 .19238281 .11999512 .19238281 .09298706 .19238281 .06298828 .17536927 .06298828 .13337708 .06298828 .034469606 .17298889-.021484375 .2999878-.021484375 .44799806-.021484375 .5469971 .07337952 .5469971 .17237854 .5469971 .24562073 .4909973 .3229828 .37199403 .35302735 .45098878 .37902833 .5149994 .44306947 .5149994 .5251007 .5149994 .60505679 .42099 .66503909 .30099488 .66503909 .18399048 .66503909 .09498596 .61105349 .09498596 .5290985 .09498596 .48609925 .12799073 .47409059 .147995 .47409059 .17399597 .47409059 .20098877 .49209596 .20098877 .5270996 .20098877 .5580902 .1789856 .5760956 .1519928 .5800934 .19898987 .6320343 .2899933 .6320343 .29899598 .6320343 .34999085 .6320343 .4139862 .60806277 .4139862 .5251007 .4139862 .47009278 .3829956 .37402345 .2829895 .36802674 .2649994 .36701966 .23799134 .36502076 .22898865 .36502076 .21899414 .36402894 .20799256 .36302186 .20799256 .34802247 .20799256 .33203126 .21899414 .33203126 .23599243 .33203126H.2939911Z"/>
<path id="font_2_4" d="M.56399539 .1640625V.2030487H.44699098V.6448059C.44699098 .6678009 .44699098 .6748047 .42199708 .6748047 .4039917 .6748047 .4019928 .6717987 .3929901 .65979006L.04598999 .2030487V.1640625H.35699464V.08401489C.35699464 .050994874 .35699464 .038986207 .272995 .038986207H.24398804V0C.2639923 .0009918213 .35798646 .0039978029 .4019928 .0039978029 .44599916 .0039978029 .5399933 .0009918213 .55999758 0V.038986207H.5309906C.44699098 .038986207 .44699098 .050994874 .44699098 .08401489V.1640625H.56399539M.3639984 .56585696V.2030487H.08898926L.3639984 .56585696Z"/>
<path id="font_2_1" d="M.35899354 .6349335C.35899354 .66503909 .35499574 .66503909 .32499696 .66503909 .25898744 .60058596 .15699768 .60058596 .12098694 .60058596V.5615845C.14698792 .5615845 .21299744 .5615845 .272995 .58958438V.08496094C.272995 .051986696 .272995 .038986207 .16999817 .038986207H.1269989V0C.18199158 .0039978029 .2599945 .0039978029 .31599427 .0039978029 .37199403 .0039978029 .44999696 .0039978029 .5049896 0V.038986207H.46199037C.35899354 .038986207 .35899354 .051986696 .35899354 .08496094V.6349335Z"/>
<path id="font_2_2" d="M.5379944 .18702698H.5009918C.49899293 .17301941 .4889984 .10699463 .47399903 .09599304 .46699525 .08999634 .38598634 .08999634 .37199403 .08999634H.18499756L.31298829 .19403076C.34700013 .22103882 .43598939 .28504945 .46699525 .31506349 .49699403 .3450775 .5379944 .39608766 .5379944 .46710206 .5379944 .5920563 .4249878 .66503909 .29100038 .66503909 .1619873 .66503909 .07199097 .58006289 .07199097 .48609925 .07199097 .43510438 .114990238 .42910768 .12599182 .42910768 .15098572 .42910768 .17999268 .44709779 .17999268 .48310853 .17999268 .50509646 .16699219 .5371094 .12298584 .5371094 .1459961 .5880585 .20698548 .6260376 .27598573 .6260376 .3809967 .6260376 .43699647 .5480957 .43699647 .46710206 .43699647 .39608766 .3899994 .32305909 .31999208 .25904847L.08299255 .041992189C.07299805 .03199768 .07199097 .0309906 .07199097 0H.5069885L.5379944 .18702698Z"/>
<path id="font_3_1" d="M.45700074 .37594605C.42799378 .36894227 .4169922 .34394837 .4169922 .32894898 .4169922 .3129425 .42900086 .2959442 .45199586 .2959442 .47200013 .2959442 .5009918 .30995179 .5009918 .35295106 .5009918 .4203949 .4249878 .44140626 .3600006 .44140626 .20698548 .44140626 .16999817 .33995057 .16999817 .2969513 .16999817 .21612549 .2619934 .2001648 .28799439 .19616699 .36299134 .18319702 .42099 .17222595 .42099 .1232605 .42099 .102264408 .4039917 .06626892 .36799623 .04624939 .32899476 .025222779 .28599549 .023223877 .25698854 .023223877 .22200012 .023223877 .1599884 .027236939 .1309967 .060272218 .1659851 .06626892 .18299866 .09326172 .18299866 .117263797 .18299866 .13825989 .16899109 .15527344 .14199829 .15527344 .115997318 .15527344 .083999637 .13426209 .083999637 .087265018 .083999637 .03224182 .13899231-.009765625 .2559967-.009765625 .44299317-.009765625 .48298646 .10626221 .48298646 .15226746 .48298646 .18519593 .46899415 .20814514 .44599916 .22810364 .4139862 .25604249 .3769989 .26202394 .32899476 .27000428 .27999879 .27897645 .23199463 .28697206 .23199463 .325943 .23199463 .32695008 .23199463 .40838624 .35899354 .40838624 .38398744 .40838624 .43399049 .4043274 .45700074 .37594605Z"/>
<path id="font_2_5" d="M.16999817 .5549774C.20298767 .54599 .23799134 .5419922 .27198792 .5419922 .2939911 .5419922 .34999085 .5419922 .41299439 .5769806 .42999269 .58699038 .49198915 .6279907 .49198915 .6490326 .49198915 .6620331 .48199464 .66503909 .47799684 .66503909 .47499085 .66503909 .47399903 .66503909 .46299745 .661026 .4269867 .6470337 .37599183 .63298037 .31098939 .63298037 .2619934 .63298037 .20799256 .64201357 .16299439 .6590271 .15299988 .6630249 .14898682 .66503909 .14498902 .66503909 .1309967 .66503909 .1309967 .6540375 .1309967 .6380005V.33787538C.1309967 .32086183 .1309967 .30885316 .14898682 .30885316 .1579895 .30885316 .16099549 .31285096 .16799927 .32086183 .19299317 .35289 .23699951 .38693238 .31498719 .38693238 .43798829 .38693238 .43798829 .23677063 .43798829 .20472718 .43798829 .16567993 .43499757 .10961914 .4019928 .068573 .37098695 .030532837 .32499696 .014511108 .28199769 .014511108 .21299744 .014511108 .14399719 .05255127 .11999512 .11061096 .16899109 .11161804 .1749878 .15066529 .1749878 .16267395 .1749878 .18971253 .1539917 .21372986 .12298584 .21372986 .11399841 .21372986 .07199097 .20872498 .07199097 .15867615 .07199097 .0665741 .15899658-.021484375 .2849884-.021484375 .42199708-.021484375 .5379944 .07557678 .5379944 .20072937 .5379944 .31484986 .44599916 .4189453 .31698609 .4189453 .2519989 .4189453 .20199585 .39793397 .16999817 .37091065V.5549774Z"/>
<path id="font_2_6" d="M.16299439 .33073426C.1639862 .38076783 .1659851 .46383668 .20098877 .52589419 .24499512 .60191348 .31098939 .6320343 .37098695 .6320343 .3939972 .6320343 .43998719 .62802127 .46398927 .5998993 .4269867 .5939026 .42099 .5679016 .42099 .55189517 .42099 .52589419 .43899537 .50390627 .46899415 .50390627 .49899293 .50390627 .5179901 .52290347 .5179901 .55389407 .5179901 .6149597 .47200013 .66503909 .36999513 .66503909 .21499634 .66503909 .06298828 .52989199 .06298828 .31672669 .06298828 .07354736 .17599488-.021484375 .30799867-.021484375 .34700013-.021484375 .4149933-.015487671 .47599793 .043533327 .5079956 .075546268 .5469971 .11558533 .5469971 .2036438 .5469971 .2376709 .54299929 .30171205 .48199464 .3587494 .44699098 .3907776 .40299989 .42578126 .31799317 .42578126 .24798584 .42578126 .19699097 .3897705 .16299439 .33073426M.30699159 .014511108C.1659851 .014511108 .1659851 .18663025 .1659851 .22566223 .1659851 .3117218 .22299195 .3937683 .31298829 .3937683 .36499024 .3937683 .394989 .37275697 .4189911 .34074403 .44699098 .30171205 .44699098 .25668336 .44699098 .2036438 .44699098 .13459778 .44499208 .10057068 .41099549 .060546876 .3869934 .030517579 .35499574 .014511108 .30699159 .014511108Z"/>
<path id="font_2_7" d="M.57099917 .60369876C.5799866 .6137085 .5799866 .6157074 .5799866 .6437073H.32199098C.2809906 .6437073 .25698854 .64471438 .21798706 .64772036 .16899109 .6507416 .15699768 .65174868 .1519928 .67578127H.114990238L.07899475 .45666505H.115997318C.11898804 .4776764 .1289978 .5366974 .14399719 .547699 .1519928 .55371096 .23799134 .55371096 .25299073 .55371096H.47898866C.46798707 .53970339 .4139862 .4756775 .3899994 .44667054 .29299928 .32962037 .22499085 .1875763 .22499085 .03552246 .22499085 .026519776 .22499085-.021484375 .272995-.021484375 .32199098-.021484375 .32199098 .024520874 .32199098 .037521364V.0655365C.32199098 .25759889 .36299134 .3556366 .41299439 .41566468L.57099917 .60369876Z"/>
<path id="font_4_6" d="M.18598938 .32769776C.18699646 .37371827 .18798828 .4528656 .22399903 .51808169 .25299073 .5720825 .31799317 .628006 .41099549 .628006 .42999269 .628006 .47499085 .6260071 .5049896 .6020813 .4889984 .5980835 .46299745 .5830841 .46299745 .5490875 .46299745 .51708987 .4869995 .49609376 .5159912 .49609376 .5329895 .49609376 .56900027 .5050812 .56900027 .5520935 .56900027 .6060791 .5309906 .6660156 .4099884 .6660156 .23799134 .6660156 .07998657 .52508547 .07998657 .317688 .07998657 .078567508 .19699097-.022460938 .34298707-.022460938 .44198609-.022460938 .4889984 .014526367 .522995 .042541505 .58699038 .095565799 .59999087 .15460205 .59999087 .20463562 .59999087 .26565553 .5799866 .314682 .5279999 .36071778 .48399354 .40072633 .43798829 .42773438 .35099793 .42773438 .29299928 .42773438 .22799683 .39971925 .18598938 .32769776M.34298707 .01852417C.18899536 .01852417 .18899536 .18461609 .18899536 .2266388 .18899536 .30368043 .24398804 .39372254 .34899903 .39372254 .3999939 .39372254 .43199159 .38072206 .46299745 .34069825 .49299623 .30368043 .49398805 .2616577 .49398805 .20562744 .49398805 .14759827 .49398805 .109573367 .46199037 .06956482 .43399049 .0365448 .39898683 .01852417 .34298707 .01852417Z"/>
<path id="font_4_5" d="M.19599915 .55078127C.24899292 .53778079 .2939911 .53778079 .30499269 .53778079 .37298585 .53778079 .4229889 .55778506 .44898988 .57177737 .47299195 .583786 .54100039 .6267853 .54100039 .64878848 .54100039 .66378787 .5299988 .66578677 .5269928 .66578677 .5249939 .66578677 .522995 .66578677 .5119934 .66078189 .47399903 .6477814 .4119873 .63378909 .34599305 .63378909 .2889862 .63378909 .23399353 .64378359 .18099976 .66178897 .16999817 .66578677 .16799927 .66578677 .1659851 .66578677 .1519928 .66578677 .1519928 .6537781 .1519928 .63778689V.33763124C.1519928 .32061769 .1519928 .30760194 .17098999 .30760194 .18199158 .30760194 .18299866 .30960084 .19198609 .32061769 .22999573 .36468507 .2829895 .38671876 .35099793 .38671876 .40899659 .38671876 .44099427 .35266114 .45498658 .33163453 .47799684 .2975769 .48298646 .2525177 .48298646 .20446778 .48298646 .16246033 .47898866 .10646057 .43998719 .067489627 .394989 .021530152 .33799745 .01852417 .31599427 .01852417 .25099183 .01852417 .17799378 .04650879 .14698792 .10546875 .18899536 .10845947 .20298767 .13845825 .20298767 .1614685 .20298767 .19346619 .1789856 .21746826 .14698792 .21746826 .125 .21746826 .09098816 .20446778 .09098816 .15846253 .09098816 .0605011 .18699646-.022460938 .31799317-.022460938 .46699525-.022460938 .58898928 .07748413 .58898928 .20146179 .58898928 .3146057 .49198915 .41970826 .35299684 .41970826 .2899933 .41970826 .23899842 .40371705 .19599915 .37068177V.55078127Z"/>
<path id="font_4_3" d="M.32998658 .3310547C.42199708 .3310547 .48298646 .2737732 .48298646 .17437744 .48298646 .07237244 .41999818 .01852417 .33099366 .01852417 .31999208 .01852417 .20098877 .01852417 .1499939 .070373538 .19099427 .07637024 .20298767 .1073761 .20298767 .13137818 .20298767 .16838074 .1749878 .19238281 .14199829 .19238281 .10998535 .19238281 .07998657 .17137146 .07998657 .12937927 .07998657 .025512696 .19799805-.022460938 .33399964-.022460938 .49798585-.022460938 .59999087 .07637024 .59999087 .17337036 .59999087 .25567628 .5269928 .3260193 .41299439 .35205079 .5329895 .3909912 .5649872 .46684266 .5649872 .5228424 .5649872 .60491946 .46299745 .6660156 .33699037 .6660156 .21398926 .6660156 .114990238 .61395266 .114990238 .5238342 .114990238 .47683717 .15299988 .46484376 .17199707 .46484376 .20098877 .46484376 .22898865 .48583985 .22898865 .5218353 .22898865 .5448303 .21699524 .5728302 .18099976 .57884219 .22399903 .625 .31298829 .628006 .33399964 .628006 .40699769 .628006 .45899964 .5908661 .45899964 .5228424 .45899964 .46484376 .42099 .37402345 .31599427 .368042 .28799439 .3670349 .28399659 .3660431 .2579956 .365036 .24699402 .3640442 .23599243 .36305238 .23599243 .34805299 .23599243 .3310547 .24598694 .3310547 .2639923 .3310547H.32998658Z"/>
<path id="font_4_1" d="M.397995 .63591006C.397995 .6660156 .394989 .6660156 .3619995 .6660156 .29100038 .6016083 .17999268 .6016083 .1599884 .6016083H.14299011V.5576172H.1599884C.18299866 .5576172 .24798584 .5606079 .30599977 .58561709V.08596802C.30599977 .054977418 .30599977 .04399109 .19999695 .04399109H.1499939V0C.20498657 .0039978029 .2939911 .0039978029 .35198976 .0039978029 .4099884 .0039978029 .49899293 .0039978029 .55400088 0V.04399109H.5039978C.397995 .04399109 .397995 .054977418 .397995 .08596802V.63591006Z"/>
<path id="font_4_4" d="M.61698916 .1630249V.20703125H.49198915V.64675906C.49198915 .67074587 .4909973 .6767578 .46499635 .6767578 .44499208 .6767578 .44400025 .67575076 .43299867 .66174319L.06298828 .20703125V.1630249H.3959961V.085006717C.3959961 .054000856 .3959961 .04399109 .30899049 .04399109H.27398683V0C.32099916 .0019989014 .38598634 .0039978029 .44400025 .0039978029 .5019989 .0039978029 .56599429 .0019989014 .6139984 0V.04399109H.57899478C.49198915 .04399109 .49198915 .054000856 .49198915 .085006717V.1630249H.61698916M.4039917 .5688019V.20703125H.10998535L.4039917 .5688019Z"/>
<path id="font_4_8" d="M.42900086 .36079408C.5319977 .40382386 .5649872 .45687867 .5649872 .513916 .5649872 .6179962 .44999696 .6660156 .34098817 .6660156 .21699524 .6660156 .114990238 .5959778 .114990238 .4958954 .114990238 .40382386 .19400025 .36279298 .24598694 .3357849 .13999939 .29473878 .07998657 .23570252 .07998657 .15364075 .07998657 .03353882 .21299744-.022460938 .33898927-.022460938 .47898866-.022460938 .59999087 .05255127 .59999087 .1706543 .59999087 .27973939 .49598695 .33078004 .42900086 .36079408M.23298645 .46287538C.18998719 .4848938 .1769867 .51091006 .1769867 .53492739 .1769867 .59898379 .25898744 .628006 .33898927 .628006 .4189911 .628006 .5029907 .588974 .5029907 .51290896 .5029907 .42485047 .3889923 .38381959 .3880005 .38381959 .3869934 .38381959 .38598634 .38381959 .3769989 .38882447L.23298645 .46287538M.2889862 .31376649 .44400025 .23469544C.47999574 .21568299 .5309906 .18865967 .5309906 .1346283 .5309906 .05355835 .42999269 .01852417 .34098817 .01852417 .25 .01852417 .14898682 .063568118 .14898682 .15463257 .14898682 .2537079 .25698854 .29974366 .2889862 .31376649Z"/>
<path id="font_4_2" d="M.58898928 .19296265H.5469971C.5439911 .17396546 .5339966 .11198425 .5179901 .101989749 .5099945 .09599304 .42599488 .09599304 .41099549 .09599304H.21499634C.2809906 .14497376 .35499574 .20095825 .4149933 .24093628 .5049896 .30291749 .58898928 .36090089 .58898928 .46687318 .58898928 .59495547 .46798707 .6660156 .32499696 .6660156 .18998719 .6660156 .09098816 .58795168 .09098816 .48986817 .09098816 .4378662 .1349945 .42886354 .14898682 .42886354 .17599488 .42886354 .20799256 .4468689 .20799256 .48786927 .20799256 .52386477 .18199158 .543869 .15098572 .546875 .1789856 .59194949 .23699951 .6220093 .3039856 .6220093 .40098573 .6220093 .48199464 .5639038 .48199464 .4658661 .48199464 .3818817 .42399598 .31791688 .34700013 .2529297L.102996829 .04598999C.09298706 .036987306 .09199524 .036987306 .09098816 .02999878V0H.55599978L.58898928 .19296265Z"/>
<path id="font_4_7" d="M.625 .59983828C.6339874 .60884097 .6339874 .61083987 .6349945 .6158447V.6438446H.3929901C.36698915 .6438446 .22099304 .64782717 .20298767 .6508026 .17999268 .655777 .1789856 .6657715 .1769867 .67578127H.1349945L.09700012 .4507904H.13899231C.14099121 .4657898 .1519928 .530838 .16899109 .5418396 .1749878 .5468445 .2689972 .54785159 .28399659 .54785159H.5219879C.47999574 .4988098 .42599488 .44477845 .3869934 .39575196 .2679901 .2436676 .25299073 .099594119 .25299073 .03855896 .25299073-.016464234 .28799439-.022460938 .30599977-.022460938 .35899354-.022460938 .35899354 .028549195 .35899354 .04055786V.060562135C.35899354 .23866272 .39698792 .34872438 .45700074 .4147644L.625 .59983828Z"/>
</defs>
<path transform="matrix(1.00006,0,0,-1.00005,94.46653,43.143358)" d="M9.96277 0C9.96277 5.50235 5.50235 9.96277 0 9.96277-5.50235 9.96277-9.96277 5.50235-9.96277 0-9.96277-5.50235-5.50235-9.96277 0-9.96277 5.50235-9.96277 9.96277-5.50235 9.96277 0ZM0 0" fill="#7f807f" fill-opacity=".3"/>
<path transform="matrix(1.00006,0,0,-1.00005,94.46653,43.143358)" stroke-width=".3985" stroke-linecap="butt" stroke-miterlimit="10" stroke-linejoin="miter" fill="none" stroke="#000000" d="M9.96277 0C9.96277 5.50235 5.50235 9.96277 0 9.96277-5.50235 9.96277-9.96277 5.50235-9.96277 0-9.96277-5.50235-5.50235-9.96277 0-9.96277 5.50235-9.96277 9.96277-5.50235 9.96277 0ZM0 0"/>
<use data-text="v" xlink:href="#font_1_1" transform="matrix(8.966938,0,0,-8.966848,90.15227,44.575429)"/>
<use data-text="3" xlink:href="#font_2_3" transform="matrix(5.9779589,0,0,-5.9778988,94.628528,45.57148)"/>
<path transform="matrix(1.00006,0,0,-1.00005,94.46653,43.143358)" d="M9.96277-37.33229C9.96277-31.82994 5.50235-27.36952 0-27.36952-5.50235-27.36952-9.96277-31.82994-9.96277-37.33229-9.96277-42.83466-5.50235-47.29506 0-47.29506 5.50235-47.29506 9.96277-42.83466 9.96277-37.33229ZM0-37.33229" fill="#7f807f" fill-opacity=".3"/>
<path transform="matrix(1.00006,0,0,-1.00005,94.46653,43.143358)" stroke-width=".3985" stroke-linecap="butt" stroke-miterlimit="10" stroke-linejoin="miter" fill="none" stroke="#000000" d="M9.96277-37.33229C9.96277-31.82994 5.50235-27.36952 0-27.36952-5.50235-27.36952-9.96277-31.82994-9.96277-37.33229-9.96277-42.83466-5.50235-47.29506 0-47.29506 5.50235-47.29506 9.96277-42.83466 9.96277-37.33229ZM0-37.33229"/>
<use data-text="v" xlink:href="#font_1_1" transform="matrix(8.966938,0,0,-8.966848,90.15227,81.909297)"/>
<use data-text="4" xlink:href="#font_2_4" transform="matrix(5.9779589,0,0,-5.9778988,94.628528,82.90535)"/>
<path transform="matrix(1.00006,0,0,-1.00005,94.46653,43.143358)" d="M-38.4246 31.37953C-38.4246 36.8819-42.88501 41.3423-48.38737 41.3423-53.88972 41.3423-58.35014 36.8819-58.35014 31.37953-58.35014 25.87718-53.88972 21.41676-48.38737 21.41676-42.88501 21.41676-38.4246 25.87718-38.4246 31.37953ZM-48.38737 31.37953" fill="#7f807f" fill-opacity=".3"/>
<path transform="matrix(1.00006,0,0,-1.00005,94.46653,43.143358)" stroke-width=".3985" stroke-linecap="butt" stroke-miterlimit="10" stroke-linejoin="miter" fill="none" stroke="#000000" d="M-38.4246 31.37953C-38.4246 36.8819-42.88501 41.3423-48.38737 41.3423-53.88972 41.3423-58.35014 36.8819-58.35014 31.37953-58.35014 25.87718-53.88972 21.41676-48.38737 21.41676-42.88501 21.41676-38.4246 25.87718-38.4246 31.37953ZM-48.38737 31.37953"/>
<use data-text="v" xlink:href="#font_1_1" transform="matrix(8.966938,0,0,-8.966848,41.762376,13.19486)"/>
<use data-text="1" xlink:href="#font_2_1" transform="matrix(5.9779589,0,0,-5.9778988,46.238634,14.19091)"/>
<path transform="matrix(1.00006,0,0,-1.00005,94.46653,43.143358)" d="M-38.4246-68.71184C-38.4246-63.20949-42.88501-58.74907-48.38737-58.74907-53.88972-58.74907-58.35014-63.20949-58.35014-68.71184-58.35014-74.2142-53.88972-78.6746-48.38737-78.6746-42.88501-78.6746-38.4246-74.2142-38.4246-68.71184ZM-48.38737-68.71184" fill="#7f807f" fill-opacity=".3"/>
<path transform="matrix(1.00006,0,0,-1.00005,94.46653,43.143358)" stroke-width=".3985" stroke-linecap="butt" stroke-miterlimit="10" stroke-linejoin="miter" fill="none" stroke="#000000" d="M-38.4246-68.71184C-38.4246-63.20949-42.88501-58.74907-48.38737-58.74907-53.88972-58.74907-58.35014-63.20949-58.35014-68.71184-58.35014-74.2142-53.88972-78.6746-48.38737-78.6746-42.88501-78.6746-38.4246-74.2142-38.4246-68.71184ZM-48.38737-68.71184"/>
<use data-text="v" xlink:href="#font_1_1" transform="matrix(8.966938,0,0,-8.966848,41.762376,113.290859)"/>
<use data-text="2" xlink:href="#font_2_2" transform="matrix(5.9779589,0,0,-5.9778988,46.238634,114.28691)"/>
<path transform="matrix(1.00006,0,0,-1.00005,94.46653,43.143358)" d="M-72.4407-20.04054C-72.4407-14.5382-76.90112-10.07777-82.40347-10.07777-87.90582-10.07777-92.36624-14.5382-92.36624-20.04054-92.36624-25.54291-87.90582-30.00331-82.40347-30.00331-76.90112-30.00331-72.4407-25.54291-72.4407-20.04054ZM-82.40347-20.04054" fill="#7f807f" fill-opacity=".3"/>
<path transform="matrix(1.00006,0,0,-1.00005,94.46653,43.143358)" stroke-width=".3985" stroke-linecap="butt" stroke-miterlimit="10" stroke-linejoin="miter" fill="none" stroke="#000000" d="M-72.4407-20.04054C-72.4407-14.5382-76.90112-10.07777-82.40347-10.07777-87.90582-10.07777-92.36624-14.5382-92.36624-20.04054-92.36624-25.54291-87.90582-30.00331-82.40347-30.00331-76.90112-30.00331-72.4407-25.54291-72.4407-20.04054ZM-82.40347-20.04054"/>
<use data-text="v" xlink:href="#font_1_1" transform="matrix(8.966938,0,0,-8.966848,7.8233339,64.617427)"/>
<use data-text="s" xlink:href="#font_3_1" transform="matrix(5.9779589,0,0,-5.9778988,12.299591,65.61348)"/>
<path transform="matrix(1.00006,0,0,-1.00005,94.46653,43.143358)" d="M58.35014 31.37953C58.35014 36.8819 53.88972 41.3423 48.38737 41.3423 42.88501 41.3423 38.4246 36.8819 38.4246 31.37953 38.4246 25.87718 42.88501 21.41676 48.38737 21.41676 53.88972 21.41676 58.35014 25.87718 58.35014 31.37953ZM48.38737 31.37953" fill="#7f807f" fill-opacity=".3"/>
<path transform="matrix(1.00006,0,0,-1.00005,94.46653,43.143358)" stroke-width=".3985" stroke-linecap="butt" stroke-miterlimit="10" stroke-linejoin="miter" fill="none" stroke="#000000" d="M58.35014 31.37953C58.35014 36.8819 53.88972 41.3423 48.38737 41.3423 42.88501 41.3423 38.4246 36.8819 38.4246 31.37953 38.4246 25.87718 42.88501 21.41676 48.38737 21.41676 53.88972 21.41676 58.35014 25.87718 58.35014 31.37953ZM48.38737 31.37953"/>
<use data-text="v" xlink:href="#font_1_1" transform="matrix(8.966938,0,0,-8.966848,138.54319,13.19486)"/>
<use data-text="5" xlink:href="#font_2_5" transform="matrix(5.9779589,0,0,-5.9778988,143.01944,14.19091)"/>
<path transform="matrix(1.00006,0,0,-1.00005,94.46653,43.143358)" d="M58.35014-68.71184C58.35014-63.20949 53.88972-58.74907 48.38737-58.74907 42.88501-58.74907 38.4246-63.20949 38.4246-68.71184 38.4246-74.2142 42.88501-78.6746 48.38737-78.6746 53.88972-78.6746 58.35014-74.2142 58.35014-68.71184ZM48.38737-68.71184" fill="#7f807f" fill-opacity=".3"/>
<path transform="matrix(1.00006,0,0,-1.00005,94.46653,43.143358)" stroke-width=".3985" stroke-linecap="butt" stroke-miterlimit="10" stroke-linejoin="miter" fill="none" stroke="#000000" d="M58.35014-68.71184C58.35014-63.20949 53.88972-58.74907 48.38737-58.74907 42.88501-58.74907 38.4246-63.20949 38.4246-68.71184 38.4246-74.2142 42.88501-78.6746 48.38737-78.6746 53.88972-78.6746 58.35014-74.2142 58.35014-68.71184ZM48.38737-68.71184"/>
<use data-text="v" xlink:href="#font_1_1" transform="matrix(8.966938,0,0,-8.966848,138.54319,113.290859)"/>
<use data-text="6" xlink:href="#font_2_6" transform="matrix(5.9779589,0,0,-5.9778988,143.01944,114.28691)"/>
<path transform="matrix(1.00006,0,0,-1.00005,94.46653,43.143358)" d="M92.36624-20.04054C92.36624-14.5382 87.90582-10.07777 82.40347-10.07777 76.90112-10.07777 72.4407-14.5382 72.4407-20.04054 72.4407-25.54291 76.90112-30.00331 82.40347-30.00331 87.90582-30.00331 92.36624-25.54291 92.36624-20.04054ZM82.40347-20.04054" fill="#7f807f" fill-opacity=".3"/>
<path transform="matrix(1.00006,0,0,-1.00005,94.46653,43.143358)" stroke-width=".3985" stroke-linecap="butt" stroke-miterlimit="10" stroke-linejoin="miter" fill="none" stroke="#000000" d="M92.36624-20.04054C92.36624-14.5382 87.90582-10.07777 82.40347-10.07777 76.90112-10.07777 72.4407-14.5382 72.4407-20.04054 72.4407-25.54291 76.90112-30.00331 82.40347-30.00331 87.90582-30.00331 92.36624-25.54291 92.36624-20.04054ZM82.40347-20.04054"/>
<use data-text="v" xlink:href="#font_1_1" transform="matrix(8.966938,0,0,-8.966848,172.56122,64.617427)"/>
<use data-text="7" xlink:href="#font_2_7" transform="matrix(5.9779589,0,0,-5.9778988,177.03748,65.61348)"/>
<path transform="matrix(1.00006,0,0,-1.00005,94.46653,43.143358)" stroke-width=".3985" stroke-linecap="butt" stroke-miterlimit="10" stroke-linejoin="miter" fill="none" stroke="#000000" d="M-76.79712-11.56575-54.24655 22.52255"/>
<path transform="matrix(.5517331,-.8340117,-.83402,-.55172756,40.216707,20.619692)" stroke-width=".31879" stroke-linecap="round" stroke-linejoin="round" fill="none" stroke="#000000" d="M-1.19551 1.59401C-1.09587 .99626 0 .09961 .29886 0 0-.09961-1.09587-.99626-1.19551-1.59401"/>
<use data-text="6" xlink:href="#font_4_6" transform="matrix(2.748348,-4.1544625,-4.154504,-2.7483204,24.129921,43.673189)"/>
<path transform="matrix(1.00006,0,0,-1.00005,94.46653,43.143358)" stroke-width=".3985" stroke-linecap="butt" stroke-miterlimit="10" stroke-linejoin="miter" fill="none" stroke="#000000" d="M-62.99786 15.15495C-64.39565 16.07964-66.27837 15.6961-67.20306 14.29832-68.12775 12.90053-67.74422 11.0178-66.34642 10.09312-64.94864 9.16843-63.06592 9.55196-62.14122 10.94975-61.21654 12.34753-61.60007 14.23026-62.99786 15.15495ZM-64.67215 12.62404"/>
<use data-text="5" xlink:href="#font_4_5" transform="matrix(2.748348,-4.1544625,-4.154504,-2.7483204,30.194283,32.817628)"/>
<path transform="matrix(1.00006,0,0,-1.00005,94.46653,43.143358)" stroke-width=".3985" stroke-linecap="butt" stroke-miterlimit="10" stroke-linejoin="miter" fill="none" stroke="#000000" d="M-54.20863-60.38263-76.3197-28.74536"/>
<path transform="matrix(-.5728843,-.8196809,-.81968918,.5728786,18.142266,71.890178)" stroke-width=".31879" stroke-linecap="round" stroke-linejoin="round" fill="none" stroke="#000000" d="M-1.19551 1.59401C-1.09587 .99626 0 .09961 .29886 0 0-.09961-1.09587-.99626-1.19551-1.59401"/>
<use data-text="3" xlink:href="#font_4_3" transform="matrix(2.8537086,4.0830767,4.0831177,-2.8536802,28.248616,93.172878)"/>
<path transform="matrix(1.00006,0,0,-1.00005,94.46653,43.143358)" stroke-width=".3985" stroke-linecap="butt" stroke-miterlimit="10" stroke-linejoin="miter" fill="none" stroke="#000000" d="M-69.66362-43.91452C-68.28984-42.95439-67.95453-41.06241-68.91464-39.68861-69.87477-38.31483-71.76677-37.97952-73.14056-38.93965-74.51434-39.89978-74.84966-41.79176-73.88953-43.16556-72.9294-44.53934-71.03741-44.87465-69.66362-43.91452ZM-71.40208-41.4271"/>
<use data-text="1" xlink:href="#font_4_1" transform="matrix(2.8537086,4.0830767,4.0831177,-2.8536802,20.773167,84.102428)"/>
<path transform="matrix(1.00006,0,0,-1.00005,94.46653,43.143358)" stroke-width=".3985" stroke-linecap="butt" stroke-miterlimit="10" stroke-linejoin="miter" fill="none" stroke="#000000" d="M-72.52971-17.63945-10.31902-2.50954"/>
<path transform="matrix(.9716882,-.23631181,-.23631418,-.9716785,84.14688,45.65303)" stroke-width=".31879" stroke-linecap="round" stroke-linejoin="round" fill="none" stroke="#000000" d="M-1.19551 1.59401C-1.09587 .99626 0 .09961 .29886 0 0-.09961-1.09587-.99626-1.19551-1.59401"/>
<use data-text="5" xlink:href="#font_4_5" transform="matrix(4.8402707,-1.17714,-1.1771518,-4.840222,42.05237,55.172357)"/>
<path transform="matrix(1.00006,0,0,-1.00005,94.46653,43.143358)" stroke-width=".3985" stroke-linecap="butt" stroke-miterlimit="10" stroke-linejoin="miter" fill="none" stroke="#000000" d="M-29.6192-3.87532C-30.01524-2.24678-31.65648-1.24768-33.28503-1.64372-34.91357-2.03976-35.91267-3.681-35.51663-5.30954-35.12059-6.93808-33.47935-7.9372-31.85081-7.54115-30.22227-7.14511-29.22316-5.50388-29.6192-3.87532ZM-32.56792-4.59244"/>
<use data-text="3" xlink:href="#font_4_3" transform="matrix(4.8402707,-1.17714,-1.1771518,-4.840222,60.628496,49.69609)"/>
<path transform="matrix(1.00006,0,0,-1.00005,94.46653,43.143358)" stroke-width=".3985" stroke-linecap="butt" stroke-miterlimit="10" stroke-linejoin="miter" fill="none" stroke="#000000" d="M-72.45839-22.12733-10.39357-35.15141"/>
<path transform="matrix(.9787087,.20536025,.2053623,-.97869887,84.072338,78.29651)" stroke-width=".31879" stroke-linecap="round" stroke-linejoin="round" fill="none" stroke="#000000" d="M-1.19551 1.59401C-1.09587 .99626 0 .09961 .29886 0 0-.09961-1.09587-.99626-1.19551-1.59401"/>
<use data-text="4" xlink:href="#font_4_4" transform="matrix(4.8752415,1.022961,1.0229713,-4.8751928,42.369676,68.83296)"/>
<path transform="matrix(1.00006,0,0,-1.00005,94.46653,43.143358)" stroke-width=".3985" stroke-linecap="butt" stroke-miterlimit="10" stroke-linejoin="miter" fill="none" stroke="#000000" d="M-28.191-28.11223C-27.84682-26.47192-28.8975-24.8632-30.53781-24.51903-32.17813-24.17487-33.78685-25.22554-34.13101-26.86586-34.47519-28.50616-33.4245-30.11488-31.7842-30.45906-30.14389-30.80322-28.53517-29.75255-28.191-28.11223ZM-31.16101-27.48904"/>
<use data-text="4" xlink:href="#font_4_4" transform="matrix(4.8752415,1.022961,1.0229713,-4.8751928,61.31481,71.85612)"/>
<path transform="matrix(1.00006,0,0,-1.00005,94.46653,43.143358)" stroke-width=".3985" stroke-linecap="butt" stroke-miterlimit="10" stroke-linejoin="miter" fill="none" stroke="#000000" d="M-38.3798 29.61511-5.46928 9.04349"/>
<path transform="matrix(.84801086,.5300665,.5300718,-.8480024,88.996929,34.099405)" stroke-width=".31879" stroke-linecap="round" stroke-linejoin="round" fill="none" stroke="#000000" d="M-1.19551 1.59401C-1.09587 .99626 0 .09961 .29886 0 0-.09961-1.09587-.99626-1.19551-1.59401"/>
<use data-text="5" xlink:href="#font_4_5" transform="matrix(4.2241966,2.6404203,2.6404467,-4.224154,66.67177,19.32209)"/>
<path transform="matrix(1.00006,0,0,-1.00005,94.46653,43.143358)" stroke-width=".3985" stroke-linecap="butt" stroke-miterlimit="10" stroke-linejoin="miter" fill="none" stroke="#000000" d="M-12.44803 17.21959C-11.55963 18.64084-11.99161 20.51317-13.41286 21.40155-14.83409 22.28993-16.70642 21.85797-17.5948 20.43672-18.4832 19.01547-18.05124 17.14316-16.62999 16.25478-15.20874 15.36638-13.33641 15.79834-12.44803 17.21959ZM-15.02142 18.82816"/>
<use data-text="3" xlink:href="#font_4_3" transform="matrix(4.2241966,2.6404203,2.6404467,-4.224154,77.155399,24.776368)"/>
<path transform="matrix(1.00006,0,0,-1.00005,94.46653,43.143358)" stroke-width=".3985" stroke-linecap="butt" stroke-miterlimit="10" stroke-linejoin="miter" fill="none" stroke="#000000" d="M-7.78416 6.53206-39.19759 26.05693"/>
<path transform="matrix(-.8493409,-.52790638,-.52791169,.84933248,55.26661,17.085137)" stroke-width=".31879" stroke-linecap="round" stroke-linejoin="round" fill="none" stroke="#000000" d="M-1.19551 1.59401C-1.09587 .99626 0 .09961 .29886 0 0-.09961-1.09587-.99626-1.19551-1.59401"/>
<use data-text="5" xlink:href="#font_4_5" transform="matrix(4.2308218,2.62966,2.6296864,-4.2307798,72.04708,32.115839)"/>
<path transform="matrix(1.00006,0,0,-1.00005,94.46653,43.143358)" stroke-width=".3985" stroke-linecap="butt" stroke-miterlimit="10" stroke-linejoin="miter" fill="none" stroke="#000000" d="M-27.58543 15.0317C-26.70067 16.45517-27.13737 18.32634-28.56087 19.2111-29.98434 20.09589-31.85551 19.65918-32.74028 18.23569-33.62505 16.81221-33.18834 14.94104-31.76486 14.05627-30.34138 13.17151-28.47021 13.60822-27.58543 15.0317ZM-30.16286 16.6337"/>
<use data-text="1" xlink:href="#font_4_1" transform="matrix(4.2308218,2.62966,2.6296864,-4.2307798,62.01448,26.977585)"/>
<path transform="matrix(1.00006,0,0,-1.00005,94.46653,43.143358)" stroke-width=".3985" stroke-linecap="butt" stroke-miterlimit="10" stroke-linejoin="miter" fill="none" stroke="#000000" d="M-8.5258-42.86142-39.47691-62.93336"/>
<path transform="matrix(-.8390403,.54412719,.5441326,.8390319,54.98725,106.079868)" stroke-width=".31879" stroke-linecap="round" stroke-linejoin="round" fill="none" stroke="#000000" d="M-1.19551 1.59401C-1.09587 .99626 0 .09961 .29886 0 0-.09961-1.09587-.99626-1.19551-1.59401"/>
<use data-text="8" xlink:href="#font_4_8" transform="matrix(4.179511,-2.7104607,-2.7104877,-4.1794698,75.67609,97.32079)"/>
<path transform="matrix(1.00006,0,0,-1.00005,94.46653,43.143358)" stroke-width=".3985" stroke-linecap="butt" stroke-miterlimit="10" stroke-linejoin="miter" fill="none" stroke="#000000" d="M-24.58795-57.13225C-25.4999-55.72604-27.37912-55.32536-28.78534-56.2373-30.19154-57.14926-30.59222-59.02849-29.68027-60.4347-28.76833-61.84091-26.8891-62.2416-25.48288-61.32964-24.07668-60.41768-23.676-58.53847-24.58795-57.13225ZM-27.13411-58.78348"/>
<use data-text="2" xlink:href="#font_4_2" transform="matrix(4.179511,-2.7104607,-2.7104877,-4.1794698,66.782558,104.199138)"/>
<path transform="matrix(1.00006,0,0,-1.00005,94.46653,43.143358)" stroke-width=".3985" stroke-linecap="butt" stroke-miterlimit="10" stroke-linejoin="miter" fill="none" stroke="#000000" d="M-38.3798 33.14395H37.92152"/>
<path transform="matrix(1.00006,0,0,-1.00005,132.39032,9.997749)" stroke-width=".31879" stroke-linecap="round" stroke-linejoin="round" fill="none" stroke="#000000" d="M-1.19551 1.59401C-1.09587 .99626 0 .09961 .29886 0 0-.09961-1.09587-.99626-1.19551-1.59401"/>
<use data-text="8" xlink:href="#font_4_8" transform="matrix(4.9815986,0,0,-4.981549,81.25674,9.300667)"/>
<path transform="matrix(1.00006,0,0,-1.00005,94.46653,43.143358)" stroke-width=".3985" stroke-linecap="butt" stroke-miterlimit="10" stroke-linejoin="miter" fill="none" stroke="#000000" d="M14.54825 36.378C14.54825 38.05411 13.18954 39.41281 11.51346 39.41281 9.83736 39.41281 8.47865 38.05411 8.47865 36.378 8.47865 34.70192 9.83736 33.3432 11.51346 33.3432 13.18954 33.3432 14.54825 34.70192 14.54825 36.378ZM11.51346 36.378"/>
<use data-text="5" xlink:href="#font_4_5" transform="matrix(4.9815986,0,0,-4.981549,104.28512,8.368622)"/>
<path transform="matrix(1.00006,0,0,-1.00005,94.46653,43.143358)" stroke-width=".3985" stroke-linecap="butt" stroke-miterlimit="10" stroke-linejoin="miter" fill="none" stroke="#000000" d="M38.3798 29.61511H-37.92152"/>
<path transform="matrix(-1.00006,-0,0,1.00005,56.542737,13.526766)" stroke-width=".31879" stroke-linecap="round" stroke-linejoin="round" fill="none" stroke="#000000" d="M-1.19551 1.59401C-1.09587 .99626 0 .09961 .29886 0 0-.09961-1.09587-.99626-1.19551-1.59401"/>
<use data-text="7" xlink:href="#font_4_7" transform="matrix(4.9815986,0,0,-4.981549,104.28512,17.434073)"/>
<path transform="matrix(1.00006,0,0,-1.00005,94.46653,43.143358)" stroke-width=".3985" stroke-linecap="butt" stroke-miterlimit="10" stroke-linejoin="miter" fill="none" stroke="#000000" d="M-8.47865 26.38106C-8.47865 28.05716-9.83736 29.41586-11.51346 29.41586-13.18954 29.41586-14.54825 28.05716-14.54825 26.38106-14.54825 24.70497-13.18954 23.34627-11.51346 23.34627-9.83736 23.34627-8.47865 24.70497-8.47865 26.38106ZM-11.51346 26.38106"/>
<use data-text="2" xlink:href="#font_4_2" transform="matrix(4.9815986,0,0,-4.981549,81.25674,18.36612)"/>
<path transform="matrix(1.00006,0,0,-1.00005,94.46653,43.143358)" stroke-width=".3985" stroke-linecap="butt" stroke-miterlimit="10" stroke-linejoin="miter" fill="none" stroke="#000000" d="M0-10.16202V-26.71199"/>
<path transform="matrix(0,1.00005,1.00006,0,94.46653,69.85668)" stroke-width=".31879" stroke-linecap="round" stroke-linejoin="round" fill="none" stroke="#000000" d="M-1.19551 1.59401C-1.09587 .99626 0 .09961 .29886 0 0-.09961-1.09587-.99626-1.19551-1.59401"/>
<use data-text="4" xlink:href="#font_4_4" transform="matrix(0,4.981549,4.9815986,0,95.16356,60.115198)"/>
<path transform="matrix(1.00006,0,0,-1.00005,94.46653,43.143358)" stroke-width=".3985" stroke-linecap="butt" stroke-miterlimit="10" stroke-linejoin="miter" fill="none" stroke="#000000" d="M-3.23404-21.70094C-1.55795-21.70094-.19925-20.34222-.19925-18.66614-.19925-16.99004-1.55795-15.63133-3.23404-15.63133-4.91014-15.63133-6.26884-16.99004-6.26884-18.66614-6.26884-20.34222-4.91014-21.70094-3.23404-21.70094ZM-3.23404-18.66614"/>
<use data-text="3" xlink:href="#font_4_3" transform="matrix(0,4.981549,4.9815986,0,89.626239,60.115198)"/>
<path transform="matrix(1.00006,0,0,-1.00005,94.46653,43.143358)" stroke-width=".3985" stroke-linecap="butt" stroke-miterlimit="10" stroke-linejoin="miter" fill="none" stroke="#000000" d="M6.53206 7.78416 39.18697 26.07489"/>
<path transform="matrix(.87247237,-.48868443,-.4886893,-.8724636,133.65586,17.067164)" stroke-width=".31879" stroke-linecap="round" stroke-linejoin="round" fill="none" stroke="#000000" d="M-1.19551 1.59401C-1.09587 .99626 0 .09961 .29886 0 0-.09961-1.09587-.99626-1.19551-1.59401"/>
<use data-text="6" xlink:href="#font_4_6" transform="matrix(4.3460466,-2.4342838,-2.434308,-4.3460028,110.74985,29.098473)"/>
<path transform="matrix(1.00006,0,0,-1.00005,94.46653,43.143358)" stroke-width=".3985" stroke-linecap="butt" stroke-miterlimit="10" stroke-linejoin="miter" fill="none" stroke="#000000" d="M29.08469 24.123C28.26566 25.58525 26.41634 26.10669 24.95409 25.28764 23.49184 24.46861 22.97041 22.6193 23.78944 21.15704 24.60849 19.6948 26.45781 19.17337 27.92006 19.9924 29.3823 20.81145 29.90373 22.66077 29.08469 24.123ZM26.43707 22.64003"/>
<use data-text="2" xlink:href="#font_4_2" transform="matrix(4.3460466,-2.4342838,-2.434308,-4.3460028,120.21041,22.731148)"/>
<path transform="matrix(1.00006,0,0,-1.00005,94.46653,43.143358)" stroke-width=".3985" stroke-linecap="butt" stroke-miterlimit="10" stroke-linejoin="miter" fill="none" stroke="#000000" d="M41.85532 23.59537 9.2004 5.30463"/>
<path transform="matrix(-.87247237,.48868443,.4886893,.8724636,103.66748,37.838464)" stroke-width=".31879" stroke-linecap="round" stroke-linejoin="round" fill="none" stroke="#000000" d="M-1.19551 1.59401C-1.09587 .99626 0 .09961 .29886 0 0-.09961-1.09587-.99626-1.19551-1.59401"/>
<use data-text="4" xlink:href="#font_4_4" transform="matrix(4.3460466,-2.4342838,-2.434308,-4.3460028,125.185718,30.264527)"/>
<path transform="matrix(1.00006,0,0,-1.00005,94.46653,43.143358)" stroke-width=".3985" stroke-linecap="butt" stroke-miterlimit="10" stroke-linejoin="miter" fill="none" stroke="#000000" d="M24.59793 10.22247C23.7789 11.68472 21.92958 12.20615 20.46733 11.38712 19.00508 10.56807 18.48366 8.71875 19.30269 7.2565 20.12172 5.79425 21.97105 5.27283 23.43329 6.09187 24.89554 6.9109 25.41698 8.76022 24.59793 10.22247ZM21.95032 8.73949"/>
<use data-text="3" xlink:href="#font_4_3" transform="matrix(4.3460466,-2.4342838,-2.434308,-4.3460028,115.724147,36.631845)"/>
<path transform="matrix(1.00006,0,0,-1.00005,94.46653,43.143358)" stroke-width=".3985" stroke-linecap="butt" stroke-miterlimit="10" stroke-linejoin="miter" fill="none" stroke="#000000" d="M9.81561-39.9621 39.6979-62.60667"/>
<path transform="matrix(.7970278,.60399016,.6039962,-.79701986,134.16681,105.75314)" stroke-width=".31879" stroke-linecap="round" stroke-linejoin="round" fill="none" stroke="#000000" d="M-1.19551 1.59401C-1.09587 .99626 0 .09961 .29886 0 0-.09961-1.09587-.99626-1.19551-1.59401"/>
<use data-text="7" xlink:href="#font_4_7" transform="matrix(3.9702347,3.008656,3.0086864,-3.9701949,113.93991,89.55071)"/>
<path transform="matrix(1.00006,0,0,-1.00005,94.46653,43.143358)" stroke-width=".3985" stroke-linecap="butt" stroke-miterlimit="10" stroke-linejoin="miter" fill="none" stroke="#000000" d="M33.8482-54.11626C34.86049-52.78044 34.59822-50.87697 33.2624-49.86469 31.92659-48.8524 30.02312-49.11467 29.01083-50.45049 27.99855-51.78629 28.26082-53.68976 29.59663-54.70204 30.93245-55.71432 32.83592-55.45207 33.8482-54.11626ZM31.42952-52.28337"/>
<use data-text="5" xlink:href="#font_4_5" transform="matrix(3.9702347,3.008656,3.0086864,-3.9701949,123.57749,95.68502)"/>
<path transform="matrix(1.00006,0,0,-1.00005,94.46653,43.143358)" stroke-width=".3985" stroke-linecap="butt" stroke-miterlimit="10" stroke-linejoin="miter" fill="none" stroke="#000000" d="M38.57176-66.08203 8.68945-43.43745"/>
<path transform="matrix(-.7970278,-.60399016,-.6039962,.79701986,103.156528,86.58299)" stroke-width=".31879" stroke-linecap="round" stroke-linejoin="round" fill="none" stroke="#000000" d="M-1.19551 1.59401C-1.09587 .99626 0 .09961 .29886 0 0-.09961-1.09587-.99626-1.19551-1.59401"/>
<use data-text="7" xlink:href="#font_4_7" transform="matrix(3.9702347,3.008656,3.0086864,-3.9701949,118.7412,103.296398)"/>
<path transform="matrix(1.00006,0,0,-1.00005,94.46653,43.143358)" stroke-width=".3985" stroke-linecap="butt" stroke-miterlimit="10" stroke-linejoin="miter" fill="none" stroke="#000000" d="M19.3765-55.59367C20.38878-54.25786 20.12651-52.35439 18.7907-51.3421 17.4549-50.32982 15.55142-50.59209 14.53914-51.9279 13.52686-53.26372 13.78911-55.16718 15.12492-56.17946 16.46074-57.19176 18.36421-56.92949 19.3765-55.59367ZM16.95781-53.76079"/>
<use data-text="3" xlink:href="#font_4_3" transform="matrix(3.9702347,3.008656,3.0086864,-3.9701949,109.10462,97.162097)"/>
<path transform="matrix(1.00006,0,0,-1.00005,94.46653,43.143358)" stroke-width=".3985" stroke-linecap="butt" stroke-miterlimit="10" stroke-linejoin="miter" fill="none" stroke="#000000" d="M-38.22536-68.71184H37.76707"/>
<path transform="matrix(1.00006,0,0,-1.00005,132.23587,111.85863)" stroke-width=".31879" stroke-linecap="round" stroke-linejoin="round" fill="none" stroke="#000000" d="M-1.19551 1.59401C-1.09587 .99626 0 .09961 .29886 0 0-.09961-1.09587-.99626-1.19551-1.59401"/>
<use data-text="6" xlink:href="#font_4_6" transform="matrix(4.9815986,0,0,-4.981549,81.30374,115.76598)"/>
<path transform="matrix(1.00006,0,0,-1.00005,94.46653,43.143358)" stroke-width=".3985" stroke-linecap="butt" stroke-miterlimit="10" stroke-linejoin="miter" fill="none" stroke="#000000" d="M14.50194-71.94589C14.50194-70.2698 13.14323-68.91109 11.46713-68.91109 9.79105-68.91109 8.43233-70.2698 8.43233-71.94589 8.43233-73.622 9.79105-74.9807 11.46713-74.9807 13.14323-74.9807 14.50194-73.622 14.50194-71.94589ZM11.46713-71.94589"/>
<use data-text="1" xlink:href="#font_4_1" transform="matrix(4.9815986,0,0,-4.981549,104.23911,116.69804)"/>
<path transform="matrix(1.00006,0,0,-1.00005,94.46653,43.143358)" stroke-width=".3985" stroke-linecap="butt" stroke-miterlimit="10" stroke-linejoin="miter" fill="none" stroke="#000000" d="M54.20863-60.38263 76.3197-28.74536"/>
<path transform="matrix(.5728843,-.8196809,-.81968918,-.5728786,170.7908,71.890178)" stroke-width=".31879" stroke-linecap="round" stroke-linejoin="round" fill="none" stroke="#000000" d="M-1.19551 1.59401C-1.09587 .99626 0 .09961 .29886 0 0-.09961-1.09587-.99626-1.19551-1.59401"/>
<use data-text="8" xlink:href="#font_4_8" transform="matrix(2.8537086,-4.0830767,-4.0831177,-2.8536802,158.74198,95.95131)"/>
<path transform="matrix(1.00006,0,0,-1.00005,94.46653,43.143358)" stroke-width=".3985" stroke-linecap="butt" stroke-miterlimit="10" stroke-linejoin="miter" fill="none" stroke="#000000" d="M73.14056-38.93965C71.76677-37.97952 69.87477-38.31483 68.91464-39.68861 67.95453-41.06241 68.28984-42.95439 69.66362-43.91452 71.03741-44.87465 72.9294-44.53934 73.88953-43.16556 74.84966-41.79176 74.51434-39.89978 73.14056-38.93965ZM71.40208-41.4271"/>
<use data-text="6" xlink:href="#font_4_6" transform="matrix(2.8537086,-4.0830767,-4.0831177,-2.8536802,166.2174,86.880847)"/>
<path transform="matrix(1.00006,0,0,-1.00005,94.46653,43.143358)" stroke-width=".3985" stroke-linecap="butt" stroke-miterlimit="10" stroke-linejoin="miter" fill="none" stroke="#000000" d="M76.79712-11.56575 54.24655 22.52255"/>
<path transform="matrix(-.5517331,-.8340117,-.83402,.55172756,148.71636,20.619692)" stroke-width=".31879" stroke-linecap="round" stroke-linejoin="round" fill="none" stroke="#000000" d="M-1.19551 1.59401C-1.09587 .99626 0 .09961 .29886 0 0-.09961-1.09587-.99626-1.19551-1.59401"/>
<use data-text="5" xlink:href="#font_4_5" transform="matrix(2.748348,4.1544625,4.154504,-2.7483204,162.93268,40.84545)"/>
<path transform="matrix(1.00006,0,0,-1.00005,94.46653,43.143358)" stroke-width=".3985" stroke-linecap="butt" stroke-miterlimit="10" stroke-linejoin="miter" fill="none" stroke="#000000" d="M66.34642 10.09312C67.74422 11.0178 68.12775 12.90053 67.20306 14.29832 66.27837 15.6961 64.39565 16.07964 62.99786 15.15495 61.60007 14.23026 61.21654 12.34753 62.14122 10.94975 63.06592 9.55196 64.94864 9.16843 66.34642 10.09312ZM64.67215 12.62404"/>
<use data-text="4" xlink:href="#font_4_4" transform="matrix(2.748348,4.1544625,4.154504,-2.7483204,156.86832,29.989914)"/>
<path transform="matrix(1.00006,0,0,-1.00005,94.46653,43.143358)" stroke-width=".3985" stroke-linecap="butt" stroke-miterlimit="10" stroke-linejoin="miter" fill="none" stroke="#000000" d="M9.87375-2.40108 72.08444-17.531"/>
<path transform="matrix(.9716882,.23631181,.23631418,-.9716785,166.55529,60.675226)" stroke-width=".31879" stroke-linecap="round" stroke-linejoin="round" fill="none" stroke="#000000" d="M-1.19551 1.59401C-1.09587 .99626 0 .09961 .29886 0 0-.09961-1.09587-.99626-1.19551-1.59401"/>
<use data-text="5" xlink:href="#font_4_5" transform="matrix(4.8402707,1.17714,1.1771518,-4.840222,124.78966,49.799959)"/>
<path transform="matrix(1.00006,0,0,-1.00005,94.46653,43.143358)" stroke-width=".3985" stroke-linecap="butt" stroke-miterlimit="10" stroke-linejoin="miter" fill="none" stroke="#000000" d="M54.31264-9.88063C54.70868-8.25208 53.70956-6.61084 52.08102-6.2148 50.45248-5.81876 48.81125-6.81787 48.4152-8.44641 48.01917-10.07495 49.01826-11.71619 50.6468-12.11223 52.27536-12.50827 53.9166-11.50917 54.31264-9.88063ZM51.36392-9.16351"/>
<use data-text="4" xlink:href="#font_4_4" transform="matrix(4.8402707,1.17714,1.1771518,-4.840222,143.8068,53.466146)"/>
<path transform="matrix(1.00006,0,0,-1.00005,94.46653,43.143358)" stroke-width=".3985" stroke-linecap="butt" stroke-miterlimit="10" stroke-linejoin="miter" fill="none" stroke="#000000" d="M9.94508-35.2455 72.00989-22.22144"/>
<path transform="matrix(.9787087,-.20536025,-.2053623,-.97869887,166.48075,65.36592)" stroke-width=".31879" stroke-linecap="round" stroke-linejoin="round" fill="none" stroke="#000000" d="M-1.19551 1.59401C-1.09587 .99626 0 .09961 .29886 0 0-.09961-1.09587-.99626-1.19551-1.59401"/>
<use data-text="6" xlink:href="#font_4_6" transform="matrix(4.8752415,-1.022961,-1.0229713,-4.8751928,124.49187,73.46437)"/>
<path transform="matrix(1.00006,0,0,-1.00005,94.46653,43.143358)" stroke-width=".3985" stroke-linecap="butt" stroke-miterlimit="10" stroke-linejoin="miter" fill="none" stroke="#000000" d="M52.88425-22.9306C52.54007-21.29028 50.93135-20.23961 49.29105-20.58377 47.65073-20.92795 46.60005-22.53667 46.94421-24.17697 47.28839-25.81729 48.89711-26.86797 50.53741-26.5238 52.17773-26.17963 53.22841-24.5709 52.88425-22.9306ZM49.91423-23.55379"/>
<use data-text="3" xlink:href="#font_4_3" transform="matrix(4.8752415,-1.022961,-1.0229713,-4.8751928,143.05498,68.61713)"/>
</svg>
