<svg xmlns="http://www.w3.org/2000/svg" xmlns:xlink="http://www.w3.org/1999/xlink" xmlns:inkscape="http://www.inkscape.org/namespaces/inkscape" version="1.1" width="175" height="86" viewBox="0 0 175 86">
<defs>
<path id="font_1_1" d="M.48098756 .3693695C.48098756 .43937684 .44400025 .44337464 .43499757 .44337464 .4099884 .44337464 .38398744 .41638185 .38398744 .39337159 .38398744 .3783722 .3929901 .37036134 .3999939 .36436463 .4269867 .33935548 .43598939 .30734254 .43598939 .28134156 .43598939 .23731995 .37298585 .014251709 .25698854 .014251709 .18199158 .014251709 .18199158 .08427429 .18199158 .10227966 .18199158 .14529419 .19599915 .19630432 .23098755 .28733827 .24699402 .3293457 .25099183 .33935548 .25099183 .35835267 .25099183 .40737916 .21398926 .4423828 .16499329 .4423828 .068984989 .4423828 .0289917 .30033876 .0289917 .28833009 .0289917 .2793274 .035995485 .27633668 .042999269 .27633668 .053985597 .27633668 .054992677 .28233338 .05899048 .29533387 .07998657 .36836244 .11999512 .41737367 .1619873 .41737367 .18199158 .41737367 .18598938 .40437318 .18598938 .3843689 .18598938 .36735536 .18199158 .34934999 .17298889 .3253479 .13699341 .22932434 .11299133 .16529846 .11299133 .11528015 .11299133 .021255494 .18399048-.0107421879 .25299073-.0107421879 .42099-.0107421879 .48098756 .30534364 .48098756 .3693695Z"/>
<path id="font_2_2" d="M.45700074 .37594605C.42799378 .36894227 .4169922 .34394837 .4169922 .32894898 .4169922 .3129425 .42900086 .2959442 .45199586 .2959442 .47200013 .2959442 .5009918 .30995179 .5009918 .35295106 .5009918 .4203949 .4249878 .44140626 .3600006 .44140626 .20698548 .44140626 .16999817 .33995057 .16999817 .2969513 .16999817 .21612549 .2619934 .2001648 .28799439 .19616699 .36299134 .18319702 .42099 .17222595 .42099 .1232605 .42099 .102264408 .4039917 .06626892 .36799623 .04624939 .32899476 .025222779 .28599549 .023223877 .25698854 .023223877 .22200012 .023223877 .1599884 .027236939 .1309967 .060272218 .1659851 .06626892 .18299866 .09326172 .18299866 .117263797 .18299866 .13825989 .16899109 .15527344 .14199829 .15527344 .115997318 .15527344 .083999637 .13426209 .083999637 .087265018 .083999637 .03224182 .13899231-.009765625 .2559967-.009765625 .44299317-.009765625 .48298646 .10626221 .48298646 .15226746 .48298646 .18519593 .46899415 .20814514 .44599916 .22810364 .4139862 .25604249 .3769989 .26202394 .32899476 .27000428 .27999879 .27897645 .23199463 .28697206 .23199463 .325943 .23199463 .32695008 .23199463 .40838624 .35899354 .40838624 .38398744 .40838624 .43399049 .4043274 .45700074 .37594605Z"/>
<path id="font_3_1" d="M.35899354 .6349335C.35899354 .66503909 .35499574 .66503909 .32499696 .66503909 .25898744 .60058596 .15699768 .60058596 .12098694 .60058596V.5615845C.14698792 .5615845 .21299744 .5615845 .272995 .58958438V.08496094C.272995 .051986696 .272995 .038986207 .16999817 .038986207H.1269989V0C.18199158 .0039978029 .2599945 .0039978029 .31599427 .0039978029 .37199403 .0039978029 .44999696 .0039978029 .5049896 0V.038986207H.46199037C.35899354 .038986207 .35899354 .051986696 .35899354 .08496094V.6349335Z"/>
<path id="font_3_2" d="M.5379944 .18702698H.5009918C.49899293 .17301941 .4889984 .10699463 .47399903 .09599304 .46699525 .08999634 .38598634 .08999634 .37199403 .08999634H.18499756L.31298829 .19403076C.34700013 .22103882 .43598939 .28504945 .46699525 .31506349 .49699403 .3450775 .5379944 .39608766 .5379944 .46710206 .5379944 .5920563 .4249878 .66503909 .29100038 .66503909 .1619873 .66503909 .07199097 .58006289 .07199097 .48609925 .07199097 .43510438 .114990238 .42910768 .12599182 .42910768 .15098572 .42910768 .17999268 .44709779 .17999268 .48310853 .17999268 .50509646 .16699219 .5371094 .12298584 .5371094 .1459961 .5880585 .20698548 .6260376 .27598573 .6260376 .3809967 .6260376 .43699647 .5480957 .43699647 .46710206 .43699647 .39608766 .3899994 .32305909 .31999208 .25904847L.08299255 .041992189C.07299805 .03199768 .07199097 .0309906 .07199097 0H.5069885L.5379944 .18702698Z"/>
<path id="font_3_3" d="M.2939911 .33203126C.3789978 .33203126 .43598939 .274765 .43598939 .17237854 .43598939 .062408449 .36999513 .014511108 .29699708 .014511108 .269989 .014511108 .16699219 .020492554 .12199402 .07836914 .16099549 .0823822 .1769867 .10836792 .1769867 .13537598 .1769867 .16937256 .15299988 .19238281 .11999512 .19238281 .09298706 .19238281 .06298828 .17536927 .06298828 .13337708 .06298828 .034469606 .17298889-.021484375 .2999878-.021484375 .44799806-.021484375 .5469971 .07337952 .5469971 .17237854 .5469971 .24562073 .4909973 .3229828 .37199403 .35302735 .45098878 .37902833 .5149994 .44306947 .5149994 .5251007 .5149994 .60505679 .42099 .66503909 .30099488 .66503909 .18399048 .66503909 .09498596 .61105349 .09498596 .5290985 .09498596 .48609925 .12799073 .47409059 .147995 .47409059 .17399597 .47409059 .20098877 .49209596 .20098877 .5270996 .20098877 .5580902 .1789856 .5760956 .1519928 .5800934 .19898987 .6320343 .2899933 .6320343 .29899598 .6320343 .34999085 .6320343 .4139862 .60806277 .4139862 .5251007 .4139862 .47009278 .3829956 .37402345 .2829895 .36802674 .2649994 .36701966 .23799134 .36502076 .22898865 .36502076 .21899414 .36402894 .20799256 .36302186 .20799256 .34802247 .20799256 .33203126 .21899414 .33203126 .23599243 .33203126H.2939911Z"/>
<path id="font_3_4" d="M.56399539 .1640625V.2030487H.44699098V.6448059C.44699098 .6678009 .44699098 .6748047 .42199708 .6748047 .4039917 .6748047 .4019928 .6717987 .3929901 .65979006L.04598999 .2030487V.1640625H.35699464V.08401489C.35699464 .050994874 .35699464 .038986207 .272995 .038986207H.24398804V0C.2639923 .0009918213 .35798646 .0039978029 .4019928 .0039978029 .44599916 .0039978029 .5399933 .0009918213 .55999758 0V.038986207H.5309906C.44699098 .038986207 .44699098 .050994874 .44699098 .08401489V.1640625H.56399539M.3639984 .56585696V.2030487H.08898926L.3639984 .56585696Z"/>
<path id="font_2_1" d="M.6049957 .66430667C.60598757 .66830447 .60798647 .67430117 .60798647 .67930606 .60798647 .6953125 .58799746 .6943054 .57598879 .69329836L.46398927 .6843109C.44699098 .68330386 .43399049 .682312 .43399049 .65930178 .43399049 .64331057 .44699098 .64331057 .46199037 .64331057 .49198915 .64331057 .49899293 .64131167 .5119934 .63630679 .5109863 .62132266 .5109863 .61932376 .5079956 .60632327 .4869995 .5203552 .47099305 .45339967 .45098878 .38139344 .43699647 .4044037 .40299989 .44140626 .34098817 .44140626 .21299744 .44140626 .07499695 .3073578 .07499695 .16029358 .07499695 .052246095 .15098572-.009765625 .23599243-.009765625 .30299378-.009765625 .3600006 .036239625 .3849945 .06124878 .4039917-.0017700195 .47099305-.009765625 .49299623-.009765625 .5289917-.009765625 .5549927 .010223389 .57398989 .041229249 .598999 .08125305 .61299136 .13928223 .61299136 .14428711 .61299136 .14628601 .6119995 .15829468 .59399417 .15829468 .57899478 .15829468 .57699587 .1512909 .57299807 .13528443 .5569916 .07424927 .5359955 .023223877 .49699403 .023223877 .46299745 .023223877 .45999146 .059249879 .45999146 .07424927 .45999146 .087249759 .45999146 .09025574 .46499635 .10826111L.6049957 .66430667M.3889923 .13127136C.38398744 .11326599 .38398744 .11126709 .36999513 .09625244 .31498719 .034225465 .2639923 .023223877 .23899842 .023223877 .19898987 .023223877 .1599884 .050231935 .1599884 .121276859 .1599884 .16229248 .18099976 .2603302 .21299744 .3173523 .24299622 .37138368 .2939911 .4084015 .34199525 .4084015 .4169922 .4084015 .43598939 .32936097 .43598939 .32235719L.43299867 .3083496 .3889923 .13127136Z"/>
<path id="font_4_6" d="M.625 .59983828C.6339874 .60884097 .6339874 .61083987 .6349945 .6158447V.6438446H.3929901C.36698915 .6438446 .22099304 .64782717 .20298767 .6508026 .17999268 .655777 .1789856 .6657715 .1769867 .67578127H.1349945L.09700012 .4507904H.13899231C.14099121 .4657898 .1519928 .530838 .16899109 .5418396 .1749878 .5468445 .2689972 .54785159 .28399659 .54785159H.5219879C.47999574 .4988098 .42599488 .44477845 .3869934 .39575196 .2679901 .2436676 .25299073 .099594119 .25299073 .03855896 .25299073-.016464234 .28799439-.022460938 .30599977-.022460938 .35899354-.022460938 .35899354 .028549195 .35899354 .04055786V.060562135C.35899354 .23866272 .39698792 .34872438 .45700074 .4147644L.625 .59983828Z"/>
<path id="font_4_2" d="M.397995 .63591006C.397995 .6660156 .394989 .6660156 .3619995 .6660156 .29100038 .6016083 .17999268 .6016083 .1599884 .6016083H.14299011V.5576172H.1599884C.18299866 .5576172 .24798584 .5606079 .30599977 .58561709V.08596802C.30599977 .054977418 .30599977 .04399109 .19999695 .04399109H.1499939V0C.20498657 .0039978029 .2939911 .0039978029 .35198976 .0039978029 .4099884 .0039978029 .49899293 .0039978029 .55400088 0V.04399109H.5039978C.397995 .04399109 .397995 .054977418 .397995 .08596802V.63591006Z"/>
<path id="font_4_1" d="M.6009979 .31976319C.6009979 .3918152 .6009979 .6660156 .33999635 .6660156 .07899475 .6660156 .07899475 .3918152 .07899475 .31976319 .07899475 .2467041 .07899475-.022460938 .33999635-.022460938 .6009979-.022460938 .6009979 .2467041 .6009979 .31976319M.33999635 .010528564C.30299378 .010528564 .21899414 .023544312 .19400025 .12461853 .17999268 .17866516 .1789856 .24971009 .1789856 .33177186 .1789856 .405838 .1789856 .47488404 .19499207 .5319214 .21998596 .6159973 .29699708 .63301089 .33999635 .63301089 .4139862 .63301089 .46699525 .5949707 .4869995 .5249176 .5009918 .47387696 .5009918 .39082337 .5009918 .33177186 .5009918 .26371766 .5009918 .18266297 .48599244 .12261963 .45999146 .025543213 .37998963 .010528564 .33999635 .010528564Z"/>
<path id="font_4_5" d="M.19599915 .55078127C.24899292 .53778079 .2939911 .53778079 .30499269 .53778079 .37298585 .53778079 .4229889 .55778506 .44898988 .57177737 .47299195 .583786 .54100039 .6267853 .54100039 .64878848 .54100039 .66378787 .5299988 .66578677 .5269928 .66578677 .5249939 .66578677 .522995 .66578677 .5119934 .66078189 .47399903 .6477814 .4119873 .63378909 .34599305 .63378909 .2889862 .63378909 .23399353 .64378359 .18099976 .66178897 .16999817 .66578677 .16799927 .66578677 .1659851 .66578677 .1519928 .66578677 .1519928 .6537781 .1519928 .63778689V.33763124C.1519928 .32061769 .1519928 .30760194 .17098999 .30760194 .18199158 .30760194 .18299866 .30960084 .19198609 .32061769 .22999573 .36468507 .2829895 .38671876 .35099793 .38671876 .40899659 .38671876 .44099427 .35266114 .45498658 .33163453 .47799684 .2975769 .48298646 .2525177 .48298646 .20446778 .48298646 .16246033 .47898866 .10646057 .43998719 .067489627 .394989 .021530152 .33799745 .01852417 .31599427 .01852417 .25099183 .01852417 .17799378 .04650879 .14698792 .10546875 .18899536 .10845947 .20298767 .13845825 .20298767 .1614685 .20298767 .19346619 .1789856 .21746826 .14698792 .21746826 .125 .21746826 .09098816 .20446778 .09098816 .15846253 .09098816 .0605011 .18699646-.022460938 .31799317-.022460938 .46699525-.022460938 .58898928 .07748413 .58898928 .20146179 .58898928 .3146057 .49198915 .41970826 .35299684 .41970826 .2899933 .41970826 .23899842 .40371705 .19599915 .37068177V.55078127Z"/>
<path id="font_4_4" d="M.61698916 .1630249V.20703125H.49198915V.64675906C.49198915 .67074587 .4909973 .6767578 .46499635 .6767578 .44499208 .6767578 .44400025 .67575076 .43299867 .66174319L.06298828 .20703125V.1630249H.3959961V.085006717C.3959961 .054000856 .3959961 .04399109 .30899049 .04399109H.27398683V0C.32099916 .0019989014 .38598634 .0039978029 .44400025 .0039978029 .5019989 .0039978029 .56599429 .0019989014 .6139984 0V.04399109H.57899478C.49198915 .04399109 .49198915 .054000856 .49198915 .085006717V.1630249H.61698916M.4039917 .5688019V.20703125H.10998535L.4039917 .5688019Z"/>
<path id="font_4_3" d="M.58898928 .19296265H.5469971C.5439911 .17396546 .5339966 .11198425 .5179901 .101989749 .5099945 .09599304 .42599488 .09599304 .41099549 .09599304H.21499634C.2809906 .14497376 .35499574 .20095825 .4149933 .24093628 .5049896 .30291749 .58898928 .36090089 .58898928 .46687318 .58898928 .59495547 .46798707 .6660156 .32499696 .6660156 .18998719 .6660156 .09098816 .58795168 .09098816 .48986817 .09098816 .4378662 .1349945 .42886354 .14898682 .42886354 .17599488 .42886354 .20799256 .4468689 .20799256 .48786927 .20799256 .52386477 .18199158 .543869 .15098572 .546875 .1789856 .59194949 .23699951 .6220093 .3039856 .6220093 .40098573 .6220093 .48199464 .5639038 .48199464 .4658661 .48199464 .3818817 .42399598 .31791688 .34700013 .2529297L.102996829 .04598999C.09298706 .036987306 .09199524 .036987306 .09098816 .02999878V0H.55599978L.58898928 .19296265Z"/>
<path id="font_4_7" d="M.42900086 .36079408C.5319977 .40382386 .5649872 .45687867 .5649872 .513916 .5649872 .6179962 .44999696 .6660156 .34098817 .6660156 .21699524 .6660156 .114990238 .5959778 .114990238 .4958954 .114990238 .40382386 .19400025 .36279298 .24598694 .3357849 .13999939 .29473878 .07998657 .23570252 .07998657 .15364075 .07998657 .03353882 .21299744-.022460938 .33898927-.022460938 .47898866-.022460938 .59999087 .05255127 .59999087 .1706543 .59999087 .27973939 .49598695 .33078004 .42900086 .36079408M.23298645 .46287538C.18998719 .4848938 .1769867 .51091006 .1769867 .53492739 .1769867 .59898379 .25898744 .628006 .33898927 .628006 .4189911 .628006 .5029907 .588974 .5029907 .51290896 .5029907 .42485047 .3889923 .38381959 .3880005 .38381959 .3869934 .38381959 .38598634 .38381959 .3769989 .38882447L.23298645 .46287538M.2889862 .31376649 .44400025 .23469544C.47999574 .21568299 .5309906 .18865967 .5309906 .1346283 .5309906 .05355835 .42999269 .01852417 .34098817 .01852417 .25 .01852417 .14898682 .063568118 .14898682 .15463257 .14898682 .2537079 .25698854 .29974366 .2889862 .31376649Z"/>
</defs>
<path transform="matrix(1.00002,0,0,-1.00003,12.058861,43.142816)" d="M9.96277 0C9.96277 5.50235 5.50235 9.96277 0 9.96277-5.50235 9.96277-9.96277 5.50235-9.96277 0-9.96277-5.50235-5.50235-9.96277 0-9.96277 5.50235-9.96277 9.96277-5.50235 9.96277 0ZM0 0" fill="#7f807f" fill-opacity=".3"/>
<path transform="matrix(1.00002,0,0,-1.00003,12.058861,43.142816)" stroke-width=".3985" stroke-linecap="butt" stroke-miterlimit="10" stroke-linejoin="miter" fill="none" stroke="#000000" d="M9.96277 0C9.96277 5.50235 5.50235 9.96277 0 9.96277-5.50235 9.96277-9.96277 5.50235-9.96277 0-9.96277-5.50235-5.50235-9.96277 0-9.96277 5.50235-9.96277 9.96277-5.50235 9.96277 0ZM0 0"/>
<use data-text="v" xlink:href="#font_1_1" transform="matrix(8.966579,0,0,-8.966669,7.8247759,44.57486)"/>
<use data-text="s" xlink:href="#font_2_2" transform="matrix(5.97772,0,0,-5.97778,12.300865,45.570886)"/>
<path transform="matrix(1.00002,0,0,-1.00003,12.058861,43.142816)" d="M58.35014 31.37953C58.35014 36.8819 53.88972 41.3423 48.38737 41.3423 42.88501 41.3423 38.4246 36.8819 38.4246 31.37953 38.4246 25.87718 42.88501 21.41676 48.38737 21.41676 53.88972 21.41676 58.35014 25.87718 58.35014 31.37953ZM48.38737 31.37953" fill="#7f807f" fill-opacity=".3"/>
<path transform="matrix(1.00002,0,0,-1.00003,12.058861,43.142816)" stroke-width=".3985" stroke-linecap="butt" stroke-miterlimit="10" stroke-linejoin="miter" fill="none" stroke="#000000" d="M58.35014 31.37953C58.35014 36.8819 53.88972 41.3423 48.38737 41.3423 42.88501 41.3423 38.4246 36.8819 38.4246 31.37953 38.4246 25.87718 42.88501 21.41676 48.38737 21.41676 53.88972 21.41676 58.35014 25.87718 58.35014 31.37953ZM48.38737 31.37953"/>
<use data-text="v" xlink:href="#font_1_1" transform="matrix(8.966579,0,0,-8.966669,56.133745,13.194914)"/>
<use data-text="1" xlink:href="#font_3_1" transform="matrix(5.97772,0,0,-5.97778,60.609834,14.190943)"/>
<path transform="matrix(1.00002,0,0,-1.00003,12.058861,43.142816)" d="M58.35014-31.37953C58.35014-25.87718 53.88972-21.41676 48.38737-21.41676 42.88501-21.41676 38.4246-25.87718 38.4246-31.37953 38.4246-36.8819 42.88501-41.3423 48.38737-41.3423 53.88972-41.3423 58.35014-36.8819 58.35014-31.37953ZM48.38737-31.37953" fill="#7f807f" fill-opacity=".3"/>
<path transform="matrix(1.00002,0,0,-1.00003,12.058861,43.142816)" stroke-width=".3985" stroke-linecap="butt" stroke-miterlimit="10" stroke-linejoin="miter" fill="none" stroke="#000000" d="M58.35014-31.37953C58.35014-25.87718 53.88972-21.41676 48.38737-21.41676 42.88501-21.41676 38.4246-25.87718 38.4246-31.37953 38.4246-36.8819 42.88501-41.3423 48.38737-41.3423 53.88972-41.3423 58.35014-36.8819 58.35014-31.37953ZM48.38737-31.37953"/>
<use data-text="v" xlink:href="#font_1_1" transform="matrix(8.966579,0,0,-8.966669,56.133745,75.955799)"/>
<use data-text="2" xlink:href="#font_3_2" transform="matrix(5.97772,0,0,-5.97778,60.609834,76.95183)"/>
<path transform="matrix(1.00002,0,0,-1.00003,12.058861,43.142816)" d="M112.69028 31.37953C112.69028 36.8819 108.22987 41.3423 102.72751 41.3423 97.22516 41.3423 92.76474 36.8819 92.76474 31.37953 92.76474 25.87718 97.22516 21.41676 102.72751 21.41676 108.22987 21.41676 112.69028 25.87718 112.69028 31.37953ZM102.72751 31.37953" fill="#7f807f" fill-opacity=".3"/>
<path transform="matrix(1.00002,0,0,-1.00003,12.058861,43.142816)" stroke-width=".3985" stroke-linecap="butt" stroke-miterlimit="10" stroke-linejoin="miter" fill="none" stroke="#000000" d="M112.69028 31.37953C112.69028 36.8819 108.22987 41.3423 102.72751 41.3423 97.22516 41.3423 92.76474 36.8819 92.76474 31.37953 92.76474 25.87718 97.22516 21.41676 102.72751 21.41676 108.22987 21.41676 112.69028 25.87718 112.69028 31.37953ZM102.72751 31.37953"/>
<use data-text="v" xlink:href="#font_1_1" transform="matrix(8.966579,0,0,-8.966669,110.47483,13.194914)"/>
<use data-text="3" xlink:href="#font_3_3" transform="matrix(5.97772,0,0,-5.97778,114.95092,14.190943)"/>
<path transform="matrix(1.00002,0,0,-1.00003,12.058861,43.142816)" d="M112.69028-31.37953C112.69028-25.87718 108.22987-21.41676 102.72751-21.41676 97.22516-21.41676 92.76474-25.87718 92.76474-31.37953 92.76474-36.8819 97.22516-41.3423 102.72751-41.3423 108.22987-41.3423 112.69028-36.8819 112.69028-31.37953ZM102.72751-31.37953" fill="#7f807f" fill-opacity=".3"/>
<path transform="matrix(1.00002,0,0,-1.00003,12.058861,43.142816)" stroke-width=".3985" stroke-linecap="butt" stroke-miterlimit="10" stroke-linejoin="miter" fill="none" stroke="#000000" d="M112.69028-31.37953C112.69028-25.87718 108.22987-21.41676 102.72751-21.41676 97.22516-21.41676 92.76474-25.87718 92.76474-31.37953 92.76474-36.8819 97.22516-41.3423 102.72751-41.3423 108.22987-41.3423 112.69028-36.8819 112.69028-31.37953ZM102.72751-31.37953"/>
<use data-text="v" xlink:href="#font_1_1" transform="matrix(8.966579,0,0,-8.966669,110.47483,75.955799)"/>
<use data-text="4" xlink:href="#font_3_4" transform="matrix(5.97772,0,0,-5.97778,114.95092,76.95183)"/>
<path transform="matrix(1.00002,0,0,-1.00003,12.058861,43.142816)" d="M161.07767 0C161.07767 5.50235 156.61725 9.96277 151.1149 9.96277 145.61254 9.96277 141.15213 5.50235 141.15213 0 141.15213-5.50235 145.61254-9.96277 151.1149-9.96277 156.61725-9.96277 161.07767-5.50235 161.07767 0ZM151.1149 0" fill="#7f807f" fill-opacity=".3"/>
<path transform="matrix(1.00002,0,0,-1.00003,12.058861,43.142816)" stroke-width=".3985" stroke-linecap="butt" stroke-miterlimit="10" stroke-linejoin="miter" fill="none" stroke="#000000" d="M161.07767 0C161.07767 5.50235 156.61725 9.96277 151.1149 9.96277 145.61254 9.96277 141.15213 5.50235 141.15213 0 141.15213-5.50235 145.61254-9.96277 151.1149-9.96277 156.61725-9.96277 161.07767-5.50235 161.07767 0ZM151.1149 0"/>
<use data-text="v" xlink:href="#font_1_1" transform="matrix(8.966579,0,0,-8.966669,158.7688,44.541856)"/>
<use data-text="d" xlink:href="#font_2_1" transform="matrix(5.97772,0,0,-5.97778,163.2449,45.60389)"/>
<path transform="matrix(1.00002,0,0,-1.00003,12.058861,43.142816)" stroke-width=".3985" stroke-linecap="butt" stroke-miterlimit="10" stroke-linejoin="miter" fill="none" stroke="#000000" d="M8.5258 5.52911 39.47691 25.60106"/>
<path transform="matrix(.8390068,-.5441163,-.5441109,-.8390152,51.53656,17.540986)" stroke-width=".31879" stroke-linecap="round" stroke-linejoin="round" fill="none" stroke="#000000" d="M-1.19551 1.59401C-1.09587 .99626 0 .09961 .29886 0 0-.09961-1.09587-.99626-1.19551-1.59401"/>
<use data-text="7" xlink:href="#font_4_6" transform="matrix(4.179344,-2.7104066,-2.7103797,-4.179386,34.451936,27.789502)"/>
<path transform="matrix(1.00002,0,0,-1.00003,12.058861,43.142816)" stroke-width=".3985" stroke-linecap="butt" stroke-miterlimit="10" stroke-linejoin="miter" fill="none" stroke="#000000" d="M8.5258-5.52911 39.47691-25.60106"/>
<path transform="matrix(.8390068,.5441163,.5441109,-.8390152,51.53656,68.744647)" stroke-width=".31879" stroke-linecap="round" stroke-linejoin="round" fill="none" stroke="#000000" d="M-1.19551 1.59401C-1.09587 .99626 0 .09961 .29886 0 0-.09961-1.09587-.99626-1.19551-1.59401"/>
<use data-text="1" xlink:href="#font_4_2" transform="matrix(4.179344,2.7104066,2.7103797,-4.179386,31.281769,60.267274)"/>
<use data-text="0" xlink:href="#font_4_1" transform="matrix(4.179344,2.7104066,2.7103797,-4.179386,34.123716,62.11035)"/>
<path transform="matrix(1.00002,0,0,-1.00003,12.058861,43.142816)" stroke-width=".3985" stroke-linecap="butt" stroke-miterlimit="10" stroke-linejoin="miter" fill="none" stroke="#000000" d="M48.38737-21.21751V20.75923"/>
<path transform="matrix(0,-1.00003,-1.00002,-0,60.4472,22.382962)" stroke-width=".31879" stroke-linecap="round" stroke-linejoin="round" fill="none" stroke="#000000" d="M-1.19551 1.59401C-1.09587 .99626 0 .09961 .29886 0 0-.09961-1.09587-.99626-1.19551-1.59401"/>
<use data-text="5" xlink:href="#font_4_5" transform="matrix(0,-4.9814498,-4.9813997,-0,59.74982,44.836877)"/>
<path transform="matrix(1.00002,0,0,-1.00003,12.058861,43.142816)" stroke-width=".3985" stroke-linecap="butt" stroke-miterlimit="10" stroke-linejoin="miter" fill="none" stroke="#000000" d="M58.5494 31.37953H92.10721"/>
<path transform="matrix(1.00002,0,0,-1.00003,104.167919,11.762342)" stroke-width=".31879" stroke-linecap="round" stroke-linejoin="round" fill="none" stroke="#000000" d="M-1.19551 1.59401C-1.09587 .99626 0 .09961 .29886 0 0-.09961-1.09587-.99626-1.19551-1.59401"/>
<use data-text="4" xlink:href="#font_4_4" transform="matrix(4.9813997,0,0,-4.9814498,85.92234,11.06485)"/>
<path transform="matrix(1.00002,0,0,-1.00003,12.058861,43.142816)" stroke-width=".3985" stroke-linecap="butt" stroke-miterlimit="10" stroke-linejoin="miter" fill="none" stroke="#000000" d="M55.03899 23.69725 95.77579-23.35097"/>
<path transform="matrix(.65457317,.7560027,.75599518,-.6545797,107.83656,66.494487)" stroke-width=".31879" stroke-linecap="round" stroke-linejoin="round" fill="none" stroke="#000000" d="M-1.19551 1.59401C-1.09587 .99626 0 .09961 .29886 0 0-.09961-1.09587-.99626-1.19551-1.59401"/>
<use data-text="1" xlink:href="#font_4_2" transform="matrix(3.2606252,3.7658764,3.7658387,-3.2606579,77.71756,30.64457)"/>
<use data-text="2" xlink:href="#font_4_3" transform="matrix(3.2606252,3.7658764,3.7658387,-3.2606579,79.934787,33.20536)"/>
<path transform="matrix(1.00002,0,0,-1.00003,12.058861,43.142816)" stroke-width=".3985" stroke-linecap="butt" stroke-miterlimit="10" stroke-linejoin="miter" fill="none" stroke="#000000" d="M55.03899-23.69725 95.77579 23.35097"/>
<path transform="matrix(.65457317,-.7560027,-.75599518,-.6545797,107.83656,19.791144)" stroke-width=".31879" stroke-linecap="round" stroke-linejoin="round" fill="none" stroke="#000000" d="M-1.19551 1.59401C-1.09587 .99626 0 .09961 .29886 0 0-.09961-1.09587-.99626-1.19551-1.59401"/>
<use data-text="1" xlink:href="#font_4_2" transform="matrix(3.2606252,-3.7658764,-3.7658387,-3.2606579,76.664188,54.727796)"/>
<use data-text="0" xlink:href="#font_4_1" transform="matrix(3.2606252,-3.7658764,-3.7658387,-3.2606579,78.88141,52.167005)"/>
<path transform="matrix(1.00002,0,0,-1.00003,12.058861,43.142816)" stroke-width=".3985" stroke-linecap="butt" stroke-miterlimit="10" stroke-linejoin="miter" fill="none" stroke="#000000" d="M58.5494-31.37953H92.10721"/>
<path transform="matrix(1.00002,0,0,-1.00003,104.167919,74.523288)" stroke-width=".31879" stroke-linecap="round" stroke-linejoin="round" fill="none" stroke="#000000" d="M-1.19551 1.59401C-1.09587 .99626 0 .09961 .29886 0 0-.09961-1.09587-.99626-1.19551-1.59401"/>
<use data-text="4" xlink:href="#font_4_4" transform="matrix(4.9813997,0,0,-4.9814498,85.92234,78.43087)"/>
<path transform="matrix(1.00002,0,0,-1.00003,12.058861,43.142816)" stroke-width=".3985" stroke-linecap="butt" stroke-miterlimit="10" stroke-linejoin="miter" fill="none" stroke="#000000" d="M106.20271 21.83032V-21.37204"/>
<path transform="matrix(0,1.00003,1.00002,0,118.2637,64.515499)" stroke-width=".31879" stroke-linecap="round" stroke-linejoin="round" fill="none" stroke="#000000" d="M-1.19551 1.59401C-1.09587 .99626 0 .09961 .29886 0 0-.09961-1.09587-.99626-1.19551-1.59401"/>
<use data-text="4" xlink:href="#font_4_4" transform="matrix(0,4.9814498,4.9813997,0,118.96001,41.44776)"/>
<path transform="matrix(1.00002,0,0,-1.00003,12.058861,43.142816)" stroke-width=".3985" stroke-linecap="butt" stroke-miterlimit="10" stroke-linejoin="miter" fill="none" stroke="#000000" d="M99.2523-21.83032V21.37204"/>
<path transform="matrix(0,-1.00003,-1.00002,-0,111.31315,21.770133)" stroke-width=".31879" stroke-linecap="round" stroke-linejoin="round" fill="none" stroke="#000000" d="M-1.19551 1.59401C-1.09587 .99626 0 .09961 .29886 0 0-.09961-1.09587-.99626-1.19551-1.59401"/>
<use data-text="5" xlink:href="#font_4_5" transform="matrix(0,-4.9814498,-4.9813997,-0,110.615848,44.836877)"/>
<path transform="matrix(1.00002,0,0,-1.00003,12.058861,43.142816)" stroke-width=".3985" stroke-linecap="butt" stroke-miterlimit="10" stroke-linejoin="miter" fill="none" stroke="#000000" d="M111.25333-25.8504 142.20444-5.77846"/>
<path transform="matrix(.8390068,-.5441163,-.5441109,-.8390152,154.26615,48.921449)" stroke-width=".31879" stroke-linecap="round" stroke-linejoin="round" fill="none" stroke="#000000" d="M-1.19551 1.59401C-1.09587 .99626 0 .09961 .29886 0 0-.09961-1.09587-.99626-1.19551-1.59401"/>
<use data-text="7" xlink:href="#font_4_6" transform="matrix(4.179344,-2.7104066,-2.7103797,-4.179386,139.68704,63.033559)"/>
<path transform="matrix(1.00002,0,0,-1.00003,12.058861,43.142816)" stroke-width=".3985" stroke-linecap="butt" stroke-miterlimit="10" stroke-linejoin="miter" fill="none" stroke="#000000" d="M111.25333 25.8504 142.20444 5.77846"/>
<path transform="matrix(.8390068,.5441163,.5441109,-.8390152,154.26615,37.36418)" stroke-width=".31879" stroke-linecap="round" stroke-linejoin="round" fill="none" stroke="#000000" d="M-1.19551 1.59401C-1.09587 .99626 0 .09961 .29886 0 0-.09961-1.09587-.99626-1.19551-1.59401"/>
<use data-text="8" xlink:href="#font_4_7" transform="matrix(4.179344,2.7104066,2.7103797,-4.179386,137.9399,25.945244)"/>
</svg>
