<svg xmlns="http://www.w3.org/2000/svg" xmlns:xlink="http://www.w3.org/1999/xlink" xmlns:inkscape="http://www.inkscape.org/namespaces/inkscape" version="1.1" width="120" height="86" viewBox="0 0 120 86">
<defs>
<path id="font_1_1" d="M.48098756 .3693695C.48098756 .43937684 .44400025 .44337464 .43499757 .44337464 .4099884 .44337464 .38398744 .41638185 .38398744 .39337159 .38398744 .3783722 .3929901 .37036134 .3999939 .36436463 .4269867 .33935548 .43598939 .30734254 .43598939 .28134156 .43598939 .23731995 .37298585 .014251709 .25698854 .014251709 .18199158 .014251709 .18199158 .08427429 .18199158 .10227966 .18199158 .14529419 .19599915 .19630432 .23098755 .28733827 .24699402 .3293457 .25099183 .33935548 .25099183 .35835267 .25099183 .40737916 .21398926 .4423828 .16499329 .4423828 .068984989 .4423828 .0289917 .30033876 .0289917 .28833009 .0289917 .2793274 .035995485 .27633668 .042999269 .27633668 .053985597 .27633668 .054992677 .28233338 .05899048 .29533387 .07998657 .36836244 .11999512 .41737367 .1619873 .41737367 .18199158 .41737367 .18598938 .40437318 .18598938 .3843689 .18598938 .36735536 .18199158 .34934999 .17298889 .3253479 .13699341 .22932434 .11299133 .16529846 .11299133 .11528015 .11299133 .021255494 .18399048-.0107421879 .25299073-.0107421879 .42099-.0107421879 .48098756 .30534364 .48098756 .3693695Z"/>
<path id="font_2_2" d="M.5379944 .18702698H.5009918C.49899293 .17301941 .4889984 .10699463 .47399903 .09599304 .46699525 .08999634 .38598634 .08999634 .37199403 .08999634H.18499756L.31298829 .19403076C.34700013 .22103882 .43598939 .28504945 .46699525 .31506349 .49699403 .3450775 .5379944 .39608766 .5379944 .46710206 .5379944 .5920563 .4249878 .66503909 .29100038 .66503909 .1619873 .66503909 .07199097 .58006289 .07199097 .48609925 .07199097 .43510438 .114990238 .42910768 .12599182 .42910768 .15098572 .42910768 .17999268 .44709779 .17999268 .48310853 .17999268 .50509646 .16699219 .5371094 .12298584 .5371094 .1459961 .5880585 .20698548 .6260376 .27598573 .6260376 .3809967 .6260376 .43699647 .5480957 .43699647 .46710206 .43699647 .39608766 .3899994 .32305909 .31999208 .25904847L.08299255 .041992189C.07299805 .03199768 .07199097 .0309906 .07199097 0H.5069885L.5379944 .18702698Z"/>
<path id="font_3_2" d="M.45700074 .37594605C.42799378 .36894227 .4169922 .34394837 .4169922 .32894898 .4169922 .3129425 .42900086 .2959442 .45199586 .2959442 .47200013 .2959442 .5009918 .30995179 .5009918 .35295106 .5009918 .4203949 .4249878 .44140626 .3600006 .44140626 .20698548 .44140626 .16999817 .33995057 .16999817 .2969513 .16999817 .21612549 .2619934 .2001648 .28799439 .19616699 .36299134 .18319702 .42099 .17222595 .42099 .1232605 .42099 .102264408 .4039917 .06626892 .36799623 .04624939 .32899476 .025222779 .28599549 .023223877 .25698854 .023223877 .22200012 .023223877 .1599884 .027236939 .1309967 .060272218 .1659851 .06626892 .18299866 .09326172 .18299866 .117263797 .18299866 .13825989 .16899109 .15527344 .14199829 .15527344 .115997318 .15527344 .083999637 .13426209 .083999637 .087265018 .083999637 .03224182 .13899231-.009765625 .2559967-.009765625 .44299317-.009765625 .48298646 .10626221 .48298646 .15226746 .48298646 .18519593 .46899415 .20814514 .44599916 .22810364 .4139862 .25604249 .3769989 .26202394 .32899476 .27000428 .27999879 .27897645 .23199463 .28697206 .23199463 .325943 .23199463 .32695008 .23199463 .40838624 .35899354 .40838624 .38398744 .40838624 .43399049 .4043274 .45700074 .37594605Z"/>
<path id="font_2_1" d="M.35899354 .6349335C.35899354 .66503909 .35499574 .66503909 .32499696 .66503909 .25898744 .60058596 .15699768 .60058596 .12098694 .60058596V.5615845C.14698792 .5615845 .21299744 .5615845 .272995 .58958438V.08496094C.272995 .051986696 .272995 .038986207 .16999817 .038986207H.1269989V0C.18199158 .0039978029 .2599945 .0039978029 .31599427 .0039978029 .37199403 .0039978029 .44999696 .0039978029 .5049896 0V.038986207H.46199037C.35899354 .038986207 .35899354 .051986696 .35899354 .08496094V.6349335Z"/>
<path id="font_2_3" d="M.2939911 .33203126C.3789978 .33203126 .43598939 .274765 .43598939 .17237854 .43598939 .062408449 .36999513 .014511108 .29699708 .014511108 .269989 .014511108 .16699219 .020492554 .12199402 .07836914 .16099549 .0823822 .1769867 .10836792 .1769867 .13537598 .1769867 .16937256 .15299988 .19238281 .11999512 .19238281 .09298706 .19238281 .06298828 .17536927 .06298828 .13337708 .06298828 .034469606 .17298889-.021484375 .2999878-.021484375 .44799806-.021484375 .5469971 .07337952 .5469971 .17237854 .5469971 .24562073 .4909973 .3229828 .37199403 .35302735 .45098878 .37902833 .5149994 .44306947 .5149994 .5251007 .5149994 .60505679 .42099 .66503909 .30099488 .66503909 .18399048 .66503909 .09498596 .61105349 .09498596 .5290985 .09498596 .48609925 .12799073 .47409059 .147995 .47409059 .17399597 .47409059 .20098877 .49209596 .20098877 .5270996 .20098877 .5580902 .1789856 .5760956 .1519928 .5800934 .19898987 .6320343 .2899933 .6320343 .29899598 .6320343 .34999085 .6320343 .4139862 .60806277 .4139862 .5251007 .4139862 .47009278 .3829956 .37402345 .2829895 .36802674 .2649994 .36701966 .23799134 .36502076 .22898865 .36502076 .21899414 .36402894 .20799256 .36302186 .20799256 .34802247 .20799256 .33203126 .21899414 .33203126 .23599243 .33203126H.2939911Z"/>
<path id="font_3_1" d="M.6049957 .66430667C.60598757 .66830447 .60798647 .67430117 .60798647 .67930606 .60798647 .6953125 .58799746 .6943054 .57598879 .69329836L.46398927 .6843109C.44699098 .68330386 .43399049 .682312 .43399049 .65930178 .43399049 .64331057 .44699098 .64331057 .46199037 .64331057 .49198915 .64331057 .49899293 .64131167 .5119934 .63630679 .5109863 .62132266 .5109863 .61932376 .5079956 .60632327 .4869995 .5203552 .47099305 .45339967 .45098878 .38139344 .43699647 .4044037 .40299989 .44140626 .34098817 .44140626 .21299744 .44140626 .07499695 .3073578 .07499695 .16029358 .07499695 .052246095 .15098572-.009765625 .23599243-.009765625 .30299378-.009765625 .3600006 .036239625 .3849945 .06124878 .4039917-.0017700195 .47099305-.009765625 .49299623-.009765625 .5289917-.009765625 .5549927 .010223389 .57398989 .041229249 .598999 .08125305 .61299136 .13928223 .61299136 .14428711 .61299136 .14628601 .6119995 .15829468 .59399417 .15829468 .57899478 .15829468 .57699587 .1512909 .57299807 .13528443 .5569916 .07424927 .5359955 .023223877 .49699403 .023223877 .46299745 .023223877 .45999146 .059249879 .45999146 .07424927 .45999146 .087249759 .45999146 .09025574 .46499635 .10826111L.6049957 .66430667M.3889923 .13127136C.38398744 .11326599 .38398744 .11126709 .36999513 .09625244 .31498719 .034225465 .2639923 .023223877 .23899842 .023223877 .19898987 .023223877 .1599884 .050231935 .1599884 .121276859 .1599884 .16229248 .18099976 .2603302 .21299744 .3173523 .24299622 .37138368 .2939911 .4084015 .34199525 .4084015 .4169922 .4084015 .43598939 .32936097 .43598939 .32235719L.43299867 .3083496 .3889923 .13127136Z"/>
<path id="font_4_1" d="M.44099427 .7259979C.44099427 .72698977 .44400025 .73098757 .44400025 .73599246 .44400025 .73999026 .44198609 .75 .4269867 .75 .40699769 .75 .1499939 .58999636 .1499939 .25 .1499939-.08900452 .40699769-.25 .4269867-.25 .44198609-.25 .44400025-.2400055 .44400025-.23600769 .44400025-.2290039 .43998719-.22601319 .43598939-.2230072 .25898744-.08200073 .22698975 .12098694 .22698975 .25 .22698975 .49499513 .33999635 .6559906 .44099427 .7259979Z"/>
<path id="font_4_7" d="M.19599915 .55078127C.24899292 .53778079 .2939911 .53778079 .30499269 .53778079 .37298585 .53778079 .4229889 .55778506 .44898988 .57177737 .47299195 .583786 .54100039 .6267853 .54100039 .64878848 .54100039 .66378787 .5299988 .66578677 .5269928 .66578677 .5249939 .66578677 .522995 .66578677 .5119934 .66078189 .47399903 .6477814 .4119873 .63378909 .34599305 .63378909 .2889862 .63378909 .23399353 .64378359 .18099976 .66178897 .16999817 .66578677 .16799927 .66578677 .1659851 .66578677 .1519928 .66578677 .1519928 .6537781 .1519928 .63778689V.33763124C.1519928 .32061769 .1519928 .30760194 .17098999 .30760194 .18199158 .30760194 .18299866 .30960084 .19198609 .32061769 .22999573 .36468507 .2829895 .38671876 .35099793 .38671876 .40899659 .38671876 .44099427 .35266114 .45498658 .33163453 .47799684 .2975769 .48298646 .2525177 .48298646 .20446778 .48298646 .16246033 .47898866 .10646057 .43998719 .067489627 .394989 .021530152 .33799745 .01852417 .31599427 .01852417 .25099183 .01852417 .17799378 .04650879 .14698792 .10546875 .18899536 .10845947 .20298767 .13845825 .20298767 .1614685 .20298767 .19346619 .1789856 .21746826 .14698792 .21746826 .125 .21746826 .09098816 .20446778 .09098816 .15846253 .09098816 .0605011 .18699646-.022460938 .31799317-.022460938 .46699525-.022460938 .58898928 .07748413 .58898928 .20146179 .58898928 .3146057 .49198915 .41970826 .35299684 .41970826 .2899933 .41970826 .23899842 .40371705 .19599915 .37068177V.55078127Z"/>
<path id="font_5_1" d="M.269989 .01399231C.269989-.08216858 .21798706-.13726807 .19099427-.15931702 .18099976-.16732788 .1789856-.16934204 .1789856-.17634583 .1789856-.18234253 .18798828-.19433594 .19699097-.19433594 .20999146-.19433594 .3039856-.1162262 .3039856 .008987427 .3039856 .07699585 .27398683 .12199402 .22898865 .12199402 .19099427 .12199402 .16799927 .09199524 .16799927 .06098938 .16799927 .0289917 .19099427 0 .22898865 0 .24398804 0 .25898744 .0039978029 .269989 .01399231Z"/>
<path id="font_4_4" d="M.58898928 .19296265H.5469971C.5439911 .17396546 .5339966 .11198425 .5179901 .101989749 .5099945 .09599304 .42599488 .09599304 .41099549 .09599304H.21499634C.2809906 .14497376 .35499574 .20095825 .4149933 .24093628 .5049896 .30291749 .58898928 .36090089 .58898928 .46687318 .58898928 .59495547 .46798707 .6660156 .32499696 .6660156 .18998719 .6660156 .09098816 .58795168 .09098816 .48986817 .09098816 .4378662 .1349945 .42886354 .14898682 .42886354 .17599488 .42886354 .20799256 .4468689 .20799256 .48786927 .20799256 .52386477 .18199158 .543869 .15098572 .546875 .1789856 .59194949 .23699951 .6220093 .3039856 .6220093 .40098573 .6220093 .48199464 .5639038 .48199464 .4658661 .48199464 .3818817 .42399598 .31791688 .34700013 .2529297L.102996829 .04598999C.09298706 .036987306 .09199524 .036987306 .09098816 .02999878V0H.55599978L.58898928 .19296265Z"/>
<path id="font_4_2" d="M.3909912 .25C.3909912 .58898928 .13398743 .75 .11399841 .75 .09799194 .75 .09799194 .73799136 .09799194 .73599246 .09799194 .73498538 .09799194 .72898867 .10398865 .72299197 .2539978 .60398867 .31399537 .42999269 .31399537 .25 .31399537 .1599884 .29699708 .06599426 .2630005-.01600647 .21499634-.13000489 .1519928-.18501282 .102996829-.2250061 .099990848-.227005 .09799194-.23200989 .09799194-.23600769 .09799194-.23800659 .09799194-.25 .11399841-.25 .13398743-.25 .3909912-.0900116 .3909912 .25Z"/>
<path id="font_4_5" d="M.32998658 .3310547C.42199708 .3310547 .48298646 .2737732 .48298646 .17437744 .48298646 .07237244 .41999818 .01852417 .33099366 .01852417 .31999208 .01852417 .20098877 .01852417 .1499939 .070373538 .19099427 .07637024 .20298767 .1073761 .20298767 .13137818 .20298767 .16838074 .1749878 .19238281 .14199829 .19238281 .10998535 .19238281 .07998657 .17137146 .07998657 .12937927 .07998657 .025512696 .19799805-.022460938 .33399964-.022460938 .49798585-.022460938 .59999087 .07637024 .59999087 .17337036 .59999087 .25567628 .5269928 .3260193 .41299439 .35205079 .5329895 .3909912 .5649872 .46684266 .5649872 .5228424 .5649872 .60491946 .46299745 .6660156 .33699037 .6660156 .21398926 .6660156 .114990238 .61395266 .114990238 .5238342 .114990238 .47683717 .15299988 .46484376 .17199707 .46484376 .20098877 .46484376 .22898865 .48583985 .22898865 .5218353 .22898865 .5448303 .21699524 .5728302 .18099976 .57884219 .22399903 .625 .31298829 .628006 .33399964 .628006 .40699769 .628006 .45899964 .5908661 .45899964 .5228424 .45899964 .46484376 .42099 .37402345 .31599427 .368042 .28799439 .3670349 .28399659 .3660431 .2579956 .365036 .24699402 .3640442 .23599243 .36305238 .23599243 .34805299 .23599243 .3310547 .24598694 .3310547 .2639923 .3310547H.32998658Z"/>
<path id="font_4_3" d="M.397995 .63591006C.397995 .6660156 .394989 .6660156 .3619995 .6660156 .29100038 .6016083 .17999268 .6016083 .1599884 .6016083H.14299011V.5576172H.1599884C.18299866 .5576172 .24798584 .5606079 .30599977 .58561709V.08596802C.30599977 .054977418 .30599977 .04399109 .19999695 .04399109H.1499939V0C.20498657 .0039978029 .2939911 .0039978029 .35198976 .0039978029 .4099884 .0039978029 .49899293 .0039978029 .55400088 0V.04399109H.5039978C.397995 .04399109 .397995 .054977418 .397995 .08596802V.63591006Z"/>
<path id="font_4_6" d="M.61698916 .1630249V.20703125H.49198915V.64675906C.49198915 .67074587 .4909973 .6767578 .46499635 .6767578 .44499208 .6767578 .44400025 .67575076 .43299867 .66174319L.06298828 .20703125V.1630249H.3959961V.085006717C.3959961 .054000856 .3959961 .04399109 .30899049 .04399109H.27398683V0C.32099916 .0019989014 .38598634 .0039978029 .44400025 .0039978029 .5019989 .0039978029 .56599429 .0019989014 .6139984 0V.04399109H.57899478C.49198915 .04399109 .49198915 .054000856 .49198915 .085006717V.1630249H.61698916M.4039917 .5688019V.20703125H.10998535L.4039917 .5688019Z"/>
</defs>
<path transform="matrix(1.00005,0,0,-1.00003,60.448076,43.142816)" d="M9.96277 0C9.96277 5.50235 5.50235 9.96277 0 9.96277-5.50235 9.96277-9.96277 5.50235-9.96277 0-9.96277-5.50235-5.50235-9.96277 0-9.96277 5.50235-9.96277 9.96277-5.50235 9.96277 0ZM0 0" fill="#7f807f" fill-opacity=".3"/>
<path transform="matrix(1.00005,0,0,-1.00003,60.448076,43.142816)" stroke-width=".3985" stroke-linecap="butt" stroke-miterlimit="10" stroke-linejoin="miter" fill="none" stroke="#000000" d="M9.96277 0C9.96277 5.50235 5.50235 9.96277 0 9.96277-5.50235 9.96277-9.96277 5.50235-9.96277 0-9.96277-5.50235-5.50235-9.96277 0-9.96277 5.50235-9.96277 9.96277-5.50235 9.96277 0ZM0 0"/>
<use data-text="v" xlink:href="#font_1_1" transform="matrix(8.966848,0,0,-8.966669,56.133859,44.57486)"/>
<use data-text="2" xlink:href="#font_2_2" transform="matrix(5.9778988,0,0,-5.97778,60.61109,45.570886)"/>
<path transform="matrix(1.00005,0,0,-1.00003,60.448076,43.142816)" d="M-38.4246-31.37953C-38.4246-25.87718-42.88501-21.41676-48.38737-21.41676-53.88972-21.41676-58.35014-25.87718-58.35014-31.37953-58.35014-36.8819-53.88972-41.3423-48.38737-41.3423-42.88501-41.3423-38.4246-36.8819-38.4246-31.37953ZM-48.38737-31.37953" fill="#7f807f" fill-opacity=".3"/>
<path transform="matrix(1.00005,0,0,-1.00003,60.448076,43.142816)" stroke-width=".3985" stroke-linecap="butt" stroke-miterlimit="10" stroke-linejoin="miter" fill="none" stroke="#000000" d="M-38.4246-31.37953C-38.4246-25.87718-42.88501-21.41676-48.38737-21.41676-53.88972-21.41676-58.35014-25.87718-58.35014-31.37953-58.35014-36.8819-53.88972-41.3423-48.38737-41.3423-42.88501-41.3423-38.4246-36.8819-38.4246-31.37953ZM-48.38737-31.37953"/>
<use data-text="v" xlink:href="#font_1_1" transform="matrix(8.966848,0,0,-8.966669,7.8234407,75.955799)"/>
<use data-text="s" xlink:href="#font_3_2" transform="matrix(5.9778988,0,0,-5.97778,12.300674,76.95183)"/>
<path transform="matrix(1.00005,0,0,-1.00003,60.448076,43.142816)" d="M-38.4246 31.37953C-38.4246 36.8819-42.88501 41.3423-48.38737 41.3423-53.88972 41.3423-58.35014 36.8819-58.35014 31.37953-58.35014 25.87718-53.88972 21.41676-48.38737 21.41676-42.88501 21.41676-38.4246 25.87718-38.4246 31.37953ZM-48.38737 31.37953" fill="#7f807f" fill-opacity=".3"/>
<path transform="matrix(1.00005,0,0,-1.00003,60.448076,43.142816)" stroke-width=".3985" stroke-linecap="butt" stroke-miterlimit="10" stroke-linejoin="miter" fill="none" stroke="#000000" d="M-38.4246 31.37953C-38.4246 36.8819-42.88501 41.3423-48.38737 41.3423-53.88972 41.3423-58.35014 36.8819-58.35014 31.37953-58.35014 25.87718-53.88972 21.41676-48.38737 21.41676-42.88501 21.41676-38.4246 25.87718-38.4246 31.37953ZM-48.38737 31.37953"/>
<use data-text="v" xlink:href="#font_1_1" transform="matrix(8.966848,0,0,-8.966669,7.744446,13.194914)"/>
<use data-text="1" xlink:href="#font_2_1" transform="matrix(5.9778988,0,0,-5.97778,12.22168,14.190943)"/>
<path transform="matrix(1.00005,0,0,-1.00003,60.448076,43.142816)" d="M58.35014-31.37953C58.35014-25.87718 53.88972-21.41676 48.38737-21.41676 42.88501-21.41676 38.4246-25.87718 38.4246-31.37953 38.4246-36.8819 42.88501-41.3423 48.38737-41.3423 53.88972-41.3423 58.35014-36.8819 58.35014-31.37953ZM48.38737-31.37953" fill="#7f807f" fill-opacity=".3"/>
<path transform="matrix(1.00005,0,0,-1.00003,60.448076,43.142816)" stroke-width=".3985" stroke-linecap="butt" stroke-miterlimit="10" stroke-linejoin="miter" fill="none" stroke="#000000" d="M58.35014-31.37953C58.35014-25.87718 53.88972-21.41676 48.38737-21.41676 42.88501-21.41676 38.4246-25.87718 38.4246-31.37953 38.4246-36.8819 42.88501-41.3423 48.38737-41.3423 53.88972-41.3423 58.35014-36.8819 58.35014-31.37953ZM48.38737-31.37953"/>
<use data-text="v" xlink:href="#font_1_1" transform="matrix(8.966848,0,0,-8.966669,104.52428,75.955799)"/>
<use data-text="3" xlink:href="#font_2_3" transform="matrix(5.9778988,0,0,-5.97778,109.00151,76.95183)"/>
<path transform="matrix(1.00005,0,0,-1.00003,60.448076,43.142816)" d="M58.35014 31.37953C58.35014 36.8819 53.88972 41.3423 48.38737 41.3423 42.88501 41.3423 38.4246 36.8819 38.4246 31.37953 38.4246 25.87718 42.88501 21.41676 48.38737 21.41676 53.88972 21.41676 58.35014 25.87718 58.35014 31.37953ZM48.38737 31.37953" fill="#7f807f" fill-opacity=".3"/>
<path transform="matrix(1.00005,0,0,-1.00003,60.448076,43.142816)" stroke-width=".3985" stroke-linecap="butt" stroke-miterlimit="10" stroke-linejoin="miter" fill="none" stroke="#000000" d="M58.35014 31.37953C58.35014 36.8819 53.88972 41.3423 48.38737 41.3423 42.88501 41.3423 38.4246 36.8819 38.4246 31.37953 38.4246 25.87718 42.88501 21.41676 48.38737 21.41676 53.88972 21.41676 58.35014 25.87718 58.35014 31.37953ZM48.38737 31.37953"/>
<use data-text="v" xlink:href="#font_1_1" transform="matrix(8.966848,0,0,-8.966669,104.43027,13.160913)"/>
<use data-text="d" xlink:href="#font_3_1" transform="matrix(5.9778988,0,0,-5.97778,108.9075,14.222944)"/>
<path transform="matrix(1.00005,0,0,-1.00003,60.448076,43.142816)" stroke-width=".3985" stroke-linecap="butt" stroke-miterlimit="10" stroke-linejoin="miter" fill="none" stroke="#000000" d="M-39.86156-25.8504-8.91045-5.77846"/>
<path transform="matrix(.8390319,-.5441163,-.54412719,-.8390152,51.537179,48.921449)" stroke-width=".31879" stroke-linecap="round" stroke-linejoin="round" fill="none" stroke="#000000" d="M-1.19551 1.59401C-1.09587 .99626 0 .09961 .29886 0 0-.09961-1.09587-.99626-1.19551-1.59401"/>
<use data-text="(" xlink:href="#font_4_1" transform="matrix(4.1794698,-2.7104066,-2.7104607,-4.179386,28.61747,61.469678)"/>
<use data-text="5" xlink:href="#font_4_7" transform="matrix(4.1794698,-2.7104066,-2.7104607,-4.179386,30.878563,60.003347)"/>
<use data-text="," xlink:href="#font_5_1" transform="matrix(4.1794698,-2.7104066,-2.7104607,-4.179386,33.72634,58.15655)"/>
<use data-text="2" xlink:href="#font_4_4" transform="matrix(4.1794698,-2.7104066,-2.7104607,-4.179386,36.667154,56.249425)"/>
<use data-text=")" xlink:href="#font_4_2" transform="matrix(4.1794698,-2.7104066,-2.7104607,-4.179386,39.509195,54.406347)"/>
<path transform="matrix(1.00005,0,0,-1.00003,60.448076,43.142816)" stroke-width=".3985" stroke-linecap="butt" stroke-miterlimit="10" stroke-linejoin="miter" fill="none" stroke="#000000" d="M-48.38737-21.21751V20.75923"/>
<path transform="matrix(0,-1.00003,-1.00005,-0,12.058285,22.382962)" stroke-width=".31879" stroke-linecap="round" stroke-linejoin="round" fill="none" stroke="#000000" d="M-1.19551 1.59401C-1.09587 .99626 0 .09961 .29886 0 0-.09961-1.09587-.99626-1.19551-1.59401"/>
<use data-text="(" xlink:href="#font_4_1" transform="matrix(0,-4.9814498,-4.981549,-0,10.116554,50.98404)"/>
<use data-text="2" xlink:href="#font_4_4" transform="matrix(0,-4.9814498,-4.981549,-0,10.116554,48.289064)"/>
<use data-text="," xlink:href="#font_5_1" transform="matrix(0,-4.9814498,-4.981549,-0,10.116554,44.89485)"/>
<use data-text="3" xlink:href="#font_4_5" transform="matrix(0,-4.9814498,-4.981549,-0,10.116554,41.38974)"/>
<use data-text=")" xlink:href="#font_4_2" transform="matrix(0,-4.9814498,-4.981549,-0,10.116554,38.00235)"/>
<path transform="matrix(1.00005,0,0,-1.00003,60.448076,43.142816)" stroke-width=".3985" stroke-linecap="butt" stroke-miterlimit="10" stroke-linejoin="miter" fill="none" stroke="#000000" d="M-38.22536-31.37953H37.76707"/>
<path transform="matrix(1.00005,0,0,-1.00003,98.21703,74.523288)" stroke-width=".31879" stroke-linecap="round" stroke-linejoin="round" fill="none" stroke="#000000" d="M-1.19551 1.59401C-1.09587 .99626 0 .09961 .29886 0 0-.09961-1.09587-.99626-1.19551-1.59401"/>
<use data-text="(" xlink:href="#font_4_1" transform="matrix(4.981549,0,0,-4.9814498,52.60668,78.95689)"/>
<use data-text="5" xlink:href="#font_4_7" transform="matrix(4.981549,0,0,-4.9814498,55.301706,78.95689)"/>
<use data-text="," xlink:href="#font_5_1" transform="matrix(4.981549,0,0,-4.9814498,58.69599,78.95689)"/>
<use data-text="1" xlink:href="#font_4_3" transform="matrix(4.981549,0,0,-4.9814498,62.201166,78.95689)"/>
<use data-text=")" xlink:href="#font_4_2" transform="matrix(4.981549,0,0,-4.9814498,65.58863,78.95689)"/>
<path transform="matrix(1.00005,0,0,-1.00003,60.448076,43.142816)" stroke-width=".3985" stroke-linecap="butt" stroke-miterlimit="10" stroke-linejoin="miter" fill="none" stroke="#000000" d="M-38.22536 31.37953H37.76707"/>
<path transform="matrix(1.00005,0,0,-1.00003,98.21703,11.762342)" stroke-width=".31879" stroke-linecap="round" stroke-linejoin="round" fill="none" stroke="#000000" d="M-1.19551 1.59401C-1.09587 .99626 0 .09961 .29886 0 0-.09961-1.09587-.99626-1.19551-1.59401"/>
<use data-text="(" xlink:href="#font_4_1" transform="matrix(4.981549,0,0,-4.9814498,52.60668,9.819817)"/>
<use data-text="3" xlink:href="#font_4_5" transform="matrix(4.981549,0,0,-4.9814498,55.301706,9.819817)"/>
<use data-text="," xlink:href="#font_5_1" transform="matrix(4.981549,0,0,-4.9814498,58.69599,9.819817)"/>
<use data-text="1" xlink:href="#font_4_3" transform="matrix(4.981549,0,0,-4.9814498,62.201166,9.819817)"/>
<use data-text=")" xlink:href="#font_4_2" transform="matrix(4.981549,0,0,-4.9814498,65.58863,9.819817)"/>
<path transform="matrix(1.00005,0,0,-1.00003,60.448076,43.142816)" stroke-width=".3985" stroke-linecap="butt" stroke-miterlimit="10" stroke-linejoin="miter" fill="none" stroke="#000000" d="M-8.5258 5.52911-39.47691 25.60106"/>
<path transform="matrix(-.8390319,-.5441163,-.54412719,.8390152,20.969193,17.540986)" stroke-width=".31879" stroke-linecap="round" stroke-linejoin="round" fill="none" stroke="#000000" d="M-1.19551 1.59401C-1.09587 .99626 0 .09961 .29886 0 0-.09961-1.09587-.99626-1.19551-1.59401"/>
<use data-text="(" xlink:href="#font_4_1" transform="matrix(4.1794698,2.7104066,2.7104607,-4.179386,30.731484,21.555939)"/>
<use data-text="2" xlink:href="#font_4_4" transform="matrix(4.1794698,2.7104066,2.7104607,-4.179386,32.992578,23.022263)"/>
<use data-text="," xlink:href="#font_5_1" transform="matrix(4.1794698,2.7104066,2.7104607,-4.179386,35.84034,24.869065)"/>
<use data-text="2" xlink:href="#font_4_4" transform="matrix(4.1794698,2.7104066,2.7104607,-4.179386,38.78115,26.776185)"/>
<use data-text=")" xlink:href="#font_4_2" transform="matrix(4.1794698,2.7104066,2.7104607,-4.179386,41.62319,28.619263)"/>
<path transform="matrix(1.00005,0,0,-1.00003,60.448076,43.142816)" stroke-width=".3985" stroke-linecap="butt" stroke-miterlimit="10" stroke-linejoin="miter" fill="none" stroke="#000000" d="M48.38737-21.21751V20.75923"/>
<path transform="matrix(0,-1.00003,-1.00005,-0,108.83786,22.382962)" stroke-width=".31879" stroke-linecap="round" stroke-linejoin="round" fill="none" stroke="#000000" d="M-1.19551 1.59401C-1.09587 .99626 0 .09961 .29886 0 0-.09961-1.09587-.99626-1.19551-1.59401"/>
<use data-text="(" xlink:href="#font_4_1" transform="matrix(0,-4.9814498,-4.981549,-0,113.272708,50.98404)"/>
<use data-text="4" xlink:href="#font_4_6" transform="matrix(0,-4.9814498,-4.981549,-0,113.272708,48.289064)"/>
<use data-text="," xlink:href="#font_5_1" transform="matrix(0,-4.9814498,-4.981549,-0,113.272708,44.89485)"/>
<use data-text="1" xlink:href="#font_4_3" transform="matrix(0,-4.9814498,-4.981549,-0,113.272708,41.38974)"/>
<use data-text=")" xlink:href="#font_4_2" transform="matrix(0,-4.9814498,-4.981549,-0,113.272708,38.00235)"/>
<path transform="matrix(1.00005,0,0,-1.00003,60.448076,43.142816)" stroke-width=".3985" stroke-linecap="butt" stroke-miterlimit="10" stroke-linejoin="miter" fill="none" stroke="#000000" d="M8.5258-5.52911 39.47691-25.60106"/>
<path transform="matrix(.8390319,.5441163,.54412719,-.8390152,99.926959,68.744647)" stroke-width=".31879" stroke-linecap="round" stroke-linejoin="round" fill="none" stroke="#000000" d="M-1.19551 1.59401C-1.09587 .99626 0 .09961 .29886 0 0-.09961-1.09587-.99626-1.19551-1.59401"/>
<use data-text="(" xlink:href="#font_4_1" transform="matrix(4.1794698,2.7104066,2.7104607,-4.179386,79.120899,52.935884)"/>
<use data-text="3" xlink:href="#font_4_5" transform="matrix(4.1794698,2.7104066,2.7104607,-4.179386,81.38199,54.402208)"/>
<use data-text="," xlink:href="#font_5_1" transform="matrix(4.1794698,2.7104066,2.7104607,-4.179386,84.22975,56.24901)"/>
<use data-text="1" xlink:href="#font_4_3" transform="matrix(4.1794698,2.7104066,2.7104607,-4.179386,87.17056,58.156129)"/>
<use data-text=")" xlink:href="#font_4_2" transform="matrix(4.1794698,2.7104066,2.7104607,-4.179386,90.0126,59.999208)"/>
<path transform="matrix(1.00005,0,0,-1.00003,60.448076,43.142816)" stroke-width=".3985" stroke-linecap="butt" stroke-miterlimit="10" stroke-linejoin="miter" fill="none" stroke="#000000" d="M8.5258 5.52911 39.47691 25.60106"/>
<path transform="matrix(.8390319,-.5441163,-.54412719,-.8390152,99.926959,17.540986)" stroke-width=".31879" stroke-linecap="round" stroke-linejoin="round" fill="none" stroke="#000000" d="M-1.19551 1.59401C-1.09587 .99626 0 .09961 .29886 0 0-.09961-1.09587-.99626-1.19551-1.59401"/>
<use data-text="(" xlink:href="#font_4_1" transform="matrix(4.1794698,-2.7104066,-2.7104607,-4.179386,77.00688,30.088742)"/>
<use data-text="3" xlink:href="#font_4_5" transform="matrix(4.1794698,-2.7104066,-2.7104607,-4.179386,79.267978,28.62241)"/>
<use data-text="," xlink:href="#font_5_1" transform="matrix(4.1794698,-2.7104066,-2.7104607,-4.179386,82.11575,26.775616)"/>
<use data-text="3" xlink:href="#font_4_5" transform="matrix(4.1794698,-2.7104066,-2.7104607,-4.179386,85.056568,24.868489)"/>
<use data-text=")" xlink:href="#font_4_2" transform="matrix(4.1794698,-2.7104066,-2.7104607,-4.179386,87.898609,23.02541)"/>
</svg>
