<svg xmlns="http://www.w3.org/2000/svg" xmlns:xlink="http://www.w3.org/1999/xlink" xmlns:inkscape="http://www.inkscape.org/namespaces/inkscape" version="1.1" width="217" height="149" viewBox="0 0 217 149">
<defs>
<path id="font_1_1" d="M.48098756 .3693695C.48098756 .43937684 .44400025 .44337464 .43499757 .44337464 .4099884 .44337464 .38398744 .41638185 .38398744 .39337159 .38398744 .3783722 .3929901 .37036134 .3999939 .36436463 .4269867 .33935548 .43598939 .30734254 .43598939 .28134156 .43598939 .23731995 .37298585 .014251709 .25698854 .014251709 .18199158 .014251709 .18199158 .08427429 .18199158 .10227966 .18199158 .14529419 .19599915 .19630432 .23098755 .28733827 .24699402 .3293457 .25099183 .33935548 .25099183 .35835267 .25099183 .40737916 .21398926 .4423828 .16499329 .4423828 .068984989 .4423828 .0289917 .30033876 .0289917 .28833009 .0289917 .2793274 .035995485 .27633668 .042999269 .27633668 .053985597 .27633668 .054992677 .28233338 .05899048 .29533387 .07998657 .36836244 .11999512 .41737367 .1619873 .41737367 .18199158 .41737367 .18598938 .40437318 .18598938 .3843689 .18598938 .36735536 .18199158 .34934999 .17298889 .3253479 .13699341 .22932434 .11299133 .16529846 .11299133 .11528015 .11299133 .021255494 .18399048-.0107421879 .25299073-.0107421879 .42099-.0107421879 .48098756 .30534364 .48098756 .3693695Z"/>
<path id="font_2_2" d="M.45700074 .37594605C.42799378 .36894227 .4169922 .34394837 .4169922 .32894898 .4169922 .3129425 .42900086 .2959442 .45199586 .2959442 .47200013 .2959442 .5009918 .30995179 .5009918 .35295106 .5009918 .4203949 .4249878 .44140626 .3600006 .44140626 .20698548 .44140626 .16999817 .33995057 .16999817 .2969513 .16999817 .21612549 .2619934 .2001648 .28799439 .19616699 .36299134 .18319702 .42099 .17222595 .42099 .1232605 .42099 .102264408 .4039917 .06626892 .36799623 .04624939 .32899476 .025222779 .28599549 .023223877 .25698854 .023223877 .22200012 .023223877 .1599884 .027236939 .1309967 .060272218 .1659851 .06626892 .18299866 .09326172 .18299866 .117263797 .18299866 .13825989 .16899109 .15527344 .14199829 .15527344 .115997318 .15527344 .083999637 .13426209 .083999637 .087265018 .083999637 .03224182 .13899231-.009765625 .2559967-.009765625 .44299317-.009765625 .48298646 .10626221 .48298646 .15226746 .48298646 .18519593 .46899415 .20814514 .44599916 .22810364 .4139862 .25604249 .3769989 .26202394 .32899476 .27000428 .27999879 .27897645 .23199463 .28697206 .23199463 .325943 .23199463 .32695008 .23199463 .40838624 .35899354 .40838624 .38398744 .40838624 .43399049 .4043274 .45700074 .37594605Z"/>
<path id="font_3_1" d="M.35899354 .6349335C.35899354 .66503909 .35499574 .66503909 .32499696 .66503909 .25898744 .60058596 .15699768 .60058596 .12098694 .60058596V.5615845C.14698792 .5615845 .21299744 .5615845 .272995 .58958438V.08496094C.272995 .051986696 .272995 .038986207 .16999817 .038986207H.1269989V0C.18199158 .0039978029 .2599945 .0039978029 .31599427 .0039978029 .37199403 .0039978029 .44999696 .0039978029 .5049896 0V.038986207H.46199037C.35899354 .038986207 .35899354 .051986696 .35899354 .08496094V.6349335Z"/>
<path id="font_3_2" d="M.5379944 .18702698H.5009918C.49899293 .17301941 .4889984 .10699463 .47399903 .09599304 .46699525 .08999634 .38598634 .08999634 .37199403 .08999634H.18499756L.31298829 .19403076C.34700013 .22103882 .43598939 .28504945 .46699525 .31506349 .49699403 .3450775 .5379944 .39608766 .5379944 .46710206 .5379944 .5920563 .4249878 .66503909 .29100038 .66503909 .1619873 .66503909 .07199097 .58006289 .07199097 .48609925 .07199097 .43510438 .114990238 .42910768 .12599182 .42910768 .15098572 .42910768 .17999268 .44709779 .17999268 .48310853 .17999268 .50509646 .16699219 .5371094 .12298584 .5371094 .1459961 .5880585 .20698548 .6260376 .27598573 .6260376 .3809967 .6260376 .43699647 .5480957 .43699647 .46710206 .43699647 .39608766 .3899994 .32305909 .31999208 .25904847L.08299255 .041992189C.07299805 .03199768 .07199097 .0309906 .07199097 0H.5069885L.5379944 .18702698Z"/>
<path id="font_3_3" d="M.2939911 .33203126C.3789978 .33203126 .43598939 .274765 .43598939 .17237854 .43598939 .062408449 .36999513 .014511108 .29699708 .014511108 .269989 .014511108 .16699219 .020492554 .12199402 .07836914 .16099549 .0823822 .1769867 .10836792 .1769867 .13537598 .1769867 .16937256 .15299988 .19238281 .11999512 .19238281 .09298706 .19238281 .06298828 .17536927 .06298828 .13337708 .06298828 .034469606 .17298889-.021484375 .2999878-.021484375 .44799806-.021484375 .5469971 .07337952 .5469971 .17237854 .5469971 .24562073 .4909973 .3229828 .37199403 .35302735 .45098878 .37902833 .5149994 .44306947 .5149994 .5251007 .5149994 .60505679 .42099 .66503909 .30099488 .66503909 .18399048 .66503909 .09498596 .61105349 .09498596 .5290985 .09498596 .48609925 .12799073 .47409059 .147995 .47409059 .17399597 .47409059 .20098877 .49209596 .20098877 .5270996 .20098877 .5580902 .1789856 .5760956 .1519928 .5800934 .19898987 .6320343 .2899933 .6320343 .29899598 .6320343 .34999085 .6320343 .4139862 .60806277 .4139862 .5251007 .4139862 .47009278 .3829956 .37402345 .2829895 .36802674 .2649994 .36701966 .23799134 .36502076 .22898865 .36502076 .21899414 .36402894 .20799256 .36302186 .20799256 .34802247 .20799256 .33203126 .21899414 .33203126 .23599243 .33203126H.2939911Z"/>
<path id="font_3_4" d="M.56399539 .1640625V.2030487H.44699098V.6448059C.44699098 .6678009 .44699098 .6748047 .42199708 .6748047 .4039917 .6748047 .4019928 .6717987 .3929901 .65979006L.04598999 .2030487V.1640625H.35699464V.08401489C.35699464 .050994874 .35699464 .038986207 .272995 .038986207H.24398804V0C.2639923 .0009918213 .35798646 .0039978029 .4019928 .0039978029 .44599916 .0039978029 .5399933 .0009918213 .55999758 0V.038986207H.5309906C.44699098 .038986207 .44699098 .050994874 .44699098 .08401489V.1640625H.56399539M.3639984 .56585696V.2030487H.08898926L.3639984 .56585696Z"/>
<path id="font_3_5" d="M.16999817 .5549774C.20298767 .54599 .23799134 .5419922 .27198792 .5419922 .2939911 .5419922 .34999085 .5419922 .41299439 .5769806 .42999269 .58699038 .49198915 .6279907 .49198915 .6490326 .49198915 .6620331 .48199464 .66503909 .47799684 .66503909 .47499085 .66503909 .47399903 .66503909 .46299745 .661026 .4269867 .6470337 .37599183 .63298037 .31098939 .63298037 .2619934 .63298037 .20799256 .64201357 .16299439 .6590271 .15299988 .6630249 .14898682 .66503909 .14498902 .66503909 .1309967 .66503909 .1309967 .6540375 .1309967 .6380005V.33787538C.1309967 .32086183 .1309967 .30885316 .14898682 .30885316 .1579895 .30885316 .16099549 .31285096 .16799927 .32086183 .19299317 .35289 .23699951 .38693238 .31498719 .38693238 .43798829 .38693238 .43798829 .23677063 .43798829 .20472718 .43798829 .16567993 .43499757 .10961914 .4019928 .068573 .37098695 .030532837 .32499696 .014511108 .28199769 .014511108 .21299744 .014511108 .14399719 .05255127 .11999512 .11061096 .16899109 .11161804 .1749878 .15066529 .1749878 .16267395 .1749878 .18971253 .1539917 .21372986 .12298584 .21372986 .11399841 .21372986 .07199097 .20872498 .07199097 .15867615 .07199097 .0665741 .15899658-.021484375 .2849884-.021484375 .42199708-.021484375 .5379944 .07557678 .5379944 .20072937 .5379944 .31484986 .44599916 .4189453 .31698609 .4189453 .2519989 .4189453 .20199585 .39793397 .16999817 .37091065V.5549774Z"/>
<path id="font_3_6" d="M.16299439 .33073426C.1639862 .38076783 .1659851 .46383668 .20098877 .52589419 .24499512 .60191348 .31098939 .6320343 .37098695 .6320343 .3939972 .6320343 .43998719 .62802127 .46398927 .5998993 .4269867 .5939026 .42099 .5679016 .42099 .55189517 .42099 .52589419 .43899537 .50390627 .46899415 .50390627 .49899293 .50390627 .5179901 .52290347 .5179901 .55389407 .5179901 .6149597 .47200013 .66503909 .36999513 .66503909 .21499634 .66503909 .06298828 .52989199 .06298828 .31672669 .06298828 .07354736 .17599488-.021484375 .30799867-.021484375 .34700013-.021484375 .4149933-.015487671 .47599793 .043533327 .5079956 .075546268 .5469971 .11558533 .5469971 .2036438 .5469971 .2376709 .54299929 .30171205 .48199464 .3587494 .44699098 .3907776 .40299989 .42578126 .31799317 .42578126 .24798584 .42578126 .19699097 .3897705 .16299439 .33073426M.30699159 .014511108C.1659851 .014511108 .1659851 .18663025 .1659851 .22566223 .1659851 .3117218 .22299195 .3937683 .31298829 .3937683 .36499024 .3937683 .394989 .37275697 .4189911 .34074403 .44699098 .30171205 .44699098 .25668336 .44699098 .2036438 .44699098 .13459778 .44499208 .10057068 .41099549 .060546876 .3869934 .030517579 .35499574 .014511108 .30699159 .014511108Z"/>
<path id="font_3_7" d="M.57099917 .60369876C.5799866 .6137085 .5799866 .6157074 .5799866 .6437073H.32199098C.2809906 .6437073 .25698854 .64471438 .21798706 .64772036 .16899109 .6507416 .15699768 .65174868 .1519928 .67578127H.114990238L.07899475 .45666505H.115997318C.11898804 .4776764 .1289978 .5366974 .14399719 .547699 .1519928 .55371096 .23799134 .55371096 .25299073 .55371096H.47898866C.46798707 .53970339 .4139862 .4756775 .3899994 .44667054 .29299928 .32962037 .22499085 .1875763 .22499085 .03552246 .22499085 .026519776 .22499085-.021484375 .272995-.021484375 .32199098-.021484375 .32199098 .024520874 .32199098 .037521364V.0655365C.32199098 .25759889 .36299134 .3556366 .41299439 .41566468L.57099917 .60369876Z"/>
<path id="font_2_1" d="M.6049957 .66430667C.60598757 .66830447 .60798647 .67430117 .60798647 .67930606 .60798647 .6953125 .58799746 .6943054 .57598879 .69329836L.46398927 .6843109C.44699098 .68330386 .43399049 .682312 .43399049 .65930178 .43399049 .64331057 .44699098 .64331057 .46199037 .64331057 .49198915 .64331057 .49899293 .64131167 .5119934 .63630679 .5109863 .62132266 .5109863 .61932376 .5079956 .60632327 .4869995 .5203552 .47099305 .45339967 .45098878 .38139344 .43699647 .4044037 .40299989 .44140626 .34098817 .44140626 .21299744 .44140626 .07499695 .3073578 .07499695 .16029358 .07499695 .052246095 .15098572-.009765625 .23599243-.009765625 .30299378-.009765625 .3600006 .036239625 .3849945 .06124878 .4039917-.0017700195 .47099305-.009765625 .49299623-.009765625 .5289917-.009765625 .5549927 .010223389 .57398989 .041229249 .598999 .08125305 .61299136 .13928223 .61299136 .14428711 .61299136 .14628601 .6119995 .15829468 .59399417 .15829468 .57899478 .15829468 .57699587 .1512909 .57299807 .13528443 .5569916 .07424927 .5359955 .023223877 .49699403 .023223877 .46299745 .023223877 .45999146 .059249879 .45999146 .07424927 .45999146 .087249759 .45999146 .09025574 .46499635 .10826111L.6049957 .66430667M.3889923 .13127136C.38398744 .11326599 .38398744 .11126709 .36999513 .09625244 .31498719 .034225465 .2639923 .023223877 .23899842 .023223877 .19898987 .023223877 .1599884 .050231935 .1599884 .121276859 .1599884 .16229248 .18099976 .2603302 .21299744 .3173523 .24299622 .37138368 .2939911 .4084015 .34199525 .4084015 .4169922 .4084015 .43598939 .32936097 .43598939 .32235719L.43299867 .3083496 .3889923 .13127136Z"/>
<path id="font_4_2" d="M.58898928 .19296265H.5469971C.5439911 .17396546 .5339966 .11198425 .5179901 .101989749 .5099945 .09599304 .42599488 .09599304 .41099549 .09599304H.21499634C.2809906 .14497376 .35499574 .20095825 .4149933 .24093628 .5049896 .30291749 .58898928 .36090089 .58898928 .46687318 .58898928 .59495547 .46798707 .6660156 .32499696 .6660156 .18998719 .6660156 .09098816 .58795168 .09098816 .48986817 .09098816 .4378662 .1349945 .42886354 .14898682 .42886354 .17599488 .42886354 .20799256 .4468689 .20799256 .48786927 .20799256 .52386477 .18199158 .543869 .15098572 .546875 .1789856 .59194949 .23699951 .6220093 .3039856 .6220093 .40098573 .6220093 .48199464 .5639038 .48199464 .4658661 .48199464 .3818817 .42399598 .31791688 .34700013 .2529297L.102996829 .04598999C.09298706 .036987306 .09199524 .036987306 .09098816 .02999878V0H.55599978L.58898928 .19296265Z"/>
<path id="font_4_1" d="M.397995 .63591006C.397995 .6660156 .394989 .6660156 .3619995 .6660156 .29100038 .6016083 .17999268 .6016083 .1599884 .6016083H.14299011V.5576172H.1599884C.18299866 .5576172 .24798584 .5606079 .30599977 .58561709V.08596802C.30599977 .054977418 .30599977 .04399109 .19999695 .04399109H.1499939V0C.20498657 .0039978029 .2939911 .0039978029 .35198976 .0039978029 .4099884 .0039978029 .49899293 .0039978029 .55400088 0V.04399109H.5039978C.397995 .04399109 .397995 .054977418 .397995 .08596802V.63591006Z"/>
<path id="font_4_3" d="M.32998658 .3310547C.42199708 .3310547 .48298646 .2737732 .48298646 .17437744 .48298646 .07237244 .41999818 .01852417 .33099366 .01852417 .31999208 .01852417 .20098877 .01852417 .1499939 .070373538 .19099427 .07637024 .20298767 .1073761 .20298767 .13137818 .20298767 .16838074 .1749878 .19238281 .14199829 .19238281 .10998535 .19238281 .07998657 .17137146 .07998657 .12937927 .07998657 .025512696 .19799805-.022460938 .33399964-.022460938 .49798585-.022460938 .59999087 .07637024 .59999087 .17337036 .59999087 .25567628 .5269928 .3260193 .41299439 .35205079 .5329895 .3909912 .5649872 .46684266 .5649872 .5228424 .5649872 .60491946 .46299745 .6660156 .33699037 .6660156 .21398926 .6660156 .114990238 .61395266 .114990238 .5238342 .114990238 .47683717 .15299988 .46484376 .17199707 .46484376 .20098877 .46484376 .22898865 .48583985 .22898865 .5218353 .22898865 .5448303 .21699524 .5728302 .18099976 .57884219 .22399903 .625 .31298829 .628006 .33399964 .628006 .40699769 .628006 .45899964 .5908661 .45899964 .5228424 .45899964 .46484376 .42099 .37402345 .31599427 .368042 .28799439 .3670349 .28399659 .3660431 .2579956 .365036 .24699402 .3640442 .23599243 .36305238 .23599243 .34805299 .23599243 .3310547 .24598694 .3310547 .2639923 .3310547H.32998658Z"/>
<path id="font_4_4" d="M.61698916 .1630249V.20703125H.49198915V.64675906C.49198915 .67074587 .4909973 .6767578 .46499635 .6767578 .44499208 .6767578 .44400025 .67575076 .43299867 .66174319L.06298828 .20703125V.1630249H.3959961V.085006717C.3959961 .054000856 .3959961 .04399109 .30899049 .04399109H.27398683V0C.32099916 .0019989014 .38598634 .0039978029 .44400025 .0039978029 .5019989 .0039978029 .56599429 .0019989014 .6139984 0V.04399109H.57899478C.49198915 .04399109 .49198915 .054000856 .49198915 .085006717V.1630249H.61698916M.4039917 .5688019V.20703125H.10998535L.4039917 .5688019Z"/>
</defs>
<path transform="matrix(1,0,0,-1.00008,12.058998,74.52468)" d="M9.96277 0C9.96277 5.50235 5.50235 9.96277 0 9.96277-5.50235 9.96277-9.96277 5.50235-9.96277 0-9.96277-5.50235-5.50235-9.96277 0-9.96277 5.50235-9.96277 9.96277-5.50235 9.96277 0ZM0 0" fill="#7f807f" fill-opacity=".3"/>
<path transform="matrix(1,0,0,-1.00008,12.058998,74.52468)" stroke-width=".3985" stroke-linecap="butt" stroke-miterlimit="10" stroke-linejoin="miter" fill="none" stroke="#000000" d="M9.96277 0C9.96277 5.50235 5.50235 9.96277 0 9.96277-5.50235 9.96277-9.96277 5.50235-9.96277 0-9.96277-5.50235-5.50235-9.96277 0-9.96277 5.50235-9.96277 9.96277-5.50235 9.96277 0ZM0 0"/>
<use data-text="v" xlink:href="#font_1_1" transform="matrix(8.9664,0,0,-8.967117,7.824997,75.956798)"/>
<use data-text="s" xlink:href="#font_2_2" transform="matrix(5.9776,0,0,-5.9780786,12.300995,76.95387)"/>
<path transform="matrix(1,0,0,-1.00008,12.058998,74.52468)" d="M58.35014 31.37953C58.35014 36.8819 53.88972 41.3423 48.38737 41.3423 42.88501 41.3423 38.4246 36.8819 38.4246 31.37953 38.4246 25.87718 42.88501 21.41676 48.38737 21.41676 53.88972 21.41676 58.35014 25.87718 58.35014 31.37953ZM48.38737 31.37953" fill="#7f807f" fill-opacity=".3"/>
<path transform="matrix(1,0,0,-1.00008,12.058998,74.52468)" stroke-width=".3985" stroke-linecap="butt" stroke-miterlimit="10" stroke-linejoin="miter" fill="none" stroke="#000000" d="M58.35014 31.37953C58.35014 36.8819 53.88972 41.3423 48.38737 41.3423 42.88501 41.3423 38.4246 36.8819 38.4246 31.37953 38.4246 25.87718 42.88501 21.41676 48.38737 21.41676 53.88972 21.41676 58.35014 25.87718 58.35014 31.37953ZM48.38737 31.37953"/>
<use data-text="v" xlink:href="#font_1_1" transform="matrix(8.9664,0,0,-8.967117,56.133,44.575288)"/>
<use data-text="1" xlink:href="#font_3_1" transform="matrix(5.9776,0,0,-5.9780786,60.608999,45.572366)"/>
<path transform="matrix(1,0,0,-1.00008,12.058998,74.52468)" d="M58.35014-31.37953C58.35014-25.87718 53.88972-21.41676 48.38737-21.41676 42.88501-21.41676 38.4246-25.87718 38.4246-31.37953 38.4246-36.8819 42.88501-41.3423 48.38737-41.3423 53.88972-41.3423 58.35014-36.8819 58.35014-31.37953ZM48.38737-31.37953" fill="#7f807f" fill-opacity=".3"/>
<path transform="matrix(1,0,0,-1.00008,12.058998,74.52468)" stroke-width=".3985" stroke-linecap="butt" stroke-miterlimit="10" stroke-linejoin="miter" fill="none" stroke="#000000" d="M58.35014-31.37953C58.35014-25.87718 53.88972-21.41676 48.38737-21.41676 42.88501-21.41676 38.4246-25.87718 38.4246-31.37953 38.4246-36.8819 42.88501-41.3423 48.38737-41.3423 53.88972-41.3423 58.35014-36.8819 58.35014-31.37953ZM48.38737-31.37953"/>
<use data-text="v" xlink:href="#font_1_1" transform="matrix(8.9664,0,0,-8.967117,56.133,107.33931)"/>
<use data-text="2" xlink:href="#font_3_2" transform="matrix(5.9776,0,0,-5.9780786,60.608999,108.33639)"/>
<path transform="matrix(1,0,0,-1.00008,12.058998,74.52468)" d="M106.73752 62.75908C106.73752 68.26143 102.27711 72.72185 96.77475 72.72185 91.2724 72.72185 86.81198 68.26143 86.81198 62.75908 86.81198 57.25673 91.2724 52.79631 96.77475 52.79631 102.27711 52.79631 106.73752 57.25673 106.73752 62.75908ZM96.77475 62.75908" fill="#7f807f" fill-opacity=".3"/>
<path transform="matrix(1,0,0,-1.00008,12.058998,74.52468)" stroke-width=".3985" stroke-linecap="butt" stroke-miterlimit="10" stroke-linejoin="miter" fill="none" stroke="#000000" d="M106.73752 62.75908C106.73752 68.26143 102.27711 72.72185 96.77475 72.72185 91.2724 72.72185 86.81198 68.26143 86.81198 62.75908 86.81198 57.25673 91.2724 52.79631 96.77475 52.79631 102.27711 52.79631 106.73752 57.25673 106.73752 62.75908ZM96.77475 62.75908"/>
<use data-text="v" xlink:href="#font_1_1" transform="matrix(8.9664,0,0,-8.967117,104.52,13.192776)"/>
<use data-text="3" xlink:href="#font_3_3" transform="matrix(5.9776,0,0,-5.9780786,108.995998,14.1898579)"/>
<path transform="matrix(1,0,0,-1.00008,12.058998,74.52468)" d="M106.73752 0C106.73752 5.50235 102.27711 9.96277 96.77475 9.96277 91.2724 9.96277 86.81198 5.50235 86.81198 0 86.81198-5.50235 91.2724-9.96277 96.77475-9.96277 102.27711-9.96277 106.73752-5.50235 106.73752 0ZM96.77475 0" fill="#7f807f" fill-opacity=".3"/>
<path transform="matrix(1,0,0,-1.00008,12.058998,74.52468)" stroke-width=".3985" stroke-linecap="butt" stroke-miterlimit="10" stroke-linejoin="miter" fill="none" stroke="#000000" d="M106.73752 0C106.73752 5.50235 102.27711 9.96277 96.77475 9.96277 91.2724 9.96277 86.81198 5.50235 86.81198 0 86.81198-5.50235 91.2724-9.96277 96.77475-9.96277 102.27711-9.96277 106.73752-5.50235 106.73752 0ZM96.77475 0"/>
<use data-text="v" xlink:href="#font_1_1" transform="matrix(8.9664,0,0,-8.967117,104.52,75.956798)"/>
<use data-text="4" xlink:href="#font_3_4" transform="matrix(5.9776,0,0,-5.9780786,108.995998,76.95387)"/>
<path transform="matrix(1,0,0,-1.00008,12.058998,74.52468)" d="M106.73752-62.75908C106.73752-57.25673 102.27711-52.79631 96.77475-52.79631 91.2724-52.79631 86.81198-57.25673 86.81198-62.75908 86.81198-68.26143 91.2724-72.72185 96.77475-72.72185 102.27711-72.72185 106.73752-68.26143 106.73752-62.75908ZM96.77475-62.75908" fill="#7f807f" fill-opacity=".3"/>
<path transform="matrix(1,0,0,-1.00008,12.058998,74.52468)" stroke-width=".3985" stroke-linecap="butt" stroke-miterlimit="10" stroke-linejoin="miter" fill="none" stroke="#000000" d="M106.73752-62.75908C106.73752-57.25673 102.27711-52.79631 96.77475-52.79631 91.2724-52.79631 86.81198-57.25673 86.81198-62.75908 86.81198-68.26143 91.2724-72.72185 96.77475-72.72185 102.27711-72.72185 106.73752-68.26143 106.73752-62.75908ZM96.77475-62.75908"/>
<use data-text="v" xlink:href="#font_1_1" transform="matrix(8.9664,0,0,-8.967117,104.52,138.72081)"/>
<use data-text="5" xlink:href="#font_3_5" transform="matrix(5.9776,0,0,-5.9780786,108.995998,139.7179)"/>
<path transform="matrix(1,0,0,-1.00008,12.058998,74.52468)" d="M155.12491 31.37953C155.12491 36.8819 150.66449 41.3423 145.16214 41.3423 139.65978 41.3423 135.19937 36.8819 135.19937 31.37953 135.19937 25.87718 139.65978 21.41676 145.16214 21.41676 150.66449 21.41676 155.12491 25.87718 155.12491 31.37953ZM145.16214 31.37953" fill="#7f807f" fill-opacity=".3"/>
<path transform="matrix(1,0,0,-1.00008,12.058998,74.52468)" stroke-width=".3985" stroke-linecap="butt" stroke-miterlimit="10" stroke-linejoin="miter" fill="none" stroke="#000000" d="M155.12491 31.37953C155.12491 36.8819 150.66449 41.3423 145.16214 41.3423 139.65978 41.3423 135.19937 36.8819 135.19937 31.37953 135.19937 25.87718 139.65978 21.41676 145.16214 21.41676 150.66449 21.41676 155.12491 25.87718 155.12491 31.37953ZM145.16214 31.37953"/>
<use data-text="v" xlink:href="#font_1_1" transform="matrix(8.9664,0,0,-8.967117,152.90702,44.575288)"/>
<use data-text="6" xlink:href="#font_3_6" transform="matrix(5.9776,0,0,-5.9780786,157.383,45.572366)"/>
<path transform="matrix(1,0,0,-1.00008,12.058998,74.52468)" d="M155.12491-31.37953C155.12491-25.87718 150.66449-21.41676 145.16214-21.41676 139.65978-21.41676 135.19937-25.87718 135.19937-31.37953 135.19937-36.8819 139.65978-41.3423 145.16214-41.3423 150.66449-41.3423 155.12491-36.8819 155.12491-31.37953ZM145.16214-31.37953" fill="#7f807f" fill-opacity=".3"/>
<path transform="matrix(1,0,0,-1.00008,12.058998,74.52468)" stroke-width=".3985" stroke-linecap="butt" stroke-miterlimit="10" stroke-linejoin="miter" fill="none" stroke="#000000" d="M155.12491-31.37953C155.12491-25.87718 150.66449-21.41676 145.16214-21.41676 139.65978-21.41676 135.19937-25.87718 135.19937-31.37953 135.19937-36.8819 139.65978-41.3423 145.16214-41.3423 150.66449-41.3423 155.12491-36.8819 155.12491-31.37953ZM145.16214-31.37953"/>
<use data-text="v" xlink:href="#font_1_1" transform="matrix(8.9664,0,0,-8.967117,152.90702,107.33931)"/>
<use data-text="7" xlink:href="#font_3_7" transform="matrix(5.9776,0,0,-5.9780786,157.383,108.33639)"/>
<path transform="matrix(1,0,0,-1.00008,12.058998,74.52468)" d="M203.51229 0C203.51229 5.50235 199.05187 9.96277 193.54952 9.96277 188.04717 9.96277 183.58675 5.50235 183.58675 0 183.58675-5.50235 188.04717-9.96277 193.54952-9.96277 199.05187-9.96277 203.51229-5.50235 203.51229 0ZM193.54952 0" fill="#7f807f" fill-opacity=".3"/>
<path transform="matrix(1,0,0,-1.00008,12.058998,74.52468)" stroke-width=".3985" stroke-linecap="butt" stroke-miterlimit="10" stroke-linejoin="miter" fill="none" stroke="#000000" d="M203.51229 0C203.51229 5.50235 199.05187 9.96277 193.54952 9.96277 188.04717 9.96277 183.58675 5.50235 183.58675 0 183.58675-5.50235 188.04717-9.96277 193.54952-9.96277 199.05187-9.96277 203.51229-5.50235 203.51229 0ZM193.54952 0"/>
<use data-text="v" xlink:href="#font_1_1" transform="matrix(8.9664,0,0,-8.967117,201.20099,75.9238)"/>
<use data-text="d" xlink:href="#font_2_1" transform="matrix(5.9776,0,0,-5.9780786,205.677,76.98688)"/>
<path transform="matrix(1,0,0,-1.00008,12.058998,74.52468)" stroke-width=".3985" stroke-linecap="butt" stroke-miterlimit="10" stroke-linejoin="miter" fill="none" stroke="#000000" d="M8.5258 5.52911 39.47691 25.60106"/>
<path transform="matrix(.83899,-.5441435,-.5441,-.8390571,51.535909,48.92157)" stroke-width=".31879" stroke-linecap="round" stroke-linejoin="round" fill="none" stroke="#000000" d="M-1.19551 1.59401C-1.09587 .99626 0 .09961 .29886 0 0-.09961-1.09587-.99626-1.19551-1.59401"/>
<use data-text="2" xlink:href="#font_4_2" transform="matrix(4.1792609,-2.710542,-2.7103253,-4.179595,34.450288,59.17098)"/>
<path transform="matrix(1,0,0,-1.00008,12.058998,74.52468)" stroke-width=".3985" stroke-linecap="butt" stroke-miterlimit="10" stroke-linejoin="miter" fill="none" stroke="#000000" d="M8.5258-5.52911 39.47691-25.60106"/>
<path transform="matrix(.83899,.5441435,.5441,-.8390571,51.535909,100.12779)" stroke-width=".31879" stroke-linecap="round" stroke-linejoin="round" fill="none" stroke="#000000" d="M-1.19551 1.59401C-1.09587 .99626 0 .09961 .29886 0 0-.09961-1.09587-.99626-1.19551-1.59401"/>
<use data-text="2" xlink:href="#font_4_2" transform="matrix(4.1792609,2.710542,2.7103253,-4.179595,32.70485,92.57244)"/>
<path transform="matrix(1,0,0,-1.00008,12.058998,74.52468)" stroke-width=".3985" stroke-linecap="butt" stroke-miterlimit="10" stroke-linejoin="miter" fill="none" stroke="#000000" d="M56.9132 36.90866 87.86429 56.9806"/>
<path transform="matrix(.83899,-.5441435,-.5441,-.8390571,99.92329,17.539525)" stroke-width=".31879" stroke-linecap="round" stroke-linejoin="round" fill="none" stroke="#000000" d="M-1.19551 1.59401C-1.09587 .99626 0 .09961 .29886 0 0-.09961-1.09587-.99626-1.19551-1.59401"/>
<use data-text="1" xlink:href="#font_4_1" transform="matrix(4.1792609,-2.710542,-2.7103253,-4.179595,82.83829,27.788468)"/>
<path transform="matrix(1,0,0,-1.00008,12.058998,74.52468)" stroke-width=".3985" stroke-linecap="butt" stroke-miterlimit="10" stroke-linejoin="miter" fill="none" stroke="#000000" d="M56.9132 25.8504 87.86429 5.77846"/>
<path transform="matrix(.83899,.5441435,.5441,-.8390571,99.92329,68.74576)" stroke-width=".31879" stroke-linecap="round" stroke-linejoin="round" fill="none" stroke="#000000" d="M-1.19551 1.59401C-1.09587 .99626 0 .09961 .29886 0 0-.09961-1.09587-.99626-1.19551-1.59401"/>
<use data-text="3" xlink:href="#font_4_3" transform="matrix(4.1792609,2.710542,2.7103253,-4.179595,81.09185,61.18993)"/>
<path transform="matrix(1,0,0,-1.00008,12.058998,74.52468)" stroke-width=".3985" stroke-linecap="butt" stroke-miterlimit="10" stroke-linejoin="miter" fill="none" stroke="#000000" d="M56.9132-25.8504 87.86429-5.77846"/>
<path transform="matrix(.83899,-.5441435,-.5441,-.8390571,99.92329,80.303607)" stroke-width=".31879" stroke-linecap="round" stroke-linejoin="round" fill="none" stroke="#000000" d="M-1.19551 1.59401C-1.09587 .99626 0 .09961 .29886 0 0-.09961-1.09587-.99626-1.19551-1.59401"/>
<use data-text="4" xlink:href="#font_4_4" transform="matrix(4.1792609,-2.710542,-2.7103253,-4.179595,82.83829,90.55249)"/>
<path transform="matrix(1,0,0,-1.00008,12.058998,74.52468)" stroke-width=".3985" stroke-linecap="butt" stroke-miterlimit="10" stroke-linejoin="miter" fill="none" stroke="#000000" d="M56.9132-36.90866 87.86429-56.9806"/>
<path transform="matrix(.83899,.5441435,.5441,-.8390571,99.92329,131.50984)" stroke-width=".31879" stroke-linecap="round" stroke-linejoin="round" fill="none" stroke="#000000" d="M-1.19551 1.59401C-1.09587 .99626 0 .09961 .29886 0 0-.09961-1.09587-.99626-1.19551-1.59401"/>
<use data-text="2" xlink:href="#font_4_2" transform="matrix(4.1792609,2.710542,2.7103253,-4.179595,81.09185,123.95395)"/>
<path transform="matrix(1,0,0,-1.00008,12.058998,74.52468)" stroke-width=".3985" stroke-linecap="butt" stroke-miterlimit="10" stroke-linejoin="miter" fill="none" stroke="#000000" d="M105.30057 5.52911 136.25168 25.60106"/>
<path transform="matrix(.83899,-.5441435,-.5441,-.8390571,148.31067,48.92157)" stroke-width=".31879" stroke-linecap="round" stroke-linejoin="round" fill="none" stroke="#000000" d="M-1.19551 1.59401C-1.09587 .99626 0 .09961 .29886 0 0-.09961-1.09587-.99626-1.19551-1.59401"/>
<use data-text="1" xlink:href="#font_4_1" transform="matrix(4.1792609,-2.710542,-2.7103253,-4.179595,131.22528,59.17098)"/>
<path transform="matrix(1,0,0,-1.00008,12.058998,74.52468)" stroke-width=".3985" stroke-linecap="butt" stroke-miterlimit="10" stroke-linejoin="miter" fill="none" stroke="#000000" d="M105.30057-5.52911 136.25168-25.60106"/>
<path transform="matrix(.83899,.5441435,.5441,-.8390571,148.31067,100.12779)" stroke-width=".31879" stroke-linecap="round" stroke-linejoin="round" fill="none" stroke="#000000" d="M-1.19551 1.59401C-1.09587 .99626 0 .09961 .29886 0 0-.09961-1.09587-.99626-1.19551-1.59401"/>
<use data-text="1" xlink:href="#font_4_1" transform="matrix(4.1792609,2.710542,2.7103253,-4.179595,129.47885,92.57244)"/>
<path transform="matrix(1,0,0,-1.00008,12.058998,74.52468)" stroke-width=".3985" stroke-linecap="butt" stroke-miterlimit="10" stroke-linejoin="miter" fill="none" stroke="#000000" d="M105.30057-57.22995 136.25168-37.158"/>
<path transform="matrix(.83899,-.5441435,-.5441,-.8390571,148.31067,111.68565)" stroke-width=".31879" stroke-linecap="round" stroke-linejoin="round" fill="none" stroke="#000000" d="M-1.19551 1.59401C-1.09587 .99626 0 .09961 .29886 0 0-.09961-1.09587-.99626-1.19551-1.59401"/>
<use data-text="2" xlink:href="#font_4_2" transform="matrix(4.1792609,-2.710542,-2.7103253,-4.179595,133.7313,125.79831)"/>
<path transform="matrix(1,0,0,-1.00008,12.058998,74.52468)" stroke-width=".3985" stroke-linecap="butt" stroke-miterlimit="10" stroke-linejoin="miter" fill="none" stroke="#000000" d="M153.68795-25.8504 184.63906-5.77846"/>
<path transform="matrix(.83899,-.5441435,-.5441,-.8390571,196.69806,80.303607)" stroke-width=".31879" stroke-linecap="round" stroke-linejoin="round" fill="none" stroke="#000000" d="M-1.19551 1.59401C-1.09587 .99626 0 .09961 .29886 0 0-.09961-1.09587-.99626-1.19551-1.59401"/>
<use data-text="2" xlink:href="#font_4_2" transform="matrix(4.1792609,-2.710542,-2.7103253,-4.179595,182.11829,94.416797)"/>
<path transform="matrix(1,0,0,-1.00008,12.058998,74.52468)" stroke-width=".3985" stroke-linecap="butt" stroke-miterlimit="10" stroke-linejoin="miter" fill="none" stroke="#000000" d="M105.30057 57.22995 136.25168 37.158"/>
<path transform="matrix(.83899,.5441435,.5441,-.8390571,148.31067,37.36371)" stroke-width=".31879" stroke-linecap="round" stroke-linejoin="round" fill="none" stroke="#000000" d="M-1.19551 1.59401C-1.09587 .99626 0 .09961 .29886 0 0-.09961-1.09587-.99626-1.19551-1.59401"/>
<use data-text="3" xlink:href="#font_4_3" transform="matrix(4.1792609,2.710542,2.7103253,-4.179595,131.98485,25.944108)"/>
<path transform="matrix(1,0,0,-1.00008,12.058998,74.52468)" stroke-width=".3985" stroke-linecap="butt" stroke-miterlimit="10" stroke-linejoin="miter" fill="none" stroke="#000000" d="M153.68795 25.8504 184.63906 5.77846"/>
<path transform="matrix(.83899,.5441435,.5441,-.8390571,196.69806,68.74576)" stroke-width=".31879" stroke-linecap="round" stroke-linejoin="round" fill="none" stroke="#000000" d="M-1.19551 1.59401C-1.09587 .99626 0 .09961 .29886 0 0-.09961-1.09587-.99626-1.19551-1.59401"/>
<use data-text="3" xlink:href="#font_4_3" transform="matrix(4.1792609,2.710542,2.7103253,-4.179595,180.37186,57.326623)"/>
</svg>
