<svg xmlns="http://www.w3.org/2000/svg" xmlns:xlink="http://www.w3.org/1999/xlink" xmlns:inkscape="http://www.inkscape.org/namespaces/inkscape" version="1.1" width="455" height="459" viewBox="0 0 455 459">
<defs>
<path id="font_1_1" d="M.68499758 .31726075C.68499758 .48518373 .6439972 .6611328 .3789978 .6611328 .116989139 .6611328 .07299805 .48918153 .07299805 .31726075 .07299805 .13934326 .125-.016601563 .3789978-.016601563 .6369934-.016601563 .68499758 .14334107 .68499758 .31726075M.3789978 .039398195C.33999635 .039398195 .25898744 .0493927 .23699951 .13034058 .22399903 .17932129 .22299195 .26028443 .22299195 .33224488 .22299195 .4052124 .22299195 .48417665 .23999024 .53215029 .25698854 .5771332 .30899049 .6051178 .3789978 .6051178 .43798829 .6051178 .49899293 .5851288 .5189972 .52716067 .5349884 .4811859 .5349884 .39822389 .5349884 .33224488 .5349884 .271286 .5349884 .17732239 .519989 .12834168 .49598695 .04838562 .41600038 .039398195 .3789978 .039398195Z"/>
<path id="font_1_3" d="M.23298645 .4913025C.2709961 .4873047 .31098939 .4873047 .31298829 .4873047 .46499635 .4873047 .5549927 .56030276 .5970001 .603302 .6100006 .6163025 .6119995 .6183014 .6119995 .6333008 .6119995 .6382904 .6119995 .66130068 .58999636 .66130068 .58799746 .66130068 .58599856 .66130068 .57899478 .6582947 .5399933 .6483002 .46899415 .629303 .37599183 .629303 .30799867 .629303 .24198914 .6392975 .17599488 .65730288 .1659851 .66130068 .1639862 .66130068 .16099549 .66130068 .13899231 .66130068 .13899231 .6392975 .13899231 .6252899V.32437135C.13899231 .29237367 .14399719 .28536988 .1769867 .28536988 .19799805 .28536988 .19898987 .28637696 .21699524 .30337525 .23199463 .31837464 .27398683 .359375 .38398744 .359375 .5130005 .359375 .5130005 .26637269 .5130005 .2073822 .5130005 .14738465 .5130005 .044387819 .34599305 .044387819 .32899476 .044387819 .25498963 .045394899 .20698548 .08639526 .24398804 .10739136 .24699402 .14138794 .24699402 .15538025 .24699402 .20437622 .20799256 .234375 .16799927 .234375 .13198853 .234375 .08898926 .2093811 .08898926 .15338135 .08898926 .055389406 .18899536-.016601563 .34799195-.016601563 .56999209-.016601563 .6689911 .09138489 .6689911 .2013855 .6689911 .30236817 .58999636 .41537477 .3889923 .41537477 .32899476 .41537477 .2789917 .405365 .23298645 .38136292V.4913025Z"/>
<path id="font_1_2" d="M.45899964 .6231842C.45899964 .654129 .45298768 .6611328 .42099 .6611328H.3999939C.31498719 .5972595 .18598938 .5972595 .16299439 .5972595H.13598633V.53027346H.16299439C.1749878 .53027346 .2519989 .53027346 .32499696 .55526736V.066986087H.14399719V0C.19299317 .0039978029 .33499146 .0039978029 .3919983 .0039978029 .44898988 .0039978029 .59098818 .0039978029 .6399994 0V.066986087H.45899964V.6231842Z"/>
<path id="font_2_1" d="M.33399964 .30233766C.33999635 .32835389 .36299134 .42037965 .43299867 .42037965 .43798829 .42037965 .46199037 .42037965 .48298646 .40734864 .45498658 .402359 .43499757 .37734986 .43499757 .35334779 .43499757 .33735658 .44599916 .31835938 .47299195 .31835938 .49499513 .31835938 .5269928 .3363495 .5269928 .37635804 .5269928 .42837525 .46798707 .4423828 .43399049 .4423828 .37599183 .4423828 .34098817 .38935853 .32899476 .36634828 .3039856 .43237306 .25 .4423828 .22099304 .4423828 .116989139 .4423828 .05999756 .3133545 .05999756 .28834535 .05999756 .27833558 .069992069 .27833558 .07199097 .27833558 .07998657 .27833558 .08299255 .28033448 .084991458 .28933717 .11898804 .39535523 .18499756 .42037965 .21899414 .42037965 .23799134 .42037965 .272995 .4113617 .272995 .35334779 .272995 .32235719 .2559967 .25532533 .21899414 .11528015 .20298767 .053268434 .16799927 .011245728 .12399292 .011245728 .117996219 .011245728 .09498596 .011245728 .07398987 .024276734 .09899902 .029266358 .12098694 .05027771 .12098694 .07827759 .12098694 .105270389 .09899902 .11328125 .083999637 .11328125 .053985597 .11328125 .0289917 .08728027 .0289917 .055267335 .0289917 .009246826 .07899475-.0107421879 .12298584-.0107421879 .18899536-.0107421879 .22499085 .059280397 .22799683 .0652771 .23999024 .028274537 .27598573-.0107421879 .33599855-.0107421879 .43899537-.0107421879 .49598695 .118270877 .49598695 .14328003 .49598695 .1532898 .4869995 .1532898 .48399354 .1532898 .47499085 .1532898 .47299195 .14929199 .47099305 .14228821 .43798829 .03527832 .36999513 .011245728 .33799745 .011245728 .29899598 .011245728 .2829895 .043273927 .2829895 .07727051 .2829895 .09927368 .2889862 .121276859 .2999878 .16529846L.33399964 .30233766Z"/>
<path id="font_3_1" d="M.40899659 .23046875H.6879883C.70199587 .23046875 .72099307 .23046875 .72099307 .25045777 .72099307 .27046205 .70199587 .27046205 .6879883 .27046205H.40899659V.5500183C.40899659 .56399539 .40899659 .5830078 .3889923 .5830078 .36898805 .5830078 .36898805 .56399539 .36898805 .5500183V.27046205H.08898926C.07499695 .27046205 .055999757 .27046205 .055999757 .25045777 .055999757 .23046875 .07499695 .23046875 .08898926 .23046875H.36898805V-.05000305C.36898805-.06401062 .36898805-.08300781 .3889923-.08300781 .40899659-.08300781 .40899659-.06401062 .40899659-.05000305V.23046875Z"/>
<path id="font_2_2" d="M.48599244 .38136292C.48999024 .39537049 .48999024 .39736939 .48999024 .40437318 .48999024 .42237855 .47599793 .43138124 .46099855 .43138124 .45098878 .43138124 .43499757 .42536927 .42599488 .41036988 .42399598 .405365 .41600038 .37435914 .4119873 .35635377 .40499879 .33035279 .397995 .30334474 .3919983 .27633668L.34700013 .09628296C.34298707 .08126831 .2999878 .011245728 .23399353 .011245728 .18299866 .011245728 .17199707 .055267335 .17199707 .0922699 .17199707 .1382904 .18899536 .20030213 .22299195 .28833009 .23899842 .3293457 .24299622 .3403473 .24299622 .36035157 .24299622 .405365 .21099854 .4423828 .16099549 .4423828 .06599426 .4423828 .0289917 .29733277 .0289917 .28833009 .0289917 .27833558 .038986207 .27833558 .040985109 .27833558 .050994874 .27833558 .051986696 .28033448 .056991579 .29634095 .083999637 .3903656 .12399292 .42037965 .1579895 .42037965 .1659851 .42037965 .18299866 .42037965 .18299866 .3883667 .18299866 .36335755 .17298889 .3373413 .1659851 .31834413 .12599182 .21231079 .10798645 .1552887 .10798645 .10827637 .10798645 .019256592 .17098999-.0107421879 .22999573-.0107421879 .2689972-.0107421879 .30299378 .0062561037 .33099366 .03425598 .31799317-.017745972 .30599977-.06674194 .2659912-.11973572 .23999024-.15385437 .20199585-.18309021 .1559906-.18309021 .14199829-.18309021 .09700012-.18005371 .07998657-.14074707 .09599304-.14074707 .10899353-.14074707 .12298584-.1287384 .1329956-.11973572 .14299011-.10673523 .14299011-.08773804 .14299011-.056747438 .115997318-.052734376 .10598755-.052734376 .08299255-.052734376 .049987794-.068740848 .049987794-.11773682 .049987794-.16796875 .09399414-.20507813 .1559906-.20507813 .25898744-.20507813 .3619995-.11373901 .3899994-.00074768069L.48599244 .38136292Z"/>
<path id="font_3_5" d="M.68699648 .32714845C.70199587 .32714845 .72099307 .32714845 .72099307 .34713746 .72099307 .36714173 .70199587 .36714173 .6879883 .36714173H.08898926C.07499695 .36714173 .055999757 .36714173 .055999757 .34713746 .055999757 .32714845 .07499695 .32714845 .08999634 .32714845H.68699648M.6879883 .13284302C.70199587 .13284302 .72099307 .13284302 .72099307 .15284729 .72099307 .17285156 .70199587 .17285156 .68699648 .17285156H.08999634C.07499695 .17285156 .055999757 .17285156 .055999757 .15284729 .055999757 .13284302 .07499695 .13284302 .08898926 .13284302H.6879883Z"/>
<path id="font_3_2" d="M.2939911 .64004519C.2939911 .66400149 .2939911 .6660156 .2709961 .6660156 .20899964 .60227969 .12098694 .60227969 .08898926 .60227969V.57128909C.10899353 .57128909 .16799927 .57128909 .21998596 .5972748V.07902527C.21998596 .042999269 .21699524 .0309906 .1269989 .0309906H.09498596V0C.12998963 .0029907227 .21699524 .0029907227 .25698854 .0029907227 .29699708 .0029907227 .38398744 .0029907227 .4189911 0V.0309906H.3869934C.29699708 .0309906 .2939911 .041992189 .2939911 .07902527V.64004519Z"/>
<path id="font_3_4" d="M.2939911 .16503906V.07800293C.2939911 .041992189 .2919922 .0309906 .21798706 .0309906H.19699097V0C.23799134 .0029907227 .2899933 .0029907227 .33198548 .0029907227 .37399293 .0029907227 .4269867 .0029907227 .46798707 0V.0309906H.44699098C.37298585 .0309906 .37098695 .041992189 .37098695 .07800293V.16503906H.47099305V.19602967H.37098695V.65075686C.37098695 .67074587 .37098695 .6767578 .35499574 .6767578 .34599305 .6767578 .34298707 .6767578 .33499146 .66474917L.027999878 .19602967V.16503906H.2939911M.2999878 .19602967H.055999757L.2999878 .5688019V.19602967Z"/>
<path id="font_3_3" d="M.2899933 .35191346C.37199403 .37893678 .42999269 .4490509 .42999269 .52809146 .42999269 .6100464 .34199525 .6660156 .24598694 .6660156 .14498902 .6660156 .068984989 .60606387 .068984989 .53009036 .068984989 .49710084 .09098816 .47808839 .11999512 .47808839 .15098572 .47808839 .17098999 .50009158 .17098999 .5290985 .17098999 .57910159 .12399292 .57910159 .10899353 .57910159 .13999939 .62802127 .20599365 .64100649 .24198914 .64100649 .2829895 .64100649 .33799745 .6190338 .33799745 .5290985 .33799745 .51708987 .33599855 .45906068 .30999757 .4149933 .27999879 .36691285 .24598694 .36390687 .22099304 .36291505 .21299744 .36190797 .18899536 .35990907 .18199158 .35990907 .17399597 .35890199 .16699219 .35791017 .16699219 .3479004 .16699219 .33691407 .17399597 .33691407 .19099427 .33691407H.23498535C.31698609 .33691407 .35398866 .2686615 .35398866 .17037964 .35398866 .034469606 .2849884 .0055389406 .24099732 .0055389406 .19799805 .0055389406 .12298584 .022491456 .08799744 .08137512 .12298584 .07637024 .1539917 .09837341 .1539917 .1363678 .1539917 .17237854 .1269989 .19238281 .09799194 .19238281 .07398987 .19238281 .041992189 .17837525 .041992189 .1343689 .041992189 .043441774 .1349945-.022460938 .24398804-.022460938 .3659973-.022460938 .45700074 .06838989 .45700074 .17037964 .45700074 .252594 .3939972 .33088685 .2899933 .35191346Z"/>
<path id="font_4_1" d="M.32499696-.24298096C.32499696-.23999024 .32499696-.23799134 .30799867-.22097779 .20799256-.11997986 .1519928 .045013429 .1519928 .24900818 .1519928 .44299317 .19898987 .60998538 .31498719 .7279968 .32499696 .7369995 .32499696 .7389984 .32499696 .74198916 .32499696 .74798586 .31999208 .75 .31599427 .75 .30299378 .75 .22099304 .6779938 .17199707 .5799866 .12098694 .47898866 .09799194 .37199403 .09799194 .24900818 .09799194 .16000366 .11199951 .041015626 .1639862-.06599426 .22299195-.18598938 .30499269-.25097657 .31599427-.25097657 .31999208-.25097657 .32499696-.24897766 .32499696-.24298096Z"/>
<path id="font_4_3" d="M.44799806 .31976319C.44799806 .40283204 .44299317 .48390199 .40699769 .55996707 .3659973 .64302065 .2939911 .66503909 .24499512 .66503909 .18699646 .66503909 .115997318 .63601687 .07899475 .552948 .050994874 .48989869 .040985109 .42785646 .040985109 .31976319 .040985109 .22268677 .04798889 .14962769 .083999637 .078567508 .12298584 .0025177003 .19198609-.021484375 .24398804-.021484375 .33099366-.021484375 .3809967 .030532837 .4099884 .08857727 .44599916 .16363526 .44799806 .26171876 .44799806 .31976319M.24398804-.0014953613C.21199036-.0014953613 .14698792 .016525269 .12799073 .12561035 .116989139 .18565369 .116989139 .26171876 .116989139 .33177186 .116989139 .41384889 .116989139 .48789979 .1329956 .5469513 .1499939 .6139984 .20098877 .6450348 .24398804 .6450348 .28199769 .6450348 .33999635 .6220093 .35899354 .53593447 .37199403 .4788971 .37199403 .39982606 .37199403 .33177186 .37199403 .26472474 .37199403 .18865967 .36099244 .12760926 .34199525 .01751709 .2789917-.0014953613 .24398804-.0014953613Z"/>
<path id="font_5_1" d="M.19499207-.0040130617C.19499207 .053985597 .17599488 .09700012 .1349945 .09700012 .102996829 .09700012 .08699036 .070999149 .08699036 .04899597 .08699036 .026992798 .101989749 0 .13598633 0 .14898682 0 .1599884 .0039978029 .16899109 .0129852299 .17098999 .01499939 .17199707 .01499939 .17298889 .01499939 .1749878 .01499939 .1749878 .0009918213 .1749878-.0040130617 .1749878-.037078859 .16899109-.10221863 .11099243-.1673584 .099990848-.17936707 .099990848-.18136597 .099990848-.18336487 .099990848-.18836975 .10499573-.19335938 .10998535-.19335938 .117996219-.19335938 .19499207-.119262699 .19499207-.0040130617Z"/>
<path id="font_4_2" d="M.28199769 .24900818C.28199769 .32499696 .27198792 .44898988 .21598816 .5649872 .15699768 .68499758 .07499695 .75 .06399536 .75 .05999756 .75 .054992677 .74798586 .054992677 .74198916 .054992677 .7389984 .054992677 .7369995 .07199097 .71998599 .17199707 .61898806 .22799683 .45399476 .22799683 .25 .22799683 .056015016 .18099976-.11099243 .06498718-.22898865 .054992677-.23799134 .054992677-.23999024 .054992677-.24298096 .054992677-.24897766 .05999756-.25097657 .06399536-.25097657 .07699585-.25097657 .15899658-.1789856 .20799256-.08099365 .25898744 .021011353 .28199769 .12901306 .28199769 .24900818Z"/>
<path id="font_4_4" d="M.28799439 .64105227C.28799439 .664032 .28799439 .66503909 .2679901 .66503909 .24398804 .6380615 .19400025 .6012573 .09098816 .6012573V.5722656C.11399841 .5722656 .1639862 .5722656 .21899414 .59825137V.07701111C.21899414 .041000368 .21598816 .0289917 .12799073 .0289917H.09700012V0C.12399292 .0019989014 .22099304 .0019989014 .2539978 .0019989014 .2869873 .0019989014 .3829956 .0019989014 .4099884 0V.0289917H.3789978C.29100038 .0289917 .28799439 .041000368 .28799439 .07701111V.64105227Z"/>
<path id="font_4_6" d="M.36099244 .6508026C.36099244 .6697998 .36099244 .6748047 .34700013 .6748047 .33898927 .6748047 .33599855 .6748047 .32798768 .662796L.026992798 .19598389V.16699219H.2899933V.07598877C.2899933 .038986207 .28799439 .0289917 .21499634 .0289917H.19499207V0C.21798706 .0019989014 .29699708 .0019989014 .32499696 .0019989014 .35299684 .0019989014 .43299867 .0019989014 .45599366 0V.0289917H.43598939C.3639984 .0289917 .36099244 .038986207 .36099244 .07598877V.16699219H.46199037V.19598389H.36099244V.6508026M.29499818 .5728302V.19598389H.051986696L.29499818 .5728302Z"/>
<path id="font_4_5" d="M.18399048 .35888673C.16699219 .35787965 .16299439 .35688783 .16299439 .34788514 .16299439 .33789063 .16799927 .33789063 .18598938 .33789063H.23199463C.31698609 .33789063 .35499574 .267807 .35499574 .17172241 .35499574 .04058838 .2869873 .005508423 .23799134 .005508423 .18998719 .005508423 .10798645 .028564454 .07899475 .09472656 .11099243 .08970642 .13999939 .10771179 .13999939 .14372254 .13999939 .17271424 .11898804 .1927185 .09098816 .1927185 .066986087 .1927185 .040985109 .1787262 .040985109 .14071656 .040985109 .051620485 .12998963-.021484375 .24099732-.021484375 .3600006-.021484375 .44799806 .06965637 .44799806 .17071533 .44799806 .26280213 .37399293 .33488465 .27799989 .35188294 .36499024 .3769226 .42099 .45011903 .42099 .5282135 .42099 .6071167 .33898927 .66503909 .24198914 .66503909 .14199829 .66503909 .067993167 .604126 .067993167 .5312042 .067993167 .49121095 .09899902 .48321534 .11399841 .48321534 .1349945 .48321534 .15899658 .49821473 .15899658 .5282135 .15899658 .5602112 .1349945 .57421877 .11299133 .57421877 .10699463 .57421877 .10499573 .57421877 .101989749 .57321169 .13999939 .641037 .23399353 .641037 .23899842 .641037 .27198792 .641037 .33699037 .6260681 .33699037 .5282135 .33699037 .5092163 .33399964 .453125 .30499269 .41001893 .2749939 .3658905 .24099732 .36288453 .21398926 .36187745L.18399048 .35888673Z"/>
<path id="font_5_2" d="M.42900086 .71299746C.42900086 .71398928 .43499757 .72898867 .43499757 .73098757 .43499757 .7429962 .4249878 .75 .4169922 .75 .4119873 .75 .40299989 .75 .394989 .7279968L.05999756-.2130127C.05999756-.21400452 .053985597-.2290039 .053985597-.23100281 .053985597-.24301148 .06399536-.25 .07199097-.25 .07798767-.25 .08699036-.24900818 .09399414-.22801209L.42900086 .71299746Z"/>
</defs>
<path transform="matrix(1.00006,0,0,-1.00003,42.02868,428.73548)" stroke-width=".19925" stroke-linecap="butt" stroke-miterlimit="10" stroke-linejoin="miter" fill="none" stroke="#cbcbcb" d="M-14.17339 0H425.20213M-14.17339 28.3468H425.20213M-14.17339 56.69362H425.20213M-14.17339 85.04042H425.20213M-14.17339 113.38724H425.20213M-14.17339 141.73404H425.20213M-14.17339 170.08086H425.20213M-14.17339 198.42766H425.20213M-14.17339 226.77448H425.20213M-14.17339 255.12128H425.20213M-14.17339 283.4681H425.20213M-14.17339 311.8149H425.20213M-14.17339 340.1617H425.20213M-14.17339 368.5085H425.20213M-14.17339 396.85533H425.20213M-14.17339 425.19218H425.20213M0-14.17339V425.20213M28.3468-14.17339V425.20213M56.69362-14.17339V425.20213M85.04042-14.17339V425.20213M113.38724-14.17339V425.20213M141.73404-14.17339V425.20213M170.08086-14.17339V425.20213M198.42766-14.17339V425.20213M226.77448-14.17339V425.20213M255.12128-14.17339V425.20213M283.4681-14.17339V425.20213M311.8149-14.17339V425.20213M340.1617-14.17339V425.20213M368.5085-14.17339V425.20213M396.85533-14.17339V425.20213M425.19218-14.17339V425.20213M425.20213 425.20213"/>
<g>
<path transform="matrix(1.00006,0,0,-1.00003,42.02868,428.73548)" d="M0 0V396.85533L283.4681 113.38724 321.2637 0H0" fill="#0000ff" fill-opacity=".4"/>
<path transform="matrix(1.00006,0,0,-1.00003,42.02868,428.73548)" stroke-width=".3985" stroke-linecap="butt" stroke-miterlimit="10" stroke-linejoin="miter" fill="none" stroke="#0000ff" stroke-opacity=".4" d="M0 0V396.85533L283.4681 113.38724 321.2637 0H0"/>
</g>
<path transform="matrix(1.00006,0,0,-1.00003,42.02868,428.73548)" stroke-width="1.19553" stroke-linecap="butt" stroke-miterlimit="10" stroke-linejoin="miter" fill="none" stroke="#000000" d="M-14.17339 0H424.24574"/>
<path transform="matrix(1.00006,0,0,-1.00003,466.29988,428.73548)" stroke-width=".9564" stroke-linecap="round" stroke-linejoin="round" fill="none" stroke="#000000" d="M-1.91284 2.55046C-1.75343 1.59402 0 .15938 .4782 0 0-.15938-1.75343-1.59402-1.91284-2.55046"/>
<path transform="matrix(1.00006,0,0,-1.00003,42.02868,428.73548)" stroke-width="1.19553" stroke-linecap="butt" stroke-miterlimit="10" stroke-linejoin="miter" fill="none" stroke="#000000" d="M0-14.17339V424.24574"/>
<path transform="matrix(0,-1.00003,-1.00006,-0,42.02868,4.4769899)" stroke-width=".9564" stroke-linecap="round" stroke-linejoin="round" fill="none" stroke="#000000" d="M-1.91284 2.55046C-1.75343 1.59402 0 .15938 .4782 0 0-.15938-1.75343-1.59402-1.91284-2.55046"/>
<path transform="matrix(1.00006,0,0,-1.00003,42.02868,428.73548)" stroke-width=".3985" stroke-linecap="butt" stroke-miterlimit="10" stroke-linejoin="miter" fill="none" stroke="#000000" d="M0 .99628V-.99628"/>
<use data-text="0" xlink:href="#font_1_1" transform="matrix(4.9815986,0,0,-4.9814498,40.139566,436.4617)"/>
<path transform="matrix(1.00006,0,0,-1.00003,42.02868,428.73548)" stroke-width=".3985" stroke-linecap="butt" stroke-miterlimit="10" stroke-linejoin="miter" fill="none" stroke="#000000" d="M141.7341 .99628V-.99628"/>
<use data-text="5" xlink:href="#font_1_3" transform="matrix(4.9815986,0,0,-4.9814498,181.88208,436.4617)"/>
<path transform="matrix(1.00006,0,0,-1.00003,42.02868,428.73548)" stroke-width=".3985" stroke-linecap="butt" stroke-miterlimit="10" stroke-linejoin="miter" fill="none" stroke="#000000" d="M283.46824 .99628V-.99628"/>
<use data-text="1" xlink:href="#font_1_2" transform="matrix(4.9815986,0,0,-4.9814498,321.73646,436.4617)"/>
<use data-text="0" xlink:href="#font_1_1" transform="matrix(4.9815986,0,0,-4.9814498,325.5125,436.4617)"/>
<path transform="matrix(1.00006,0,0,-1.00003,42.02868,428.73548)" stroke-width=".3985" stroke-linecap="butt" stroke-miterlimit="10" stroke-linejoin="miter" fill="none" stroke="#000000" d="M425.20234 .99628V-.99628"/>
<use data-text="1" xlink:href="#font_1_2" transform="matrix(4.9815986,0,0,-4.9814498,463.47895,436.4617)"/>
<use data-text="5" xlink:href="#font_1_3" transform="matrix(4.9815986,0,0,-4.9814498,467.25498,436.4617)"/>
<path transform="matrix(1.00006,0,0,-1.00003,42.02868,428.73548)" stroke-width=".3985" stroke-linecap="butt" stroke-miterlimit="10" stroke-linejoin="miter" fill="none" stroke="#000000" d="M.99628 0H-.99628"/>
<use data-text="0" xlink:href="#font_1_1" transform="matrix(4.9815986,0,0,-4.9814498,33.734186,430.3405)"/>
<path transform="matrix(1.00006,0,0,-1.00003,42.02868,428.73548)" stroke-width=".3985" stroke-linecap="butt" stroke-miterlimit="10" stroke-linejoin="miter" fill="none" stroke="#000000" d="M.99628 141.7341H-.99628"/>
<use data-text="5" xlink:href="#font_1_3" transform="matrix(4.9815986,0,0,-4.9814498,33.734186,288.60227)"/>
<path transform="matrix(1.00006,0,0,-1.00003,42.02868,428.73548)" stroke-width=".3985" stroke-linecap="butt" stroke-miterlimit="10" stroke-linejoin="miter" fill="none" stroke="#000000" d="M.99628 283.46824H-.99628"/>
<use data-text="1" xlink:href="#font_1_2" transform="matrix(4.9815986,0,0,-4.9814498,29.956955,146.86402)"/>
<use data-text="0" xlink:href="#font_1_1" transform="matrix(4.9815986,0,0,-4.9814498,33.733,146.86402)"/>
<path transform="matrix(1.00006,0,0,-1.00003,42.02868,428.73548)" stroke-width=".3985" stroke-linecap="butt" stroke-miterlimit="10" stroke-linejoin="miter" fill="none" stroke="#000000" d="M.99628 425.20234H-.99628"/>
<use data-text="1" xlink:href="#font_1_2" transform="matrix(4.9815986,0,0,-4.9814498,29.956955,5.125763)"/>
<use data-text="5" xlink:href="#font_1_3" transform="matrix(4.9815986,0,0,-4.9814498,33.733,5.125763)"/>
<path transform="matrix(1.00006,0,0,-1.00003,42.02868,428.73548)" stroke-width=".79701" stroke-linecap="butt" stroke-miterlimit="10" stroke-linejoin="miter" fill="none" stroke="#000000" d="M0 0V396.85533L283.4681 113.38724 321.2637 0H0"/>
<path transform="matrix(1.00006,0,0,-1.00003,42.02868,428.73548)" stroke-width=".79701" stroke-linecap="butt" stroke-dasharray="2.98883,2.98883" stroke-miterlimit="10" stroke-linejoin="miter" fill="none" stroke="#ff0000" d="M396.85533 0 0 396.85533"/>
<use data-text="x" xlink:href="#font_2_1" transform="matrix(9.963197,0,0,-9.962899,244.1878,224.64534)" fill="#ff0000"/>
<use data-text="+" xlink:href="#font_3_1" transform="matrix(9.963197,0,0,-9.962899,252.09629,224.64534)" fill="#ff0000"/>
<use data-text="y" xlink:href="#font_2_2" transform="matrix(9.963197,0,0,-9.962899,262.05989,224.64534)" fill="#ff0000"/>
<use data-text="=" xlink:href="#font_3_5" transform="matrix(9.963197,0,0,-9.962899,270.06938,224.64534)" fill="#ff0000"/>
<use data-text="1" xlink:href="#font_3_2" transform="matrix(9.963197,0,0,-9.962899,280.57057,224.64534)" fill="#ff0000"/>
<use data-text="4" xlink:href="#font_3_4" transform="matrix(9.963197,0,0,-9.962899,285.55216,224.64534)" fill="#ff0000"/>
<path transform="matrix(1.00006,0,0,-1.00003,42.02868,428.73548)" stroke-width=".79701" stroke-linecap="butt" stroke-dasharray="2.98883,2.98883" stroke-miterlimit="10" stroke-linejoin="miter" fill="none" stroke="#008080" d="M179.52965 425.20213 321.2637 0"/>
<use data-text="3" xlink:href="#font_3_3" transform="matrix(9.963197,0,0,-9.962899,296.1599,210.47191)" fill="#008080"/>
<use data-text="x" xlink:href="#font_2_1" transform="matrix(9.963197,0,0,-9.962899,301.1422,210.47191)" fill="#008080"/>
<use data-text="+" xlink:href="#font_3_1" transform="matrix(9.963197,0,0,-9.962899,309.04969,210.47191)" fill="#008080"/>
<use data-text="y" xlink:href="#font_2_2" transform="matrix(9.963197,0,0,-9.962899,319.0133,210.47191)" fill="#008080"/>
<use data-text="=" xlink:href="#font_3_5" transform="matrix(9.963197,0,0,-9.962899,327.02278,210.47191)" fill="#008080"/>
<use data-text="3" xlink:href="#font_3_3" transform="matrix(9.963197,0,0,-9.962899,337.524,210.47191)" fill="#008080"/>
<use data-text="4" xlink:href="#font_3_4" transform="matrix(9.963197,0,0,-9.962899,342.50556,210.47191)" fill="#008080"/>
<path transform="matrix(1.00006,0,0,-1.00003,42.02868,428.73548)" d="M1.99255 0C1.99255 1.10046 1.10046 1.99255 0 1.99255-1.10046 1.99255-1.99255 1.10046-1.99255 0-1.99255-1.10046-1.10046-1.99255 0-1.99255 1.10046-1.99255 1.99255-1.10046 1.99255 0ZM0 0"/>
<path transform="matrix(1.00006,0,0,-1.00003,42.02868,428.73548)" stroke-width=".3985" stroke-linecap="butt" stroke-miterlimit="10" stroke-linejoin="miter" fill="none" stroke="#000000" d="M1.99255 0C1.99255 1.10046 1.10046 1.99255 0 1.99255-1.10046 1.99255-1.99255 1.10046-1.99255 0-1.99255-1.10046-1.10046-1.99255 0-1.99255 1.10046-1.99255 1.99255-1.10046 1.99255 0ZM0 0"/>
<use data-text="(" xlink:href="#font_4_1" transform="matrix(14.34706,0,0,-14.346631,7.240593,443.0159)"/>
<use data-text="0" xlink:href="#font_4_3" transform="matrix(14.34706,0,0,-14.346631,12.692482,443.0159)"/>
<use data-text="," xlink:href="#font_5_1" transform="matrix(14.34706,0,0,-14.346631,19.72834,443.0159)"/>
<use data-text="0" xlink:href="#font_4_3" transform="matrix(14.34706,0,0,-14.346631,26.02172,443.0159)"/>
<use data-text=")" xlink:href="#font_4_2" transform="matrix(14.34706,0,0,-14.346631,33.037424,443.0159)"/>
<path transform="matrix(1.00006,0,0,-1.00003,42.02868,428.73548)" d="M1.99255 396.85533C1.99255 397.9558 1.10046 398.8479 0 398.8479-1.10046 398.8479-1.99255 397.9558-1.99255 396.85533-1.99255 395.75486-1.10046 394.8628 0 394.8628 1.10046 394.8628 1.99255 395.75486 1.99255 396.85533ZM0 396.85533"/>
<path transform="matrix(1.00006,0,0,-1.00003,42.02868,428.73548)" stroke-width=".3985" stroke-linecap="butt" stroke-miterlimit="10" stroke-linejoin="miter" fill="none" stroke="#000000" d="M1.99255 396.85533C1.99255 397.9558 1.10046 398.8479 0 398.8479-1.10046 398.8479-1.99255 397.9558-1.99255 396.85533-1.99255 395.75486-1.10046 394.8628 0 394.8628 1.10046 394.8628 1.99255 395.75486 1.99255 396.85533ZM0 396.85533"/>
<use data-text="(" xlink:href="#font_4_1" transform="matrix(14.34706,0,0,-14.346631,.21617127,24.761322)"/>
<use data-text="0" xlink:href="#font_4_3" transform="matrix(14.34706,0,0,-14.346631,5.6680605,24.761322)"/>
<use data-text="," xlink:href="#font_5_1" transform="matrix(14.34706,0,0,-14.346631,12.703918,24.761322)"/>
<use data-text="1" xlink:href="#font_4_4" transform="matrix(14.34706,0,0,-14.346631,18.9973,24.761322)"/>
<use data-text="4" xlink:href="#font_4_6" transform="matrix(14.34706,0,0,-14.346631,26.013,24.761322)"/>
<use data-text=")" xlink:href="#font_4_2" transform="matrix(14.34706,0,0,-14.346631,33.028718,24.761322)"/>
<path transform="matrix(1.00006,0,0,-1.00003,42.02868,428.73548)" d="M323.25624 0C323.25624 1.10046 322.36418 1.99255 321.2637 1.99255 320.1632 1.99255 319.27113 1.10046 319.27113 0 319.27113-1.10046 320.1632-1.99255 321.2637-1.99255 322.36418-1.99255 323.25624-1.10046 323.25624 0ZM321.2637 0"/>
<path transform="matrix(1.00006,0,0,-1.00003,42.02868,428.73548)" stroke-width=".3985" stroke-linecap="butt" stroke-miterlimit="10" stroke-linejoin="miter" fill="none" stroke="#000000" d="M323.25624 0C323.25624 1.10046 322.36418 1.99255 321.2637 1.99255 320.1632 1.99255 319.27113 1.10046 319.27113 0 319.27113-1.10046 320.1632-1.99255 321.2637-1.99255 322.36418-1.99255 323.25624-1.10046 323.25624 0ZM321.2637 0"/>
<use data-text="(" xlink:href="#font_4_1" transform="matrix(14.34706,0,0,-14.346631,366.83216,443.0159)"/>
<use data-text="3" xlink:href="#font_4_5" transform="matrix(14.34706,0,0,-14.346631,372.28404,443.0159)"/>
<use data-text="4" xlink:href="#font_4_6" transform="matrix(14.34706,0,0,-14.346631,379.29975,443.0159)"/>
<use data-text="/" xlink:href="#font_5_2" transform="matrix(14.34706,0,0,-14.346631,386.34333,443.0159)"/>
<use data-text="3" xlink:href="#font_4_5" transform="matrix(14.34706,0,0,-14.346631,393.36775,443.0159)"/>
<use data-text="," xlink:href="#font_5_1" transform="matrix(14.34706,0,0,-14.346631,400.39115,443.0159)"/>
<use data-text="0" xlink:href="#font_4_3" transform="matrix(14.34706,0,0,-14.346631,406.6845,443.0159)"/>
<use data-text=")" xlink:href="#font_4_2" transform="matrix(14.34706,0,0,-14.346631,413.70024,443.0159)"/>
<path transform="matrix(1.00006,0,0,-1.00003,42.02868,428.73548)" d="M285.46067 113.38724C285.46067 114.4877 284.56858 115.37979 283.4681 115.37979 282.3676 115.37979 281.47554 114.4877 281.47554 113.38724 281.47554 112.28676 282.3676 111.39468 283.4681 111.39468 284.56858 111.39468 285.46067 112.28676 285.46067 113.38724ZM283.4681 113.38724"/>
<path transform="matrix(1.00006,0,0,-1.00003,42.02868,428.73548)" stroke-width=".3985" stroke-linecap="butt" stroke-miterlimit="10" stroke-linejoin="miter" fill="none" stroke="#000000" d="M285.46067 113.38724C285.46067 114.4877 284.56858 115.37979 283.4681 115.37979 282.3676 115.37979 281.47554 114.4877 281.47554 113.38724 281.47554 112.28676 282.3676 111.39468 283.4681 111.39468 284.56858 111.39468 285.46067 112.28676 285.46067 113.38724ZM283.4681 113.38724"/>
<use data-text="(" xlink:href="#font_4_1" transform="matrix(14.34706,0,0,-14.346631,329.03388,308.23786)"/>
<use data-text="1" xlink:href="#font_4_4" transform="matrix(14.34706,0,0,-14.346631,334.48579,308.23786)"/>
<use data-text="0" xlink:href="#font_4_3" transform="matrix(14.34706,0,0,-14.346631,341.50148,308.23786)"/>
<use data-text="," xlink:href="#font_5_1" transform="matrix(14.34706,0,0,-14.346631,348.54505,308.23786)"/>
<use data-text="4" xlink:href="#font_4_6" transform="matrix(14.34706,0,0,-14.346631,354.83845,308.23786)"/>
<use data-text=")" xlink:href="#font_4_2" transform="matrix(14.34706,0,0,-14.346631,361.85414,308.23786)"/>
<path transform="matrix(1.00006,0,0,-1.00003,42.02868,428.73548)" stroke-width="1.59404" stroke-linecap="butt" stroke-miterlimit="10" stroke-linejoin="miter" fill="none" stroke="#ff0000" d="M141.73404 255.12128 160.92588 274.3131"/>
<path transform="matrix(.70714238,-.7071212,-.70714238,-.7071212,202.96417,154.41413)" stroke-width="1.27522" stroke-linecap="round" stroke-linejoin="round" fill="none" stroke="#ff0000" d="M-2.27148 3.02866C-2.0822 1.8929 0 .18927 .56786 0 0-.18927-2.0822-1.8929-2.27148-3.02866"/>
<path transform="matrix(1.00006,0,0,-1.00003,42.02868,428.73548)" stroke-width="1.59404" stroke-linecap="butt" stroke-miterlimit="10" stroke-linejoin="miter" fill="none" stroke="#008080" d="M302.3657 56.69362 328.11387 65.27635"/>
<path transform="matrix(.94869688,-.3162195,-.31622897,-.9486685,370.16224,363.45719)" stroke-width="1.27522" stroke-linecap="round" stroke-linejoin="round" fill="none" stroke="#008080" d="M-2.27148 3.02866C-2.0822 1.8929 0 .18927 .56786 0 0-.18927-2.0822-1.8929-2.27148-3.02866"/>
<path transform="matrix(1.00006,0,0,-1.00003,42.02868,428.73548)" stroke-width="1.59404" stroke-linecap="butt" stroke-miterlimit="10" stroke-linejoin="miter" fill="none" stroke="#000000" d="M160.63162 0V-27.1413"/>
<path transform="matrix(0,1.00003,1.00006,0,202.66992,455.8776)" stroke-width="1.27522" stroke-linecap="round" stroke-linejoin="round" fill="none" stroke="#000000" d="M-2.27148 3.02866C-2.0822 1.8929 0 .18927 .56786 0 0-.18927-2.0822-1.8929-2.27148-3.02866"/>
<path transform="matrix(1.00006,0,0,-1.00003,42.02868,428.73548)" stroke-width="1.59404" stroke-linecap="butt" stroke-miterlimit="10" stroke-linejoin="miter" fill="none" stroke="#000000" d="M0 198.42766H-27.1413"/>
<path transform="matrix(-1.00006,-0,0,1.00003,14.885752,230.30185)" stroke-width="1.27522" stroke-linecap="round" stroke-linejoin="round" fill="none" stroke="#000000" d="M-2.27148 3.02866C-2.0822 1.8929 0 .18927 .56786 0 0-.18927-2.0822-1.8929-2.27148-3.02866"/>
</svg>
